<?xml version="1.0" encoding="utf-8"?>
<!-- Generator: Adobe Illustrator 19.0.0, SVG Export Plug-In . SVG Version: 6.00 Build 0)  -->
<svg version="1.1" id="Layer_1" xmlns="http://www.w3.org/2000/svg" xmlns:xlink="http://www.w3.org/1999/xlink" x="0px" y="0px"
	 viewBox="-443 379 305 270" style="enable-background:new -443 379 305 270;" xml:space="preserve">
<style type="text/css">
	.st0{opacity:0.1;fill:#EF4849;enable-background:new    ;}
	.st1{fill:none;stroke:#B0AFB0;stroke-width:1.5;stroke-miterlimit:10;}
	.st2{fill:#EF4849;}
	.st3{font-family:'GoodDog';}
	.st4{font-size:23px;}
	.st5{fill:#333333;}
	.st6{font-family:'Cavorting-Regular';}
	.st7{font-size:15px;}
	.st8{font-size:17px;}
	.st9{fill:#D82629;}
	.st10{fill:#EE2E39;}
	.st11{fill:#EF475A;}
	.st12{opacity:0.5;fill:#F58E95;enable-background:new    ;}
	.st13{fill:#FFFFFF;}
	.st14{font-size:21px;}
</style>
<rect x="-283.1" y="434.8" class="st0" width="112.5" height="160.8"/>
<line class="st1" x1="-390.1" y1="435.2" x2="-168.1" y2="434.3"/>
<line class="st1" x1="-390.1" y1="514.7" x2="-168.1" y2="515.2"/>
<line class="st1" x1="-390.1" y1="595.2" x2="-168.1" y2="596.3"/>
<text transform="matrix(1 0 0 1 -311.9358 406.25)" class="st2 st3 st4">Visits</text>
<text transform="matrix(1 0 0 1 -412.8508 439.0674)" class="st5 st6 st7">70</text>
<text transform="matrix(1 0 0 1 -411.156 519.3164)" class="st5 st6 st7">35</text>
<text transform="matrix(1 0 0 1 -406.2209 600.0674)" class="st5 st6 st7">0</text>
<path class="st2" d="M-337.8,639.6c-5.1,0.1-10.2,0-15.4,0c-1.9,0-1.9,3,0,3c5.1,0,10.2,0.1,15.4,0
	C-335.9,642.6-335.9,639.6-337.8,639.6z"/>
<g>
	<text transform="matrix(1 0 0 1 -329.1268 643.8164)" class="st5 st3 st8">weekly average</text>
</g>
<g>
	<text transform="matrix(1 0 0 1 -202.3182 613.833)" class="st5 st3 st8">weeks</text>
</g>
<path class="st5" d="M-284,582.8c-0.2,1.1-0.2,2.1-0.2,3.2c0,1,1.5,1,1.5,0c0-0.9,0-1.9,0.1-2.8C-282.4,582.3-283.8,581.8-284,582.8
	z"/>
<path class="st5" d="M-282.9,575.5c-0.2-0.9-1.7-0.5-1.4,0.4c0.3,1.2,0.1,2.4,0.1,3.6c0,1,1.5,1,1.5,0
	C-282.7,578.1-282.5,576.8-282.9,575.5z"/>
<path class="st5" d="M-284.3,569.3v2.5c0,1,1.5,1,1.5,0v-2.5C-282.8,568.4-284.3,568.4-284.3,569.3z"/>
<path class="st5" d="M-284.5,560v3.3c0,1,1.5,1,1.5,0V560C-283,559-284.5,559-284.5,560z"/>
<path class="st5" d="M-284.5,553.8v3c0,1,1.5,1,1.5,0v-3C-283,552.9-284.5,552.9-284.5,553.8z"/>
<path class="st5" d="M-284.3,547v3.2c0,1,1.5,1,1.5,0V547C-282.8,546-284.3,546-284.3,547z"/>
<path class="st5" d="M-284.7,541v2.5c0,1,1.5,1,1.5,0V541C-283.2,540-284.7,540-284.7,541z"/>
<path class="st5" d="M-283,536.8c-0.2-0.7-0.1-1.4-0.1-2.1c0-1-1.5-1-1.5,0c0,0.8,0,1.7,0.2,2.5C-284.3,538.1-282.8,537.7-283,536.8
	z"/>
<path class="st5" d="M-283.2,527.2c0-1-1.5-1-1.5,0c0,1.5-0.1,3,0.2,4.5c0.2,0.9,1.6,0.5,1.4-0.4
	C-283.3,529.9-283.2,528.5-283.2,527.2z"/>
<path class="st5" d="M-283.2,485.2c0-1-1.5-1-1.5,0c0,1.5-0.1,3,0.2,4.5c0.2,0.9,1.6,0.5,1.4-0.4
	C-283.3,487.9-283.2,486.5-283.2,485.2z"/>
<path class="st5" d="M-284.3,521.2v2.5c0,1,1.5,1,1.5,0v-2.5C-282.8,520.2-284.3,520.2-284.3,521.2z"/>
<path class="st5" d="M-283,513.6c-0.1-1-1.6-0.5-1.4,0.4c0.2,1.1,0.2,2.1,0.3,3.2c0.1,1,1.6,0.5,1.4-0.4
	C-282.9,515.8-282.9,514.7-283,513.6z"/>
<path class="st5" d="M-283.2,507c-0.3-0.9-1.7-0.5-1.4,0.4c0.3,1,0.3,2.1,0.5,3.1c0.1,0.9,1.6,1,1.5,0
	C-282.8,509.3-282.8,508.1-283.2,507z"/>
<path class="st5" d="M-282.7,503.3c-0.2-0.7-0.1-1.5-0.1-2.3c0-1-1.5-1-1.5,0c0,0.9,0,1.8,0.2,2.7
	C-283.9,504.6-282.5,504.2-282.7,503.3z"/>
<path class="st5" d="M-282.8,494c0-1-1.5-1-1.5,0c0,1.1,0,2.2,0.2,3.4c0.1,1,1.6,0.5,1.4-0.4C-282.8,496-282.8,495-282.8,494z"/>
<path class="st5" d="M-284,470.8v3.8c0,1,1.5,1,1.5,0v-3.8C-282.5,469.9-284,469.9-284,470.8z"/>
<path class="st5" d="M-284.2,464.5v2.5c0,1,1.5,1,1.5,0v-2.5C-282.7,463.5-284.2,463.5-284.2,464.5z"/>
<path class="st5" d="M-284.2,479.5v2.5c0,1,1.5,1,1.5,0v-2.5C-282.7,478.5-284.2,478.5-284.2,479.5z"/>
<path class="st5" d="M-284,457.3c-0.3,1.2-0.4,2.5-0.2,3.7c0.1,0.9,1.6,1,1.5,0c-0.1-1.1-0.1-2.2,0.1-3.3
	C-282.3,456.8-283.7,456.4-284,457.3z"/>
<path class="st5" d="M-283.7,451.7c0,0.8,0,1.5-0.1,2.3c-0.2,0.9,1.3,1.3,1.4,0.4c0.2-0.9,0.2-1.8,0.2-2.7
	C-282.2,450.7-283.7,450.7-283.7,451.7z"/>
<path class="st5" d="M-284,445.8v1.7c0,1,1.5,1,1.5,0v-1.7C-282.5,444.9-284,444.9-284,445.8z"/>
<path class="st5" d="M-284,438c-0.2,1.1-0.2,2.2-0.2,3.4c0,1,1.5,1,1.5,0c0-1,0-2,0.1-3C-282.4,437.4-283.8,437-284,438z"/>
<path class="st5" d="M-282.3,430.8c0-0.3-0.1-0.5-0.3-0.6v-2.1c0-1-1.5-1-1.5,0v5.3c0,0.9,1.3,1,1.5,0.2c0.1-0.1,0.2-0.3,0.2-0.5
	C-282.5,432.4-282.3,431.6-282.3,430.8z"/>
<path class="st5" d="M-283,591.8c0-1-1.5-1-1.5,0v6.3c0,0.5,0.4,0.7,0.8,0.7c0.5,0.1,1.1-0.3,1-0.9C-283,595.9-283,593.9-283,591.8z
	"/>
<g>
	<text transform="matrix(1 0 0 1 -263.1936 426.833)" class="st5 st3 st8">with SaleSim</text>
</g>
<g>
	<path class="st9" d="M-273.2,608c0-0.3-0.2-0.4-0.4-0.3c-2.9-1.9-6-3.4-9-5c0,0,0,0,0,0c0-0.5-0.7-0.5-0.7,0
		c0,3.7,0.2,7.4,0.2,11.1c0,0.1,0.1,0.2,0.1,0.3c0,0.1,0,0.2,0.2,0.3c2.9,1.6,6,2.9,8.6,5c0.1,0,0.1,0.1,0.2,0.1
		c0.1,0.4,0.7,0.4,0.7-0.1c-0.1-2,0-4-0.1-5.9c0-0.1,0.1-0.1,0.1-0.2C-273.3,611.5-273.2,609.8-273.2,608z"/>
	<path class="st10" d="M-284,613.1c-0.5-3.2,0.1-6.4-0.2-9.6c0,0,0-0.1,0-0.1c0,0,0,0,0,0c0.4-0.3-0.2-0.8-0.5-0.5
		c-2.6,2.1-5.9,3.6-8.7,5.2c0,0-0.1,0.1-0.1,0.1c-0.1,0-0.2,0.1-0.3,0.2c-0.1,0.1-0.2,0.2-0.2,0.3c0,0.2,0.1,0.3,0.1,0.5v10
		c0,0.4,0.6,0.5,0.7,0.1c0.1,0,0.1,0,0.2-0.1c2.6-2.1,5.6-3.7,8.4-5.5c0.1-0.1,0.1-0.1,0.2-0.2C-284.2,613.6-283.9,613.4-284,613.1z
		"/>
	<path class="st11" d="M-274.4,620c-1.1-0.9-2.5-1.4-3.8-2c-1.8-0.8-3.3-2.2-5.1-3.1c-0.1,0-0.1,0-0.2,0c-0.1-0.1-0.3-0.2-0.5-0.1
		c-0.1,0-0.1,0.1-0.1,0.2c-0.1,0-0.2,0-0.3,0c-2.6,1.7-5.3,3.2-8.1,4.7c-0.1,0.1-0.2,0.2-0.2,0.3c-0.3,0-0.5,0.5-0.2,0.7
		c3,1.7,6.1,3.4,8.9,5.4c0.2,0.2,0.5,0,0.5-0.2c0.1,0.1,0.2,0.1,0.3,0c2.7-1.9,6-2.8,8.4-5.1c0.1-0.1,0.1-0.1,0.1-0.2
		C-274.3,620.5-274.1,620.2-274.4,620z"/>
	<path class="st12" d="M-276.3,609.9c-1.9-2-4.9-2.5-7.2-4c-0.1-0.1-0.2-0.1-0.3,0c-0.1,0-0.1,0-0.2,0c-2.1,1.1-4.1,2.5-6.2,3.5
		c-0.1,0-0.1,0.1-0.1,0.1c-0.1,0-0.1,0-0.2,0c-0.5-0.1-0.7,0.6-0.2,0.7c0.2,0,0.4,0.1,0.6,0.2c0,0,0.1,0.1,0.1,0.1
		c0.7,0.3,1.4,0.6,2.1,0.9c1.3,0.8,2.5,1.8,3.9,2.3c0,0,0,0,0,0c0.1,0.1,0.1,0.1,0.2,0.1c0,0,0,0,0,0c0.1,0.1,0.1,0.1,0.2,0.2
		c0,0.2,0.3,0.4,0.5,0.3c2.1-1.2,4.1-2.6,6.2-3.9c0,0,0,0,0,0C-276.5,610.7-276,610.2-276.3,609.9z"/>
	<path class="st12" d="M-290.9,610.7c-0.7,2.7,0.5,5.5,0.3,8.2c0,0.1,0,0.2,0.1,0.3c0,0.1,0.1,0.1,0.1,0.1c2.1,1.2,4.2,2.2,6.3,3.5
		c0.1,0,0.1,0.1,0.2,0.1c0,0.1,0,0.1,0.1,0.2c0.2,0.4,0.9,0.2,0.7-0.2c-0.1-0.2-0.1-0.4-0.2-0.6c0,0,0-0.1,0-0.2
		c-0.1-0.8-0.2-1.5-0.3-2.3c0-1.5,0.2-3-0.1-4.6c0,0,0,0,0,0c0-0.1,0-0.2-0.1-0.2c0,0,0,0,0,0c0-0.1,0-0.2,0-0.3
		c0.2-0.2,0.2-0.5-0.1-0.6c-2.1-1.1-4.4-2.1-6.5-3.2c0,0,0,0,0,0C-290.1,610.4-290.8,610.2-290.9,610.7z"/>
	<path class="st12" d="M-282.6,623.3c2.6-0.8,4.4-3.4,6.7-4.7c0.1-0.1,0.2-0.2,0.2-0.2c0-0.1,0.1-0.1,0-0.2
		c-0.1-2.4-0.4-4.8-0.5-7.2c0-0.1,0-0.1-0.1-0.2c0-0.1,0.1-0.1,0.1-0.1c0.3-0.4-0.3-0.9-0.6-0.5c-0.1,0.2-0.3,0.3-0.4,0.5
		c0,0-0.1,0-0.1,0.1c-0.6,0.5-1.2,1-1.8,1.5c-1.3,0.8-2.7,1.5-3.8,2.5c0,0,0,0,0,0c-0.1,0-0.1,0.1-0.1,0.2c0,0,0,0,0,0
		c-0.1,0-0.2,0.1-0.3,0.1c-0.2,0-0.5,0.1-0.5,0.4c0.2,2.4,0.6,4.8,0.8,7.2c0,0,0,0,0,0C-283.3,622.8-283.1,623.5-282.6,623.3z"/>
</g>
<path class="st2" d="M-187.5,552.6c-9.8,2-19.7,3.5-29.5,5.5c-0.3,0.1-0.5,0.2-0.6,0.3c-7.6-9.5-16.6-17.9-22.7-28.6
	c-0.2-0.3-0.4-0.5-0.6-0.6c-0.5-0.6-1.5-0.8-2.2-0.2c-10.1,8.2-20.3,16.4-30.4,24.6c-0.1,0-0.3,0-0.5,0c-7.8,1.5-15.8,2.2-23.5,4
	c-0.6,0.1-0.9,0.5-1,0.9c-0.3,0-0.6,0.1-0.9,0.2c-10,6.6-19.3,14.2-29.5,20.5c-0.1,0.1-0.2,0.2-0.3,0.3c-8.3-0.1-16.6-0.9-24.9-1
	c-0.1,0-0.2,0-0.3,0c-5.1-3.3-10.2-6.7-15.5-9.8c-0.7-0.4-1.4-0.2-1.9,0.4c-0.2,0-0.4,0-0.6,0.1c-5.7,2.6-11.5,5-17,8
	c-1.7,0.9-0.2,3.5,1.5,2.6c5.5-3,11.3-5.4,17-8c0.1,0,0.1-0.1,0.2-0.1c5.4,3.2,10.6,6.7,15.8,10.1c0.7,0.5,1.4,0.2,1.8-0.3
	c8.2,0.1,16.3,0.9,24.4,1c0.6,0,1-0.3,1.3-0.7c0,0,0,0,0,0c10.2-6.3,19.5-13.9,29.5-20.5c0.3-0.2,0.5-0.5,0.6-0.8c0.2,0,0.3,0,0.5,0
	c7.3-1.7,14.9-2.4,22.3-3.8c0.5,0.3,1.2,0.4,1.9-0.1l30.2-24.4c6.2,10.5,15.1,18.9,22.7,28.4c0.6,0.8,1.5,0.6,2.1,0
	c0.3,0.3,0.8,0.5,1.4,0.4c9.8-2,19.7-3.5,29.5-5.5C-184.8,555.1-185.6,552.2-187.5,552.6z"/>
<path class="st2" d="M-224.1,459c-16.6-1.7-33.5,10.2-34.5,27.5c-0.7,14,10,28.1,23.8,30c0.6,1.3,1.4,2.7,1.9,3.9
	c1.2,2.3,2.3,5.1,4,7.1c1.1,1.2,2.7,0,2.5-1.3c0,0,0,0,0,0c0.5-2,1.2-3.9,1.9-5.8c0.5-1.3,1.2-3.1,2.1-4.5
	c10.7-1.6,21.5-9.4,24.3-18.6C-192.7,480.3-206.9,460.7-224.1,459z M-238,464.3c0-0.1-0.1-0.2-0.1-0.2c0,0-0.1-0.1-0.1-0.1
	c0.5-0.2,1.1-0.4,1.7-0.6c0,0.1,0,0.1,0,0.2l0.1,0.7C-236.9,464-237.5,464-238,464.3z M-231.8,463c-0.5-0.5-1.3-0.4-1.8,0
	c0-0.1,0-0.1-0.1-0.2c0-0.1,0-0.1-0.1-0.2c1-0.2,2-0.4,3.1-0.6C-231.1,462.2-231.6,462.5-231.8,463z M-222.2,463.1
	c-0.5-0.2-1.2,0-1.6,0.4c-0.2-0.5-0.4-1-0.6-1.4c0-0.1-0.1-0.1-0.1-0.2c0.8,0.1,1.7,0.2,2.5,0.4
	C-222.2,462.5-222.2,462.8-222.2,463.1z"/>
<text transform="matrix(1 0 0 1 -246.3713 494.4009)" class="st13 st6 st14">+82%</text>
</svg>
