<?xml version="1.0" encoding="utf-8"?>
<!-- Generator: Adobe Illustrator 19.0.0, SVG Export Plug-In . SVG Version: 6.00 Build 0)  -->
<svg version="1.1" id="Layer_1" xmlns="http://www.w3.org/2000/svg" xmlns:xlink="http://www.w3.org/1999/xlink" x="0px" y="0px"
	 viewBox="-443 379 305 270" style="enable-background:new -443 379 305 270;" xml:space="preserve">
<style type="text/css">
	.st0{enable-background:new    ;}
	.st1{fill:#EF4849;}
	.st2{fill:#333333;}
	.st3{opacity:0.1;fill:#EF4849;enable-background:new    ;}
	.st4{fill:none;stroke:#B0AFB0;stroke-width:1.5;stroke-miterlimit:10;}
	.st5{fill:#FFFFFF;}
	.st6{fill:#D82629;}
	.st7{fill:#EE2E39;}
	.st8{fill:#EF475A;}
	.st9{opacity:0.5;fill:#F58E95;enable-background:new    ;}
</style>
<g class="st0">
	<path class="st1" d="M-348.5,390.4c0.2-0.9,2.1-1.2,2.2-0.2c0.6,3.8-1.4,7.6-0.5,11.5c1.4,0,3.2,0,4.6-0.6c0.4-0.3,0.9-0.5,1.4-0.3
		c0.4,0.4,1,1.2,0.8,1.4c-2.1,2.5-5.7,0.6-8.6,2c-1.4-0.9-0.8-2.7-0.8-4.2C-349.4,396.8-349.1,393.7-348.5,390.4z"/>
	<path class="st1" d="M-338.6,395.8c0.3-0.6,1.1-0.8,1.8-0.5c0.4,0.2,0.9,0.7,0.5,1.1c-0.7,1-0.3,2-0.6,2.9c-0.4,1.1,0.3,2.1,0,3.2
		c0,0.1-0.1,0.3-0.2,0.3c-0.7,0.2-1.6,0.3-1.8-0.4c-0.4-1.3-0.1-2.7-0.1-4C-339,397.5-339,396.6-338.6,395.8z M-338.1,391.6
		c0.7-0.4,1.7-0.4,2.1,0.2c0.4,0.6-0.2,1.7-0.6,1.9c-0.5,0.3-1.2,0.2-1.8-0.4C-338.8,392.8-338.4,391.8-338.1,391.6z"/>
	<path class="st1" d="M-328.6,393.4c0.2,0.1,0.5,0.3,0.5,0.7c-1.5,3.2-0.7,6.6-0.5,10c0.1,1.2,0.1,2.6-1,3.2c-1.8,1-4.5,0.1-5.2-1.9
		c-0.3-0.9,1-1.4,1.4-0.9c0.7,0.7,1.3,2,2.6,1.8c0.3-0.1,0.3-0.4,0.4-0.6c0.3-2,0-3.9-0.4-6c0-0.2,0.3-0.9-0.2-0.6
		c-0.9,0.5-1.8,0.8-2.6,0.4c-0.6-0.3-1-0.8-1.3-1.4c-0.5-1.3-0.4-2.7,0.8-3.7C-332.6,393.2-330.4,392.4-328.6,393.4z M-333.3,396.8
		c0.1,0.6,0.3,1.6,0.9,1.6c0.9,0.1,1.1-1.1,1.6-1.9c0.3-0.4,0.3-1.3,0.1-1.7c-0.3-0.5-1.3,0-1.8,0.4
		C-333.2,395.5-333.4,396.1-333.3,396.8z"/>
	<path class="st1" d="M-323,403.9c-1.6-0.3-3.5-0.2-4.4-1.7c-0.6-0.8-0.4-2.5,0.2-3.2c1.9-2.5,5.1-1.7,5.2-1.8
		c0.2-0.3,0.3-1.4-0.2-1.4c-1.4-0.3-2.2,0.3-3.4,0.7c-0.9,0.3-1.1-1.5-0.9-1.7c1.7-1.1,5.1-1.8,6.1,0.4c0.9,2-0.2,3.9-0.3,6
		c-0.1,1.4-0.2,4.5-1.5,3.6C-322.6,404.5-322.6,403.9-323,403.9z M-322.3,398.8c-1.3,0.5-3.7,0.1-3.7,2.1c0,1,3.2,1.5,3.4,1.1
		C-322.4,400.8-321.8,400-322.3,398.8z"/>
	<path class="st1" d="M-314.1,406.5c-0.5,0.5-2,0.7-2.9,0.3c-0.8-0.5-0.8-0.9-0.3-1.4s1.3,0.3,1.8-0.1c0.3-0.3,0-1.2,0.1-1.7
		c-0.5-0.1-1-0.2-1.4-0.3c-2.1-0.6-3.3-2.8-2.9-5c0.3-1.5,0.9-2.6,1.9-3.5c1.3-1.1,2.9-2.8,4.6-2c0.3,0.1,0.5,0.4,0.3,0.9
		c-0.5,1.4-1.8,1.3-2.9,2.1c-0.9,0.7-1.7,1.6-1.8,2.8c0,0.6,0.1,1.5,0.5,2.1c0.5,0.8,1.3,0.9,2.1,1.1c1.2,0.5,2-1.2,3-1.2
		c1-0.1,0.4,1.4,0.1,1.7c-0.5,0.8-1.2,1.2-2,1.3c0.1,0,0.1,0.1,0.1,0.1C-313.5,403.9-313.6,406-314.1,406.5z"/>
	<path class="st1" d="M-307.1,388.3c0.7,0.4,0.4,1.3,0.9,1.9c0.8,1.1,0.9-0.5,2.2-1.1c0.6-0.2,0.9,0.4,0.7,0.8
		c-1.2,1.8-1.7,2.3-3.1,2.3c-0.6,0-1.1-0.4-1.4-1.1c-0.2-0.6-0.4-1-0.7-0.9c-1.6,0.5-0.9,2.1-2.9,1.7c-0.3-0.1-0.3-0.7-0.1-1
		c0.6-0.9,0.5-0.9,1.3-1.7C-309.3,388.4-308.4,387.5-307.1,388.3z M-310.6,396.6c0.4-1.3,1.2-2,1.5-2.6c0.6-1.2,2.2-0.9,3,0.1
		c0.6,0.7,0.9,1.5,1.1,2.3c0.5,1.8-0.4,3.4-1.6,4.6c-0.5,0.5-1.7,0.6-2.3,0.2C-310.5,400.3-311.1,398.4-310.6,396.6z M-307.6,395.8
		c-0.5-0.5-3,2.6-0.6,3.2C-306.5,399.3-306.3,397.1-307.6,395.8z"/>
	<path class="st1" d="M-300.4,394.2c1.8,0.3,3.4,2,3.4,3.9c-0.4,1.1-2.9,2-3.8,2.9c-0.1,0-0.5,0.3-0.4,0.5c0.8,1.4,2.3,0.8,3.6,0.1
		c0.8,0.6,0.4,2-0.6,2.1c-1,0.2-2.2,0.4-3.3,0c-2.3-1-2.8-3.6-2.9-5.8C-304.4,395.5-302.7,393.8-300.4,394.2z M-299.3,397.5
		c0.5-1.1-1.4-1.7-2.3-1.3c-1,0.5-0.7,2.7-0.2,2.7C-300.7,398.9-299.7,398.6-299.3,397.5z"/>
	<path class="st1" d="M-289.2,395.8c0.2,0.3-0.1,1-0.4,1.2c-1.2,0.7-2.8-2-4.5-0.9c-0.7,0.4,0.4,1.5,0.9,1.7c1.4,0.5,2.6,1,3.6,2
		c0.7,0.6,0.4,1.9-0.1,2.7c-1.2,2-5.4,3.1-6.8,0.3c-0.3-0.6,0.4-1.4,1.1-1.4c0.6,0,0.6,0.8,1.1,1c1.1,0.6,3,0,3-1.3
		c0-0.3-0.6-0.8-1.1-1c-1.5-0.7-3.3-1.1-4-2.6c-0.9-1.8,2.7-4,4.3-3.4C-291.1,394.5-289.7,394.7-289.2,395.8z"/>
	<path class="st1" d="M-282.3,391.5c1.6-1.5,4.9-2.3,5.7,0.3c0,0.4-0.3,0.8-0.7,0.8c-0.9-0.1-1.8-0.6-2.8-0.2
		c-2.6,0.9-2.3,3.9-1.3,6c0.9-0.2,3-1.5,4-1.2c0.4,0,0.6,0.6,0.4,1c-0.4,1-3.4,1.3-3.5,2c-0.2,1,1.1,1.7,1.5,2.7
		c0.3,0.6-1,1-1.6,0.7c-1.1-0.7-1.2-2.2-2.2-2.8c-0.2-0.1-0.8,0.1-1.2,0c-0.3,0-0.5-0.5-0.4-0.8c0.3-0.4,1.1-0.4,1-1.1
		c-0.1-1.3-0.6-2.7-0.5-4.1C-283.9,393.4-283.2,392.3-282.3,391.5z"/>
	<path class="st1" d="M-271.4,403.9c-1.6-0.3-3.5-0.2-4.4-1.7c-0.6-0.8-0.4-2.5,0.2-3.2c1.9-2.5,5.1-1.7,5.2-1.8
		c0.2-0.3,0.3-1.4-0.2-1.4c-1.4-0.3-2.2,0.3-3.4,0.7c-0.9,0.3-1.1-1.5-0.9-1.7c1.7-1.1,5.1-1.8,6.1,0.4c0.9,2-0.2,3.9-0.3,6
		c-0.1,1.4-0.2,4.5-1.5,3.6C-271.1,404.5-271.1,403.9-271.4,403.9z M-270.8,398.8c-1.3,0.5-3.7,0.1-3.7,2.1c0,1,3.2,1.5,3.4,1.1
		C-270.9,400.8-270.3,400-270.8,398.8z"/>
	<path class="st1" d="M-267.3,390.3c0.4-0.9,2.2-1.1,2.3,0.2c0,0.2-0.1,0.7-0.1,0.9c0,1.6,0.1,3.3,0,4.9c-0.1,2.5,0.6,5.1-0.5,7.3
		c-0.3,0.7-1.1,0.7-1.8,0.3c-0.3-0.2-0.5-0.8-0.3-1.3c0.7-2.3,0.5-4.6,0.6-7C-267.1,393.9-268.1,391.9-267.3,390.3z"/>
	<path class="st1" d="M-258.7,403.9c-1.6-0.3-3.5-0.2-4.4-1.7c-0.6-0.8-0.4-2.5,0.2-3.2c1.9-2.5,5.1-1.7,5.2-1.8
		c0.2-0.3,0.3-1.4-0.2-1.4c-1.4-0.3-2.2,0.3-3.4,0.7c-0.9,0.3-1.1-1.5-0.9-1.7c1.7-1.1,5.1-1.8,6.1,0.4c0.9,2-0.2,3.9-0.3,6
		c-0.1,1.4-0.2,4.5-1.5,3.6C-258.4,404.5-258.4,403.9-258.7,403.9z M-258.1,398.8c-1.3,0.5-3.7,0.1-3.7,2.1c0,1,3.2,1.5,3.4,1.1
		C-258.2,400.8-257.6,400-258.1,398.8z"/>
	<path class="st1" d="M-250.1,394.4c0.6-0.5,0.3-1.7,0.7-2.4c0.3-0.6,1-1,1.5-0.8c0.2,0.1,0.8,0.5,0.7,0.9
		c-1.3,3.6-1.2,7.6-0.6,11.5c0,0.2-0.6,0.6-0.9,0.6c-1,0.1-1-1.3-1.5-1.4c-0.9,0-1.8,0.3-2.6-0.3c-1.1-0.8-2.6-1.5-2.6-3.2
		C-255.4,396.2-251.9,395.8-250.1,394.4z M-250.5,400.5c-0.2-1.3,0.2-2.6,0.2-3.9c-1.2,0-3.1,0.7-2.9,2.1
		C-253,399.9-251.7,401-250.5,400.5z"/>
	<path class="st1" d="M-242.1,403.9c-1.6-0.3-3.5-0.2-4.4-1.7c-0.6-0.8-0.4-2.5,0.2-3.2c1.9-2.5,5.1-1.7,5.2-1.8
		c0.2-0.3,0.3-1.4-0.2-1.4c-1.4-0.3-2.2,0.3-3.4,0.7c-0.9,0.3-1.1-1.5-0.9-1.7c1.7-1.1,5.1-1.8,6.1,0.4c0.9,2-0.2,3.9-0.3,6
		c-0.1,1.4-0.2,4.5-1.5,3.6C-241.7,404.5-241.7,403.9-242.1,403.9z M-241.4,398.8c-1.3,0.5-3.7,0.1-3.7,2.1c0,1,3.2,1.5,3.4,1.1
		C-241.5,400.8-240.9,400-241.4,398.8z"/>
	<path class="st1" d="M-231.2,395.8c0.2,0.3-0.1,1-0.4,1.2c-1.2,0.7-2.8-2-4.5-0.9c-0.7,0.4,0.4,1.5,0.9,1.7c1.4,0.5,2.6,1,3.6,2
		c0.7,0.6,0.4,1.9-0.1,2.7c-1.2,2-5.4,3.1-6.8,0.3c-0.3-0.6,0.4-1.4,1.1-1.4c0.6,0,0.6,0.8,1.1,1c1.1,0.6,3,0,3-1.3
		c0-0.3-0.6-0.8-1.1-1c-1.5-0.7-3.3-1.1-4-2.6c-0.9-1.8,2.7-4,4.3-3.4C-233.2,394.5-231.8,394.7-231.2,395.8z"/>
</g>
<path class="st1" d="M-325.5,639.6c-5.1,0.1-10.2,0-15.4,0c-1.9,0-1.9,3,0,3c5.1,0,10.2,0.1,15.4,0
	C-323.6,642.6-323.6,639.6-325.5,639.6z"/>
<g>
	<g class="st0">
		<path class="st2" d="M-314.9,636.8c1,0.3,0,1.6,0.5,2.3c1-0.9,1.2-3.2,3-2.5c0.1,0.1,0.3,0.3,0.3,0.3c0.2,0.7,0.1,1.4,0.3,2
			c0.9-0.9,1.8-2.4,3.2-1.9c0.4,0.3,0.3,0.8,0.3,1.3c0.3,2,0.3,4-0.4,6c-0.2,0.6-1,0.7-1.6,0.3c-0.1,0-0.2-0.3-0.1-0.6
			c0.6-1.6,0.6-3.4,0.3-5.1c0-0.3-0.3,0-0.4,0.2c-0.7,1.1-1.2,2.3-1.6,3.5c-0.3,0.5-1.3,1-1.8,0.3c-0.5-1,0.3-2.4-0.1-3.5
			c-0.7,1.2-1,2.4-1.8,3.5c-0.4,0.5-1.3,0.5-1.5,0c-0.5-1.2-0.1-2.7-0.3-4C-316.6,637.7-316.3,636.4-314.9,636.8z"/>
		<path class="st2" d="M-303.2,636.4c1.3,0.2,2.5,1.5,2.5,2.9c-0.3,0.8-2.2,1.5-2.8,2.1c-0.1,0-0.4,0.2-0.3,0.4
			c0.6,1,1.7,0.6,2.6,0.1c0.6,0.4,0.3,1.5-0.4,1.6c-0.8,0.1-1.6,0.3-2.4,0c-1.7-0.8-2.1-2.7-2.1-4.3
			C-306.2,637.3-304.9,636.1-303.2,636.4z M-302.4,638.8c0.4-0.9-1-1.3-1.7-0.9c-0.7,0.4-0.5,2-0.1,2
			C-303.5,639.9-302.7,639.6-302.4,638.8z M-302.1,632.9c0.2,0,0.6,0.4,0.5,0.6c-0.3,0.9-0.5,1.1-1.3,1.8c-0.2,0.2-0.8,0.6-0.9,0.2
			c-0.2-0.8,0.1-0.7,0.4-1.4C-303.1,633.5-302.7,632.9-302.1,632.9z"/>
		<path class="st2" d="M-296.6,636.5c0.4-0.3,0.2-1.2,0.5-1.8c0.2-0.4,0.7-0.7,1.1-0.6c0.2,0.1,0.6,0.3,0.5,0.7
			c-1,2.7-0.9,5.6-0.4,8.5c0,0.2-0.4,0.4-0.7,0.4c-0.7,0.1-0.7-1-1.1-1.1c-0.7,0-1.3,0.2-2-0.2c-0.8-0.6-1.9-1.1-1.9-2.4
			C-300.5,637.9-297.9,637.6-296.6,636.5z M-296.8,641.1c-0.2-1,0.2-1.9,0.2-2.9c-0.9,0-2.3,0.5-2.1,1.5
			C-298.7,640.6-297.7,641.4-296.8,641.1z"/>
		<path class="st2" d="M-293.4,637.6c0.2-0.4,0.8-0.6,1.3-0.4c0.3,0.1,0.7,0.5,0.4,0.8c-0.5,0.7-0.2,1.5-0.4,2.2
			c-0.3,0.8,0.2,1.6,0,2.4c0,0.1-0.1,0.2-0.2,0.2c-0.5,0.2-1.2,0.2-1.3-0.3c-0.3-1-0.1-2-0.1-3
			C-293.7,638.8-293.7,638.2-293.4,637.6z M-293.1,634.4c0.5-0.3,1.2-0.3,1.5,0.2c0.3,0.5-0.2,1.2-0.5,1.4c-0.4,0.2-0.9,0.1-1.3-0.3
			C-293.6,635.3-293.3,634.6-293.1,634.4z"/>
		<path class="st2" d="M-287.5,643.6c-1.2-0.2-2.6-0.2-3.2-1.3c-0.5-0.6-0.3-1.8,0.2-2.4c1.4-1.9,3.8-1.3,3.8-1.3
			c0.2-0.2,0.3-1-0.1-1.1c-1-0.2-1.6,0.2-2.5,0.5c-0.7,0.2-0.8-1.1-0.7-1.3c1.2-0.8,3.8-1.3,4.5,0.3c0.7,1.4-0.1,2.9-0.3,4.5
			c-0.1,1-0.2,3.3-1.1,2.7C-287.2,644-287.2,643.6-287.5,643.6z M-287,639.8c-1,0.4-2.7,0.1-2.7,1.5c0,0.7,2.4,1.1,2.5,0.8
			C-287.1,641.2-286.6,640.7-287,639.8z"/>
		<path class="st2" d="M-276.3,637.6c0.1,0.3-0.1,0.7-0.3,0.9c-0.9,0.5-2.1-1.5-3.3-0.7c-0.5,0.3,0.3,1.1,0.6,1.2
			c1,0.4,1.9,0.7,2.7,1.5c0.5,0.5,0.3,1.4-0.1,2c-0.9,1.5-4,2.3-5,0.2c-0.2-0.5,0.3-1,0.8-1c0.4,0,0.5,0.6,0.8,0.8
			c0.8,0.4,2.2,0,2.2-1c0-0.2-0.5-0.6-0.8-0.7c-1.1-0.5-2.4-0.8-3-1.9c-0.7-1.4,2-3,3.1-2.5C-277.7,636.6-276.7,636.8-276.3,637.6z"
			/>
		<path class="st2" d="M-273,636.4c1.3,0.2,2.5,1.5,2.5,2.9c-0.3,0.8-2.2,1.5-2.8,2.1c-0.1,0-0.4,0.2-0.3,0.4c0.6,1,1.7,0.6,2.6,0.1
			c0.6,0.4,0.3,1.5-0.4,1.6c-0.8,0.1-1.6,0.3-2.4,0c-1.7-0.8-2.1-2.7-2.1-4.3C-275.9,637.3-274.7,636.1-273,636.4z M-272.2,638.8
			c0.4-0.9-1-1.3-1.7-0.9c-0.7,0.4-0.5,2-0.1,2C-273.2,639.9-272.5,639.6-272.2,638.8z"/>
		<path class="st2" d="M-268.6,636.8c1,0.3,0,1.6,0.5,2.3c1-0.9,1.2-3.2,3-2.5c0.1,0.1,0.3,0.3,0.3,0.3c0.2,0.7,0.1,1.4,0.3,2
			c0.9-0.9,1.8-2.4,3.2-1.9c0.4,0.3,0.3,0.8,0.3,1.3c0.3,2,0.3,4-0.4,6c-0.2,0.6-1,0.7-1.6,0.3c-0.1,0-0.2-0.3-0.1-0.6
			c0.6-1.6,0.6-3.4,0.3-5.1c0-0.3-0.3,0-0.4,0.2c-0.7,1.1-1.2,2.3-1.6,3.5c-0.3,0.5-1.3,1-1.8,0.3c-0.5-1,0.3-2.4-0.1-3.5
			c-0.7,1.2-1,2.4-1.8,3.5c-0.4,0.5-1.3,0.5-1.5,0c-0.5-1.2-0.1-2.7-0.3-4C-270.3,637.7-270,636.4-268.6,636.8z"/>
		<path class="st2" d="M-256.4,643.6c-1.2-0.2-2.6-0.2-3.2-1.3c-0.5-0.6-0.3-1.8,0.2-2.4c1.4-1.9,3.8-1.3,3.8-1.3
			c0.2-0.2,0.3-1-0.1-1.1c-1-0.2-1.6,0.2-2.5,0.5c-0.7,0.2-0.8-1.1-0.7-1.3c1.2-0.8,3.8-1.3,4.5,0.3c0.7,1.4-0.1,2.9-0.3,4.5
			c-0.1,1-0.2,3.3-1.1,2.7C-256.1,644-256.1,643.6-256.4,643.6z M-255.9,639.8c-1,0.4-2.7,0.1-2.7,1.5c0,0.7,2.4,1.1,2.5,0.8
			C-256,641.2-255.5,640.7-255.9,639.8z"/>
		<path class="st2" d="M-253.4,637.3c0.2-0.5,1.2-0.5,1.3,0.1c0.1,0.4-0.2,0.8-0.2,1.3c0.1,0.1,0.2,0.3,0.2,0.2
			c0.6-0.9,1.1-2,2.3-1.6c0.9,1.5,0.8,3.4,0.9,5.1c0.1,0.3,0.1,0.8-0.2,0.9c-0.4,0.1-1.1,0.3-1.2-0.2c-0.2-1.4-0.1-2.8-0.4-4.2
			c-0.9,0.9-1,2.2-1.6,3.4c-0.3,0.4-1,0.5-1.2,0c-0.2-0.6-0.1-1.4-0.1-2.2C-253.4,639.2-253.7,638.1-253.4,637.3z"/>
		<path class="st2" d="M-244.2,643.6c-1.2-0.2-2.6-0.2-3.2-1.3c-0.5-0.6-0.3-1.8,0.2-2.4c1.4-1.9,3.8-1.3,3.8-1.3
			c0.2-0.2,0.3-1-0.1-1.1c-1-0.2-1.6,0.2-2.5,0.5c-0.7,0.2-0.8-1.1-0.7-1.3c1.2-0.8,3.8-1.3,4.5,0.3c0.7,1.4-0.1,2.9-0.3,4.5
			c-0.1,1-0.2,3.3-1.1,2.7C-244,644-244,643.6-244.2,643.6z M-243.8,639.8c-1,0.4-2.7,0.1-2.7,1.5c0,0.7,2.4,1.1,2.5,0.8
			C-243.8,641.2-243.4,640.7-243.8,639.8z"/>
		<path class="st2" d="M-241.2,633.5c0.3-0.7,1.6-0.8,1.7,0.2c0,0.2-0.1,0.5-0.1,0.7c0,1.2,0.1,2.5,0,3.6c-0.1,1.9,0.4,3.7-0.3,5.4
			c-0.2,0.5-0.8,0.5-1.3,0.3c-0.3-0.2-0.4-0.6-0.3-0.9c0.5-1.7,0.3-3.4,0.4-5.2C-241,636.2-241.8,634.7-241.2,633.5z"/>
	</g>
</g>
<rect x="-277.9" y="434.8" class="st3" width="112.5" height="160.8"/>
<line class="st4" x1="-384.9" y1="435.2" x2="-162.9" y2="434.3"/>
<line class="st4" x1="-384.9" y1="514.7" x2="-162.9" y2="515.2"/>
<line class="st4" x1="-384.9" y1="595.2" x2="-162.9" y2="596.3"/>
<g class="st0">
	<path class="st2" d="M-418,429.9c0-0.6,0.6-1.2,1.3-1.5c0.6-0.2,1.8-0.2,2.5,0c1.1,0.4,1.8,1.3,1.7,2.5c0,0.6-0.2,1.2-0.8,1.7
		c-0.5,0.3-0.5,0.4-0.2,0.5c0.8,0.5,1.4,1.1,1.8,1.9c0.1,0.4,0.1,0.7,0.1,1.2c0,0.6,0,0.8-0.2,1.3c-0.3,0.6-0.8,1.1-1.4,1.4
		s-1,0.4-2.1,0.3c-1.1,0-1.7-0.2-2.2-0.6c-0.5-0.6-0.5-1.4,0.1-2.1c0.3-0.3,0.3-0.2,0.8-0.2s0.6,0,0.7,0.1c0.2,0.3,0.2,0.4,0,0.7
		c-0.2,0.3-0.2,0.6-0.1,0.7c0.1,0.2,0.5,0.3,0.9,0.3c1,0.1,1.7-0.8,1.7-2c0.1-0.6-0.2-1.1-0.5-1.6c-0.5-0.6-0.9-0.8-1.7-0.8
		c-0.6,0-1-0.1-1.1-0.4c-0.1-0.2,0.2-0.6,0.6-0.6s0.6-0.2,1.1-0.6c0.6-0.5,0.7-0.8,0.7-1.2c0.1-0.8-0.5-1.4-1.2-1.4
		c-0.3,0-0.4,0.1-0.6,0.3c-0.2,0.3-0.2,0.3-0.1,0.6c0.2,0.2,0.2,0.3,0.2,0.4c0.1,0.2-0.3,0.4-0.7,0.4
		C-417.4,431-417.9,430.6-418,429.9z"/>
	<path class="st2" d="M-410,430.5c0.7-1.4,1.4-2.2,2.2-2.3c0.1,0,0.6-0.1,0.9-0.1c0.7,0,0.8,0.1,1.2,0.3c0.5,0.3,1.2,0.9,1.4,1.4
		c0,0,0.1,0.2,0.1,0.2c0.1,0,0.5,1.2,0.6,1.6c0.3,0.9,0.3,1.3,0.3,2.3c0,1.5-0.3,2.7-0.9,3.6c-0.8,1.2-1.8,1.7-3.2,1.7
		c-1,0-1.9-0.3-2.5-1c-0.6-0.6-0.9-1.2-1.1-2.2c0-0.4,0-2,0-2.4C-410.7,432.3-410.5,431.5-410,430.5z M-405.9,429.9
		c-0.2-0.3-0.7-0.5-0.9-0.7c-0.2,0-0.4,0-0.6,0c-0.3,0-0.7,0.6-0.9,1.2c0,0.1-0.1,0.3-0.2,0.5c-0.4,0.9-0.7,2.7-0.7,3.9
		c0,0.9,0.2,2,0.4,2.3c0,0,0.1,0.1,0.1,0.1c0,0.1,0.7,0.7,0.9,0.8c0.3,0.1,0.7,0.1,1,0c0.8-0.4,1.4-1.3,1.7-2.8c0-0.4,0-2.5,0-2.9
		C-405.3,431.3-405.6,430.5-405.9,429.9z"/>
	<path class="st2" d="M-401.6,430.5c0.7-1.4,1.4-2.2,2.2-2.3c0.1,0,0.6-0.1,0.9-0.1c0.7,0,0.7,0.1,1.2,0.3c0.5,0.3,1.2,0.9,1.4,1.4
		c0,0,0.1,0.2,0.1,0.2c0.1,0,0.5,1.2,0.6,1.6c0.3,0.9,0.3,1.3,0.3,2.3c0,1.5-0.3,2.7-0.9,3.6c-0.8,1.2-1.8,1.7-3.2,1.7
		c-1,0-1.9-0.3-2.5-1c-0.6-0.6-0.9-1.2-1.1-2.2c0-0.4,0-2,0-2.4C-402.3,432.3-402.1,431.5-401.6,430.5z M-397.5,429.9
		c-0.2-0.3-0.7-0.5-0.9-0.7c-0.2,0-0.4,0-0.6,0c-0.3,0-0.7,0.6-0.9,1.2c0,0.1-0.1,0.3-0.2,0.5c-0.4,0.9-0.7,2.7-0.7,3.9
		c0,0.9,0.2,2,0.4,2.3c0,0,0.1,0.1,0.1,0.1c0,0.1,0.7,0.7,0.9,0.8c0.3,0.1,0.7,0.1,1,0c0.8-0.4,1.4-1.3,1.7-2.8c0-0.4,0-2.5,0-2.9
		C-396.9,431.3-397.2,430.5-397.5,429.9z"/>
</g>
<g class="st0">
	<path class="st2" d="M-412.8,509.3c0.2-0.1,0.5-0.2,0.7-0.4c0.2-0.2,0.4-0.2,0.8-0.2c0.5,0,0.6,0,0.8,0.2c0.2,0.2,0.2,0.2,0.2,2.8
		c0,3.7-0.3,6.8-0.6,7.2c-0.4,0.5-1.1,0.4-1.4-0.1c-0.2-0.3-0.1-0.6-0.1-2.8c0-1.4,0.1-3.3,0.1-4.2c0.1-1.6,0.1-1.6-0.2-1.6
		C-413.2,510.2-413.5,509.6-412.8,509.3z"/>
	<path class="st2" d="M-408.4,509.3c1-0.3,1.7-0.5,2.3-0.5c0.3-0.1,0.7-0.1,0.7-0.1c0.1,0,0.5,0,0.9,0c0.5,0.1,0.8,0.1,1.1,0.3
		c0.6,0.3,0.7,0.7,0.1,1.1c-0.2,0.1-0.3,0.1-1.5,0.1c-1.1-0.1-1.4,0-2.1,0.1c-0.5,0.1-0.9,0.1-0.9,0.1c-0.1,0.1-0.1,0.5-0.1,1.4
		c-0.1,1.2-0.1,1.3,0.1,1.2c0.1,0,0.4-0.1,0.7-0.1c1.8-0.2,3.8,0.5,4.4,1.7c0.1,0.3,0.2,1,0.1,1.5c-0.2,0.9-0.8,1.7-1.7,2.2
		c-0.5,0.4-1,0.6-1.8,0.8c-1.4,0.3-2.9-0.1-3.4-0.9c-0.2-0.3-0.2-0.3-0.2-0.8s0-0.5,0.2-0.7c0.1-0.2,0.2-0.2,0.7-0.2
		c0.5,0,0.6,0,0.7,0.1c0.1,0.1,0.1,0.3,0.1,0.5c0,0.4,0.2,0.7,0.5,0.9c0.2,0.1,0.8,0,1.3-0.3c0.4-0.2,1.1-0.9,1.3-1.3
		c0.2-0.4,0.3-0.9,0.3-1.2c-0.1-0.3-0.4-0.7-1-1c-0.4-0.2-0.5-0.2-1-0.2c-0.5,0-0.7,0.1-1.1,0.2c-0.7,0.3-1.2,0.3-1.6,0.1
		c-0.3-0.2-0.5-0.4-0.4-1.3c0-1.3,0.2-2.5,0.5-3.3C-409,509.5-409,509.5-408.4,509.3z"/>
	<path class="st2" d="M-401,510.8c0.7-1.4,1.4-2.2,2.2-2.3c0.1,0,0.6-0.1,0.9-0.1c0.7,0,0.8,0.1,1.2,0.3c0.5,0.3,1.2,0.9,1.4,1.4
		c0,0,0.1,0.2,0.1,0.2c0.1,0,0.5,1.2,0.6,1.6c0.3,0.9,0.3,1.3,0.3,2.3c0,1.5-0.3,2.7-0.9,3.6c-0.8,1.2-1.8,1.7-3.2,1.7
		c-1,0-1.9-0.3-2.5-1c-0.6-0.6-0.9-1.2-1.1-2.2c0-0.4,0-2,0-2.4C-401.8,512.5-401.5,511.7-401,510.8z M-396.9,510.2
		c-0.2-0.3-0.7-0.5-0.9-0.7c-0.2,0-0.4,0-0.6,0c-0.3,0-0.7,0.6-0.9,1.2c0,0.1-0.1,0.3-0.2,0.5c-0.4,0.9-0.7,2.7-0.7,3.9
		c0,0.9,0.2,2,0.4,2.3c0,0,0.1,0.1,0.1,0.1c0,0.1,0.7,0.7,0.9,0.8c0.3,0.1,0.7,0.1,1,0c0.8-0.4,1.4-1.3,1.7-2.8c0-0.4,0-2.5,0-2.9
		C-396.3,511.6-396.6,510.7-396.9,510.2z"/>
</g>
<g class="st0">
	<path class="st2" d="M-399.9,591.5c0.7-1.4,1.4-2.2,2.2-2.3c0.1,0,0.6-0.1,0.9-0.1c0.7,0,0.8,0.1,1.2,0.3c0.5,0.3,1.2,0.9,1.4,1.4
		c0,0,0.1,0.2,0.1,0.2c0.1,0,0.5,1.2,0.6,1.6c0.3,0.9,0.3,1.3,0.3,2.3c0,1.5-0.3,2.7-0.9,3.6c-0.8,1.2-1.8,1.7-3.2,1.7
		c-1,0-1.9-0.3-2.5-1c-0.6-0.6-0.9-1.2-1.1-2.2c0-0.4,0-2,0-2.4C-400.6,593.3-400.4,592.5-399.9,591.5z M-395.8,590.9
		c-0.2-0.3-0.7-0.5-0.9-0.7c-0.2,0-0.4,0-0.6,0c-0.3,0-0.7,0.6-0.9,1.2c0,0.1-0.1,0.3-0.2,0.5c-0.4,0.9-0.7,2.7-0.7,3.9
		c0,0.9,0.2,2,0.4,2.3c0,0,0.1,0.1,0.1,0.1c0,0.1,0.7,0.7,0.9,0.8c0.3,0.1,0.7,0.1,1,0c0.8-0.4,1.4-1.3,1.7-2.8c0-0.4,0-2.5,0-2.9
		C-395.2,592.3-395.5,591.5-395.8,590.9z"/>
</g>
<g>
	<g class="st0">
		<path class="st2" d="M-203.1,607.6c0.1,0.3-0.1,0.7-0.3,0.9c-0.9,0.5-2.1-1.5-3.3-0.7c-0.5,0.3,0.3,1.1,0.6,1.2
			c1,0.4,1.9,0.7,2.7,1.5c0.5,0.5,0.3,1.4-0.1,2c-0.9,1.5-4,2.3-5,0.2c-0.2-0.5,0.3-1,0.8-1c0.4,0,0.5,0.6,0.8,0.8
			c0.8,0.4,2.2,0,2.2-1c0-0.2-0.5-0.6-0.8-0.7c-1.1-0.5-2.4-0.8-3-1.9c-0.7-1.4,2-3,3.1-2.5C-204.5,606.6-203.5,606.8-203.1,607.6z"
			/>
		<path class="st2" d="M-199.8,606.4c1.3,0.2,2.5,1.5,2.5,2.9c-0.3,0.8-2.2,1.5-2.8,2.1c-0.1,0-0.4,0.2-0.3,0.4
			c0.6,1,1.7,0.6,2.6,0.1c0.6,0.4,0.3,1.5-0.4,1.6c-0.8,0.1-1.6,0.3-2.4,0c-1.7-0.8-2.1-2.7-2.1-4.3
			C-202.7,607.4-201.4,606.1-199.8,606.4z M-199,608.8c0.4-0.9-1-1.3-1.7-0.9c-0.7,0.4-0.5,2-0.1,2
			C-200,609.9-199.2,609.7-199,608.8z"/>
		<path class="st2" d="M-195.4,606.8c1,0.3,0,1.6,0.5,2.3c1-0.9,1.2-3.2,3-2.5c0.1,0.1,0.3,0.3,0.3,0.3c0.2,0.7,0.1,1.4,0.3,2
			c0.8-0.9,1.8-2.4,3.2-1.9c0.4,0.3,0.3,0.8,0.3,1.3c0.3,2,0.3,4-0.4,6c-0.2,0.6-1,0.7-1.6,0.3c-0.1,0-0.2-0.3-0.1-0.6
			c0.6-1.6,0.6-3.4,0.3-5.1c0-0.3-0.3,0-0.4,0.2c-0.7,1.1-1.2,2.3-1.6,3.5c-0.3,0.5-1.3,1-1.8,0.3c-0.5-1,0.3-2.4-0.1-3.5
			c-0.7,1.2-1,2.4-1.8,3.5c-0.4,0.5-1.3,0.5-1.5,0c-0.5-1.2-0.1-2.7-0.3-4C-197.1,607.7-196.7,606.4-195.4,606.8z"/>
		<path class="st2" d="M-183.1,613.6c-1.2-0.2-2.6-0.2-3.2-1.3c-0.5-0.6-0.3-1.8,0.2-2.4c1.4-1.9,3.8-1.3,3.8-1.3
			c0.2-0.2,0.3-1-0.1-1.1c-1-0.2-1.6,0.2-2.5,0.5c-0.7,0.2-0.8-1.1-0.7-1.3c1.2-0.8,3.8-1.3,4.5,0.3c0.7,1.4-0.1,2.9-0.3,4.5
			c-0.1,1-0.2,3.3-1.1,2.7C-182.9,614-182.9,613.6-183.1,613.6z M-182.7,609.8c-1,0.4-2.7,0.1-2.7,1.5c0,0.7,2.4,1.1,2.5,0.8
			C-182.7,611.3-182.3,610.7-182.7,609.8z"/>
		<path class="st2" d="M-180.1,607.3c0.2-0.5,1.2-0.5,1.3,0.1c0.1,0.4-0.2,0.8-0.2,1.3c0.1,0.1,0.2,0.3,0.2,0.2
			c0.6-0.9,1.1-2,2.3-1.6c0.9,1.5,0.8,3.4,0.9,5.1c0.1,0.3,0.1,0.8-0.2,0.9c-0.4,0.1-1.1,0.3-1.2-0.2c-0.2-1.4-0.1-2.8-0.4-4.2
			c-0.9,0.9-1,2.2-1.6,3.4c-0.3,0.4-1,0.5-1.2,0c-0.2-0.6-0.1-1.4-0.1-2.2C-180.2,609.2-180.4,608.1-180.1,607.3z"/>
		<path class="st2" d="M-171,613.6c-1.2-0.2-2.6-0.2-3.2-1.3c-0.5-0.6-0.3-1.8,0.2-2.4c1.4-1.9,3.8-1.3,3.8-1.3
			c0.2-0.2,0.3-1-0.1-1.1c-1-0.2-1.6,0.2-2.5,0.5c-0.7,0.2-0.8-1.1-0.7-1.3c1.2-0.8,3.8-1.3,4.5,0.3c0.7,1.4-0.1,2.9-0.3,4.5
			c-0.1,1-0.2,3.3-1.1,2.7C-170.7,614-170.7,613.6-171,613.6z M-170.5,609.8c-1,0.4-2.7,0.1-2.7,1.5c0,0.7,2.4,1.1,2.5,0.8
			C-170.6,611.3-170.1,610.7-170.5,609.8z"/>
		<path class="st2" d="M-163,607.6c0.1,0.3-0.1,0.7-0.3,0.9c-0.9,0.5-2.1-1.5-3.3-0.7c-0.5,0.3,0.3,1.1,0.6,1.2
			c1,0.4,1.9,0.7,2.7,1.5c0.5,0.5,0.3,1.4-0.1,2c-0.9,1.5-4,2.3-5,0.2c-0.2-0.5,0.3-1,0.8-1c0.4,0,0.5,0.6,0.8,0.8
			c0.8,0.4,2.2,0,2.2-1c0-0.2-0.5-0.6-0.8-0.7c-1.1-0.5-2.4-0.8-3-1.9c-0.7-1.4,2-3,3.1-2.5C-164.4,606.6-163.4,606.8-163,607.6z"/>
	</g>
</g>
<path class="st2" d="M-278.8,582.8c-0.2,1.1-0.2,2.1-0.2,3.2c0,1,1.5,1,1.5,0c0-0.9,0-1.9,0.1-2.8
	C-277.2,582.3-278.6,581.8-278.8,582.8z"/>
<path class="st2" d="M-277.6,575.5c-0.2-0.9-1.7-0.5-1.4,0.4c0.3,1.2,0.1,2.4,0.1,3.6c0,1,1.5,1,1.5,0
	C-277.4,578.1-277.3,576.8-277.6,575.5z"/>
<path class="st2" d="M-279.1,569.3v2.5c0,1,1.5,1,1.5,0v-2.5C-277.6,568.4-279.1,568.4-279.1,569.3z"/>
<path class="st2" d="M-279.3,560v3.3c0,1,1.5,1,1.5,0V560C-277.8,559-279.3,559-279.3,560z"/>
<path class="st2" d="M-279.3,553.8v3c0,1,1.5,1,1.5,0v-3C-277.8,552.9-279.3,552.9-279.3,553.8z"/>
<path class="st2" d="M-279.1,547v3.2c0,1,1.5,1,1.5,0V547C-277.6,546-279.1,546-279.1,547z"/>
<path class="st2" d="M-279.5,541v2.5c0,1,1.5,1,1.5,0V541C-278,540-279.5,540-279.5,541z"/>
<path class="st2" d="M-277.8,536.8c-0.2-0.7-0.1-1.4-0.1-2.1c0-1-1.5-1-1.5,0c0,0.8,0,1.7,0.2,2.5
	C-279,538.1-277.6,537.7-277.8,536.8z"/>
<path class="st2" d="M-278,527.2c0-1-1.5-1-1.5,0c0,1.5-0.1,3,0.2,4.5c0.2,0.9,1.6,0.5,1.4-0.4C-278.1,529.9-278,528.5-278,527.2z"
	/>
<path class="st2" d="M-278,485.2c0-1-1.5-1-1.5,0c0,1.5-0.1,3,0.2,4.5c0.2,0.9,1.6,0.5,1.4-0.4C-278.1,487.9-278,486.5-278,485.2z"
	/>
<path class="st2" d="M-279.1,521.2v2.5c0,1,1.5,1,1.5,0v-2.5C-277.6,520.2-279.1,520.2-279.1,521.2z"/>
<path class="st2" d="M-277.8,513.6c-0.1-1-1.6-0.5-1.4,0.4c0.2,1.1,0.2,2.1,0.3,3.2c0.1,1,1.6,0.5,1.4-0.4
	C-277.6,515.8-277.7,514.7-277.8,513.6z"/>
<path class="st2" d="M-278,507c-0.3-0.9-1.7-0.5-1.4,0.4c0.3,1,0.3,2.1,0.5,3.1c0.1,0.9,1.6,1,1.5,0
	C-277.6,509.3-277.6,508.1-278,507z"/>
<path class="st2" d="M-277.5,503.3c-0.2-0.7-0.1-1.5-0.1-2.3c0-1-1.5-1-1.5,0c0,0.9,0,1.8,0.2,2.7
	C-278.7,504.6-277.3,504.2-277.5,503.3z"/>
<path class="st2" d="M-277.6,494c0-1-1.5-1-1.5,0c0,1.1,0,2.2,0.2,3.4c0.1,1,1.6,0.5,1.4-0.4C-277.6,496-277.6,495-277.6,494z"/>
<path class="st2" d="M-278.8,470.8v3.8c0,1,1.5,1,1.5,0v-3.8C-277.3,469.9-278.8,469.9-278.8,470.8z"/>
<path class="st2" d="M-279,464.5v2.5c0,1,1.5,1,1.5,0v-2.5C-277.5,463.5-279,463.5-279,464.5z"/>
<path class="st2" d="M-279,479.5v2.5c0,1,1.5,1,1.5,0v-2.5C-277.5,478.5-279,478.5-279,479.5z"/>
<path class="st2" d="M-278.8,457.3c-0.3,1.2-0.4,2.5-0.2,3.7c0.1,0.9,1.6,1,1.5,0c-0.1-1.1-0.1-2.2,0.1-3.3
	C-277.1,456.8-278.5,456.4-278.8,457.3z"/>
<path class="st2" d="M-278.4,451.7c0,0.8,0,1.5-0.1,2.3c-0.2,0.9,1.3,1.3,1.4,0.4c0.2-0.9,0.2-1.8,0.2-2.7
	C-276.9,450.7-278.4,450.7-278.4,451.7z"/>
<path class="st2" d="M-278.8,445.8v1.7c0,1,1.5,1,1.5,0v-1.7C-277.3,444.9-278.8,444.9-278.8,445.8z"/>
<path class="st2" d="M-278.8,438c-0.2,1.1-0.2,2.2-0.2,3.4c0,1,1.5,1,1.5,0c0-1,0-2,0.1-3C-277.2,437.4-278.6,437-278.8,438z"/>
<path class="st2" d="M-277.1,430.8c0-0.3-0.1-0.5-0.3-0.6v-2.1c0-1-1.5-1-1.5,0v5.3c0,0.9,1.3,1,1.5,0.2c0.1-0.1,0.2-0.3,0.2-0.5
	C-277.3,432.4-277.1,431.6-277.1,430.8z"/>
<path class="st2" d="M-277.8,591.8c0-1-1.5-1-1.5,0v6.3c0,0.5,0.4,0.7,0.8,0.7c0.5,0.1,1.1-0.3,1-0.9
	C-277.8,595.9-277.8,593.9-277.8,591.8z"/>
<g>
	<g class="st0">
		<path class="st2" d="M-254.1,419.8c0.9-0.8,2.1-2.1,3.4-1.5c0.2,0.1,0.3,0.3,0.2,0.7c-0.4,1-1.3,1-2.1,1.6c-0.7,0.5-1.3,1.2-1.3,2
			c0,0.5,0.1,1.1,0.4,1.6c0.4,0.6,1,0.6,1.6,0.9c0.9,0.3,1.5-0.9,2.2-0.9c0.7-0.1,0.3,1,0.1,1.3c-0.8,1.3-2.4,1.1-3.7,0.7
			c-1.6-0.5-2.4-2-2.1-3.7C-255.3,421.3-254.8,420.5-254.1,419.8z"/>
		<path class="st2" d="M-248.8,421.2c0.3-1,0.9-1.4,1.1-1.9c0.4-0.9,1.6-0.6,2.2,0.1c0.4,0.5,0.7,1.1,0.8,1.7
			c0.4,1.3-0.3,2.5-1.2,3.4c-0.4,0.4-1.3,0.4-1.7,0.2C-248.7,423.9-249.2,422.5-248.8,421.2z M-246.5,420.6c-0.4-0.4-2.2,2-0.4,2.4
			C-245.8,423.2-245.6,421.6-246.5,420.6z"/>
		<path class="st2" d="M-242.7,419.8c1,0.3,0,1.6,0.5,2.3c1-0.9,1.2-3.2,3-2.5c0.1,0.1,0.3,0.3,0.3,0.3c0.2,0.7,0.1,1.4,0.3,2
			c0.8-0.9,1.8-2.4,3.2-1.9c0.4,0.3,0.3,0.8,0.3,1.3c0.3,2,0.3,4-0.4,6c-0.2,0.6-1,0.7-1.6,0.3c-0.1,0-0.2-0.3-0.1-0.6
			c0.6-1.6,0.6-3.4,0.3-5.1c0-0.3-0.3,0-0.4,0.2c-0.7,1.1-1.2,2.3-1.6,3.5c-0.3,0.5-1.3,1-1.8,0.3c-0.5-1,0.3-2.4-0.1-3.5
			c-0.7,1.2-1,2.4-1.8,3.5c-0.4,0.5-1.3,0.5-1.5,0c-0.5-1.2-0.1-2.7-0.3-4C-244.3,420.7-244,419.4-242.7,419.8z"/>
		<path class="st2" d="M-230.9,418.4c1.5-1.9,4-1.9,6.1-2.4c0.5-0.1,1,0.2,1.1,0.6c0.2,0.5-0.4,0.8-0.7,0.9
			c-1.3,0.5-2.7,0.3-3.9,0.9c-0.2,0.1-0.4,0.3-0.3,0.5c1.4,2.1,5.2,2.9,4.5,5.7c-0.6,2.4-4.2,2.8-6.3,1.9c-1-0.4-0.4-1.7,0.5-2
			c0.5-0.1,0.5,0.6,0.8,0.7c0.4,0.1,0.7,0,1.1,0.2c0.7,0.4,1.4-0.1,2-0.4c0.4-0.3,0.4-0.7,0.2-1.1c-1.3-1.7-3.2-2.3-4.6-4
			C-230.7,419.2-231.2,418.8-230.9,418.4z"/>
		<path class="st2" d="M-219.7,426.6c-1.2-0.2-2.6-0.2-3.2-1.3c-0.5-0.6-0.3-1.8,0.2-2.4c1.4-1.9,3.8-1.3,3.8-1.3
			c0.2-0.2,0.3-1-0.1-1.1c-1-0.2-1.6,0.2-2.5,0.5c-0.7,0.2-0.8-1.1-0.7-1.3c1.2-0.8,3.8-1.3,4.5,0.3c0.7,1.4-0.1,2.9-0.3,4.5
			c-0.1,1-0.2,3.3-1.1,2.7C-219.5,427-219.5,426.6-219.7,426.6z M-219.3,422.8c-1,0.4-2.7,0.1-2.7,1.5c0,0.7,2.4,1.1,2.5,0.8
			C-219.3,424.3-218.9,423.7-219.3,422.8z"/>
		<path class="st2" d="M-216.7,416.5c0.3-0.7,1.6-0.8,1.7,0.2c0,0.2-0.1,0.5-0.1,0.7c0,1.2,0.1,2.5,0,3.6c-0.1,1.9,0.4,3.7-0.3,5.4
			c-0.2,0.5-0.8,0.5-1.3,0.3c-0.3-0.2-0.4-0.6-0.3-0.9c0.5-1.7,0.3-3.4,0.4-5.2C-216.5,419.2-217.3,417.7-216.7,416.5z"/>
		<path class="st2" d="M-211,419.4c1.3,0.2,2.5,1.5,2.5,2.9c-0.3,0.8-2.2,1.5-2.8,2.1c-0.1,0-0.4,0.2-0.3,0.4c0.6,1,1.7,0.6,2.6,0.1
			c0.6,0.4,0.3,1.5-0.4,1.6c-0.8,0.1-1.6,0.3-2.4,0c-1.7-0.8-2.1-2.7-2.1-4.3C-213.9,420.4-212.6,419.1-211,419.4z M-210.1,421.8
			c0.4-0.9-1-1.3-1.7-0.9c-0.7,0.4-0.5,2-0.1,2C-211.2,422.9-210.4,422.7-210.1,421.8z"/>
		<path class="st2" d="M-208.2,418.4c1.5-1.9,4-1.9,6.1-2.4c0.5-0.1,1,0.2,1.1,0.6c0.2,0.5-0.4,0.8-0.7,0.9
			c-1.3,0.5-2.7,0.3-3.9,0.9c-0.2,0.1-0.4,0.3-0.3,0.5c1.4,2.1,5.2,2.9,4.5,5.7c-0.6,2.4-4.2,2.8-6.3,1.9c-1-0.4-0.4-1.7,0.5-2
			c0.5-0.1,0.5,0.6,0.8,0.7c0.4,0.1,0.7,0,1.1,0.2c0.7,0.4,1.4-0.1,2-0.4c0.4-0.3,0.4-0.7,0.2-1.1c-1.3-1.7-3.2-2.3-4.6-4
			C-208.1,419.2-208.6,418.8-208.2,418.4z"/>
		<path class="st2" d="M-199.9,420.6c0.2-0.4,0.8-0.6,1.3-0.4c0.3,0.1,0.7,0.5,0.4,0.8c-0.5,0.7-0.2,1.5-0.4,2.2
			c-0.3,0.8,0.2,1.6,0,2.4c0,0.1-0.1,0.2-0.2,0.2c-0.5,0.2-1.2,0.2-1.3-0.3c-0.3-1-0.1-2-0.1-3
			C-200.2,421.9-200.2,421.2-199.9,420.6z M-199.6,417.5c0.5-0.3,1.2-0.3,1.5,0.2c0.3,0.5-0.2,1.2-0.5,1.4c-0.4,0.2-0.9,0.1-1.3-0.3
			C-200.1,418.4-199.8,417.6-199.6,417.5z"/>
		<path class="st2" d="M-195.9,419.8c1,0.3,0,1.6,0.5,2.3c1-0.9,1.2-3.2,3-2.5c0.1,0.1,0.3,0.3,0.3,0.3c0.2,0.7,0.1,1.4,0.3,2
			c0.8-0.9,1.8-2.4,3.2-1.9c0.4,0.3,0.3,0.8,0.3,1.3c0.3,2,0.3,4-0.4,6c-0.2,0.6-1,0.7-1.6,0.3c-0.1,0-0.2-0.3-0.1-0.6
			c0.6-1.6,0.6-3.4,0.3-5.1c0-0.3-0.3,0-0.4,0.2c-0.7,1.1-1.2,2.3-1.6,3.5c-0.3,0.5-1.3,1-1.8,0.3c-0.5-1,0.3-2.4-0.1-3.5
			c-0.7,1.2-1,2.4-1.8,3.5c-0.4,0.5-1.3,0.5-1.5,0c-0.5-1.2-0.1-2.7-0.3-4C-197.6,420.7-197.3,419.4-195.9,419.8z"/>
	</g>
</g>
<path class="st1" d="M-177.3,527.4c-10.5,2.8-20.7,6.5-30.7,10.7c-7.2-10.1-15-19.7-23.2-29c-0.5-0.6-1.1-0.6-1.6-0.3
	c-0.1,0-0.1,0-0.2,0.1c-11.7,6.4-23.1,13-35,19c-0.7,0.4-0.9,1-0.7,1.6c-0.1,0.1-0.1,0.2-0.2,0.3c-6.2,10.7-11.2,22.1-18.7,32
	c-0.1,0.2-0.2,0.4-0.3,0.5c-10.3-1.6-20.7-0.1-31.1-1.3c-0.6-0.1-1.1,0.2-1.3,0.6c-7.4,4.5-15.9,6.7-23.6,10.6
	c-7.2-6.2-14.7-12.1-22.1-18.2c-1-0.8-2.3-0.1-2.6,0.8c-5,3.6-10,7.4-15.2,10.6c-1.6,1-0.1,3.6,1.5,2.6c5.3-3.2,10.3-7.1,15.3-10.7
	c0.1,0,0.1-0.1,0.2-0.2c7.1,5.8,14.3,11.6,21.3,17.6c0.4,0.4,0.9,0.4,1.3,0.3c0.3,0.1,0.8,0.1,1.2-0.1c7.9-4.1,16.7-6.4,24.3-11
	c0,0,0.1-0.1,0.1-0.1c10.1,1,20.3-0.5,30.4,1.2c1,0.2,1.7-0.6,1.9-1.4c0.4,0,0.9-0.2,1.2-0.6c7.5-9.9,12.5-21.3,18.7-32
	c0.2-0.3,0.2-0.7,0.2-1c11.4-5.7,22.4-12.1,33.5-18.2c8.1,9.1,15.7,18.6,22.7,28.5c0.4,0.5,0.9,0.7,1.5,0.6c0.3,0.1,0.6,0,0.9-0.1
	c10.1-4.3,20.4-8,31-10.8C-174.6,529.8-175.4,526.9-177.3,527.4z"/>
<path class="st1" d="M-200.5,451.1c-6.6-8-20.7-10.6-30.6-6.6c-8.7,2-17.1,8.4-20.5,16.7c-3.8,9.1,0.5,20.7,5.7,28.3
	c4.7,7,12,11.5,20.1,11.2c0.9,2.9,2,5.7,3.2,8.6c0.5,1.1,2,0.8,2.6,0c2.1-3,3.8-6.2,4.9-9.6c3.5-0.4,6.9-1.3,9.9-2.7
	c8.8-4,12.9-14.6,14-23.5C-189.9,463.5-193.9,455.9-200.5,451.1z M-238.3,455.4c-0.1-0.1-0.2-0.1-0.3-0.2c0.4-0.4,0.8-0.8,1.2-1.2
	C-237.7,454.5-238,455-238.3,455.4z M-204.6,493.1c0.5-0.6,1-1.3,1.5-1.9c0.2,0.1,0.4,0.2,0.6,0.2
	C-203.2,492.1-203.9,492.6-204.6,493.1z M-197.6,485c0.1-0.4,0.1-0.8,0-1.2c0.3-0.2,0.6-0.3,0.8-0.5
	C-197.1,483.8-197.3,484.4-197.6,485z M-197.4,479.9c0.5-0.9,0.9-1.8,1.3-2.7c0.2-0.5,0.2-0.9,0.1-1.2c0.1-0.2,0.2-0.4,0.4-0.7
	C-195.8,477.1-196.4,478.7-197.4,479.9z"/>
<g class="st0">
	<path class="st5" d="M-241.9,469.8c0.1-0.8,0.3-1.3,0.7-1.4c0.3-0.2,0.3-0.2,0.7,0c0.2,0,0.4,0.2,0.5,0.4c0.1,0.2,0.3,1.5,0.3,2.2
		c0,0.1,0.2,0.1,1.1,0.1c1.2-0.1,1.5,0,1.5,0.5c0,0.4-0.3,0.5-1.5,0.6c-1.1,0.1-1.1,0.1-1,0.7c0.1,1.4,0.2,2.1,0.1,2.4
		c-0.1,0.5-1.2,0.7-1.7,0.4c-0.4-0.2-0.5-0.5-0.6-1.9c0-0.8-0.1-1.2-0.1-1.2c-0.1,0-0.5,0-0.9,0.1c-1.3,0.2-2,0.1-2-0.4
		c0-0.4,0.6-0.6,2.1-0.8c0.6-0.1,0.6-0.1,0.7-0.6C-241.9,470.6-241.9,470.1-241.9,469.8z"/>
	<path class="st5" d="M-235.7,464c0.3-0.1,0.7-0.3,1.1-0.6c0.4-0.3,0.6-0.3,1.2-0.3c0.7,0,0.9,0,1.2,0.3c0.4,0.4,0.4,0.3,0.4,4.3
		c0,5.7-0.5,10.4-1,11.1c-0.6,0.7-1.7,0.6-2.1-0.1c-0.3-0.5-0.2-0.9-0.1-4.3c0-2.2,0.1-5,0.1-6.5c0.1-2.5,0.1-2.5-0.4-2.5
		C-236.4,465.4-236.8,464.5-235.7,464z"/>
	<path class="st5" d="M-220.7,474.3c-0.8,2.7-2.4,4.4-4.6,4.9c-0.6,0.1-1.8,0-2.5-0.2c-0.7-0.3-1.4-0.9-1.6-1.5
		c-0.1-0.3-0.1-0.4,0-0.7c0.1-0.4,0.4-0.6,1-0.6c0.5,0,0.7,0.2,1,0.8c0.4,0.6,0.9,0.8,1.4,0.7c0.5-0.2,1.3-0.9,1.7-1.5
		c0.6-0.8,1.2-2.6,1.3-4c0.1-0.6,0.1-0.6-0.2-0.4c-0.6,0.2-1.8,0.3-2.7,0.3c-2.9,0-4.7-1.2-5-3.3c-0.2-1.1,0.1-2.1,0.8-3.3
		c0.7-1.1,2.2-2.1,3.5-2.4c0.7-0.1,2.3,0,2.9,0.1c0.6,0.2,1.5,0.9,2,1.5c1,1.4,1.4,2.9,1.5,5.2
		C-220.1,471.7-220.4,472.8-220.7,474.3z M-227.8,467c-0.5,1.1-0.3,2.4,0.5,3c0.3,0.3,0.5,0.3,1.3,0.3c1.1,0.1,1.7-0.1,2.5-0.8
		c0.3-0.2,0.5-0.4,0.5-0.5c0-0.6-0.6-2.6-1-3.2c-0.5-0.5-1.1-1-1.3-1C-226.1,464.8-227.3,465.8-227.8,467z"/>
	<path class="st5" d="M-218.8,465.5c0-0.9,0.7-1.6,2.1-2.2c0.6-0.3,0.9-0.3,1.8-0.3c1.2,0,1.9,0.2,2.6,1c0.7,0.7,1,1.4,1,2.8
		c0.1,1.7-0.6,3.4-2,5.6c-1.2,2-1.7,2.7-2.2,3.6c-0.4,0.6-0.6,1.1-0.5,1.1c0,0,0.4,0,1,0.1c0.5,0,1.1,0.1,1.3,0.1
		c0.3,0.1,0.3,0.1,0.3-0.4c0-0.3,0-0.5,0.1-0.6c0.3-0.4,0.4-0.4,1.2-0.4c0.9,0,1.1,0,1.3,0.2c0.9,0.9,0.6,2.3-0.5,2.8
		c-0.7,0.4-1.4,0.4-3.4,0c-1.6-0.3-1.7-0.3-2.2,0c-1.1,0.4-2.4,0.1-2.6-0.5c-0.1-0.6,0.5-2.5,1.3-4c0.1-0.3,0.4-0.6,0.4-0.6
		s0-0.2,0.1-0.3c1.6-2.2,2.5-4,3-5.4c0.4-0.9,0.3-2.2,0-2.8c-0.5-0.6-0.6-0.7-1.1-0.5c-0.5,0.3-0.7,0.6-0.7,0.9
		c0.1,0.5-0.1,0.7-0.6,0.9C-218.1,466.8-218.9,466.2-218.8,465.5z"/>
	<path class="st5" d="M-209.1,464.5c0.1-0.3,0.3-0.5,0.6-0.7c0.6-0.4,0.6-0.4,1.3-0.4c1.3,0,2.4,0.5,2.7,1.2
		c0.2,0.8-0.4,1.9-1.2,2.4c-0.4,0.3-0.5,0.2-1.4,0.2c-1.1,0-1.3-0.1-1.9-0.5c-0.4-0.3-0.6-1.2-0.5-1.6
		C-209.4,465-209.3,464.8-209.1,464.5z M-203.6,465.6c0.5-1,1.3-2.2,1.7-2.4c0.3-0.2,0.8-0.2,1.1,0.1c0.2,0.2,0.2,0.5-0.2,1.4
		c-0.3,0.7-1.1,2.8-1.8,4.2c-0.1,0.3-0.3,0.5-0.3,0.6c0,0.2-0.2,0.5-0.3,0.7c-0.1,0.3-0.2,0.6-0.2,0.6s-0.1,0.2-0.2,0.3
		c-0.2,0.3-0.6,1.6-0.9,2.2c-0.1,0.3-0.3,0.7-0.4,1.1c-0.1,0.4-0.4,1.3-0.6,2c-0.3,0.6-0.4,1.2-0.5,1.3c0,0.1-0.1,0.3-0.2,0.6
		c-0.3,0.8-0.7,1.1-1.5,1.1c-0.6,0-0.9-0.3-0.9-0.7c-0.1-0.3,0.1-0.8,0.2-1.2c0.1-0.2,0.2-0.4,0.3-0.7c0.1-0.3,0.1-0.5,0.2-0.7
		s0.1-0.3,0.1-0.3c0-0.1,1-2.7,1.3-3.3c0.1-0.3,0.3-0.6,0.3-0.7c0.1-0.2,0.2-0.3,0.3-0.4c0-0.1,0.1-0.3,0.2-0.4
		c0.1-0.3,0.1-0.5,0.2-0.6s0.3-0.6,0.5-1c0.5-1.3,0.6-1.5,1-2.4c0.3-0.4,0.4-0.8,0.5-0.9C-203.8,466-203.7,465.8-203.6,465.6z
		 M-206.8,465.7c0.3-0.4,0.3-0.9,0.2-1c0,0-0.2-0.1-0.4-0.2c-0.3,0-0.3,0-0.4,0.3c-0.2,0.3-0.3,1,0,1.1
		C-207.2,466.1-207,466.1-206.8,465.7z M-203.7,475.4c0.3-0.2,1.2-0.6,1.5-0.6c0.3-0.2,0.3-0.2,0.8,0c0.3,0.1,0.5,0.1,0.9,0.6
		s0.6,0.6,0.7,1.1c0.2,0.6,0.2,0.6,0,1c-0.2,0.6-0.5,0.9-1.2,1.2c-0.5,0.2-0.6,0.2-1.2,0.2c-1.9,0-2.8-0.9-2.5-2.2
		C-204.5,476.3-204,475.6-203.7,475.4z M-201.7,477.3c0.3-0.3,0.2-0.3,0.1-0.7c-0.1-0.2-0.2-0.4-0.4-0.5c-0.2-0.3-0.2-0.3-0.3,0
		c-0.3,0.3-0.4,0.6-0.4,0.9c0,0.4,0.2,0.6,0.6,0.6C-201.9,477.7-201.9,477.7-201.7,477.3z"/>
</g>
<g>
	<path class="st6" d="M-268,608c0-0.3-0.2-0.4-0.4-0.3c-2.9-1.9-6-3.4-9-5c0,0,0,0,0,0c0-0.5-0.7-0.5-0.7,0c0,3.7,0.2,7.4,0.2,11.1
		c0,0.1,0.1,0.2,0.1,0.3c0,0.1,0,0.2,0.2,0.3c2.9,1.6,6,2.9,8.6,5c0.1,0,0.1,0.1,0.2,0.1c0.1,0.4,0.7,0.4,0.7-0.1
		c-0.1-2,0-4-0.1-5.9c0-0.1,0.1-0.1,0.1-0.2C-268.1,611.5-268,609.8-268,608z"/>
	<path class="st7" d="M-278.8,613.1c-0.5-3.2,0.1-6.4-0.2-9.6c0,0,0-0.1,0-0.1c0,0,0,0,0,0c0.4-0.3-0.2-0.8-0.5-0.5
		c-2.6,2.1-5.9,3.6-8.7,5.2c0,0-0.1,0.1-0.1,0.1c-0.1,0-0.2,0.1-0.3,0.2c-0.1,0.1-0.2,0.2-0.2,0.3c0,0.2,0.1,0.3,0.1,0.5v10
		c0,0.4,0.6,0.5,0.7,0.1c0.1,0,0.1,0,0.2-0.1c2.6-2.1,5.6-3.7,8.4-5.5c0.1-0.1,0.1-0.1,0.2-0.2C-279,613.6-278.7,613.4-278.8,613.1z
		"/>
	<path class="st8" d="M-269.2,620c-1.1-0.9-2.5-1.4-3.8-2c-1.8-0.8-3.3-2.2-5.1-3.1c-0.1,0-0.1,0-0.2,0c-0.1-0.1-0.3-0.2-0.5-0.1
		c-0.1,0-0.1,0.1-0.1,0.2c-0.1,0-0.2,0-0.3,0c-2.6,1.7-5.3,3.2-8.1,4.7c-0.1,0.1-0.2,0.2-0.2,0.3c-0.3,0-0.5,0.5-0.2,0.7
		c3,1.7,6.1,3.4,8.9,5.4c0.2,0.2,0.5,0,0.5-0.2c0.1,0.1,0.2,0.1,0.3,0c2.7-1.9,6-2.8,8.4-5.1c0.1-0.1,0.1-0.1,0.1-0.2
		C-269.1,620.5-268.9,620.2-269.2,620z"/>
	<path class="st9" d="M-271.1,609.9c-1.9-2-4.9-2.5-7.2-4c-0.1-0.1-0.2-0.1-0.3,0c-0.1,0-0.1,0-0.2,0c-2.1,1.1-4.1,2.5-6.2,3.5
		c-0.1,0-0.1,0.1-0.1,0.1c-0.1,0-0.1,0-0.2,0c-0.5-0.1-0.7,0.6-0.2,0.7c0.2,0,0.4,0.1,0.6,0.2c0,0,0.1,0.1,0.1,0.1
		c0.7,0.3,1.4,0.6,2.1,0.9c1.3,0.8,2.5,1.8,3.9,2.3c0,0,0,0,0,0c0.1,0.1,0.2,0.1,0.2,0.1c0,0,0,0,0,0c0.1,0.1,0.2,0.1,0.2,0.2
		c0.1,0.2,0.3,0.4,0.5,0.3c2.1-1.2,4.1-2.6,6.2-3.9c0,0,0,0,0,0C-271.3,610.7-270.8,610.2-271.1,609.9z"/>
	<path class="st9" d="M-285.7,610.7c-0.7,2.7,0.5,5.5,0.3,8.2c0,0.1,0,0.2,0.1,0.3c0,0.1,0.1,0.1,0.1,0.1c2.1,1.2,4.2,2.2,6.3,3.5
		c0.1,0,0.1,0.1,0.2,0.1c0,0.1,0,0.1,0.1,0.2c0.2,0.4,0.9,0.2,0.7-0.2c-0.1-0.2-0.1-0.4-0.2-0.6c0,0,0-0.1,0-0.2
		c-0.1-0.8-0.2-1.5-0.3-2.3c0-1.5,0.2-3-0.1-4.6c0,0,0,0,0,0c0-0.1,0-0.2-0.1-0.2c0,0,0,0,0,0c0-0.1,0-0.2,0-0.3
		c0.2-0.2,0.2-0.5-0.1-0.6c-2.1-1.1-4.4-2.1-6.5-3.2c0,0,0,0,0,0C-284.9,610.4-285.6,610.2-285.7,610.7z"/>
	<path class="st9" d="M-277.4,623.3c2.6-0.8,4.4-3.4,6.7-4.7c0.1-0.1,0.2-0.2,0.2-0.2c0-0.1,0.1-0.1,0.1-0.2
		c-0.1-2.4-0.4-4.8-0.5-7.2c0-0.1,0-0.1-0.1-0.2c0-0.1,0.1-0.1,0.1-0.1c0.3-0.4-0.3-0.9-0.6-0.5c-0.1,0.2-0.3,0.3-0.4,0.5
		c0,0-0.1,0-0.1,0.1c-0.6,0.5-1.2,1-1.8,1.5c-1.3,0.8-2.7,1.5-3.8,2.5c0,0,0,0,0,0c-0.1,0-0.1,0.1-0.1,0.2c0,0,0,0,0,0
		c-0.1,0-0.2,0.1-0.3,0.1c-0.2,0-0.5,0.1-0.5,0.4c0.2,2.4,0.6,4.8,0.8,7.2c0,0,0,0,0,0C-278.1,622.8-277.8,623.5-277.4,623.3z"/>
</g>
</svg>
