<?xml version="1.0" encoding="utf-8"?>
<!-- Generator: Adobe Illustrator 19.0.0, SVG Export Plug-In . SVG Version: 6.00 Build 0)  -->
<svg version="1.1" id="Layer_1" xmlns="http://www.w3.org/2000/svg" xmlns:xlink="http://www.w3.org/1999/xlink" x="0px" y="0px"
	 viewBox="-443 379 305 270" style="enable-background:new -443 379 305 270;" xml:space="preserve">
<style type="text/css">
	.st0{enable-background:new    ;}
	.st1{fill:#EF4849;}
	.st2{fill:#333333;}
	.st3{opacity:0.1;fill:#EF4849;enable-background:new    ;}
	.st4{fill:none;stroke:#B0AFB0;stroke-width:1.5;stroke-miterlimit:10;}
	.st5{fill:#FFFFFF;}
	.st6{fill:#D82629;}
	.st7{fill:#EE2E39;}
	.st8{fill:#EF475A;}
	.st9{opacity:0.5;fill:#F58E95;enable-background:new    ;}
</style>
<g class="st0">
	<path class="st1" d="M-322.2,404.2c-1.6-3.3-0.9-7-2.3-10.3c-0.9,1.5-1.2,3.3-2,4.9c-0.1,0.2,0.1,0.6,0,0.8c-0.4,0.7-1.2,1.3-2,0.9
		c-0.5-0.1-0.9-0.6-0.9-1.1c-0.1-1.1-0.4-2.4-1.1-2.7c-0.6-0.2-0.1,1.1-0.3,1.6c-0.4,0.9,0,2.1-0.1,3c-0.1,0.9-2,1.2-2.6,0.6
		c-1.3-1.4,0.1-3.6,0.3-5.5c0.3-2.4,0.4-4.7,0.7-7c0.1-0.9,1.8-0.9,2.1-0.3c1.3,1.8,1.4,4,2.1,6.1c0.1,0.1,0.4,0.5,0.5,0.4
		c1.5-2.2,1.7-6.9,5-6.1c1.5,4.3,1.4,9,2.8,13.4c0.2,0.6-0.5,1.1-1.1,1.2C-321.6,404.3-322.1,404.4-322.2,404.2z"/>
	<path class="st1" d="M-314.6,403.9c-1.7-0.3-3.6-0.2-4.6-1.8c-0.6-0.9-0.4-2.6,0.2-3.4c1.9-2.6,5.3-1.8,5.4-1.9
		c0.2-0.3,0.4-1.4-0.2-1.5c-1.4-0.3-2.3,0.3-3.6,0.8c-1,0.3-1.2-1.6-1-1.8c1.7-1.2,5.3-1.8,6.4,0.4c1,2-0.2,4.1-0.4,6.3
		c-0.1,1.5-0.2,4.7-1.6,3.8C-314.2,404.5-314.2,403.9-314.6,403.9z M-313.9,398.5c-1.4,0.5-3.8,0.1-3.9,2.2c0,1.1,3.4,1.6,3.6,1.1
		C-314,400.6-313.4,399.8-313.9,398.5z"/>
	<path class="st1" d="M-307.1,391.1c0.1-1.2,1.6-1.2,2.5-0.6c0.1,0.1,0.2,0.5,0.1,0.8c-0.7,1.5-0.9,3.3-0.9,4.9
		c1.3-0.1,3.8-0.7,3.4,0.8c-0.4,1.2-2.5,1-3.8,1c-0.2,1.5,0.6,8.1,0.5,9.6c0,0.5-0.4,0.8-0.8,0.8c-0.6,0-0.8-0.2-1-0.8
		c-0.5-1.4-0.4-8.3-1.1-9.6c-0.9,0.7-2.6,1.3-3.1,0c-0.1-0.3,0.2-0.8,0.6-1.1c0.9-0.5,2.2-0.3,2.8-1c0.5-0.6,0.3-1.6,0.5-2.4
		C-307.4,392.7-307.2,391.9-307.1,391.1z"/>
	<path class="st1" d="M-301.1,393.3c1.2-1.1,2.6,0.4,2.4,1.9c1.4-0.2,1.8-2.3,3.5-1.8c0.6,0.2,1.3,0.5,0.8,1.2
		c-1,1.3-2.4,1.9-3.4,3.4c-0.3,0.5-0.1,1.2-0.4,1.7c-0.2,0.4-0.2,1,0.2,1.6c0.5,0.6,0.4,1.8-0.2,2.4c-0.5,0.7-1.6,0.7-2,0.1
		c-0.4-0.2-0.4-0.6-0.4-1.1c0.1-1.9-0.1-4-0.4-5.9C-301,395.6-302.2,394.3-301.1,393.3z"/>
	<path class="st1" d="M-292.8,395.4c0.3-0.6,1.2-0.8,1.9-0.5c0.4,0.2,0.9,0.7,0.5,1.2c-0.7,1.1-0.3,2.1-0.6,3
		c-0.4,1.2,0.3,2.2,0,3.4c0,0.1-0.1,0.3-0.2,0.3c-0.7,0.2-1.7,0.3-1.9-0.4c-0.4-1.4-0.1-2.8-0.1-4.2
		C-293.2,397.2-293.2,396.3-292.8,395.4z M-289.8,389.2c0.3,0,0.8,0.5,0.7,0.8c-0.5,1.3-0.7,1.6-1.8,2.6c-0.3,0.3-1.1,0.8-1.3,0.3
		c-0.3-1.1,0.1-1,0.6-2C-291.2,390-290.7,389.2-289.8,389.2z"/>
	<path class="st1" d="M-287.5,394.3c1.3-1.2,3-2.9,4.8-2.1c0.3,0.1,0.5,0.4,0.3,0.9c-0.5,1.5-1.8,1.4-3,2.2c-1,0.7-1.8,1.7-1.9,2.9
		c0,0.7,0.1,1.6,0.5,2.2c0.5,0.8,1.4,0.9,2.2,1.2c1.3,0.5,2.1-1.2,3.2-1.3c1.1-0.1,0.4,1.4,0.1,1.8c-1.2,1.8-3.4,1.6-5.3,1.1
		c-2.2-0.6-3.4-2.9-3-5.3C-289.2,396.4-288.5,395.2-287.5,394.3z"/>
	<path class="st1" d="M-279.5,393.4c0.8-0.4,2-0.1,2,0.7c0,1.6-0.2,3.1,0,4.7c0.2,1,0.5,3.3,1.4,2.6c2.1-1.4,2.6-4.7,1.2-7
		c-0.4-0.6-0.7-1.5-0.1-1.8c1.7-0.7,2.9,1.4,3,2.9c0.2,2.9-0.6,6.5-3.2,7.6c-4.1,1.8-5.2-4.2-4.9-7.5
		C-280,394.8-280.2,393.9-279.5,393.4z"/>
	<path class="st1" d="M-270.7,389.7c0.5-0.9,2.3-1.2,2.4,0.2c0,0.2-0.1,0.7-0.1,1c0,1.7,0.1,3.5,0,5.1c-0.1,2.6,0.6,5.3-0.5,7.7
		c-0.3,0.7-1.2,0.7-1.9,0.4c-0.4-0.2-0.5-0.8-0.4-1.3c0.7-2.4,0.5-4.8,0.6-7.3C-270.5,393.5-271.5,391.3-270.7,389.7z"/>
	<path class="st1" d="M-261.7,403.9c-1.7-0.3-3.6-0.2-4.6-1.8c-0.6-0.9-0.4-2.6,0.2-3.4c1.9-2.6,5.3-1.8,5.4-1.9
		c0.2-0.3,0.4-1.4-0.2-1.5c-1.4-0.3-2.3,0.3-3.6,0.8c-1,0.3-1.2-1.6-1-1.8c1.7-1.2,5.3-1.8,6.4,0.4c1,2-0.2,4.1-0.4,6.3
		c-0.1,1.5-0.2,4.7-1.6,3.8C-261.4,404.5-261.4,403.9-261.7,403.9z M-261.1,398.5c-1.4,0.5-3.8,0.1-3.9,2.2c0,1.1,3.4,1.6,3.6,1.1
		C-261.2,400.6-260.5,399.8-261.1,398.5z"/>
	<path class="st1" d="M-250.4,395.5c0.2,0.4-0.1,1.1-0.4,1.2c-1.2,0.8-2.9-2.1-4.7-1c-0.7,0.5,0.4,1.6,0.9,1.7
		c1.5,0.5,2.7,1.1,3.8,2.1c0.7,0.7,0.4,2-0.1,2.8c-1.2,2.1-5.7,3.2-7.1,0.3c-0.3-0.7,0.5-1.4,1.1-1.5c0.6,0,0.6,0.9,1.1,1.1
		c1.1,0.6,3.1,0,3.1-1.4c0-0.3-0.6-0.9-1.1-1.1c-1.6-0.7-3.5-1.1-4.2-2.7c-0.9-1.9,2.9-4.2,4.4-3.5
		C-252.4,394-251,394.3-250.4,395.5z"/>
	<path class="st1" d="M-247.3,396.5c-1.3,0.7-2.2-0.2-2.4-1.3c-0.2-1.8,1.8-2.1,2.6-1.5C-246.4,394.1-246.3,395.9-247.3,396.5z
		 M-247.3,403.9c-1.3,0.7-2.3-0.5-2.4-1.6c-0.2-1.8,1.8-2.1,2.6-1.5C-246.4,401.3-246.3,403.3-247.3,403.9z"/>
</g>
<path class="st1" d="M-325.5,639.6c-5.1,0.1-10.2,0-15.4,0c-1.9,0-1.9,3,0,3c5.1,0,10.2,0.1,15.4,0
	C-323.6,642.6-323.6,639.6-325.5,639.6z"/>
<g>
	<g class="st0">
		<path class="st2" d="M-314.9,636.8c1,0.3,0,1.6,0.5,2.3c1-0.9,1.2-3.2,3-2.5c0.1,0.1,0.3,0.3,0.3,0.3c0.2,0.7,0.1,1.4,0.3,2
			c0.9-0.9,1.8-2.4,3.2-1.9c0.4,0.3,0.3,0.8,0.3,1.3c0.3,2,0.3,4-0.4,6c-0.2,0.6-1,0.7-1.6,0.3c-0.1,0-0.2-0.3-0.1-0.6
			c0.6-1.6,0.6-3.4,0.3-5.1c0-0.3-0.3,0-0.4,0.2c-0.7,1.1-1.2,2.3-1.6,3.5c-0.3,0.5-1.3,1-1.8,0.3c-0.5-1,0.3-2.4-0.1-3.5
			c-0.7,1.2-1,2.4-1.8,3.5c-0.4,0.5-1.3,0.5-1.5,0c-0.5-1.2-0.1-2.7-0.3-4C-316.6,637.7-316.3,636.4-314.9,636.8z"/>
		<path class="st2" d="M-303.2,636.4c1.3,0.2,2.5,1.5,2.5,2.9c-0.3,0.8-2.2,1.5-2.8,2.1c-0.1,0-0.4,0.2-0.3,0.4
			c0.6,1,1.7,0.6,2.6,0.1c0.6,0.4,0.3,1.5-0.4,1.6c-0.8,0.1-1.6,0.3-2.4,0c-1.7-0.8-2.1-2.7-2.1-4.3
			C-306.2,637.3-304.9,636.1-303.2,636.4z M-302.4,638.8c0.4-0.9-1-1.3-1.7-0.9c-0.7,0.4-0.5,2-0.1,2
			C-303.5,639.9-302.7,639.6-302.4,638.8z M-302.1,632.9c0.2,0,0.6,0.4,0.5,0.6c-0.3,0.9-0.5,1.1-1.3,1.8c-0.2,0.2-0.8,0.6-0.9,0.2
			c-0.2-0.8,0.1-0.7,0.4-1.4C-303.1,633.5-302.7,632.9-302.1,632.9z"/>
		<path class="st2" d="M-296.6,636.5c0.4-0.3,0.2-1.2,0.5-1.8c0.2-0.4,0.7-0.7,1.1-0.6c0.2,0.1,0.6,0.3,0.5,0.7
			c-1,2.7-0.9,5.6-0.4,8.5c0,0.2-0.4,0.4-0.7,0.4c-0.7,0.1-0.7-1-1.1-1.1c-0.7,0-1.3,0.2-2-0.2c-0.8-0.6-1.9-1.1-1.9-2.4
			C-300.5,637.9-297.9,637.6-296.6,636.5z M-296.8,641.1c-0.2-1,0.2-1.9,0.2-2.9c-0.9,0-2.3,0.5-2.1,1.5
			C-298.7,640.6-297.7,641.4-296.8,641.1z"/>
		<path class="st2" d="M-293.4,637.6c0.2-0.4,0.8-0.6,1.3-0.4c0.3,0.1,0.7,0.5,0.4,0.8c-0.5,0.7-0.2,1.5-0.4,2.2
			c-0.3,0.8,0.2,1.6,0,2.4c0,0.1-0.1,0.2-0.2,0.2c-0.5,0.2-1.2,0.2-1.3-0.3c-0.3-1-0.1-2-0.1-3
			C-293.7,638.8-293.7,638.2-293.4,637.6z M-293.1,634.4c0.5-0.3,1.2-0.3,1.5,0.2c0.3,0.5-0.2,1.2-0.5,1.4c-0.4,0.2-0.9,0.1-1.3-0.3
			C-293.6,635.3-293.3,634.6-293.1,634.4z"/>
		<path class="st2" d="M-287.5,643.6c-1.2-0.2-2.6-0.2-3.2-1.3c-0.5-0.6-0.3-1.8,0.2-2.4c1.4-1.9,3.8-1.3,3.8-1.3
			c0.2-0.2,0.3-1-0.1-1.1c-1-0.2-1.6,0.2-2.5,0.5c-0.7,0.2-0.8-1.1-0.7-1.3c1.2-0.8,3.8-1.3,4.5,0.3c0.7,1.4-0.1,2.9-0.3,4.5
			c-0.1,1-0.2,3.3-1.1,2.7C-287.2,644-287.2,643.6-287.5,643.6z M-287,639.8c-1,0.4-2.7,0.1-2.7,1.5c0,0.7,2.4,1.1,2.5,0.8
			C-287.1,641.2-286.6,640.7-287,639.8z"/>
		<path class="st2" d="M-276.3,637.6c0.1,0.3-0.1,0.7-0.3,0.9c-0.9,0.5-2.1-1.5-3.3-0.7c-0.5,0.3,0.3,1.1,0.6,1.2
			c1,0.4,1.9,0.7,2.7,1.5c0.5,0.5,0.3,1.4-0.1,2c-0.9,1.5-4,2.3-5,0.2c-0.2-0.5,0.3-1,0.8-1c0.4,0,0.5,0.6,0.8,0.8
			c0.8,0.4,2.2,0,2.2-1c0-0.2-0.5-0.6-0.8-0.7c-1.1-0.5-2.4-0.8-3-1.9c-0.7-1.4,2-3,3.1-2.5C-277.7,636.6-276.7,636.8-276.3,637.6z"
			/>
		<path class="st2" d="M-273,636.4c1.3,0.2,2.5,1.5,2.5,2.9c-0.3,0.8-2.2,1.5-2.8,2.1c-0.1,0-0.4,0.2-0.3,0.4c0.6,1,1.7,0.6,2.6,0.1
			c0.6,0.4,0.3,1.5-0.4,1.6c-0.8,0.1-1.6,0.3-2.4,0c-1.7-0.8-2.1-2.7-2.1-4.3C-275.9,637.3-274.7,636.1-273,636.4z M-272.2,638.8
			c0.4-0.9-1-1.3-1.7-0.9c-0.7,0.4-0.5,2-0.1,2C-273.2,639.9-272.5,639.6-272.2,638.8z"/>
		<path class="st2" d="M-268.6,636.8c1,0.3,0,1.6,0.5,2.3c1-0.9,1.2-3.2,3-2.5c0.1,0.1,0.3,0.3,0.3,0.3c0.2,0.7,0.1,1.4,0.3,2
			c0.9-0.9,1.8-2.4,3.2-1.9c0.4,0.3,0.3,0.8,0.3,1.3c0.3,2,0.3,4-0.4,6c-0.2,0.6-1,0.7-1.6,0.3c-0.1,0-0.2-0.3-0.1-0.6
			c0.6-1.6,0.6-3.4,0.3-5.1c0-0.3-0.3,0-0.4,0.2c-0.7,1.1-1.2,2.3-1.6,3.5c-0.3,0.5-1.3,1-1.8,0.3c-0.5-1,0.3-2.4-0.1-3.5
			c-0.7,1.2-1,2.4-1.8,3.5c-0.4,0.5-1.3,0.5-1.5,0c-0.5-1.2-0.1-2.7-0.3-4C-270.3,637.7-270,636.4-268.6,636.8z"/>
		<path class="st2" d="M-256.4,643.6c-1.2-0.2-2.6-0.2-3.2-1.3c-0.5-0.6-0.3-1.8,0.2-2.4c1.4-1.9,3.8-1.3,3.8-1.3
			c0.2-0.2,0.3-1-0.1-1.1c-1-0.2-1.6,0.2-2.5,0.5c-0.7,0.2-0.8-1.1-0.7-1.3c1.2-0.8,3.8-1.3,4.5,0.3c0.7,1.4-0.1,2.9-0.3,4.5
			c-0.1,1-0.2,3.3-1.1,2.7C-256.1,644-256.1,643.6-256.4,643.6z M-255.9,639.8c-1,0.4-2.7,0.1-2.7,1.5c0,0.7,2.4,1.1,2.5,0.8
			C-256,641.2-255.5,640.7-255.9,639.8z"/>
		<path class="st2" d="M-253.4,637.3c0.2-0.5,1.2-0.5,1.3,0.1c0.1,0.4-0.2,0.8-0.2,1.3c0.1,0.1,0.2,0.3,0.2,0.2
			c0.6-0.9,1.1-2,2.3-1.6c0.9,1.5,0.8,3.4,0.9,5.1c0.1,0.3,0.1,0.8-0.2,0.9c-0.4,0.1-1.1,0.3-1.2-0.2c-0.2-1.4-0.1-2.8-0.4-4.2
			c-0.9,0.9-1,2.2-1.6,3.4c-0.3,0.4-1,0.5-1.2,0c-0.2-0.6-0.1-1.4-0.1-2.2C-253.4,639.2-253.7,638.1-253.4,637.3z"/>
		<path class="st2" d="M-244.2,643.6c-1.2-0.2-2.6-0.2-3.2-1.3c-0.5-0.6-0.3-1.8,0.2-2.4c1.4-1.9,3.8-1.3,3.8-1.3
			c0.2-0.2,0.3-1-0.1-1.1c-1-0.2-1.6,0.2-2.5,0.5c-0.7,0.2-0.8-1.1-0.7-1.3c1.2-0.8,3.8-1.3,4.5,0.3c0.7,1.4-0.1,2.9-0.3,4.5
			c-0.1,1-0.2,3.3-1.1,2.7C-244,644-244,643.6-244.2,643.6z M-243.8,639.8c-1,0.4-2.7,0.1-2.7,1.5c0,0.7,2.4,1.1,2.5,0.8
			C-243.8,641.2-243.4,640.7-243.8,639.8z"/>
		<path class="st2" d="M-241.2,633.5c0.3-0.7,1.6-0.8,1.7,0.2c0,0.2-0.1,0.5-0.1,0.7c0,1.2,0.1,2.5,0,3.6c-0.1,1.9,0.4,3.7-0.3,5.4
			c-0.2,0.5-0.8,0.5-1.3,0.3c-0.3-0.2-0.4-0.6-0.3-0.9c0.5-1.7,0.3-3.4,0.4-5.2C-241,636.2-241.8,634.7-241.2,633.5z"/>
	</g>
</g>
<rect x="-281.9" y="434.8" class="st3" width="112.5" height="160.8"/>
<line class="st4" x1="-388.9" y1="435.2" x2="-167" y2="434.3"/>
<line class="st4" x1="-388.9" y1="514.7" x2="-167" y2="515.2"/>
<line class="st4" x1="-388.9" y1="595.2" x2="-167" y2="596.3"/>
<g class="st0">
	<path class="st2" d="M-413.6,430c0-0.6,0.5-1,1.4-1.4c0.4-0.2,0.6-0.2,1.2-0.2c0.8,0,1.2,0.1,1.7,0.6c0.5,0.5,0.6,0.9,0.6,1.8
		c0.1,1.1-0.4,2.2-1.3,3.6c-0.8,1.3-1.1,1.7-1.4,2.4c-0.2,0.4-0.4,0.7-0.3,0.7c0,0,0.2,0,0.6,0.1c0.3,0,0.7,0.1,0.9,0.1
		c0.2,0.1,0.2,0.1,0.2-0.2c0-0.2,0-0.3,0.1-0.4c0.2-0.2,0.2-0.2,0.8-0.2c0.6,0,0.7,0,0.9,0.2c0.6,0.6,0.4,1.5-0.3,1.8
		c-0.5,0.2-0.9,0.2-2.2,0c-1-0.2-1.1-0.2-1.4,0c-0.7,0.2-1.6,0.1-1.7-0.3c-0.1-0.4,0.3-1.7,0.9-2.6c0.1-0.2,0.2-0.4,0.2-0.4
		s0-0.2,0.1-0.2c1-1.4,1.6-2.6,2-3.6c0.2-0.6,0.2-1.4,0-1.8c-0.3-0.4-0.4-0.5-0.7-0.3s-0.5,0.4-0.5,0.6c0.1,0.3-0.1,0.5-0.4,0.6
		C-413.1,430.9-413.7,430.5-413.6,430z"/>
	<path class="st2" d="M-406.5,430.5c0.7-1.4,1.4-2.2,2.2-2.3c0.1,0,0.6-0.1,0.9-0.1c0.7,0,0.8,0.1,1.2,0.3c0.5,0.3,1.2,0.9,1.4,1.4
		c0,0,0.1,0.2,0.1,0.2c0.1,0,0.5,1.2,0.6,1.6c0.3,0.9,0.3,1.3,0.3,2.3c0,1.5-0.3,2.7-0.9,3.6c-0.8,1.2-1.8,1.7-3.2,1.7
		c-1,0-1.9-0.3-2.5-1c-0.6-0.6-0.9-1.2-1.1-2.2c0-0.4,0-2,0-2.4C-407.2,432.3-407,431.5-406.5,430.5z M-402.4,429.9
		c-0.2-0.3-0.7-0.5-0.9-0.7c-0.2,0-0.4,0-0.6,0c-0.3,0-0.7,0.6-0.9,1.2c0,0.1-0.1,0.3-0.2,0.5c-0.4,0.9-0.7,2.7-0.7,3.9
		c0,0.9,0.2,2,0.4,2.3c0,0,0.1,0.1,0.1,0.1c0,0.1,0.7,0.7,0.9,0.8c0.3,0.1,0.7,0.1,1,0c0.8-0.4,1.4-1.3,1.7-2.8c0-0.4,0-2.5,0-2.9
		C-401.7,431.3-402.1,430.5-402.4,429.9z"/>
</g>
<g class="st0">
	<path class="st2" d="M-411.4,509.3c0.2-0.1,0.5-0.2,0.7-0.4c0.2-0.2,0.4-0.2,0.8-0.2c0.5,0,0.6,0,0.8,0.2c0.2,0.2,0.2,0.2,0.2,2.8
		c0,3.7-0.3,6.8-0.6,7.2c-0.4,0.5-1.1,0.4-1.4-0.1c-0.2-0.3-0.1-0.6-0.1-2.8c0-1.4,0.1-3.3,0.1-4.2c0.1-1.6,0.1-1.6-0.2-1.6
		C-411.9,510.2-412.1,509.6-411.4,509.3z"/>
	<path class="st2" d="M-407.3,510.8c0.7-1.4,1.4-2.2,2.2-2.3c0.1,0,0.6-0.1,0.9-0.1c0.7,0,0.8,0.1,1.2,0.3c0.5,0.3,1.2,0.9,1.4,1.4
		c0,0,0.1,0.2,0.1,0.2c0.1,0,0.5,1.2,0.6,1.6c0.3,0.9,0.3,1.3,0.3,2.3c0,1.5-0.3,2.7-0.9,3.6c-0.8,1.2-1.8,1.7-3.2,1.7
		c-1,0-1.9-0.3-2.5-1c-0.6-0.6-0.9-1.2-1.1-2.2c0-0.4,0-2,0-2.4C-408,512.5-407.8,511.7-407.3,510.8z M-403.2,510.2
		c-0.2-0.3-0.7-0.5-0.9-0.7c-0.2,0-0.4,0-0.6,0c-0.3,0-0.7,0.6-0.9,1.2c0,0.1-0.1,0.3-0.2,0.5c-0.4,0.9-0.7,2.7-0.7,3.9
		c0,0.9,0.2,2,0.4,2.3c0,0,0.1,0.1,0.1,0.1c0,0.1,0.7,0.7,0.9,0.8c0.3,0.1,0.7,0.1,1,0c0.8-0.4,1.4-1.3,1.7-2.8c0-0.4,0-2.5,0-2.9
		C-402.6,511.6-402.9,510.7-403.2,510.2z"/>
</g>
<g class="st0">
	<path class="st2" d="M-405.9,591.5c0.7-1.4,1.4-2.2,2.2-2.3c0.1,0,0.6-0.1,0.9-0.1c0.7,0,0.8,0.1,1.2,0.3c0.5,0.3,1.2,0.9,1.4,1.4
		c0,0,0.1,0.2,0.1,0.2c0.1,0,0.5,1.2,0.6,1.6c0.3,0.9,0.3,1.3,0.3,2.3c0,1.5-0.3,2.7-0.9,3.6c-0.8,1.2-1.8,1.7-3.2,1.7
		c-1,0-1.9-0.3-2.5-1c-0.6-0.6-0.9-1.2-1.1-2.2c0-0.4,0-2,0-2.4C-406.6,593.3-406.4,592.5-405.9,591.5z M-401.8,590.9
		c-0.2-0.3-0.7-0.5-0.9-0.7c-0.2,0-0.4,0-0.6,0c-0.3,0-0.7,0.6-0.9,1.2c0,0.1-0.1,0.3-0.2,0.5c-0.4,0.9-0.7,2.7-0.7,3.9
		c0,0.9,0.2,2,0.4,2.3c0,0,0.1,0.1,0.1,0.1c0,0.1,0.7,0.7,0.9,0.8c0.3,0.1,0.7,0.1,1,0c0.8-0.4,1.4-1.3,1.7-2.8c0-0.4,0-2.5,0-2.9
		C-401.2,592.3-401.5,591.5-401.8,590.9z"/>
</g>
<g>
	<g class="st0">
		<path class="st2" d="M-207.1,607.6c0.1,0.3-0.1,0.7-0.3,0.9c-0.9,0.5-2.1-1.5-3.3-0.7c-0.5,0.3,0.3,1.1,0.6,1.2
			c1,0.4,1.9,0.7,2.7,1.5c0.5,0.5,0.3,1.4-0.1,2c-0.9,1.5-4,2.3-5,0.2c-0.2-0.5,0.3-1,0.8-1c0.4,0,0.5,0.6,0.8,0.8
			c0.8,0.4,2.2,0,2.2-1c0-0.2-0.5-0.6-0.8-0.7c-1.1-0.5-2.4-0.8-3-1.9c-0.7-1.4,2-3,3.1-2.5C-208.5,606.6-207.5,606.8-207.1,607.6z"
			/>
		<path class="st2" d="M-203.8,606.4c1.3,0.2,2.5,1.5,2.5,2.9c-0.3,0.8-2.2,1.5-2.8,2.1c-0.1,0-0.4,0.2-0.3,0.4
			c0.6,1,1.7,0.6,2.6,0.1c0.6,0.4,0.3,1.5-0.4,1.6c-0.8,0.1-1.6,0.3-2.4,0c-1.7-0.8-2.1-2.7-2.1-4.3
			C-206.7,607.4-205.5,606.1-203.8,606.4z M-203,608.8c0.4-0.9-1-1.3-1.7-0.9c-0.7,0.4-0.5,2-0.1,2
			C-204,609.9-203.2,609.7-203,608.8z"/>
		<path class="st2" d="M-199.4,606.8c1,0.3,0,1.6,0.5,2.3c1-0.9,1.2-3.2,3-2.5c0.1,0.1,0.3,0.3,0.3,0.3c0.2,0.7,0.1,1.4,0.3,2
			c0.8-0.9,1.8-2.4,3.2-1.9c0.4,0.3,0.3,0.8,0.3,1.3c0.3,2,0.3,4-0.4,6c-0.2,0.6-1,0.7-1.6,0.3c-0.1,0-0.2-0.3-0.1-0.6
			c0.6-1.6,0.6-3.4,0.3-5.1c0-0.3-0.3,0-0.4,0.2c-0.7,1.1-1.2,2.3-1.6,3.5c-0.3,0.5-1.3,1-1.8,0.3c-0.5-1,0.3-2.4-0.1-3.5
			c-0.7,1.2-1,2.4-1.8,3.5c-0.4,0.5-1.3,0.5-1.5,0c-0.5-1.2-0.1-2.7-0.3-4C-201.1,607.7-200.8,606.4-199.4,606.8z"/>
		<path class="st2" d="M-187.1,613.6c-1.2-0.2-2.6-0.2-3.2-1.3c-0.5-0.6-0.3-1.8,0.2-2.4c1.4-1.9,3.8-1.3,3.8-1.3
			c0.2-0.2,0.3-1-0.1-1.1c-1-0.2-1.6,0.2-2.5,0.5c-0.7,0.2-0.8-1.1-0.7-1.3c1.2-0.8,3.8-1.3,4.5,0.3c0.7,1.4-0.1,2.9-0.3,4.5
			c-0.1,1-0.2,3.3-1.1,2.7C-186.9,614-186.9,613.6-187.1,613.6z M-186.7,609.8c-1,0.4-2.7,0.1-2.7,1.5c0,0.7,2.4,1.1,2.5,0.8
			C-186.7,611.3-186.3,610.7-186.7,609.8z"/>
		<path class="st2" d="M-184.1,607.3c0.2-0.5,1.2-0.5,1.3,0.1c0.1,0.4-0.2,0.8-0.2,1.3c0.1,0.1,0.2,0.3,0.2,0.2
			c0.6-0.9,1.1-2,2.3-1.6c0.9,1.5,0.8,3.4,0.9,5.1c0.1,0.3,0.1,0.8-0.2,0.9c-0.4,0.1-1.1,0.3-1.2-0.2c-0.2-1.4-0.1-2.8-0.4-4.2
			c-0.9,0.9-1,2.2-1.6,3.4c-0.3,0.4-1,0.5-1.2,0c-0.2-0.6-0.1-1.4-0.1-2.2C-184.2,609.2-184.4,608.1-184.1,607.3z"/>
		<path class="st2" d="M-175,613.6c-1.2-0.2-2.6-0.2-3.2-1.3c-0.5-0.6-0.3-1.8,0.2-2.4c1.4-1.9,3.8-1.3,3.8-1.3
			c0.2-0.2,0.3-1-0.1-1.1c-1-0.2-1.6,0.2-2.5,0.5c-0.7,0.2-0.8-1.1-0.7-1.3c1.2-0.8,3.8-1.3,4.5,0.3c0.7,1.4-0.1,2.9-0.3,4.5
			c-0.1,1-0.2,3.3-1.1,2.7C-174.7,614-174.8,613.6-175,613.6z M-174.5,609.8c-1,0.4-2.7,0.1-2.7,1.5c0,0.7,2.4,1.1,2.5,0.8
			C-174.6,611.3-174.2,610.7-174.5,609.8z"/>
		<path class="st2" d="M-167,607.6c0.1,0.3-0.1,0.7-0.3,0.9c-0.9,0.5-2.1-1.5-3.3-0.7c-0.5,0.3,0.3,1.1,0.6,1.2
			c1,0.4,1.9,0.7,2.7,1.5c0.5,0.5,0.3,1.4-0.1,2c-0.9,1.5-4,2.3-5,0.2c-0.2-0.5,0.3-1,0.8-1c0.4,0,0.5,0.6,0.8,0.8
			c0.8,0.4,2.2,0,2.2-1c0-0.2-0.5-0.6-0.8-0.7c-1.1-0.5-2.4-0.8-3-1.9c-0.7-1.4,2-3,3.1-2.5C-168.4,606.6-167.4,606.8-167,607.6z"/>
	</g>
</g>
<path class="st2" d="M-282.8,582.8c-0.2,1.1-0.2,2.1-0.2,3.2c0,1,1.5,1,1.5,0c0-0.9,0-1.9,0.1-2.8
	C-281.2,582.3-282.6,581.8-282.8,582.8z"/>
<path class="st2" d="M-281.7,575.5c-0.2-0.9-1.7-0.5-1.4,0.4c0.3,1.2,0.1,2.4,0.1,3.6c0,1,1.5,1,1.5,0
	C-281.5,578.1-281.3,576.8-281.7,575.5z"/>
<path class="st2" d="M-283.1,569.3v2.5c0,1,1.5,1,1.5,0v-2.5C-281.6,568.4-283.1,568.4-283.1,569.3z"/>
<path class="st2" d="M-283.3,560v3.3c0,1,1.5,1,1.5,0V560C-281.8,559-283.3,559-283.3,560z"/>
<path class="st2" d="M-283.3,553.8v3c0,1,1.5,1,1.5,0v-3C-281.8,552.9-283.3,552.9-283.3,553.8z"/>
<path class="st2" d="M-283.1,547v3.2c0,1,1.5,1,1.5,0V547C-281.6,546-283.1,546-283.1,547z"/>
<path class="st2" d="M-283.5,541v2.5c0,1,1.5,1,1.5,0V541C-282,540-283.5,540-283.5,541z"/>
<path class="st2" d="M-281.8,536.8c-0.2-0.7-0.1-1.4-0.1-2.1c0-1-1.5-1-1.5,0c0,0.8,0,1.7,0.2,2.5
	C-283.1,538.1-281.6,537.7-281.8,536.8z"/>
<path class="st2" d="M-282,527.2c0-1-1.5-1-1.5,0c0,1.5-0.1,3,0.2,4.5c0.2,0.9,1.6,0.5,1.4-0.4C-282.1,529.9-282,528.5-282,527.2z"
	/>
<path class="st2" d="M-282,485.2c0-1-1.5-1-1.5,0c0,1.5-0.1,3,0.2,4.5c0.2,0.9,1.6,0.5,1.4-0.4C-282.1,487.9-282,486.5-282,485.2z"
	/>
<path class="st2" d="M-283.1,521.2v2.5c0,1,1.5,1,1.5,0v-2.5C-281.6,520.2-283.1,520.2-283.1,521.2z"/>
<path class="st2" d="M-281.8,513.6c-0.1-1-1.6-0.5-1.4,0.4c0.2,1.1,0.2,2.1,0.3,3.2c0.1,1,1.6,0.5,1.4-0.4
	C-281.7,515.8-281.7,514.7-281.8,513.6z"/>
<path class="st2" d="M-282,507c-0.3-0.9-1.7-0.5-1.4,0.4c0.3,1,0.3,2.1,0.5,3.1c0.1,0.9,1.6,1,1.5,0
	C-281.6,509.3-281.6,508.1-282,507z"/>
<path class="st2" d="M-281.5,503.3c-0.2-0.7-0.1-1.5-0.1-2.3c0-1-1.5-1-1.5,0c0,0.9,0,1.8,0.2,2.7
	C-282.7,504.6-281.3,504.2-281.5,503.3z"/>
<path class="st2" d="M-281.6,494c0-1-1.5-1-1.5,0c0,1.1,0,2.2,0.2,3.4c0.1,1,1.6,0.5,1.4-0.4C-281.6,496-281.6,495-281.6,494z"/>
<path class="st2" d="M-282.8,470.8v3.8c0,1,1.5,1,1.5,0v-3.8C-281.3,469.9-282.8,469.9-282.8,470.8z"/>
<path class="st2" d="M-283,464.5v2.5c0,1,1.5,1,1.5,0v-2.5C-281.5,463.5-283,463.5-283,464.5z"/>
<path class="st2" d="M-283,479.5v2.5c0,1,1.5,1,1.5,0v-2.5C-281.5,478.5-283,478.5-283,479.5z"/>
<path class="st2" d="M-282.8,457.3c-0.3,1.2-0.4,2.5-0.2,3.7c0.1,0.9,1.6,1,1.5,0c-0.1-1.1-0.1-2.2,0.1-3.3
	C-281.1,456.8-282.5,456.4-282.8,457.3z"/>
<path class="st2" d="M-282.5,451.7c0,0.8,0,1.5-0.1,2.3c-0.2,0.9,1.3,1.3,1.4,0.4c0.2-0.9,0.2-1.8,0.2-2.7
	C-281,450.7-282.5,450.7-282.5,451.7z"/>
<path class="st2" d="M-282.8,445.8v1.7c0,1,1.5,1,1.5,0v-1.7C-281.3,444.9-282.8,444.9-282.8,445.8z"/>
<path class="st2" d="M-282.8,438c-0.2,1.1-0.2,2.2-0.2,3.4c0,1,1.5,1,1.5,0c0-1,0-2,0.1-3C-281.2,437.4-282.6,437-282.8,438z"/>
<path class="st2" d="M-281.1,430.8c0-0.3-0.1-0.5-0.3-0.6v-2.1c0-1-1.5-1-1.5,0v5.3c0,0.9,1.3,1,1.5,0.2c0.1-0.1,0.2-0.3,0.2-0.5
	C-281.3,432.4-281.1,431.6-281.1,430.8z"/>
<path class="st2" d="M-281.8,591.8c0-1-1.5-1-1.5,0v6.3c0,0.5,0.4,0.7,0.8,0.7c0.5,0.1,1.1-0.3,1-0.9
	C-281.8,595.9-281.8,593.9-281.8,591.8z"/>
<g>
	<g class="st0">
		<path class="st2" d="M-258.1,419.8c0.9-0.8,2.1-2.1,3.4-1.5c0.2,0.1,0.3,0.3,0.2,0.7c-0.4,1-1.3,1-2.1,1.6c-0.7,0.5-1.3,1.2-1.3,2
			c0,0.5,0.1,1.1,0.4,1.6c0.4,0.6,1,0.6,1.6,0.9c0.9,0.3,1.5-0.9,2.2-0.9c0.7-0.1,0.3,1,0.1,1.3c-0.8,1.3-2.4,1.1-3.7,0.7
			c-1.6-0.5-2.4-2-2.1-3.7C-259.3,421.3-258.9,420.5-258.1,419.8z"/>
		<path class="st2" d="M-252.8,421.2c0.3-1,0.9-1.4,1.1-1.9c0.4-0.9,1.6-0.6,2.2,0.1c0.4,0.5,0.7,1.1,0.8,1.7
			c0.4,1.3-0.3,2.5-1.2,3.4c-0.4,0.4-1.3,0.4-1.7,0.2C-252.7,423.9-253.2,422.5-252.8,421.2z M-250.6,420.6c-0.4-0.4-2.2,2-0.4,2.4
			C-249.8,423.2-249.6,421.6-250.6,420.6z"/>
		<path class="st2" d="M-246.7,419.8c1,0.3,0,1.6,0.5,2.3c1-0.9,1.2-3.2,3-2.5c0.1,0.1,0.3,0.3,0.3,0.3c0.2,0.7,0.1,1.4,0.3,2
			c0.8-0.9,1.8-2.4,3.2-1.9c0.4,0.3,0.3,0.8,0.3,1.3c0.3,2,0.3,4-0.4,6c-0.2,0.6-1,0.7-1.6,0.3c-0.1,0-0.2-0.3-0.1-0.6
			c0.6-1.6,0.6-3.4,0.3-5.1c0-0.3-0.3,0-0.4,0.2c-0.7,1.1-1.2,2.3-1.6,3.5c-0.3,0.5-1.3,1-1.8,0.3c-0.5-1,0.3-2.4-0.1-3.5
			c-0.7,1.2-1,2.4-1.8,3.5c-0.4,0.5-1.3,0.5-1.5,0c-0.5-1.2-0.1-2.7-0.3-4C-248.4,420.7-248,419.4-246.7,419.8z"/>
		<path class="st2" d="M-234.9,418.4c1.5-1.9,4-1.9,6.1-2.4c0.5-0.1,1,0.2,1.1,0.6c0.2,0.5-0.4,0.8-0.7,0.9
			c-1.3,0.5-2.7,0.3-3.9,0.9c-0.2,0.1-0.4,0.3-0.3,0.5c1.4,2.1,5.2,2.9,4.5,5.7c-0.6,2.4-4.2,2.8-6.3,1.9c-1-0.4-0.4-1.7,0.5-2
			c0.5-0.1,0.5,0.6,0.8,0.7c0.4,0.1,0.7,0,1.1,0.2c0.7,0.4,1.4-0.1,2-0.4c0.4-0.3,0.4-0.7,0.2-1.1c-1.3-1.7-3.2-2.3-4.6-4
			C-234.7,419.2-235.2,418.8-234.9,418.4z"/>
		<path class="st2" d="M-223.8,426.6c-1.2-0.2-2.6-0.2-3.2-1.3c-0.5-0.6-0.3-1.8,0.2-2.4c1.4-1.9,3.8-1.3,3.8-1.3
			c0.2-0.2,0.3-1-0.1-1.1c-1-0.2-1.6,0.2-2.5,0.5c-0.7,0.2-0.8-1.1-0.7-1.3c1.2-0.8,3.8-1.3,4.5,0.3c0.7,1.4-0.1,2.9-0.3,4.5
			c-0.1,1-0.2,3.3-1.1,2.7C-223.5,427-223.5,426.6-223.8,426.6z M-223.3,422.8c-1,0.4-2.7,0.1-2.7,1.5c0,0.7,2.4,1.1,2.5,0.8
			C-223.4,424.3-222.9,423.7-223.3,422.8z"/>
		<path class="st2" d="M-220.7,416.5c0.3-0.7,1.6-0.8,1.7,0.2c0,0.2-0.1,0.5-0.1,0.7c0,1.2,0.1,2.5,0,3.6c-0.1,1.9,0.4,3.7-0.3,5.4
			c-0.2,0.5-0.8,0.5-1.3,0.3c-0.3-0.2-0.4-0.6-0.3-0.9c0.5-1.7,0.3-3.4,0.4-5.2C-220.6,419.2-221.3,417.7-220.7,416.5z"/>
		<path class="st2" d="M-215,419.4c1.3,0.2,2.5,1.5,2.5,2.9c-0.3,0.8-2.2,1.5-2.8,2.1c-0.1,0-0.4,0.2-0.3,0.4c0.6,1,1.7,0.6,2.6,0.1
			c0.6,0.4,0.3,1.5-0.4,1.6c-0.8,0.1-1.6,0.3-2.4,0c-1.7-0.8-2.1-2.7-2.1-4.3C-217.9,420.4-216.6,419.1-215,419.4z M-214.2,421.8
			c0.4-0.9-1-1.3-1.7-0.9c-0.7,0.4-0.5,2-0.1,2C-215.2,422.9-214.4,422.7-214.2,421.8z"/>
		<path class="st2" d="M-212.2,418.4c1.5-1.9,4-1.9,6.1-2.4c0.5-0.1,1,0.2,1.1,0.6c0.2,0.5-0.4,0.8-0.7,0.9
			c-1.3,0.5-2.7,0.3-3.9,0.9c-0.2,0.1-0.4,0.3-0.3,0.5c1.4,2.1,5.2,2.9,4.5,5.7c-0.6,2.4-4.2,2.8-6.3,1.9c-1-0.4-0.4-1.7,0.5-2
			c0.5-0.1,0.5,0.6,0.8,0.7c0.4,0.1,0.7,0,1.1,0.2c0.7,0.4,1.4-0.1,2-0.4c0.4-0.3,0.4-0.7,0.2-1.1c-1.3-1.7-3.2-2.3-4.6-4
			C-212.1,419.2-212.6,418.8-212.2,418.4z"/>
		<path class="st2" d="M-203.9,420.6c0.2-0.4,0.8-0.6,1.3-0.4c0.3,0.1,0.7,0.5,0.4,0.8c-0.5,0.7-0.2,1.5-0.4,2.2
			c-0.3,0.8,0.2,1.6,0,2.4c0,0.1-0.1,0.2-0.2,0.2c-0.5,0.2-1.2,0.2-1.3-0.3c-0.3-1-0.1-2-0.1-3
			C-204.2,421.9-204.2,421.2-203.9,420.6z M-203.6,417.5c0.5-0.3,1.2-0.3,1.5,0.2c0.3,0.5-0.2,1.2-0.5,1.4c-0.4,0.2-0.9,0.1-1.3-0.3
			C-204.1,418.4-203.8,417.6-203.6,417.5z"/>
		<path class="st2" d="M-200,419.8c1,0.3,0,1.6,0.5,2.3c1-0.9,1.2-3.2,3-2.5c0.1,0.1,0.3,0.3,0.3,0.3c0.2,0.7,0.1,1.4,0.3,2
			c0.8-0.9,1.8-2.4,3.2-1.9c0.4,0.3,0.3,0.8,0.3,1.3c0.3,2,0.3,4-0.4,6c-0.2,0.6-1,0.7-1.6,0.3c-0.1,0-0.2-0.3-0.1-0.6
			c0.6-1.6,0.6-3.4,0.3-5.1c0-0.3-0.3,0-0.4,0.2c-0.7,1.1-1.2,2.3-1.6,3.5c-0.3,0.5-1.3,1-1.8,0.3c-0.5-1,0.3-2.4-0.1-3.5
			c-0.7,1.2-1,2.4-1.8,3.5c-0.4,0.5-1.3,0.5-1.5,0c-0.5-1.2-0.1-2.7-0.3-4C-201.6,420.7-201.3,419.4-200,419.8z"/>
	</g>
</g>
<path class="st1" d="M-204.5,473.2c-0.8-10.2-8-16.9-17.1-20.5c-19.1-7.5-46.7,6.1-47.5,27.7c-0.1,3.8,0.9,7.6,2.8,11.1
	c-0.3,0.8,0.3,1.6,1.1,1.8c5,8,14.3,14.4,23.5,15.7c1.3,3,2.3,6.2,3.5,9.3c0.7,1.7,3.2,1.1,3-0.4c0.4-0.2,0.7-0.5,0.8-0.9
	c0.8-3,2-6,3.2-8.8c0.1,0,0.1,0,0.2-0.1c0.6-0.2,0.9-0.7,1-1.3c5.8-1.2,11.4-3.9,15.9-7.9C-207.2,492.5-203.8,482.5-204.5,473.2z
	 M-212.9,492.6c0.8-1.2,1.4-2.5,2-3.8c0.6-1.2,1.2-2.4,1.8-3.6C-210,487.8-211.2,490.3-212.9,492.6z"/>
<g class="st0">
	<path class="st5" d="M-258.6,477.8c0.1-0.8,0.3-1.3,0.7-1.4c0.3-0.2,0.3-0.2,0.7,0c0.2,0,0.4,0.2,0.5,0.4c0.1,0.2,0.3,1.5,0.3,2.2
		c0,0.1,0.2,0.1,1.1,0.1c1.2-0.1,1.5,0,1.5,0.5c0,0.4-0.3,0.5-1.5,0.6c-1.1,0.1-1.1,0.1-1,0.7c0.1,1.4,0.2,2.1,0.1,2.4
		c-0.1,0.5-1.2,0.7-1.7,0.4c-0.4-0.2-0.5-0.5-0.6-1.9c0-0.8-0.1-1.2-0.1-1.2c-0.1,0-0.5,0-0.9,0.1c-1.3,0.2-2,0.1-2-0.4
		c0-0.4,0.6-0.6,2.1-0.8c0.6-0.1,0.6-0.1,0.7-0.6C-258.6,478.6-258.6,478.1-258.6,477.8z"/>
	<path class="st5" d="M-252.4,472c0.3-0.1,0.7-0.3,1.1-0.6c0.4-0.3,0.6-0.3,1.2-0.3c0.7,0,0.9,0,1.2,0.3c0.4,0.4,0.4,0.3,0.4,4.3
		c0,5.7-0.5,10.4-1,11.1c-0.6,0.7-1.7,0.6-2.1-0.1c-0.3-0.5-0.2-0.9-0.1-4.3c0-2.2,0.1-5,0.1-6.5c0.1-2.5,0.1-2.5-0.4-2.5
		C-253.2,473.4-253.5,472.5-252.4,472z"/>
	<path class="st5" d="M-246.1,474.3c1-2.1,2.2-3.3,3.4-3.5c0.2-0.1,0.9-0.2,1.4-0.2c1,0,1.1,0.1,1.8,0.4c0.8,0.4,1.8,1.4,2.2,2.2
		c0.1,0.1,0.2,0.3,0.2,0.3c0.2,0.1,0.8,1.8,1,2.5c0.4,1.4,0.5,2,0.5,3.5c0,2.3-0.5,4.2-1.4,5.6c-1.2,1.8-2.8,2.6-4.9,2.7
		c-1.6,0-2.9-0.5-3.9-1.5c-0.9-0.9-1.3-1.8-1.7-3.4c-0.1-0.6-0.1-3.1,0-3.7C-247.2,477-246.8,475.7-246.1,474.3z M-239.8,473.4
		c-0.3-0.5-1-0.8-1.3-1c-0.3-0.1-0.7-0.1-0.9,0c-0.4,0.1-1,0.9-1.4,1.8c-0.1,0.2-0.2,0.5-0.3,0.7c-0.6,1.3-1.1,4.2-1.1,6
		c-0.1,1.4,0.3,3.1,0.6,3.6c0.1,0,0.1,0.2,0.1,0.2c0,0.2,1,1.1,1.4,1.2c0.4,0.2,1.1,0.2,1.5,0c1.2-0.6,2.1-2,2.7-4.3
		c0.1-0.6,0.1-3.9,0-4.4C-238.9,475.5-239.3,474.2-239.8,473.4z"/>
	<path class="st5" d="M-233.2,474.3c1-2.1,2.2-3.3,3.4-3.5c0.2-0.1,0.9-0.2,1.4-0.2c1,0,1.1,0.1,1.8,0.4c0.8,0.4,1.8,1.4,2.2,2.2
		c0.1,0.1,0.2,0.3,0.2,0.3c0.2,0.1,0.8,1.8,1,2.5c0.4,1.4,0.5,2,0.5,3.5c0,2.3-0.5,4.2-1.4,5.6c-1.2,1.8-2.8,2.6-4.9,2.7
		c-1.6,0-2.9-0.5-3.9-1.5c-0.9-0.9-1.3-1.8-1.7-3.4c-0.1-0.6-0.1-3.1,0-3.7C-234.3,477-234,475.7-233.2,474.3z M-226.9,473.4
		c-0.3-0.5-1-0.8-1.3-1c-0.3-0.1-0.7-0.1-0.9,0c-0.4,0.1-1,0.9-1.4,1.8c-0.1,0.2-0.2,0.5-0.3,0.7c-0.6,1.3-1.1,4.2-1.1,6
		c-0.1,1.4,0.3,3.1,0.6,3.6c0.1,0,0.1,0.2,0.1,0.2c0,0.2,1,1.1,1.4,1.2c0.4,0.2,1.1,0.2,1.5,0c1.2-0.6,2.1-2,2.7-4.3
		c0.1-0.6,0.1-3.9,0-4.4C-226,475.5-226.5,474.2-226.9,473.4z"/>
	<path class="st5" d="M-221.6,472.5c0.1-0.3,0.3-0.5,0.6-0.7c0.6-0.4,0.6-0.4,1.3-0.4c1.3,0,2.4,0.5,2.7,1.2
		c0.2,0.8-0.4,1.9-1.2,2.4c-0.4,0.3-0.5,0.2-1.4,0.2c-1.1,0-1.3-0.1-1.9-0.5c-0.4-0.3-0.6-1.2-0.5-1.6
		C-221.8,473-221.7,472.8-221.6,472.5z M-216,473.6c0.5-1,1.3-2.2,1.7-2.4c0.3-0.2,0.8-0.2,1.1,0.1c0.2,0.2,0.2,0.5-0.2,1.4
		c-0.3,0.7-1.1,2.8-1.8,4.2c-0.1,0.3-0.3,0.5-0.3,0.6c0,0.2-0.2,0.5-0.3,0.7c-0.1,0.3-0.2,0.6-0.2,0.6s-0.1,0.2-0.2,0.3
		c-0.2,0.3-0.6,1.6-0.9,2.2c-0.1,0.3-0.3,0.7-0.4,1.1c-0.1,0.4-0.4,1.3-0.6,2c-0.3,0.6-0.4,1.2-0.5,1.3c0,0.1-0.1,0.3-0.2,0.6
		c-0.3,0.8-0.7,1.1-1.5,1.1c-0.6,0-0.9-0.3-0.9-0.7c-0.1-0.3,0.1-0.8,0.2-1.2c0.1-0.2,0.2-0.4,0.3-0.7c0.1-0.3,0.1-0.5,0.2-0.7
		c0.1-0.2,0.1-0.3,0.1-0.3c0-0.1,1-2.7,1.3-3.3c0.1-0.3,0.3-0.6,0.3-0.7c0.1-0.2,0.2-0.3,0.3-0.4c0-0.1,0.1-0.3,0.2-0.4
		c0.1-0.3,0.1-0.5,0.2-0.6c0.1-0.2,0.3-0.6,0.5-1c0.5-1.3,0.6-1.5,1-2.4c0.3-0.4,0.4-0.8,0.5-0.9C-216.2,474-216.1,473.8-216,473.6z
		 M-219.2,473.7c0.3-0.4,0.3-0.9,0.2-1c0,0-0.2-0.1-0.4-0.2c-0.3,0-0.3,0-0.4,0.3c-0.2,0.3-0.3,1,0,1.1
		C-219.6,474.1-219.5,474.1-219.2,473.7z M-216.1,483.4c0.3-0.2,1.2-0.6,1.5-0.6c0.3-0.2,0.3-0.2,0.8,0c0.3,0.1,0.5,0.1,0.9,0.6
		c0.4,0.4,0.6,0.6,0.7,1.1c0.2,0.6,0.2,0.6,0,1c-0.2,0.6-0.5,0.9-1.1,1.2c-0.5,0.2-0.6,0.2-1.2,0.2c-1.9,0-2.8-0.9-2.5-2.2
		C-216.9,484.3-216.4,483.6-216.1,483.4z M-214.2,485.3c0.3-0.3,0.2-0.3,0.1-0.7c-0.1-0.2-0.2-0.4-0.4-0.5c-0.2-0.3-0.2-0.3-0.3,0
		c-0.3,0.3-0.4,0.6-0.4,0.9c0,0.4,0.2,0.6,0.6,0.6C-214.3,485.7-214.3,485.7-214.2,485.3z"/>
</g>
<g>
	<path class="st6" d="M-272,608c0-0.3-0.2-0.4-0.4-0.3c-2.9-1.9-6-3.4-9-5c0,0,0,0,0,0c0-0.5-0.7-0.5-0.7,0c0,3.7,0.2,7.4,0.2,11.1
		c0,0.1,0.1,0.2,0.1,0.3c0,0.1,0,0.2,0.2,0.3c2.9,1.6,6,2.9,8.6,5c0.1,0,0.1,0.1,0.2,0.1c0.1,0.4,0.7,0.4,0.7-0.1
		c-0.1-2,0-4-0.1-5.9c0-0.1,0.1-0.1,0.1-0.2C-272.1,611.5-272,609.8-272,608z"/>
	<path class="st7" d="M-282.8,613.1c-0.5-3.2,0.1-6.4-0.2-9.6c0,0,0-0.1,0-0.1c0,0,0,0,0,0c0.4-0.3-0.2-0.8-0.5-0.5
		c-2.6,2.1-5.9,3.6-8.7,5.2c0,0-0.1,0.1-0.1,0.1c-0.1,0-0.2,0.1-0.3,0.2c-0.1,0.1-0.2,0.2-0.2,0.3c0,0.2,0.1,0.3,0.1,0.5v10
		c0,0.4,0.6,0.5,0.7,0.1c0.1,0,0.1,0,0.2-0.1c2.6-2.1,5.6-3.7,8.4-5.5c0.1-0.1,0.1-0.1,0.2-0.2C-283,613.6-282.7,613.4-282.8,613.1z
		"/>
	<path class="st8" d="M-273.2,620c-1.1-0.9-2.5-1.4-3.8-2c-1.8-0.8-3.3-2.2-5.1-3.1c-0.1,0-0.1,0-0.2,0c-0.1-0.1-0.3-0.2-0.5-0.1
		c-0.1,0-0.1,0.1-0.1,0.2c-0.1,0-0.2,0-0.3,0c-2.6,1.7-5.3,3.2-8.1,4.7c-0.1,0.1-0.2,0.2-0.2,0.3c-0.3,0-0.5,0.5-0.2,0.7
		c3,1.7,6.1,3.4,8.9,5.4c0.2,0.2,0.5,0,0.5-0.2c0.1,0.1,0.2,0.1,0.3,0c2.7-1.9,6-2.8,8.4-5.1c0.1-0.1,0.1-0.1,0.1-0.2
		C-273.1,620.5-272.9,620.2-273.2,620z"/>
	<path class="st9" d="M-275.2,609.9c-1.9-2-4.9-2.5-7.2-4c-0.1-0.1-0.2-0.1-0.3,0c-0.1,0-0.1,0-0.2,0c-2.1,1.1-4.1,2.5-6.2,3.5
		c-0.1,0-0.1,0.1-0.1,0.1c-0.1,0-0.1,0-0.2,0c-0.5-0.1-0.7,0.6-0.2,0.7c0.2,0,0.4,0.1,0.6,0.2c0,0,0.1,0.1,0.1,0.1
		c0.7,0.3,1.4,0.6,2.1,0.9c1.3,0.8,2.5,1.8,3.9,2.3c0,0,0,0,0,0c0.1,0.1,0.2,0.1,0.2,0.1c0,0,0,0,0,0c0.1,0.1,0.2,0.1,0.2,0.2
		c0.1,0.2,0.3,0.4,0.5,0.3c2.1-1.2,4.1-2.6,6.2-3.9c0,0,0,0,0,0C-275.3,610.7-274.8,610.2-275.2,609.9z"/>
	<path class="st9" d="M-289.7,610.7c-0.7,2.7,0.5,5.5,0.3,8.2c0,0.1,0,0.2,0.1,0.3c0,0.1,0.1,0.1,0.1,0.1c2.1,1.2,4.2,2.2,6.3,3.5
		c0.1,0,0.1,0.1,0.2,0.1c0,0.1,0,0.1,0.1,0.2c0.2,0.4,0.9,0.2,0.7-0.2c-0.1-0.2-0.1-0.4-0.2-0.6c0,0,0-0.1,0-0.2
		c-0.1-0.8-0.2-1.5-0.3-2.3c0-1.5,0.2-3-0.1-4.6c0,0,0,0,0,0c0-0.1,0-0.2-0.1-0.2c0,0,0,0,0,0c0-0.1,0-0.2,0-0.3
		c0.2-0.2,0.2-0.5-0.1-0.6c-2.1-1.1-4.4-2.1-6.5-3.2c0,0,0,0,0,0C-288.9,610.4-289.6,610.2-289.7,610.7z"/>
	<path class="st9" d="M-281.4,623.3c2.6-0.8,4.4-3.4,6.7-4.7c0.1-0.1,0.2-0.2,0.2-0.2c0-0.1,0.1-0.1,0.1-0.2
		c-0.1-2.4-0.4-4.8-0.5-7.2c0-0.1,0-0.1-0.1-0.2c0-0.1,0.1-0.1,0.1-0.1c0.3-0.4-0.3-0.9-0.6-0.5c-0.1,0.2-0.3,0.3-0.4,0.5
		c0,0-0.1,0-0.1,0.1c-0.6,0.5-1.2,1-1.8,1.5c-1.3,0.8-2.7,1.5-3.8,2.5c0,0,0,0,0,0c-0.1,0-0.1,0.1-0.1,0.2c0,0,0,0,0,0
		c-0.1,0-0.2,0.1-0.3,0.1c-0.2,0-0.5,0.1-0.5,0.4c0.2,2.4,0.6,4.8,0.8,7.2c0,0,0,0,0,0C-282.1,622.8-281.9,623.5-281.4,623.3z"/>
</g>
<path class="st1" d="M-177.4,518c-10.7,7.6-22.8,13.1-33.4,20.9c-8.2-1-16.5-2.1-24.8-2.2c-0.3,0-0.6,0.1-0.8,0.2
	c-0.2-0.2-0.4-0.4-0.8-0.5c-8.4-2.4-16.7-5.2-25.3-7c-0.3-0.1-0.5,0-0.8,0c-0.5-0.5-1.4-0.7-2,0c-5.1,5.5-9.2,12.3-13.8,18.3
	c-5.4,7.1-10.7,14.2-15.1,22c0,0,0,0,0,0c-0.4,0-0.7,0.1-1.1,0.4c-6.4,5.2-13.9,8.5-21.3,12.1c-0.1,0-0.2-0.1-0.3-0.1
	c-8.6-2.8-17.2-5.6-26-7.3c-0.5-0.1-0.9,0-1.3,0.3c-7.3,0.7-14.5,1.3-21.8,1.3c-0.2,0-0.4,0-0.5,0.1c-0.3-0.1-0.5-0.1-0.9,0
	c-7.2,1.7-14.1,4.1-21,6.7c-1.8,0.7-1,3.6,0.8,2.9c6.9-2.6,13.8-5,21-6.7c0,0,0.1,0,0.1,0c0.2,0.1,0.3,0.1,0.5,0.1
	c7.4,0,14.7-0.6,22-1.3c0.3,0,0.6-0.1,0.8-0.3c8.1,1.7,15.9,4.1,23.7,6.6c0,0,0.1,0,0.1,0c0.2,0.1,0.5,0.1,0.7,0.2
	c0,0,0,0.1,0.1,0.1c0.4,0.2,0.8,0.5,1.2,0.7c0.2,0,0.5,0.1,0.7,0.1c0.1,0,0.1,0,0.2-0.1c8-4,16.3-7.6,23.3-13.2
	c0.1-0.1,0.2-0.2,0.2-0.2c0.5,0,1-0.2,1.3-0.7c4.1-7.3,9-14,14-20.6c4.6-6.1,8.8-12.9,13.9-18.5c0.1,0.1,0.2,0.1,0.4,0.1
	c8.6,1.8,16.9,4.6,25.3,7c0.5,0.1,0.9,0,1.2-0.2c0.2,0.3,0.6,0.6,1.2,0.6c8.7,0.1,17.3,1.3,25.8,2.3c0.5-0.5,1-0.9,1.6-1.2
	c0,0,0-0.1,0-0.1c10.3-7.4,21.9-12.8,32.2-20.1C-174.3,519.4-175.8,516.8-177.4,518z"/>
<path class="st1" d="M-211.8,487.8c-1.6-0.4-3.2,1.2-4.3,2.1c-1.7,1.3-3.3,2.8-5.1,4.1c-1.6,1.1-0.1,3.7,1.5,2.6
	c1.5-1,2.8-2.2,4.2-3.3c0.7-0.6,1.4-1.1,2.1-1.6c0.3-0.2,0.6-0.5,1-0.7c0.5-0.3,0.5-0.1-0.1-0.2
	C-210.7,491.2-209.9,488.3-211.8,487.8z"/>
</svg>
