<?xml version="1.0" encoding="utf-8"?>
<!-- Generator: Adobe Illustrator 19.0.0, SVG Export Plug-In . SVG Version: 6.00 Build 0)  -->
<svg version="1.1" id="Layer_1" xmlns="http://www.w3.org/2000/svg" xmlns:xlink="http://www.w3.org/1999/xlink" x="0px" y="0px"
	 viewBox="-443 379 305 270" style="enable-background:new -443 379 305 270;" xml:space="preserve">
<style type="text/css">
	.st0{opacity:0.1;fill:#EF4849;enable-background:new    ;}
	.st1{fill:none;stroke:#B0AFB0;stroke-width:1.5;stroke-miterlimit:10;}
	.st2{fill:#EF4849;}
	.st3{font-family:'GoodDog';}
	.st4{font-size:23px;}
	.st5{fill:#333333;}
	.st6{font-family:'Cavorting-Regular';}
	.st7{font-size:15px;}
	.st8{font-size:17px;}
	.st9{fill:#FFFFFF;}
	.st10{font-size:21px;}
	.st11{fill:#D82629;}
	.st12{fill:#EE2E39;}
	.st13{fill:#EF475A;}
	.st14{opacity:0.5;fill:#F58E95;enable-background:new    ;}
</style>
<rect x="-277.9" y="434.8" class="st0" width="112.5" height="160.8"/>
<line class="st1" x1="-384.9" y1="435.2" x2="-162.9" y2="434.3"/>
<line class="st1" x1="-384.9" y1="514.7" x2="-162.9" y2="515.2"/>
<line class="st1" x1="-384.9" y1="595.2" x2="-162.9" y2="596.3"/>
<text transform="matrix(1 0 0 1 -334.2219 406.25)" class="st2 st3 st4">Spoken calls</text>
<text transform="matrix(1 0 0 1 -418.0634 439.0674)" class="st5 st6 st7">300</text>
<text transform="matrix(1 0 0 1 -413.2485 519.3164)" class="st5 st6 st7">150</text>
<text transform="matrix(1 0 0 1 -401.0082 600.0674)" class="st5 st6 st7">0</text>
<path class="st2" d="M-330.2,639.6c-5.1,0.1-10.2,0-15.4,0c-1.9,0-1.9,3,0,3c5.1,0,10.2,0.1,15.4,0
	C-328.3,642.6-328.3,639.6-330.2,639.6z"/>
<g>
	<text transform="matrix(1 0 0 1 -321.5457 643.8164)" class="st5 st3 st8">weekly average</text>
</g>
<g>
	<text transform="matrix(1 0 0 1 -197.1056 613.833)" class="st5 st3 st8">weeks</text>
</g>
<path class="st5" d="M-278.8,582.8c-0.2,1.1-0.2,2.1-0.2,3.2c0,1,1.5,1,1.5,0c0-0.9,0-1.9,0.1-2.8
	C-277.2,582.3-278.6,581.8-278.8,582.8z"/>
<path class="st5" d="M-277.6,575.5c-0.2-0.9-1.7-0.5-1.4,0.4c0.3,1.2,0.1,2.4,0.1,3.6c0,1,1.5,1,1.5,0
	C-277.4,578.1-277.3,576.8-277.6,575.5z"/>
<path class="st5" d="M-279.1,569.3v2.5c0,1,1.5,1,1.5,0v-2.5C-277.6,568.4-279.1,568.4-279.1,569.3z"/>
<path class="st5" d="M-279.3,560v3.3c0,1,1.5,1,1.5,0V560C-277.8,559-279.3,559-279.3,560z"/>
<path class="st5" d="M-279.3,553.8v3c0,1,1.5,1,1.5,0v-3C-277.8,552.9-279.3,552.9-279.3,553.8z"/>
<path class="st5" d="M-279.1,547v3.2c0,1,1.5,1,1.5,0V547C-277.6,546-279.1,546-279.1,547z"/>
<path class="st5" d="M-279.5,541v2.5c0,1,1.5,1,1.5,0V541C-278,540-279.5,540-279.5,541z"/>
<path class="st5" d="M-277.8,536.8c-0.2-0.7-0.1-1.4-0.1-2.1c0-1-1.5-1-1.5,0c0,0.8,0,1.7,0.2,2.5
	C-279,538.1-277.6,537.7-277.8,536.8z"/>
<path class="st5" d="M-278,527.2c0-1-1.5-1-1.5,0c0,1.5-0.1,3,0.2,4.5c0.2,0.9,1.6,0.5,1.4-0.4C-278.1,529.9-278,528.5-278,527.2z"
	/>
<path class="st5" d="M-278,485.2c0-1-1.5-1-1.5,0c0,1.5-0.1,3,0.2,4.5c0.2,0.9,1.6,0.5,1.4-0.4C-278.1,487.9-278,486.5-278,485.2z"
	/>
<path class="st5" d="M-279.1,521.2v2.5c0,1,1.5,1,1.5,0v-2.5C-277.6,520.2-279.1,520.2-279.1,521.2z"/>
<path class="st5" d="M-277.8,513.6c-0.1-1-1.6-0.5-1.4,0.4c0.2,1.1,0.2,2.1,0.3,3.2c0.1,1,1.6,0.5,1.4-0.4
	C-277.6,515.8-277.7,514.7-277.8,513.6z"/>
<path class="st5" d="M-278,507c-0.3-0.9-1.7-0.5-1.4,0.4c0.3,1,0.3,2.1,0.5,3.1c0.1,0.9,1.6,1,1.5,0
	C-277.6,509.3-277.6,508.1-278,507z"/>
<path class="st5" d="M-277.5,503.3c-0.2-0.7-0.1-1.5-0.1-2.3c0-1-1.5-1-1.5,0c0,0.9,0,1.8,0.2,2.7
	C-278.7,504.6-277.3,504.2-277.5,503.3z"/>
<path class="st5" d="M-277.6,494c0-1-1.5-1-1.5,0c0,1.1,0,2.2,0.2,3.4c0.1,1,1.6,0.5,1.4-0.4C-277.6,496-277.6,495-277.6,494z"/>
<path class="st5" d="M-278.8,470.8v3.8c0,1,1.5,1,1.5,0v-3.8C-277.3,469.9-278.8,469.9-278.8,470.8z"/>
<path class="st5" d="M-279,464.5v2.5c0,1,1.5,1,1.5,0v-2.5C-277.5,463.5-279,463.5-279,464.5z"/>
<path class="st5" d="M-279,479.5v2.5c0,1,1.5,1,1.5,0v-2.5C-277.5,478.5-279,478.5-279,479.5z"/>
<path class="st5" d="M-278.8,457.3c-0.3,1.2-0.4,2.5-0.2,3.7c0.1,0.9,1.6,1,1.5,0c-0.1-1.1-0.1-2.2,0.1-3.3
	C-277.1,456.8-278.5,456.4-278.8,457.3z"/>
<path class="st5" d="M-278.4,451.7c0,0.8,0,1.5-0.1,2.3c-0.2,0.9,1.3,1.3,1.4,0.4c0.2-0.9,0.2-1.8,0.2-2.7
	C-276.9,450.7-278.4,450.7-278.4,451.7z"/>
<path class="st5" d="M-278.8,445.8v1.7c0,1,1.5,1,1.5,0v-1.7C-277.3,444.9-278.8,444.9-278.8,445.8z"/>
<path class="st5" d="M-278.8,438c-0.2,1.1-0.2,2.2-0.2,3.4c0,1,1.5,1,1.5,0c0-1,0-2,0.1-3C-277.2,437.4-278.6,437-278.8,438z"/>
<path class="st5" d="M-277.1,430.8c0-0.3-0.1-0.5-0.3-0.6v-2.1c0-1-1.5-1-1.5,0v5.3c0,0.9,1.3,1,1.5,0.2c0.1-0.1,0.2-0.3,0.2-0.5
	C-277.3,432.4-277.1,431.6-277.1,430.8z"/>
<path class="st5" d="M-277.8,591.8c0-1-1.5-1-1.5,0v6.3c0,0.5,0.4,0.7,0.8,0.7c0.5,0.1,1.1-0.3,1-0.9
	C-277.8,595.9-277.8,593.9-277.8,591.8z"/>
<g>
	<text transform="matrix(1 0 0 1 -257.9813 426.833)" class="st5 st3 st8">with SaleSim</text>
</g>
<path class="st2" d="M-177.3,527.4c-10.5,2.8-20.7,6.5-30.7,10.7c-7.2-10.1-15-19.7-23.2-29c-0.5-0.6-1.1-0.6-1.6-0.3
	c-0.1,0-0.1,0-0.2,0.1c-11.7,6.4-23.1,13-35,19c-0.7,0.4-0.9,1-0.7,1.6c-0.1,0.1-0.1,0.2-0.2,0.3c-6.2,10.7-11.2,22.1-18.7,32
	c-0.1,0.2-0.2,0.4-0.3,0.5c-10.3-1.6-20.7-0.1-31.1-1.3c-0.6-0.1-1.1,0.2-1.3,0.6c-7.4,4.5-15.9,6.7-23.6,10.6
	c-7.2-6.2-14.7-12.1-22.1-18.2c-1-0.8-2.3-0.1-2.6,0.8c-5,3.6-10,7.4-15.2,10.6c-1.6,1-0.1,3.6,1.5,2.6c5.3-3.2,10.3-7.1,15.3-10.7
	c0.1,0,0.1-0.1,0.2-0.2c7.1,5.8,14.3,11.6,21.3,17.6c0.4,0.4,0.9,0.4,1.3,0.3c0.3,0.1,0.8,0.1,1.2-0.1c7.9-4.1,16.7-6.4,24.3-11
	c0,0,0.1-0.1,0.1-0.1c10.1,1,20.3-0.5,30.4,1.2c1,0.2,1.7-0.6,1.9-1.4c0.4,0,0.9-0.2,1.2-0.6c7.5-9.9,12.5-21.3,18.7-32
	c0.2-0.3,0.2-0.7,0.2-1c11.4-5.7,22.4-12.1,33.5-18.2c8.1,9.1,15.7,18.6,22.7,28.5c0.4,0.5,0.9,0.7,1.5,0.6c0.3,0.1,0.6,0,0.9-0.1
	c10.1-4.3,20.4-8,31-10.8C-174.6,529.8-175.4,526.9-177.3,527.4z"/>
<path class="st2" d="M-200.5,451.1c-6.6-8-20.7-10.6-30.6-6.6c-8.7,2-17.1,8.4-20.5,16.7c-3.8,9.1,0.5,20.7,5.7,28.3
	c4.7,7,12,11.5,20.1,11.2c0.9,2.9,2,5.7,3.2,8.6c0.5,1.1,2,0.8,2.6,0c2.1-3,3.8-6.2,4.9-9.6c3.5-0.4,6.9-1.3,9.9-2.7
	c8.8-4,12.9-14.6,14-23.5C-189.9,463.5-193.9,455.9-200.5,451.1z M-238.3,455.4c-0.1-0.1-0.2-0.1-0.3-0.2c0.4-0.4,0.8-0.8,1.2-1.2
	C-237.7,454.5-238,455-238.3,455.4z M-204.6,493.1c0.5-0.6,1-1.3,1.5-1.9c0.2,0.1,0.4,0.2,0.6,0.2
	C-203.2,492.1-203.9,492.6-204.6,493.1z M-197.6,485c0.1-0.4,0.1-0.8,0-1.2c0.3-0.2,0.6-0.3,0.8-0.5
	C-197.1,483.8-197.3,484.4-197.6,485z M-197.4,479.9c0.5-0.9,0.9-1.8,1.3-2.7c0.2-0.5,0.2-0.9,0.1-1.2c0.1-0.2,0.2-0.4,0.4-0.7
	C-195.8,477.1-196.4,478.7-197.4,479.9z"/>
<text transform="matrix(1 0 0 1 -242.9584 478.4009)" class="st9 st6 st10">+192%</text>
<g>
	<path class="st11" d="M-268,608c0-0.3-0.2-0.4-0.4-0.3c-2.9-1.9-6-3.4-9-5c0,0,0,0,0,0c0-0.5-0.7-0.5-0.7,0c0,3.7,0.2,7.4,0.2,11.1
		c0,0.1,0.1,0.2,0.1,0.3c0,0.1,0,0.2,0.2,0.3c2.9,1.6,6,2.9,8.6,5c0.1,0,0.1,0.1,0.2,0.1c0.1,0.4,0.7,0.4,0.7-0.1
		c-0.1-2,0-4-0.1-5.9c0-0.1,0.1-0.1,0.1-0.2C-268.1,611.5-268,609.8-268,608z"/>
	<path class="st12" d="M-278.8,613.1c-0.5-3.2,0.1-6.4-0.2-9.6c0,0,0-0.1,0-0.1c0,0,0,0,0,0c0.4-0.3-0.2-0.8-0.5-0.5
		c-2.6,2.1-5.9,3.6-8.7,5.2c0,0-0.1,0.1-0.1,0.1c-0.1,0-0.2,0.1-0.3,0.2c-0.1,0.1-0.2,0.2-0.2,0.3c0,0.2,0.1,0.3,0.1,0.5v10
		c0,0.4,0.6,0.5,0.7,0.1c0.1,0,0.1,0,0.2-0.1c2.6-2.1,5.6-3.7,8.4-5.5c0.1-0.1,0.1-0.1,0.2-0.2C-279,613.6-278.7,613.4-278.8,613.1z
		"/>
	<path class="st13" d="M-269.2,620c-1.1-0.9-2.5-1.4-3.8-2c-1.8-0.8-3.3-2.2-5.1-3.1c-0.1,0-0.1,0-0.2,0c-0.1-0.1-0.3-0.2-0.5-0.1
		c-0.1,0-0.1,0.1-0.1,0.2c-0.1,0-0.2,0-0.3,0c-2.6,1.7-5.3,3.2-8.1,4.7c-0.1,0.1-0.2,0.2-0.2,0.3c-0.3,0-0.5,0.5-0.2,0.7
		c3,1.7,6.1,3.4,8.9,5.4c0.2,0.2,0.5,0,0.5-0.2c0.1,0.1,0.2,0.1,0.3,0c2.7-1.9,6-2.8,8.4-5.1c0.1-0.1,0.1-0.1,0.1-0.2
		C-269.1,620.5-268.9,620.2-269.2,620z"/>
	<path class="st14" d="M-271.1,609.9c-1.9-2-4.9-2.5-7.2-4c-0.1-0.1-0.2-0.1-0.3,0c-0.1,0-0.1,0-0.2,0c-2.1,1.1-4.1,2.5-6.2,3.5
		c-0.1,0-0.1,0.1-0.1,0.1c-0.1,0-0.1,0-0.2,0c-0.5-0.1-0.7,0.6-0.2,0.7c0.2,0,0.4,0.1,0.6,0.2c0,0,0.1,0.1,0.1,0.1
		c0.7,0.3,1.4,0.6,2.1,0.9c1.3,0.8,2.5,1.8,3.9,2.3c0,0,0,0,0,0c0.1,0.1,0.2,0.1,0.2,0.1c0,0,0,0,0,0c0.1,0.1,0.2,0.1,0.2,0.2
		c0.1,0.2,0.3,0.4,0.5,0.3c2.1-1.2,4.1-2.6,6.2-3.9c0,0,0,0,0,0C-271.3,610.7-270.8,610.2-271.1,609.9z"/>
	<path class="st14" d="M-285.7,610.7c-0.7,2.7,0.5,5.5,0.3,8.2c0,0.1,0,0.2,0.1,0.3c0,0.1,0.1,0.1,0.1,0.1c2.1,1.2,4.2,2.2,6.3,3.5
		c0.1,0,0.1,0.1,0.2,0.1c0,0.1,0,0.1,0.1,0.2c0.2,0.4,0.9,0.2,0.7-0.2c-0.1-0.2-0.1-0.4-0.2-0.6c0,0,0-0.1,0-0.2
		c-0.1-0.8-0.2-1.5-0.3-2.3c0-1.5,0.2-3-0.1-4.6c0,0,0,0,0,0c0-0.1,0-0.2-0.1-0.2c0,0,0,0,0,0c0-0.1,0-0.2,0-0.3
		c0.2-0.2,0.2-0.5-0.1-0.6c-2.1-1.1-4.4-2.1-6.5-3.2c0,0,0,0,0,0C-284.9,610.4-285.6,610.2-285.7,610.7z"/>
	<path class="st14" d="M-277.4,623.3c2.6-0.8,4.4-3.4,6.7-4.7c0.1-0.1,0.2-0.2,0.2-0.2c0-0.1,0.1-0.1,0.1-0.2
		c-0.1-2.4-0.4-4.8-0.5-7.2c0-0.1,0-0.1-0.1-0.2c0-0.1,0.1-0.1,0.1-0.1c0.3-0.4-0.3-0.9-0.6-0.5c-0.1,0.2-0.3,0.3-0.4,0.5
		c0,0-0.1,0-0.1,0.1c-0.6,0.5-1.2,1-1.8,1.5c-1.3,0.8-2.7,1.5-3.8,2.5c0,0,0,0,0,0c-0.1,0-0.1,0.1-0.1,0.2c0,0,0,0,0,0
		c-0.1,0-0.2,0.1-0.3,0.1c-0.2,0-0.5,0.1-0.5,0.4c0.2,2.4,0.6,4.8,0.8,7.2c0,0,0,0,0,0C-278.1,622.8-277.8,623.5-277.4,623.3z"/>
</g>
</svg>
