<?xml version="1.0" encoding="utf-8"?>
<!-- Generator: Adobe Illustrator 19.0.0, SVG Export Plug-In . SVG Version: 6.00 Build 0)  -->
<svg version="1.1" id="Layer_1" xmlns="http://www.w3.org/2000/svg" xmlns:xlink="http://www.w3.org/1999/xlink" x="0px" y="0px"
	 viewBox="-443 379 305 270" style="enable-background:new -443 379 305 270;" xml:space="preserve">
<style type="text/css">
	.st0{opacity:0.1;fill:#EF4849;enable-background:new    ;}
	.st1{fill:none;stroke:#B0AFB0;stroke-width:1.5;stroke-miterlimit:10;}
	.st2{fill:#EF4849;}
	.st3{font-family:'GoodDog';}
	.st4{font-size:23px;}
	.st5{fill:#333333;}
	.st6{font-family:'Cavorting-Regular';}
	.st7{font-size:15px;}
	.st8{font-size:17px;}
	.st9{fill:#FFFFFF;}
	.st10{font-size:21px;}
	.st11{fill:#D82629;}
	.st12{fill:#EE2E39;}
	.st13{fill:#EF475A;}
	.st14{opacity:0.5;fill:#F58E95;enable-background:new    ;}
</style>
<rect x="-282.9" y="434.8" class="st0" width="112.5" height="160.8"/>
<line class="st1" x1="-389.9" y1="435.2" x2="-168" y2="434.3"/>
<line class="st1" x1="-389.9" y1="514.7" x2="-168" y2="515.2"/>
<line class="st1" x1="-389.9" y1="595.2" x2="-168" y2="596.3"/>
<text transform="matrix(1 0 0 1 -350.4445 405.25)" class="st2 st3 st4">Subscriptions</text>
<text transform="matrix(1 0 0 1 -413.0459 439.0674)" class="st5 st6 st7">20</text>
<text transform="matrix(1 0 0 1 -410.916 519.3164)" class="st5 st6 st7">10</text>
<text transform="matrix(1 0 0 1 -406.0258 600.0674)" class="st5 st6 st7">0</text>
<path class="st2" d="M-327.7,639.6c-5.1,0.1-10.2,0-15.4,0c-1.9,0-1.9,3,0,3c5.1,0,10.2,0.1,15.4,0
	C-325.8,642.6-325.8,639.6-327.7,639.6z"/>
<text transform="matrix(1 0 0 1 -319.0457 643.8164)" class="st5 st3 st8">weekly average</text>
<g>
	<text transform="matrix(1 0 0 1 -202.1232 613.833)" class="st5 st3 st8">weeks</text>
</g>
<path class="st5" d="M-283.8,582.8c-0.2,1.1-0.2,2.1-0.2,3.2c0,1,1.5,1,1.5,0c0-0.9,0-1.9,0.1-2.8
	C-282.2,582.3-283.6,581.8-283.8,582.8z"/>
<path class="st5" d="M-282.7,575.5c-0.2-0.9-1.7-0.5-1.4,0.4c0.3,1.2,0.1,2.4,0.1,3.6c0,1,1.5,1,1.5,0
	C-282.5,578.1-282.3,576.8-282.7,575.5z"/>
<path class="st5" d="M-284.1,569.3v2.5c0,1,1.5,1,1.5,0v-2.5C-282.6,568.4-284.1,568.4-284.1,569.3z"/>
<path class="st5" d="M-284.3,560v3.3c0,1,1.5,1,1.5,0V560C-282.8,559-284.3,559-284.3,560z"/>
<path class="st5" d="M-284.3,553.8v3c0,1,1.5,1,1.5,0v-3C-282.8,552.9-284.3,552.9-284.3,553.8z"/>
<path class="st5" d="M-284.1,547v3.2c0,1,1.5,1,1.5,0V547C-282.6,546-284.1,546-284.1,547z"/>
<path class="st5" d="M-284.5,541v2.5c0,1,1.5,1,1.5,0V541C-283,540-284.5,540-284.5,541z"/>
<path class="st5" d="M-282.8,536.8c-0.2-0.7-0.1-1.4-0.1-2.1c0-1-1.5-1-1.5,0c0,0.8,0,1.7,0.2,2.5
	C-284.1,538.1-282.6,537.7-282.8,536.8z"/>
<path class="st5" d="M-283,527.2c0-1-1.5-1-1.5,0c0,1.5-0.1,3,0.2,4.5c0.2,0.9,1.6,0.5,1.4-0.4C-283.1,529.9-283,528.5-283,527.2z"
	/>
<path class="st5" d="M-283,485.2c0-1-1.5-1-1.5,0c0,1.5-0.1,3,0.2,4.5c0.2,0.9,1.6,0.5,1.4-0.4C-283.1,487.9-283,486.5-283,485.2z"
	/>
<path class="st5" d="M-284.1,521.2v2.5c0,1,1.5,1,1.5,0v-2.5C-282.6,520.2-284.1,520.2-284.1,521.2z"/>
<path class="st5" d="M-282.8,513.6c-0.1-1-1.6-0.5-1.4,0.4c0.2,1.1,0.2,2.1,0.3,3.2c0.1,1,1.6,0.5,1.4-0.4
	C-282.7,515.8-282.7,514.7-282.8,513.6z"/>
<path class="st5" d="M-283,507c-0.3-0.9-1.7-0.5-1.4,0.4c0.3,1,0.3,2.1,0.5,3.1c0.1,0.9,1.6,1,1.5,0
	C-282.6,509.3-282.6,508.1-283,507z"/>
<path class="st5" d="M-282.5,503.3c-0.2-0.7-0.1-1.5-0.1-2.3c0-1-1.5-1-1.5,0c0,0.9,0,1.8,0.2,2.7
	C-283.7,504.6-282.3,504.2-282.5,503.3z"/>
<path class="st5" d="M-282.6,494c0-1-1.5-1-1.5,0c0,1.1,0,2.2,0.2,3.4c0.1,1,1.6,0.5,1.4-0.4C-282.6,496-282.6,495-282.6,494z"/>
<path class="st5" d="M-283.8,470.8v3.8c0,1,1.5,1,1.5,0v-3.8C-282.3,469.9-283.8,469.9-283.8,470.8z"/>
<path class="st5" d="M-284,464.5v2.5c0,1,1.5,1,1.5,0v-2.5C-282.5,463.5-284,463.5-284,464.5z"/>
<path class="st5" d="M-284,479.5v2.5c0,1,1.5,1,1.5,0v-2.5C-282.5,478.5-284,478.5-284,479.5z"/>
<path class="st5" d="M-283.8,457.3c-0.3,1.2-0.4,2.5-0.2,3.7c0.1,0.9,1.6,1,1.5,0c-0.1-1.1-0.1-2.2,0.1-3.3
	C-282.1,456.8-283.5,456.4-283.8,457.3z"/>
<path class="st5" d="M-283.5,451.7c0,0.8,0,1.5-0.1,2.3c-0.2,0.9,1.3,1.3,1.4,0.4c0.2-0.9,0.2-1.8,0.2-2.7
	C-282,450.7-283.5,450.7-283.5,451.7z"/>
<path class="st5" d="M-283.8,445.8v1.7c0,1,1.5,1,1.5,0v-1.7C-282.3,444.9-283.8,444.9-283.8,445.8z"/>
<path class="st5" d="M-283.8,438c-0.2,1.1-0.2,2.2-0.2,3.4c0,1,1.5,1,1.5,0c0-1,0-2,0.1-3C-282.2,437.4-283.6,437-283.8,438z"/>
<path class="st5" d="M-282.1,430.8c0-0.3-0.1-0.5-0.3-0.6v-2.1c0-1-1.5-1-1.5,0v5.3c0,0.9,1.3,1,1.5,0.2c0.1-0.1,0.2-0.3,0.2-0.5
	C-282.3,432.4-282.1,431.6-282.1,430.8z"/>
<path class="st5" d="M-282.8,591.8c0-1-1.5-1-1.5,0v6.3c0,0.5,0.4,0.7,0.8,0.7c0.5,0.1,1.1-0.3,1-0.9
	C-282.8,595.9-282.8,593.9-282.8,591.8z"/>
<g>
	<text transform="matrix(1 0 0 1 -262.9984 426.833)" class="st5 st3 st8">with SaleSim</text>
</g>
<path class="st2" d="M-205.5,473.2c-0.8-10.2-8-16.9-17.1-20.5c-19.1-7.5-46.7,6.1-47.5,27.7c-0.1,3.8,0.9,7.6,2.8,11.1
	c-0.3,0.8,0.3,1.6,1.1,1.8c5,8,14.3,14.4,23.5,15.7c1.3,3,2.3,6.2,3.5,9.3c0.7,1.7,3.2,1.1,3-0.4c0.4-0.2,0.7-0.5,0.8-0.9
	c0.8-3,2-6,3.2-8.8c0.1,0,0.1,0,0.2-0.1c0.6-0.2,0.9-0.7,1-1.3c5.8-1.2,11.4-3.9,15.9-7.9C-208.2,492.5-204.8,482.5-205.5,473.2z
	 M-213.9,492.6c0.8-1.2,1.4-2.5,2-3.8c0.6-1.2,1.2-2.4,1.8-3.6C-211,487.8-212.2,490.3-213.9,492.6z"/>
<text transform="matrix(1 0 0 1 -260.6752 485.4009)" class="st9 st6 st10">+100%</text>
<g>
	<path class="st11" d="M-273,608c0-0.3-0.2-0.4-0.4-0.3c-2.9-1.9-6-3.4-9-5c0,0,0,0,0,0c0-0.5-0.7-0.5-0.7,0c0,3.7,0.2,7.4,0.2,11.1
		c0,0.1,0.1,0.2,0.1,0.3c0,0.1,0,0.2,0.2,0.3c2.9,1.6,6,2.9,8.6,5c0.1,0,0.1,0.1,0.2,0.1c0.1,0.4,0.7,0.4,0.7-0.1
		c-0.1-2,0-4-0.1-5.9c0-0.1,0.1-0.1,0.1-0.2C-273.1,611.5-273,609.8-273,608z"/>
	<path class="st12" d="M-283.8,613.1c-0.5-3.2,0.1-6.4-0.2-9.6c0,0,0-0.1,0-0.1c0,0,0,0,0,0c0.4-0.3-0.2-0.8-0.5-0.5
		c-2.6,2.1-5.9,3.6-8.7,5.2c0,0-0.1,0.1-0.1,0.1c-0.1,0-0.2,0.1-0.3,0.2c-0.1,0.1-0.2,0.2-0.2,0.3c0,0.2,0.1,0.3,0.1,0.5v10
		c0,0.4,0.6,0.5,0.7,0.1c0.1,0,0.1,0,0.2-0.1c2.6-2.1,5.6-3.7,8.4-5.5c0.1-0.1,0.1-0.1,0.2-0.2C-284,613.6-283.7,613.4-283.8,613.1z
		"/>
	<path class="st13" d="M-274.2,620c-1.1-0.9-2.5-1.4-3.8-2c-1.8-0.8-3.3-2.2-5.1-3.1c-0.1,0-0.1,0-0.2,0c-0.1-0.1-0.3-0.2-0.5-0.1
		c-0.1,0-0.1,0.1-0.1,0.2c-0.1,0-0.2,0-0.3,0c-2.6,1.7-5.3,3.2-8.1,4.7c-0.1,0.1-0.2,0.2-0.2,0.3c-0.3,0-0.5,0.5-0.2,0.7
		c3,1.7,6.1,3.4,8.9,5.4c0.2,0.2,0.5,0,0.5-0.2c0.1,0.1,0.2,0.1,0.3,0c2.7-1.9,6-2.8,8.4-5.1c0.1-0.1,0.1-0.1,0.1-0.2
		C-274.1,620.5-273.9,620.2-274.2,620z"/>
	<path class="st14" d="M-276.2,609.9c-1.9-2-4.9-2.5-7.2-4c-0.1-0.1-0.2-0.1-0.3,0c-0.1,0-0.1,0-0.2,0c-2.1,1.1-4.1,2.5-6.2,3.5
		c-0.1,0-0.1,0.1-0.1,0.1c-0.1,0-0.1,0-0.2,0c-0.5-0.1-0.7,0.6-0.2,0.7c0.2,0,0.4,0.1,0.6,0.2c0,0,0.1,0.1,0.1,0.1
		c0.7,0.3,1.4,0.6,2.1,0.9c1.3,0.8,2.5,1.8,3.9,2.3c0,0,0,0,0,0c0.1,0.1,0.2,0.1,0.2,0.1c0,0,0,0,0,0c0.1,0.1,0.2,0.1,0.2,0.2
		c0.1,0.2,0.3,0.4,0.5,0.3c2.1-1.2,4.1-2.6,6.2-3.9c0,0,0,0,0,0C-276.3,610.7-275.8,610.2-276.2,609.9z"/>
	<path class="st14" d="M-290.7,610.7c-0.7,2.7,0.5,5.5,0.3,8.2c0,0.1,0,0.2,0.1,0.3c0,0.1,0.1,0.1,0.1,0.1c2.1,1.2,4.2,2.2,6.3,3.5
		c0.1,0,0.1,0.1,0.2,0.1c0,0.1,0,0.1,0.1,0.2c0.2,0.4,0.9,0.2,0.7-0.2c-0.1-0.2-0.1-0.4-0.2-0.6c0,0,0-0.1,0-0.2
		c-0.1-0.8-0.2-1.5-0.3-2.3c0-1.5,0.2-3-0.1-4.6c0,0,0,0,0,0c0-0.1,0-0.2-0.1-0.2c0,0,0,0,0,0c0-0.1,0-0.2,0-0.3
		c0.2-0.2,0.2-0.5-0.1-0.6c-2.1-1.1-4.4-2.1-6.5-3.2c0,0,0,0,0,0C-289.9,610.4-290.6,610.2-290.7,610.7z"/>
	<path class="st14" d="M-282.4,623.3c2.6-0.8,4.4-3.4,6.7-4.7c0.1-0.1,0.2-0.2,0.2-0.2c0-0.1,0.1-0.1,0.1-0.2
		c-0.1-2.4-0.4-4.8-0.5-7.2c0-0.1,0-0.1-0.1-0.2c0-0.1,0.1-0.1,0.1-0.1c0.3-0.4-0.3-0.9-0.6-0.5c-0.1,0.2-0.3,0.3-0.4,0.5
		c0,0-0.1,0-0.1,0.1c-0.6,0.5-1.2,1-1.8,1.5c-1.3,0.8-2.7,1.5-3.8,2.5c0,0,0,0,0,0c-0.1,0-0.1,0.1-0.1,0.2c0,0,0,0,0,0
		c-0.1,0-0.2,0.1-0.3,0.1c-0.2,0-0.5,0.1-0.5,0.4c0.2,2.4,0.6,4.8,0.8,7.2c0,0,0,0,0,0C-283.1,622.8-282.9,623.5-282.4,623.3z"/>
</g>
<path class="st2" d="M-183.4,518c-10.7,7.6-22.8,13.1-33.4,20.9c-8.2-1-16.5-2.1-24.8-2.2c-0.3,0-0.6,0.1-0.8,0.2
	c-0.2-0.2-0.4-0.4-0.8-0.5c-8.4-2.4-16.7-5.2-25.3-7c-0.3-0.1-0.5,0-0.8,0c-0.5-0.5-1.4-0.7-2,0c-5.1,5.5-9.2,12.3-13.8,18.3
	c-5.4,7.1-10.7,14.2-15.1,22c0,0,0,0,0,0c-0.4,0-0.7,0.1-1.1,0.4c-6.4,5.2-13.9,8.5-21.3,12.1c-0.1,0-0.2-0.1-0.3-0.1
	c-8.6-2.8-17.2-5.6-26-7.3c-0.5-0.1-0.9,0-1.3,0.3c-7.3,0.7-14.5,1.3-21.8,1.3c-0.2,0-0.4,0-0.5,0.1c-0.3-0.1-0.5-0.1-0.9,0
	c-7.2,1.7-14.1,4.1-21,6.7c-1.8,0.7-1,3.6,0.8,2.9c6.9-2.6,13.8-5,21-6.7c0,0,0.1,0,0.1,0c0.2,0.1,0.3,0.1,0.5,0.1
	c7.4,0,14.7-0.6,22-1.3c0.3,0,0.6-0.1,0.8-0.3c8.1,1.7,15.9,4.1,23.7,6.6c0,0,0.1,0,0.1,0c0.2,0.1,0.5,0.1,0.7,0.2
	c0,0,0,0.1,0.1,0.1c0.4,0.2,0.8,0.5,1.2,0.7c0.2,0,0.5,0.1,0.7,0.1c0.1,0,0.1,0,0.2-0.1c8-4,16.3-7.6,23.3-13.2
	c0.1-0.1,0.2-0.2,0.2-0.2c0.5,0,1-0.2,1.3-0.7c4.1-7.3,9-14,14-20.6c4.6-6.1,8.8-12.9,13.9-18.5c0.1,0.1,0.2,0.1,0.4,0.1
	c8.6,1.8,16.9,4.6,25.3,7c0.5,0.1,0.9,0,1.2-0.2c0.2,0.3,0.6,0.6,1.2,0.6c8.7,0.1,17.3,1.3,25.8,2.3c0.5-0.5,1-0.9,1.6-1.2
	c0,0,0-0.1,0-0.1c10.3-7.4,21.9-12.8,32.2-20.1C-180.3,519.4-181.8,516.8-183.4,518z"/>
<path class="st2" d="M-212.8,487.8c-1.6-0.4-3.2,1.2-4.3,2.1c-1.7,1.3-3.3,2.8-5.1,4.1c-1.6,1.1-0.1,3.7,1.5,2.6
	c1.5-1,2.8-2.2,4.2-3.3c0.7-0.6,1.4-1.1,2.1-1.6c0.3-0.2,0.6-0.5,1-0.7c0.5-0.3,0.5-0.1-0.1-0.2
	C-211.7,491.2-210.9,488.3-212.8,487.8z"/>
</svg>
