<?xml version="1.0" encoding="utf-8"?>
<!-- Generator: Adobe Illustrator 19.0.0, SVG Export Plug-In . SVG Version: 6.00 Build 0)  -->
<svg version="1.1" id="Layer_1" xmlns="http://www.w3.org/2000/svg" xmlns:xlink="http://www.w3.org/1999/xlink" x="0px" y="0px"
	 viewBox="-443 379 305 270" style="enable-background:new -443 379 305 270;" xml:space="preserve">
<style type="text/css">
	.st0{opacity:0.1;fill:#EF4849;enable-background:new    ;}
	.st1{fill:none;stroke:#B0AFB0;stroke-width:1.5;stroke-miterlimit:10;}
	.st2{fill:#EF4849;}
	.st3{font-family:'GoodDog';}
	.st4{font-size:23px;}
	.st5{fill:#333333;}
	.st6{font-family:'Cavorting-Regular';}
	.st7{font-size:15px;}
	.st8{font-size:17px;}
	.st9{fill:#FFFFFF;}
	.st10{font-size:21px;}
	.st11{fill:#D82629;}
	.st12{fill:#EE2E39;}
	.st13{fill:#EF475A;}
	.st14{opacity:0.5;fill:#F58E95;enable-background:new    ;}
</style>
<rect x="-277.4" y="434.8" class="st0" width="112.5" height="160.8"/>
<line class="st1" x1="-384.4" y1="435.2" x2="-162.4" y2="434.3"/>
<line class="st1" x1="-384.4" y1="514.7" x2="-162.4" y2="515.2"/>
<line class="st1" x1="-384.4" y1="595.2" x2="-162.4" y2="596.3"/>
<text transform="matrix(1 0 0 1 -331.1052 405.25)" class="st2 st3 st4">References</text>
<text transform="matrix(1 0 0 1 -418.5783 439.0674)" class="st5 st6 st7">500</text>
<text transform="matrix(1 0 0 1 -415.8635 519.3164)" class="st5 st6 st7">250</text>
<text transform="matrix(1 0 0 1 -401.4933 600.0674)" class="st5 st6 st7">0</text>
<path class="st2" d="M-332.1,639.6c-5.1,0.1-10.2,0-15.4,0c-1.9,0-1.9,3,0,3c5.1,0,10.2,0.1,15.4,0
	C-330.2,642.6-330.2,639.6-332.1,639.6z"/>
<g>
	<text transform="matrix(1 0 0 1 -323.3992 643.8164)" class="st5 st3 st8">weekly average</text>
</g>
<g>
	<text transform="matrix(1 0 0 1 -196.5906 613.833)" class="st5 st3 st8">weeks</text>
</g>
<path class="st5" d="M-278.2,582.8c-0.2,1.1-0.2,2.1-0.2,3.2c0,1,1.5,1,1.5,0c0-0.9,0-1.9,0.1-2.8
	C-276.7,582.3-278.1,581.8-278.2,582.8z"/>
<path class="st5" d="M-277.1,575.5c-0.2-0.9-1.7-0.5-1.4,0.4c0.3,1.2,0.1,2.4,0.1,3.6c0,1,1.5,1,1.5,0
	C-276.9,578.1-276.8,576.8-277.1,575.5z"/>
<path class="st5" d="M-278.6,569.3v2.5c0,1,1.5,1,1.5,0v-2.5C-277.1,568.4-278.6,568.4-278.6,569.3z"/>
<path class="st5" d="M-278.8,560v3.3c0,1,1.5,1,1.5,0V560C-277.3,559-278.8,559-278.8,560z"/>
<path class="st5" d="M-278.8,553.8v3c0,1,1.5,1,1.5,0v-3C-277.3,552.9-278.8,552.9-278.8,553.8z"/>
<path class="st5" d="M-278.6,547v3.2c0,1,1.5,1,1.5,0V547C-277.1,546-278.6,546-278.6,547z"/>
<path class="st5" d="M-278.9,541v2.5c0,1,1.5,1,1.5,0V541C-277.4,540-278.9,540-278.9,541z"/>
<path class="st5" d="M-277.3,536.8c-0.2-0.7-0.1-1.4-0.1-2.1c0-1-1.5-1-1.5,0c0,0.8,0,1.7,0.2,2.5
	C-278.5,538.1-277.1,537.7-277.3,536.8z"/>
<path class="st5" d="M-277.4,527.2c0-1-1.5-1-1.5,0c0,1.5-0.1,3,0.2,4.5c0.2,0.9,1.6,0.5,1.4-0.4
	C-277.6,529.9-277.4,528.5-277.4,527.2z"/>
<path class="st5" d="M-277.4,485.2c0-1-1.5-1-1.5,0c0,1.5-0.1,3,0.2,4.5c0.2,0.9,1.6,0.5,1.4-0.4
	C-277.6,487.9-277.4,486.5-277.4,485.2z"/>
<path class="st5" d="M-278.6,521.2v2.5c0,1,1.5,1,1.5,0v-2.5C-277.1,520.2-278.6,520.2-278.6,521.2z"/>
<path class="st5" d="M-277.3,513.6c-0.1-1-1.6-0.5-1.4,0.4c0.2,1.1,0.2,2.1,0.3,3.2c0.1,1,1.6,0.5,1.4-0.4
	C-277.1,515.8-277.1,514.7-277.3,513.6z"/>
<path class="st5" d="M-277.5,507c-0.3-0.9-1.7-0.5-1.4,0.4c0.3,1,0.3,2.1,0.5,3.1c0.1,0.9,1.6,1,1.5,0
	C-277.1,509.3-277.1,508.1-277.5,507z"/>
<path class="st5" d="M-277,503.3c-0.2-0.7-0.1-1.5-0.1-2.3c0-1-1.5-1-1.5,0c0,0.9,0,1.8,0.2,2.7C-278.2,504.6-276.7,504.2-277,503.3
	z"/>
<path class="st5" d="M-277.1,494c0-1-1.5-1-1.5,0c0,1.1,0,2.2,0.2,3.4c0.1,1,1.6,0.5,1.4-0.4C-277.1,496-277.1,495-277.1,494z"/>
<path class="st5" d="M-278.3,470.8v3.8c0,1,1.5,1,1.5,0v-3.8C-276.8,469.9-278.3,469.9-278.3,470.8z"/>
<path class="st5" d="M-278.4,464.5v2.5c0,1,1.5,1,1.5,0v-2.5C-276.9,463.5-278.4,463.5-278.4,464.5z"/>
<path class="st5" d="M-278.4,479.5v2.5c0,1,1.5,1,1.5,0v-2.5C-276.9,478.5-278.4,478.5-278.4,479.5z"/>
<path class="st5" d="M-278.2,457.3c-0.3,1.2-0.4,2.5-0.2,3.7c0.1,0.9,1.6,1,1.5,0c-0.1-1.1-0.1-2.2,0.1-3.3
	C-276.5,456.8-278,456.4-278.2,457.3z"/>
<path class="st5" d="M-277.9,451.7c0,0.8,0,1.5-0.1,2.3c-0.2,0.9,1.3,1.3,1.4,0.4c0.2-0.9,0.2-1.8,0.2-2.7
	C-276.4,450.7-277.9,450.7-277.9,451.7z"/>
<path class="st5" d="M-278.3,445.8v1.7c0,1,1.5,1,1.5,0v-1.7C-276.8,444.9-278.3,444.9-278.3,445.8z"/>
<path class="st5" d="M-278.2,438c-0.2,1.1-0.2,2.2-0.2,3.4c0,1,1.5,1,1.5,0c0-1,0-2,0.1-3C-276.7,437.4-278.1,437-278.2,438z"/>
<path class="st5" d="M-276.6,430.8c0-0.3-0.1-0.5-0.3-0.6v-2.1c0-1-1.5-1-1.5,0v5.3c0,0.9,1.3,1,1.5,0.2c0.1-0.1,0.2-0.3,0.2-0.5
	C-276.8,432.4-276.6,431.6-276.6,430.8z"/>
<path class="st5" d="M-277.3,591.8c0-1-1.5-1-1.5,0v6.3c0,0.5,0.4,0.7,0.8,0.7c0.5,0.1,1.1-0.3,1-0.9
	C-277.3,595.9-277.3,593.9-277.3,591.8z"/>
<g>
	<text transform="matrix(1 0 0 1 -257.466 426.833)" class="st5 st3 st8">with SaleSim</text>
</g>
<path class="st2" d="M-200,474.1c-6.6-8-20.7-10.6-30.6-6.6c-8.7,2-17.1,8.4-20.5,16.7c-3.8,9.1,0.5,20.7,5.7,28.3
	c4.7,7,12,11.5,20.1,11.2c0.9,2.9,2,5.7,3.2,8.6c0.5,1.1,2,0.8,2.6,0c2.1-3,3.8-6.2,4.9-9.6c3.5-0.4,6.9-1.3,9.9-2.7
	c8.8-4,12.9-14.6,14-23.5C-189.4,486.5-193.4,478.9-200,474.1z M-237.8,478.4c-0.1-0.1-0.2-0.1-0.3-0.2c0.4-0.4,0.8-0.8,1.2-1.2
	C-237.2,477.5-237.5,478-237.8,478.4z M-204.1,516.1c0.5-0.6,1-1.3,1.5-1.9c0.2,0.1,0.4,0.2,0.6,0.2
	C-202.7,515.1-203.4,515.6-204.1,516.1z M-197.1,508c0.1-0.4,0.1-0.8,0-1.2c0.3-0.2,0.6-0.3,0.8-0.5
	C-196.5,506.8-196.8,507.4-197.1,508z M-196.9,502.9c0.5-0.9,0.9-1.8,1.3-2.7c0.2-0.5,0.2-0.9,0.1-1.2c0.1-0.2,0.2-0.4,0.4-0.7
	C-195.3,500.1-195.9,501.7-196.9,502.9z"/>
<text transform="matrix(1 0 0 1 -243.2707 500.4009)" class="st9 st6 st10">+188%</text>
<g>
	<path class="st11" d="M-267.4,608c0-0.3-0.2-0.4-0.4-0.3c-2.9-1.9-6-3.4-9-5c0,0,0,0,0,0c0-0.5-0.7-0.5-0.7,0
		c0,3.7,0.2,7.4,0.2,11.1c0,0.1,0.1,0.2,0.1,0.3c0,0.1,0,0.2,0.2,0.3c2.9,1.6,6,2.9,8.6,5c0.1,0,0.1,0.1,0.2,0.1
		c0.1,0.4,0.7,0.4,0.7-0.1c-0.1-2,0-4-0.1-5.9c0-0.1,0.1-0.1,0.1-0.2C-267.6,611.5-267.5,609.8-267.4,608z"/>
	<path class="st12" d="M-278.2,613.1c-0.5-3.2,0.1-6.4-0.2-9.6c0,0,0-0.1,0-0.1c0,0,0,0,0,0c0.4-0.3-0.2-0.8-0.5-0.5
		c-2.6,2.1-5.9,3.6-8.7,5.2c0,0-0.1,0.1-0.1,0.1c-0.1,0-0.2,0.1-0.3,0.2c-0.1,0.1-0.2,0.2-0.2,0.3c0,0.2,0.1,0.3,0.1,0.5v10
		c0,0.4,0.6,0.5,0.7,0.1c0.1,0,0.1,0,0.2-0.1c2.6-2.1,5.6-3.7,8.4-5.5c0.1-0.1,0.1-0.1,0.2-0.2
		C-278.5,613.6-278.2,613.4-278.2,613.1z"/>
	<path class="st13" d="M-268.7,620c-1.1-0.9-2.5-1.4-3.8-2c-1.8-0.8-3.3-2.2-5.1-3.1c-0.1,0-0.1,0-0.2,0c-0.1-0.1-0.3-0.2-0.5-0.1
		c-0.1,0-0.1,0.1-0.1,0.2c-0.1,0-0.2,0-0.3,0c-2.6,1.7-5.3,3.2-8.1,4.7c-0.1,0.1-0.2,0.2-0.2,0.3c-0.3,0-0.5,0.5-0.2,0.7
		c3,1.7,6.1,3.4,8.9,5.4c0.2,0.2,0.5,0,0.5-0.2c0.1,0.1,0.2,0.1,0.3,0c2.7-1.9,6-2.8,8.4-5.1c0.1-0.1,0.1-0.1,0.1-0.2
		C-268.6,620.5-268.4,620.2-268.7,620z"/>
	<path class="st14" d="M-270.6,609.9c-1.9-2-4.9-2.5-7.2-4c-0.1-0.1-0.2-0.1-0.3,0c-0.1,0-0.1,0-0.2,0c-2.1,1.1-4.1,2.5-6.2,3.5
		c-0.1,0-0.1,0.1-0.1,0.1c-0.1,0-0.1,0-0.2,0c-0.5-0.1-0.7,0.6-0.2,0.7c0.2,0,0.4,0.1,0.6,0.2c0,0,0.1,0.1,0.1,0.1
		c0.7,0.3,1.4,0.6,2.1,0.9c1.3,0.8,2.5,1.8,3.9,2.3c0,0,0,0,0,0c0.1,0.1,0.2,0.1,0.2,0.1c0,0,0,0,0,0c0.1,0.1,0.2,0.1,0.2,0.2
		c0.1,0.2,0.3,0.4,0.5,0.3c2.1-1.2,4.1-2.6,6.2-3.9c0,0,0,0,0,0C-270.8,610.7-270.3,610.2-270.6,609.9z"/>
	<path class="st14" d="M-285.2,610.7c-0.7,2.7,0.5,5.5,0.3,8.2c0,0.1,0,0.2,0.1,0.3c0,0.1,0.1,0.1,0.1,0.1c2.1,1.2,4.2,2.2,6.3,3.5
		c0.1,0,0.1,0.1,0.2,0.1c0,0.1,0,0.1,0.1,0.2c0.2,0.4,0.9,0.2,0.7-0.2c-0.1-0.2-0.1-0.4-0.2-0.6c0,0,0-0.1,0-0.2
		c-0.1-0.8-0.2-1.5-0.3-2.3c0-1.5,0.2-3-0.1-4.6c0,0,0,0,0,0c0-0.1,0-0.2-0.1-0.2c0,0,0,0,0,0c0-0.1,0-0.2,0-0.3
		c0.2-0.2,0.2-0.5-0.1-0.6c-2.1-1.1-4.4-2.1-6.5-3.2c0,0,0,0,0,0C-284.3,610.4-285.1,610.2-285.2,610.7z"/>
	<path class="st14" d="M-276.9,623.3c2.6-0.8,4.4-3.4,6.7-4.7c0.1-0.1,0.2-0.2,0.2-0.2c0-0.1,0.1-0.1,0.1-0.2
		c-0.1-2.4-0.4-4.8-0.5-7.2c0-0.1,0-0.1-0.1-0.2c0-0.1,0.1-0.1,0.1-0.1c0.3-0.4-0.3-0.9-0.6-0.5c-0.1,0.2-0.3,0.3-0.4,0.5
		c0,0-0.1,0-0.1,0.1c-0.6,0.5-1.2,1-1.8,1.5c-1.3,0.8-2.7,1.5-3.8,2.5c0,0,0,0,0,0c-0.1,0-0.1,0.1-0.1,0.2c0,0,0,0,0,0
		c-0.1,0-0.2,0.1-0.3,0.1c-0.2,0-0.5,0.1-0.5,0.4c0.2,2.4,0.6,4.8,0.8,7.2c0,0,0,0,0,0C-277.6,622.8-277.3,623.5-276.9,623.3z"/>
</g>
<path class="st2" d="M-176.4,550.7c-10.8,2.9-21.9,3.8-32.8,6.3c-10.3-2.4-20.3-6.1-30.7-8.3c0,0,0,0-0.1,0
	c-7.2-3.3-14.4-7.1-22.3-8.3c-1-0.1-1.6,0.5-1.8,1.2c-0.3,0-0.7,0.1-1,0.5c-9.5,10.6-21.1,19-29.8,30.3c-8.4,0.7-16.7,1.2-25.1,1.3
	c-0.7,0-1.2,0.5-1.4,1c-7.2,3.2-13.6,7.9-20.7,11.4c-9.3-2.4-18.3-5.8-27.6-8.5c-0.6,0.2-1.2,0.3-1.8,0.4c-0.1,0.1-0.1,0.2-0.2,0.3
	c-4.3,1.1-8.5,2.4-12.8,3.5c-1.9,0.5-1.1,3.4,0.8,2.9c4.5-1.1,8.9-2.5,13.3-3.7c0.3-0.1,0.5-0.2,0.6-0.3c9,2.7,17.8,6,26.9,8.3
	c0.3,0.1,0.6,0.1,0.9,0c0.3,0.1,0.6,0,1-0.1c7.3-3.5,13.9-8.4,21.3-11.7c0.3-0.1,0.5-0.3,0.6-0.5c7.7-0.1,15.5-0.6,23.2-1.2
	c0.6,0.6,1.8,0.7,2.4-0.2c8.7-11.7,20.7-20.2,30.4-31c0.2-0.3,0.4-0.6,0.4-0.9c7.6,1.3,14.5,5,21.5,8.1c0,0,0,0,0,0
	c0.2,0.1,0.4,0.2,0.6,0.3c0.3,0.2,0.7,0.2,1,0.1c10.5,2.3,20.6,6.1,31.1,8.4c0.8,0.2,1.3-0.2,1.6-0.7c10.3-2.2,20.9-3.2,31.2-5.9
	C-173.8,553.1-174.5,550.2-176.4,550.7z"/>
</svg>
