<?xml version="1.0" encoding="utf-8"?>
<!-- Generator: Adobe Illustrator 16.0.0, SVG Export Plug-In . SVG Version: 6.00 Build 0)  -->
<!DOCTYPE svg PUBLIC "-//W3C//DTD SVG 1.0//EN" "http://www.w3.org/TR/2001/REC-SVG-20010904/DTD/svg10.dtd">
<svg version="1.0" id="Layer_1" xmlns="http://www.w3.org/2000/svg" xmlns:xlink="http://www.w3.org/1999/xlink" x="0px" y="0px"
	 width="185.095px" height="94.309px" viewBox="0 0 185.095 94.309" enable-background="new 0 0 185.095 94.309"
	 xml:space="preserve">
<g>
	<g>
		<path fill="#FFFFFF" d="M113.841,70.759c-0.578-0.801-1.223-1.245-1.712-1.245c-0.511,0-1,0.223-1.333,0.578
			c-0.223,0.244-0.4,0.601-0.4,1.066c-0.022,0.801,0.689,1.045,1.556,1.067c1.756,0.045,3.444,1.089,3.444,3.222
			c0.022,2.245-1.777,3.29-3.556,3.29c-1.2,0-2.667-0.778-3.489-2.223l1.533-0.822c0.512,0.845,1.289,1.245,1.979,1.245
			c0.889,0,1.733-0.512,1.733-1.49c0-0.933-0.8-1.377-1.667-1.399c-1.844-0.045-3.334-0.822-3.334-2.89
			c-0.021-2.178,1.734-3.399,3.512-3.399c1.134,0,2.334,0.622,3.245,2L113.841,70.759z"/>
		<path fill="#FFFFFF" d="M120.552,67.848v1.8h-2.223v5.334c0,1.022,1.111,1.822,2.423,1.822v1.778c-2.245,0-4.2-1.489-4.2-3.601
			V63.514h1.777v4.334H120.552z"/>
		<path fill="#FFFFFF" d="M125.019,78.693c-1.955,0-3.467-1.622-3.467-3.511v-7.29h1.8v7.29c0,0.933,0.756,1.711,1.667,1.711
			c0.934,0,1.689-0.778,1.689-1.711v-7.29h1.777v7.29C128.486,77.071,127.042,78.693,125.019,78.693z"/>
		<path fill="#FFFFFF" d="M130.019,75.47v-4.244c0-1.8,1.601-3.578,3.578-3.423c0.6,0.045,1.312,0.312,1.711,1.045v-5.423h1.801
			v15.157h-1.355l-0.355-1.112c-0.4,0.912-1.178,1.245-1.845,1.245C131.13,78.715,130.019,77.315,130.019,75.47z M131.82,75.47
			c0,0.89,0.8,1.468,1.777,1.468c0.956,0,1.711-0.801,1.711-1.578v-4.223c-0.021-0.889-0.6-1.534-1.711-1.534
			c-0.955,0-1.777,0.712-1.777,1.623V75.47z"/>
		<path fill="#FFFFFF" d="M140.82,65.559c0,0.645-0.556,1.11-1.155,1.11c-0.577,0-1.089-0.466-1.089-1.11
			c0-0.689,0.512-1.134,1.089-1.134C140.264,64.425,140.82,64.87,140.82,65.559z M140.576,78.583h-1.777v-10.69h1.777V78.583z"/>
		<path fill="#FFFFFF" d="M149.287,75.16c0,2.378-1.822,3.533-3.622,3.533c-1.822,0-3.601-1.155-3.601-3.533v-3.89
			c0-2.399,1.801-3.511,3.601-3.511c1.822,0,3.622,1.111,3.622,3.511V75.16z M147.487,71.27c0-1.133-0.911-1.733-1.822-1.733
			c-0.89,0-1.822,0.601-1.822,1.733v3.89c0,1.133,0.933,1.711,1.822,1.711c0.911,0,1.822-0.578,1.822-1.711V71.27z"/>
	</g>
	<g>
		<path fill="#FFFFFF" d="M167.943,21.533h-9.406V17.98c0-1.596-1.297-1.797-2.895-1.797c-1.597,0-2.893,0.201-2.893,1.797v3.553
			h-4.732c-1.479,0-1.634,1.197-1.634,2.673c0,1.48,0.155,2.677,1.634,2.677h4.732V54.5h-2.812V38.816
			c0-5.21-4.223-9.433-9.433-9.433c-1.418,0-2.762,0.315-3.969,0.876c-0.43-0.741-1.449-0.876-2.638-0.876
			c-1.578,0-2.857,0.236-2.857,1.813v23.302L119.812,54.5c-2.014,0-3.648-1.632-3.648-3.647v-4.48h7.397l0.001-0.003
			c5.572-0.063,5.634-5.008,5.634-5.162v-0.006v-2.432c0-5.186-4.202-9.386-9.384-9.386c-5.185,0-9.386,4.2-9.386,9.386v2.593
			c-0.229,0.021-0.464,0.035-0.712,0.035c-0.42,0-0.811-0.035-1.174-0.09v-10.11c0-1.577-1.316-1.813-2.943-1.813
			c-1.625,0-2.942,0.236-2.942,1.813v19.419c0,2.014-1.636,3.646-3.647,3.646c-2.018,0-3.65-1.632-3.65-3.646V31.197
			c0-1.577-1.279-1.813-2.855-1.813c-1.578,0-2.856,0.236-2.856,1.813L89.625,50.47c0,0.514,0.094,1.016,0.173,1.507
			c-0.206-0.017-0.409-0.028-0.608-0.028c-0.455,0-0.941,0.052-1.412,0.128V38.816c0-5.21-4.222-9.433-9.432-9.433
			c-5.209,0-9.432,4.223-9.432,9.433V50.47c0,0.378,0.024,0.751,0.068,1.117c-0.341-0.043-0.685-0.069-1.015-0.069
			c-0.325,0-0.665,0.026-1.004,0.069c0.043-0.366,0.068-0.739,0.068-1.117V38.816c0-5.21-4.219-9.433-9.432-9.433
			c-5.21,0-9.433,4.223-9.433,9.433V50.47c0,1.442,0.324,2.808,0.902,4.029h-0.902c-0.049-0.011-0.099-0.021-0.147-0.032
			c-2.352-0.534-4.537-1.868-6.453-3.801c2.935-4.755,4.876-11.012,5.309-17.958c0.092-1.058,0.139-2.147,0.139-3.262
			c0-10.505-4.229-19.038-9.425-19.038c-5.131,0-9.284,8.338-9.39,18.661h-0.002c-0.003,0.127-0.003,0.251-0.003,0.377
			c0,0.005,0,0.009,0,0.014c0,0.004,0,0.008,0,0.011h0c0.001,1.105,0.048,2.187,0.136,3.237c0.432,6.941,2.371,13.192,5.303,17.946
			c-1.66,1.669-3.519,2.892-5.506,3.542c-0.371,0.121-1.491,0.303-1.939,0.303c-0.037,0-0.073,0-0.109,0h-7.761
			c-2.016,0-3.647-1.632-3.647-3.647v-4.483h7.292v0.003c0.033,0,0.062-0.002,0.095-0.003h0.006l0,0
			c5.573-0.061,5.636-5.008,5.636-5.162v-0.006v-2.432c0-5.186-4.2-9.386-9.382-9.386c-5.184,0-9.386,4.2-9.386,9.386v11.749
			c0,5.182,4.202,9.385,9.386,9.385c0.022,0,0.043-0.001,0.066-0.001l0,0.001h8.616c0.209,0.01,0.413,0,0.622,0
			c3.656,0,7.07-1.574,9.981-4.308c2.911,2.733,6.325,4.308,9.981,4.308c0.193,0,9.965,0,9.965,0s0.032,0,0.048,0
			c2.432,0,4.646-0.919,6.318-2.428c0,0,1.551-1.166,4.05-1.166c2.502,0,4.051,1.157,4.051,1.157
			c1.673,1.514,3.893,2.437,6.328,2.437c1.254,0,2.451-0.247,3.546-0.691V78.98c0,1.625,1.317,1.901,2.943,1.901
			s2.943-0.276,2.943-1.901V56.87c0.428-0.079,0.898-0.13,1.412-0.13c2.502,0,4.052,1.113,4.052,1.113
			c1.61,1.282,3.648,2.05,5.868,2.05c5.209,0,9.432-4.223,9.432-9.433v-4.377c0.395,0.056,0.793,0.092,1.172,0.092
			c0.233,0,0.473-0.013,0.714-0.036v4.369c0,5.023,3.95,9.144,8.915,9.389v-0.004l14.088-0.003c0.068,0,0.379,0.003,0.47,0.003
			c1.577,0,2.856-1.279,2.856-2.857V38.669c0-2.016,1.633-3.647,3.648-3.647s3.648,1.632,3.648,3.647c0,0-0.002,18.51,0,18.532
			c0.022,0.278,0.057,0.435,0.124,0.664c0.363,1.178,1.487,2.037,2.817,2.037c0.141,0,8.479,0,8.648,0
			c1.598,0,2.895-1.295,2.895-2.893V26.882h9.406c1.479,0,1.634-1.196,1.634-2.677C169.577,22.73,169.421,21.533,167.943,21.533z
			 M18.316,34.788c2.013,0,3.645,1.632,3.645,3.645v2.766h-7.292v-2.766C14.669,36.419,16.3,34.788,18.316,34.788z M36.402,42.505
			c-0.02-0.049-0.023-0.061-0.023-0.06c-0.003-0.009-0.009-0.023-0.021-0.052c-1.267-3.178-2.098-6.816-2.362-10.721
			c-0.025-0.75-0.038-1.524-0.038-2.312c0-0.02,0-0.038,0-0.057c0-7.483,1.692-13.493,3.803-13.493c2.11,0,3.485,6.067,3.485,13.55
			c0,0.787-0.012,1.562-0.038,2.312c-0.263,3.904-1.095,7.543-2.361,10.721c-0.044,0.111-0.013,0.038-0.044,0.111
			c-0.366,0.906-0.767,1.776-1.201,2.607C37.17,44.282,36.769,43.412,36.402,42.505z M61.146,50.616
			c0,2.014-1.635,3.646-3.651,3.646c-2.016,0-3.646-1.632-3.646-3.646V38.315c0-2.017,1.631-3.651,3.646-3.651
			c2.017,0,3.651,1.635,3.651,3.651V50.616z M78.241,54.261c-2.014,0-3.648-1.632-3.648-3.646V38.315
			c0-2.017,1.635-3.651,3.648-3.651c2.016,0,3.65,1.635,3.65,3.651v12.301C81.891,52.629,80.256,54.261,78.241,54.261z
			 M119.812,34.788c2.012,0,3.645,1.632,3.645,3.645v2.769h-7.293v-2.769C116.164,36.419,117.798,34.788,119.812,34.788z"/>
		<path fill="#FFFFFF" d="M36.379,42.446C36.388,42.469,36.379,42.446,36.379,42.446L36.379,42.446z"/>
	</g>
</g>
</svg>
