<?xml version="1.0" encoding="utf-8"?>
<!-- Generator: Adobe Illustrator 19.0.0, SVG Export Plug-In . SVG Version: 6.00 Build 0)  -->
<svg version="1.1" id="Layer_1" xmlns="http://www.w3.org/2000/svg" xmlns:xlink="http://www.w3.org/1999/xlink" x="0px" y="0px"
	 viewBox="-443 379 305 270" style="enable-background:new -443 379 305 270;" xml:space="preserve">
<style type="text/css">
	.st0{opacity:0.1;fill:#EF4849;enable-background:new    ;}
	.st1{fill:none;stroke:#B0AFB0;stroke-width:1.5;stroke-miterlimit:10;}
	.st2{enable-background:new    ;}
	.st3{fill:#EF4849;}
	.st4{fill:#333333;}
	.st5{fill:#FFFFFF;}
	.st6{fill:#D82629;}
	.st7{fill:#EE2E39;}
	.st8{fill:#EF475A;}
	.st9{opacity:0.5;fill:#F58E95;enable-background:new    ;}
</style>
<rect x="-277.4" y="434.8" class="st0" width="112.5" height="160.8"/>
<line class="st1" x1="-384.4" y1="435.2" x2="-162.4" y2="434.3"/>
<line class="st1" x1="-384.4" y1="514.7" x2="-162.4" y2="515.2"/>
<line class="st1" x1="-384.4" y1="595.2" x2="-162.4" y2="596.3"/>
<g class="st2">
	<path class="st3" d="M-330,392.9c-0.1-0.6-0.4-1.3,0.1-1.7c2.8-1.7,6.3-0.2,8,2.4c1,1.5-0.9,3-2.2,3.9c0.4,2.3,1.1,4.8,2.2,6.9
		c0.3,0.7-1.1,1.1-1.7,0.7c-2-1.7-1.4-4.7-3.1-6.5c-0.3-0.3-1.4-0.3-1.7,0.1c-0.6,1.8,0.5,3.7,0.6,5.4c0,0.4-0.9,0.8-1.5,0.7
		c-0.3-0.1-0.6-0.4-0.7-0.7c-0.8-2-0.6-4.2-0.6-6.3C-330.6,396.1-329.5,394.4-330,392.9z M-328,396.4c1.3,0.3,2.9-0.1,3.9-1
		c0.2-0.1,0.7-0.5,0.4-0.8c-0.6-1.3-2.1-1.9-3.3-2c-0.9-0.1-0.7,1.4-0.9,2.1C-328.1,395.3-328.6,396.3-328,396.4z"/>
	<path class="st3" d="M-317.3,395.2c1.8,0.3,3.4,2,3.4,3.9c-0.4,1.1-2.9,2-3.8,2.9c-0.1,0-0.5,0.3-0.4,0.5c0.8,1.4,2.3,0.8,3.6,0.1
		c0.8,0.6,0.4,2-0.6,2.1c-1,0.2-2.2,0.4-3.3,0c-2.3-1-2.8-3.6-2.9-5.8C-321.2,396.5-319.5,394.8-317.3,395.2z M-316.2,398.5
		c0.5-1.1-1.4-1.7-2.3-1.3c-1,0.5-0.7,2.7-0.2,2.7C-317.6,399.9-316.5,399.6-316.2,398.5z"/>
	<path class="st3" d="M-311.3,392.5c1.6-1.5,4.9-2.3,5.7,0.3c0,0.4-0.3,0.8-0.7,0.8c-0.9-0.1-1.8-0.6-2.8-0.2
		c-2.6,0.9-2.3,3.9-1.3,6c0.9-0.2,3-1.5,4-1.2c0.4,0,0.6,0.6,0.4,1c-0.4,1-3.4,1.3-3.5,2c-0.2,1,1.1,1.7,1.5,2.7
		c0.3,0.6-1,1-1.6,0.7c-1.1-0.7-1.2-2.2-2.2-2.8c-0.2-0.1-0.8,0.1-1.2,0c-0.3,0-0.5-0.5-0.4-0.8c0.3-0.4,1.1-0.4,1-1.1
		c-0.1-1.3-0.6-2.7-0.5-4.1C-312.9,394.4-312.2,393.3-311.3,392.5z"/>
	<path class="st3" d="M-301.2,395.2c1.8,0.3,3.4,2,3.4,3.9c-0.4,1.1-2.9,2-3.8,2.9c-0.1,0-0.5,0.3-0.4,0.5c0.8,1.4,2.3,0.8,3.6,0.1
		c0.8,0.6,0.4,2-0.6,2.1c-1,0.2-2.2,0.4-3.3,0c-2.3-1-2.8-3.6-2.9-5.8C-305.2,396.5-303.5,394.8-301.2,395.2z M-300.1,398.5
		c0.5-1.1-1.4-1.7-2.3-1.3c-1,0.5-0.7,2.7-0.2,2.7C-301.5,399.9-300.5,399.6-300.1,398.5z"/>
	<path class="st3" d="M-297,394.8c1.1-1,2.5,0.3,2.3,1.8c1.4-0.2,1.7-2.2,3.4-1.7c0.6,0.2,1.3,0.5,0.8,1.2c-0.9,1.3-2.3,1.9-3.2,3.2
		c-0.3,0.5-0.1,1.1-0.3,1.6c-0.2,0.3-0.2,0.9,0.2,1.5c0.5,0.6,0.3,1.7-0.2,2.3c-0.5,0.7-1.5,0.7-2,0.1c-0.3-0.2-0.4-0.6-0.3-1
		c0.1-1.8-0.1-3.8-0.3-5.6C-296.9,397-298.1,395.7-297,394.8z"/>
	<path class="st3" d="M-286,395.2c1.8,0.3,3.4,2,3.4,3.9c-0.4,1.1-2.9,2-3.8,2.9c-0.1,0-0.5,0.3-0.4,0.5c0.8,1.4,2.3,0.8,3.6,0.1
		c0.8,0.6,0.4,2-0.6,2.1c-1,0.2-2.2,0.4-3.3,0c-2.3-1-2.8-3.6-2.9-5.8C-289.9,396.5-288.3,394.8-286,395.2z M-284.9,398.5
		c0.5-1.1-1.4-1.7-2.3-1.3c-1,0.5-0.7,2.7-0.2,2.7C-286.3,399.9-285.2,399.6-284.9,398.5z"/>
	<path class="st3" d="M-281.5,396.5c0.3-0.7,1.6-0.7,1.8,0.1c0.2,0.6-0.2,1.1-0.2,1.7c0.1,0.1,0.2,0.4,0.2,0.3
		c0.8-1.3,1.4-2.7,3.1-2.2c1.3,2,1.1,4.6,1.3,6.9c0.1,0.4,0.1,1.1-0.3,1.2c-0.6,0.2-1.5,0.4-1.6-0.2c-0.3-1.9-0.1-3.8-0.5-5.6
		c-1.2,1.3-1.3,3-2.2,4.6c-0.3,0.6-1.3,0.7-1.6,0c-0.3-0.9-0.1-2-0.1-2.9C-281.6,399-281.9,397.5-281.5,396.5z"/>
	<path class="st3" d="M-272.1,395.7c1.3-1.1,2.9-2.8,4.6-2c0.3,0.1,0.5,0.4,0.3,0.9c-0.5,1.4-1.8,1.3-2.9,2.1
		c-0.9,0.7-1.7,1.6-1.8,2.8c0,0.6,0.1,1.5,0.5,2.1c0.5,0.8,1.3,0.9,2.1,1.1c1.2,0.5,2-1.2,3-1.2c1-0.1,0.4,1.4,0.1,1.7
		c-1.2,1.8-3.3,1.5-5.1,1c-2.1-0.6-3.3-2.8-2.9-5C-273.7,397.8-273.1,396.6-272.1,395.7z"/>
	<path class="st3" d="M-261.2,395.2c1.8,0.3,3.4,2,3.4,3.9c-0.4,1.1-2.9,2-3.8,2.9c-0.1,0-0.5,0.3-0.4,0.5c0.8,1.4,2.3,0.8,3.6,0.1
		c0.8,0.6,0.4,2-0.6,2.1c-1,0.2-2.2,0.4-3.3,0c-2.3-1-2.8-3.6-2.9-5.8C-265.2,396.5-263.5,394.8-261.2,395.2z M-260.1,398.5
		c0.5-1.1-1.4-1.7-2.3-1.3c-1,0.5-0.7,2.7-0.2,2.7C-261.5,399.9-260.5,399.6-260.1,398.5z"/>
	<path class="st3" d="M-250,396.8c0.2,0.3-0.1,1-0.4,1.2c-1.2,0.7-2.8-2-4.5-0.9c-0.7,0.4,0.4,1.5,0.9,1.7c1.4,0.5,2.6,1,3.6,2
		c0.7,0.6,0.4,1.9-0.1,2.7c-1.2,2-5.4,3.1-6.8,0.3c-0.3-0.6,0.4-1.4,1.1-1.4c0.6,0,0.6,0.8,1.1,1c1.1,0.6,3,0,3-1.3
		c0-0.3-0.6-0.8-1.1-1c-1.5-0.7-3.3-1.1-4-2.6c-0.9-1.8,2.7-4,4.3-3.4C-251.9,395.5-250.5,395.7-250,396.8z"/>
</g>
<g class="st2">
	<path class="st4" d="M-417.3,429c1-0.3,1.7-0.5,2.3-0.5c0.3-0.1,0.7-0.1,0.7-0.1c0.1,0,0.5,0,0.9,0c0.5,0.1,0.8,0.1,1.1,0.3
		c0.6,0.3,0.7,0.7,0.1,1.1c-0.2,0.1-0.3,0.1-1.5,0.1c-1.1-0.1-1.4,0-2.1,0.1c-0.5,0.1-0.9,0.1-0.9,0.1c-0.1,0.1-0.1,0.5-0.1,1.4
		c-0.1,1.2-0.1,1.3,0.1,1.2c0.1,0,0.4-0.1,0.7-0.1c1.8-0.2,3.8,0.5,4.4,1.7c0.1,0.3,0.2,1,0.1,1.5c-0.2,0.9-0.8,1.7-1.7,2.2
		c-0.5,0.4-1,0.6-1.8,0.8c-1.4,0.3-2.9-0.1-3.4-0.9c-0.2-0.3-0.2-0.3-0.2-0.8s0-0.5,0.2-0.7c0.1-0.2,0.2-0.2,0.7-0.2
		c0.5,0,0.6,0,0.7,0.1c0.1,0.1,0.1,0.3,0.1,0.5c0,0.4,0.2,0.7,0.5,0.9c0.2,0.1,0.8,0,1.3-0.3c0.4-0.2,1.1-0.9,1.3-1.3
		c0.2-0.4,0.3-0.9,0.3-1.2c-0.1-0.3-0.4-0.7-1-1c-0.4-0.2-0.5-0.2-1-0.2c-0.5,0-0.7,0.1-1.1,0.2c-0.7,0.3-1.2,0.3-1.6,0.1
		c-0.3-0.2-0.5-0.4-0.4-1.3c0-1.3,0.2-2.5,0.5-3.3C-417.9,429.2-417.9,429.2-417.3,429z"/>
	<path class="st4" d="M-409.9,430.5c0.7-1.4,1.4-2.2,2.2-2.3c0.1,0,0.6-0.1,0.9-0.1c0.7,0,0.8,0.1,1.2,0.3c0.5,0.3,1.2,0.9,1.4,1.4
		c0,0,0.1,0.2,0.1,0.2c0.1,0,0.5,1.2,0.6,1.6c0.3,0.9,0.3,1.3,0.3,2.3c0,1.5-0.3,2.7-0.9,3.6c-0.8,1.2-1.8,1.7-3.2,1.7
		c-1,0-1.9-0.3-2.5-1c-0.6-0.6-0.9-1.2-1.1-2.2c0-0.4,0-2,0-2.4C-410.6,432.3-410.4,431.5-409.9,430.5z M-405.8,429.9
		c-0.2-0.3-0.7-0.5-0.9-0.7c-0.2,0-0.4,0-0.6,0c-0.3,0-0.7,0.6-0.9,1.2c0,0.1-0.1,0.3-0.2,0.5c-0.4,0.9-0.7,2.7-0.7,3.9
		c0,0.9,0.2,2,0.4,2.3c0,0,0.1,0.1,0.1,0.1c0,0.1,0.7,0.7,0.9,0.8c0.3,0.1,0.7,0.1,1,0c0.8-0.4,1.4-1.3,1.7-2.8c0-0.4,0-2.5,0-2.9
		C-405.2,431.3-405.5,430.5-405.8,429.9z"/>
	<path class="st4" d="M-401.5,430.5c0.7-1.4,1.4-2.2,2.2-2.3c0.1,0,0.6-0.1,0.9-0.1c0.7,0,0.7,0.1,1.2,0.3c0.5,0.3,1.2,0.9,1.4,1.4
		c0,0,0.1,0.2,0.1,0.2c0.1,0,0.5,1.2,0.6,1.6c0.3,0.9,0.3,1.3,0.3,2.3c0,1.5-0.3,2.7-0.9,3.6c-0.8,1.2-1.8,1.7-3.2,1.7
		c-1,0-1.9-0.3-2.5-1c-0.6-0.6-0.9-1.2-1.1-2.2c0-0.4,0-2,0-2.4C-402.2,432.3-402,431.5-401.5,430.5z M-397.4,429.9
		c-0.2-0.3-0.7-0.5-0.9-0.7c-0.2,0-0.4,0-0.6,0c-0.3,0-0.7,0.6-0.9,1.2c0,0.1-0.1,0.3-0.2,0.5c-0.4,0.9-0.7,2.7-0.7,3.9
		c0,0.9,0.2,2,0.4,2.3c0,0,0.1,0.1,0.1,0.1c0,0.1,0.7,0.7,0.9,0.8c0.3,0.1,0.7,0.1,1,0c0.8-0.4,1.4-1.3,1.7-2.8c0-0.4,0-2.5,0-2.9
		C-396.8,431.3-397.1,430.5-397.4,429.9z"/>
</g>
<g class="st2">
	<path class="st4" d="M-415.4,510.2c0-0.6,0.5-1,1.4-1.4c0.4-0.2,0.6-0.2,1.2-0.2c0.8,0,1.2,0.1,1.7,0.6c0.5,0.5,0.6,0.9,0.6,1.8
		c0.1,1.1-0.4,2.2-1.3,3.6c-0.8,1.3-1.1,1.7-1.4,2.4c-0.2,0.4-0.4,0.7-0.3,0.7c0,0,0.2,0,0.6,0.1c0.3,0,0.7,0.1,0.9,0.1
		c0.2,0.1,0.2,0.1,0.2-0.2c0-0.2,0-0.3,0.1-0.4c0.2-0.2,0.2-0.2,0.8-0.2c0.6,0,0.7,0,0.9,0.2c0.6,0.6,0.4,1.5-0.3,1.8
		c-0.5,0.2-0.9,0.2-2.2,0c-1-0.2-1.1-0.2-1.4,0c-0.7,0.2-1.6,0.1-1.7-0.3c-0.1-0.4,0.3-1.7,0.9-2.6c0.1-0.2,0.2-0.4,0.2-0.4
		s0-0.2,0.1-0.2c1-1.4,1.6-2.6,2-3.6c0.2-0.6,0.2-1.4,0-1.8c-0.3-0.4-0.4-0.5-0.7-0.3s-0.5,0.4-0.5,0.6c0.1,0.3-0.1,0.5-0.4,0.6
		C-414.9,511.1-415.5,510.7-415.4,510.2z"/>
	<path class="st4" d="M-408.1,509.3c1-0.3,1.7-0.5,2.3-0.5c0.3-0.1,0.7-0.1,0.7-0.1c0.1,0,0.5,0,0.9,0c0.5,0.1,0.8,0.1,1.1,0.3
		c0.6,0.3,0.7,0.7,0.1,1.1c-0.2,0.1-0.3,0.1-1.5,0.1c-1.1-0.1-1.4,0-2.1,0.1c-0.5,0.1-0.9,0.1-0.9,0.1c-0.1,0.1-0.1,0.5-0.1,1.4
		c-0.1,1.2-0.1,1.3,0.1,1.2c0.1,0,0.4-0.1,0.7-0.1c1.8-0.2,3.8,0.5,4.4,1.7c0.1,0.3,0.2,1,0.1,1.5c-0.2,0.9-0.8,1.7-1.7,2.2
		c-0.5,0.4-1,0.6-1.8,0.8c-1.4,0.3-2.9-0.1-3.4-0.9c-0.2-0.3-0.2-0.3-0.2-0.8s0-0.5,0.2-0.7c0.1-0.2,0.2-0.2,0.7-0.2
		c0.5,0,0.6,0,0.7,0.1c0.1,0.1,0.1,0.3,0.1,0.5c0,0.4,0.2,0.7,0.5,0.9c0.2,0.1,0.8,0,1.3-0.3c0.4-0.2,1.1-0.9,1.3-1.3
		c0.2-0.4,0.3-0.9,0.3-1.2c-0.1-0.3-0.4-0.7-1-1c-0.4-0.2-0.5-0.2-1-0.2c-0.5,0-0.7,0.1-1.1,0.2c-0.7,0.3-1.2,0.3-1.6,0.1
		c-0.3-0.2-0.5-0.4-0.4-1.3c0-1.3,0.2-2.5,0.5-3.3C-408.7,509.5-408.7,509.5-408.1,509.3z"/>
	<path class="st4" d="M-400.7,510.8c0.7-1.4,1.4-2.2,2.2-2.3c0.1,0,0.6-0.1,0.9-0.1c0.7,0,0.7,0.1,1.2,0.3c0.5,0.3,1.2,0.9,1.4,1.4
		c0,0,0.1,0.2,0.1,0.2c0.1,0,0.5,1.2,0.6,1.6c0.3,0.9,0.3,1.3,0.3,2.3c0,1.5-0.3,2.7-0.9,3.6c-0.8,1.2-1.8,1.7-3.2,1.7
		c-1,0-1.9-0.3-2.5-1c-0.6-0.6-0.9-1.2-1.1-2.2c0-0.4,0-2,0-2.4C-401.4,512.5-401.2,511.7-400.7,510.8z M-396.6,510.2
		c-0.2-0.3-0.7-0.5-0.9-0.7c-0.2,0-0.4,0-0.6,0c-0.3,0-0.7,0.6-0.9,1.2c0,0.1-0.1,0.3-0.2,0.5c-0.4,0.9-0.7,2.7-0.7,3.9
		c0,0.9,0.2,2,0.4,2.3c0,0,0.1,0.1,0.1,0.1c0,0.1,0.7,0.7,0.9,0.8c0.3,0.1,0.7,0.1,1,0c0.8-0.4,1.4-1.3,1.7-2.8c0-0.4,0-2.5,0-2.9
		C-396,511.6-396.3,510.7-396.6,510.2z"/>
</g>
<g class="st2">
	<path class="st4" d="M-400.4,591.5c0.7-1.4,1.4-2.2,2.2-2.3c0.1,0,0.6-0.1,0.9-0.1c0.7,0,0.8,0.1,1.2,0.3c0.5,0.3,1.2,0.9,1.4,1.4
		c0,0,0.1,0.2,0.1,0.2c0.1,0,0.5,1.2,0.6,1.6c0.3,0.9,0.3,1.3,0.3,2.3c0,1.5-0.3,2.7-0.9,3.6c-0.8,1.2-1.8,1.7-3.2,1.7
		c-1,0-1.9-0.3-2.5-1c-0.6-0.6-0.9-1.2-1.1-2.2c0-0.4,0-2,0-2.4C-401.1,593.3-400.9,592.5-400.4,591.5z M-396.3,590.9
		c-0.2-0.3-0.7-0.5-0.9-0.7c-0.2,0-0.4,0-0.6,0c-0.3,0-0.7,0.6-0.9,1.2c0,0.1-0.1,0.3-0.2,0.5c-0.4,0.9-0.7,2.7-0.7,3.9
		c0,0.9,0.2,2,0.4,2.3c0,0,0.1,0.1,0.1,0.1c0,0.1,0.7,0.7,0.9,0.8c0.3,0.1,0.7,0.1,1,0c0.8-0.4,1.4-1.3,1.7-2.8c0-0.4,0-2.5,0-2.9
		C-395.7,592.3-396,591.5-396.3,590.9z"/>
</g>
<path class="st3" d="M-332.1,639.6c-5.1,0.1-10.2,0-15.4,0c-1.9,0-1.9,3,0,3c5.1,0,10.2,0.1,15.4,0
	C-330.2,642.6-330.2,639.6-332.1,639.6z"/>
<g>
	<g class="st2">
		<path class="st4" d="M-321.2,639.9c0.2,0.7,0.2,1.4,0.6,1.9c0.3,0.3,0.5-0.1,0.6-0.2c0.5-0.8,0.6-1.6,1.3-2.2
			c0.4-0.4,0.8-0.5,1.2-0.1c0.8,0.7,0.9,2,1.8,2.6c0.2,0.1,0.4-0.2,0.5-0.4c0.8-1.5,0.2-2.9,0.6-4.2c0.2-0.6,1.4-0.5,1.5,0.4
			c0.2,2,0.2,4.1-1.5,5.3c-0.6,0.4-1.3,0.6-2.1,0.2c-0.7-0.3-1.1-1.5-1.3-1.5c-0.3,0-0.8,1.4-1.4,1.7c-0.7,0.4-1.8,0.5-2.2-0.1
			c-1.5-1.9-1.4-4.4-1.2-6.7c0.1-0.8,1.1-0.9,1.5-0.4C-320.7,637.3-321.5,638.6-321.2,639.9z"/>
		<path class="st4" d="M-309.8,636.4c1.3,0.2,2.5,1.5,2.5,2.9c-0.3,0.8-2.2,1.5-2.8,2.1c-0.1,0-0.4,0.2-0.3,0.4
			c0.6,1,1.7,0.6,2.6,0.1c0.6,0.4,0.3,1.5-0.4,1.6c-0.8,0.1-1.6,0.3-2.4,0c-1.7-0.8-2.1-2.7-2.1-4.3
			C-312.7,637.3-311.5,636.1-309.8,636.4z M-309,638.8c0.4-0.9-1-1.3-1.7-0.9c-0.7,0.4-0.5,2-0.1,2
			C-310,639.9-309.2,639.6-309,638.8z"/>
		<path class="st4" d="M-304,636.4c1.3,0.2,2.5,1.5,2.5,2.9c-0.3,0.8-2.2,1.5-2.8,2.1c-0.1,0-0.4,0.2-0.3,0.4c0.6,1,1.7,0.6,2.6,0.1
			c0.6,0.4,0.3,1.5-0.4,1.6c-0.8,0.1-1.6,0.3-2.4,0c-1.7-0.8-2.1-2.7-2.1-4.3C-306.9,637.3-305.7,636.1-304,636.4z M-303.2,638.8
			c0.4-0.9-1-1.3-1.7-0.9c-0.7,0.4-0.5,2-0.1,2C-304.3,639.9-303.5,639.6-303.2,638.8z"/>
		<path class="st4" d="M-301.2,633.4c0.2-0.4,0.8-0.6,1.4-0.5c0.1,0.1,0.2,0.3,0.2,0.4c0,1.7-0.2,3.3-0.2,5c0.1,0.2,0.3,0.1,0.4,0.1
			c0.8-0.6,1.7-1.6,2.8-0.9c0.5,0.2,0.1,0.7-0.2,0.8c-0.5,0.4-1.2,0.6-1.8,1.1c1.2,0.9,2.3,1.9,3.4,2.9c0.2,0.3,0,0.6-0.2,0.8
			c-0.3,0.4-0.9,0.4-1.2,0.1c-0.8-0.8-1.8-1.5-2.7-2.3c0,0-0.3-0.2-0.2,0.2c-0.1,0.7,0.2,1.4,0.2,2.1c-0.1,0.7-1.2,0.7-1.3,0.4
			c-0.8-2-0.7-4.3-0.5-6.5C-301.1,635.9-301.6,634.5-301.2,633.4z"/>
		<path class="st4" d="M-294.2,633.5c0.3-0.7,1.6-0.8,1.7,0.2c0,0.2-0.1,0.5-0.1,0.7c0,1.2,0.1,2.5,0,3.6c-0.1,1.9,0.4,3.7-0.3,5.4
			c-0.2,0.5-0.8,0.5-1.3,0.3c-0.3-0.2-0.4-0.6-0.3-0.9c0.5-1.7,0.3-3.4,0.4-5.2C-294.1,636.2-294.8,634.7-294.2,633.5z"/>
		<path class="st4" d="M-291,635.9c0.3-0.5,1.2-0.6,1.5,0c0.4,0.8,0.1,1.9,0.3,2.9c0.1,0.3,0.3,0,0.3-0.1c0.5-1.1,0.8-2.3,1.9-2.9
			c0.4-0.2,1.5-0.1,1.1,0.7c-0.9,1.7-2.1,3.3-2.3,5.3c-0.1,1.2-1,3.1-1.8,4.2c-0.6,0.7-2.1,0.8-2.5,0c-0.3-0.5-0.5-1.3,0.1-1.6
			c0.4-0.3,1,0.2,1.1,0.7c1.2-0.9,1-1.2,1.3-2.7c0.2-0.9-0.6-1.7-0.7-2.5c-0.1-0.9-0.3-1.8-0.3-2.7
			C-291.1,636.7-291.2,636.2-291,635.9z"/>
		<path class="st4" d="M-278.9,643.6c-1.2-0.2-2.6-0.2-3.2-1.3c-0.5-0.6-0.3-1.8,0.2-2.4c1.4-1.9,3.8-1.3,3.8-1.3
			c0.2-0.2,0.3-1-0.1-1.1c-1-0.2-1.6,0.2-2.5,0.5c-0.7,0.2-0.8-1.1-0.7-1.3c1.2-0.8,3.8-1.3,4.5,0.3c0.7,1.4-0.1,2.9-0.3,4.5
			c-0.1,1-0.2,3.3-1.1,2.7C-278.6,644-278.6,643.6-278.9,643.6z M-278.4,639.8c-1,0.4-2.7,0.1-2.7,1.5c0,0.7,2.4,1.1,2.5,0.8
			C-278.5,641.2-278,640.7-278.4,639.8z"/>
		<path class="st4" d="M-276.5,637.1c-0.3-1,1.3-1.2,1.6-0.7c0.8,1,0.8,2.4,1.6,3.5c0.9-1.5,1.3-3.2,1.8-4.9c0.2-0.8,1.4-0.6,2-0.1
			c0.1,0.2-0.1,0.4-0.1,0.6c-0.1,0.2-0.4,0.3-0.4,0.5c-0.6,2.2-1.4,4.2-2.4,6.2c-0.2,0.3-1,0.7-1.3,0.3c-0.9-0.8-1.3-1.9-1.7-2.9
			C-275.8,638.8-276.2,637.9-276.5,637.1z"/>
		<path class="st4" d="M-266.1,636.4c1.3,0.2,2.5,1.5,2.5,2.9c-0.3,0.8-2.2,1.5-2.8,2.1c-0.1,0-0.4,0.2-0.3,0.4
			c0.6,1,1.7,0.6,2.6,0.1c0.6,0.4,0.3,1.5-0.4,1.6c-0.8,0.1-1.6,0.3-2.4,0c-1.7-0.8-2.1-2.7-2.1-4.3
			C-269,637.3-267.8,636.1-266.1,636.4z M-265.3,638.8c0.4-0.9-1-1.3-1.7-0.9c-0.7,0.4-0.5,2-0.1,2
			C-266.3,639.9-265.6,639.6-265.3,638.8z"/>
		<path class="st4" d="M-263,636.1c0.8-0.8,1.9,0.3,1.7,1.4c1-0.2,1.3-1.6,2.5-1.3c0.4,0.2,1,0.4,0.6,0.8c-0.7,1-1.7,1.4-2.4,2.4
			c-0.2,0.3-0.1,0.9-0.3,1.2c-0.2,0.3-0.2,0.7,0.2,1.1s0.3,1.3-0.2,1.7c-0.3,0.5-1.1,0.5-1.4,0.1c-0.3-0.2-0.3-0.4-0.3-0.8
			c0.1-1.4-0.1-2.8-0.3-4.2C-262.9,637.7-263.8,636.7-263,636.1z"/>
		<path class="st4" d="M-254.3,643.6c-1.2-0.2-2.6-0.2-3.2-1.3c-0.5-0.6-0.3-1.8,0.2-2.4c1.4-1.9,3.8-1.3,3.8-1.3
			c0.2-0.2,0.3-1-0.1-1.1c-1-0.2-1.6,0.2-2.5,0.5c-0.7,0.2-0.8-1.1-0.7-1.3c1.2-0.8,3.8-1.3,4.5,0.3c0.7,1.4-0.1,2.9-0.3,4.5
			c-0.1,1-0.2,3.3-1.1,2.7C-254,644-254,643.6-254.3,643.6z M-253.8,639.8c-1,0.4-2.7,0.1-2.7,1.5c0,0.7,2.4,1.1,2.5,0.8
			C-253.9,641.2-253.4,640.7-253.8,639.8z"/>
		<path class="st4" d="M-246.9,635.8c0.1,0.1,0.4,0.3,0.3,0.5c-1.1,2.3-0.5,4.9-0.3,7.4c0.1,0.9,0.1,1.9-0.8,2.4
			c-1.3,0.7-3.3,0.1-3.8-1.4c-0.2-0.6,0.7-1,1-0.6c0.5,0.5,1,1.5,1.9,1.4c0.2-0.1,0.3-0.3,0.3-0.5c0.3-1.5,0-2.9-0.3-4.4
			c0-0.1,0.2-0.6-0.1-0.4c-0.6,0.4-1.3,0.6-1.9,0.3c-0.5-0.2-0.7-0.6-1-1c-0.4-1-0.3-2,0.6-2.7C-249.9,635.7-248.2,635-246.9,635.8z
			 M-250.4,638.3c0.1,0.5,0.3,1.2,0.6,1.2c0.6,0.1,0.8-0.9,1.2-1.4c0.2-0.3,0.3-1,0.1-1.3c-0.2-0.4-1,0-1.4,0.3
			C-250.2,637.4-250.4,637.8-250.4,638.3z"/>
		<path class="st4" d="M-243.3,636.4c1.3,0.2,2.5,1.5,2.5,2.9c-0.3,0.8-2.2,1.5-2.8,2.1c-0.1,0-0.4,0.2-0.3,0.4
			c0.6,1,1.7,0.6,2.6,0.1c0.6,0.4,0.3,1.5-0.4,1.6c-0.8,0.1-1.6,0.3-2.4,0c-1.7-0.8-2.1-2.7-2.1-4.3
			C-246.2,637.3-245,636.1-243.3,636.4z M-242.5,638.8c0.4-0.9-1-1.3-1.7-0.9c-0.7,0.4-0.5,2-0.1,2
			C-243.5,639.9-242.7,639.6-242.5,638.8z"/>
	</g>
</g>
<g>
	<g class="st2">
		<path class="st4" d="M-194.3,609.9c0.2,0.7,0.2,1.4,0.6,1.9c0.3,0.3,0.5-0.1,0.6-0.2c0.5-0.8,0.6-1.6,1.3-2.2
			c0.4-0.4,0.8-0.5,1.2-0.1c0.8,0.7,0.9,2,1.8,2.6c0.2,0.1,0.4-0.2,0.5-0.4c0.8-1.5,0.2-2.9,0.6-4.2c0.2-0.6,1.4-0.5,1.5,0.4
			c0.2,2,0.2,4.1-1.5,5.3c-0.6,0.4-1.3,0.6-2.1,0.2c-0.7-0.3-1.1-1.5-1.3-1.5c-0.3,0-0.8,1.4-1.4,1.7c-0.7,0.4-1.8,0.5-2.2-0.1
			c-1.5-1.9-1.4-4.4-1.2-6.7c0.1-0.8,1.1-0.9,1.5-0.4C-193.9,607.3-194.7,608.7-194.3,609.9z"/>
		<path class="st4" d="M-183,606.4c1.3,0.2,2.5,1.5,2.5,2.9c-0.3,0.8-2.2,1.5-2.8,2.1c-0.1,0-0.4,0.2-0.3,0.4c0.6,1,1.7,0.6,2.6,0.1
			c0.6,0.4,0.3,1.5-0.4,1.6c-0.8,0.1-1.6,0.3-2.4,0c-1.7-0.8-2.1-2.7-2.1-4.3C-185.9,607.4-184.7,606.1-183,606.4z M-182.2,608.8
			c0.4-0.9-1-1.3-1.7-0.9c-0.7,0.4-0.5,2-0.1,2C-183.2,609.9-182.4,609.7-182.2,608.8z"/>
		<path class="st4" d="M-177.2,606.4c1.3,0.2,2.5,1.5,2.5,2.9c-0.3,0.8-2.2,1.5-2.8,2.1c-0.1,0-0.4,0.2-0.3,0.4
			c0.6,1,1.7,0.6,2.6,0.1c0.6,0.4,0.3,1.5-0.4,1.6c-0.8,0.1-1.6,0.3-2.4,0c-1.7-0.8-2.1-2.7-2.1-4.3
			C-180.1,607.4-178.9,606.1-177.2,606.4z M-176.4,608.8c0.4-0.9-1-1.3-1.7-0.9c-0.7,0.4-0.5,2-0.1,2
			C-177.4,609.9-176.7,609.7-176.4,608.8z"/>
		<path class="st4" d="M-174.4,603.5c0.2-0.4,0.8-0.6,1.4-0.5c0.1,0.1,0.2,0.3,0.2,0.4c0,1.7-0.2,3.3-0.2,5c0.1,0.2,0.3,0.1,0.4,0.1
			c0.8-0.6,1.7-1.6,2.8-0.9c0.5,0.2,0.1,0.7-0.2,0.8c-0.5,0.4-1.2,0.6-1.8,1.1c1.2,0.9,2.3,1.9,3.4,2.9c0.2,0.3,0,0.6-0.2,0.8
			c-0.3,0.4-0.9,0.4-1.2,0.1c-0.8-0.8-1.8-1.5-2.7-2.3c0,0-0.3-0.2-0.2,0.2c-0.1,0.7,0.2,1.4,0.2,2.1c-0.1,0.7-1.2,0.7-1.3,0.4
			c-0.8-2-0.7-4.3-0.5-6.5C-174.3,605.9-174.8,604.5-174.4,603.5z"/>
		<path class="st4" d="M-162.5,607.6c0.1,0.3-0.1,0.7-0.3,0.9c-0.9,0.5-2.1-1.5-3.3-0.7c-0.5,0.3,0.3,1.1,0.6,1.2
			c1,0.4,1.9,0.7,2.7,1.5c0.5,0.5,0.3,1.4-0.1,2c-0.9,1.5-4,2.3-5,0.2c-0.2-0.5,0.3-1,0.8-1c0.4,0,0.5,0.6,0.8,0.8
			c0.8,0.4,2.2,0,2.2-1c0-0.2-0.5-0.6-0.8-0.7c-1.1-0.5-2.4-0.8-3-1.9c-0.7-1.4,2-3,3.1-2.5C-163.9,606.6-162.9,606.8-162.5,607.6z"
			/>
	</g>
</g>
<path class="st4" d="M-278.2,582.8c-0.2,1.1-0.2,2.1-0.2,3.2c0,1,1.5,1,1.5,0c0-0.9,0-1.9,0.1-2.8
	C-276.7,582.3-278.1,581.8-278.2,582.8z"/>
<path class="st4" d="M-277.1,575.5c-0.2-0.9-1.7-0.5-1.4,0.4c0.3,1.2,0.1,2.4,0.1,3.6c0,1,1.5,1,1.5,0
	C-276.9,578.1-276.8,576.8-277.1,575.5z"/>
<path class="st4" d="M-278.6,569.3v2.5c0,1,1.5,1,1.5,0v-2.5C-277.1,568.4-278.6,568.4-278.6,569.3z"/>
<path class="st4" d="M-278.8,560v3.3c0,1,1.5,1,1.5,0V560C-277.3,559-278.8,559-278.8,560z"/>
<path class="st4" d="M-278.8,553.8v3c0,1,1.5,1,1.5,0v-3C-277.3,552.9-278.8,552.9-278.8,553.8z"/>
<path class="st4" d="M-278.6,547v3.2c0,1,1.5,1,1.5,0V547C-277.1,546-278.6,546-278.6,547z"/>
<path class="st4" d="M-278.9,541v2.5c0,1,1.5,1,1.5,0V541C-277.4,540-278.9,540-278.9,541z"/>
<path class="st4" d="M-277.3,536.8c-0.2-0.7-0.1-1.4-0.1-2.1c0-1-1.5-1-1.5,0c0,0.8,0,1.7,0.2,2.5
	C-278.5,538.1-277.1,537.7-277.3,536.8z"/>
<path class="st4" d="M-277.4,527.2c0-1-1.5-1-1.5,0c0,1.5-0.1,3,0.2,4.5c0.2,0.9,1.6,0.5,1.4-0.4
	C-277.6,529.9-277.4,528.5-277.4,527.2z"/>
<path class="st4" d="M-277.4,485.2c0-1-1.5-1-1.5,0c0,1.5-0.1,3,0.2,4.5c0.2,0.9,1.6,0.5,1.4-0.4
	C-277.6,487.9-277.4,486.5-277.4,485.2z"/>
<path class="st4" d="M-278.6,521.2v2.5c0,1,1.5,1,1.5,0v-2.5C-277.1,520.2-278.6,520.2-278.6,521.2z"/>
<path class="st4" d="M-277.3,513.6c-0.1-1-1.6-0.5-1.4,0.4c0.2,1.1,0.2,2.1,0.3,3.2c0.1,1,1.6,0.5,1.4-0.4
	C-277.1,515.8-277.1,514.7-277.3,513.6z"/>
<path class="st4" d="M-277.5,507c-0.3-0.9-1.7-0.5-1.4,0.4c0.3,1,0.3,2.1,0.5,3.1c0.1,0.9,1.6,1,1.5,0
	C-277.1,509.3-277.1,508.1-277.5,507z"/>
<path class="st4" d="M-277,503.3c-0.2-0.7-0.1-1.5-0.1-2.3c0-1-1.5-1-1.5,0c0,0.9,0,1.8,0.2,2.7C-278.2,504.6-276.7,504.2-277,503.3
	z"/>
<path class="st4" d="M-277.1,494c0-1-1.5-1-1.5,0c0,1.1,0,2.2,0.2,3.4c0.1,1,1.6,0.5,1.4-0.4C-277.1,496-277.1,495-277.1,494z"/>
<path class="st4" d="M-278.3,470.8v3.8c0,1,1.5,1,1.5,0v-3.8C-276.8,469.9-278.3,469.9-278.3,470.8z"/>
<path class="st4" d="M-278.4,464.5v2.5c0,1,1.5,1,1.5,0v-2.5C-276.9,463.5-278.4,463.5-278.4,464.5z"/>
<path class="st4" d="M-278.4,479.5v2.5c0,1,1.5,1,1.5,0v-2.5C-276.9,478.5-278.4,478.5-278.4,479.5z"/>
<path class="st4" d="M-278.2,457.3c-0.3,1.2-0.4,2.5-0.2,3.7c0.1,0.9,1.6,1,1.5,0c-0.1-1.1-0.1-2.2,0.1-3.3
	C-276.5,456.8-278,456.4-278.2,457.3z"/>
<path class="st4" d="M-277.9,451.7c0,0.8,0,1.5-0.1,2.3c-0.2,0.9,1.3,1.3,1.4,0.4c0.2-0.9,0.2-1.8,0.2-2.7
	C-276.4,450.7-277.9,450.7-277.9,451.7z"/>
<path class="st4" d="M-278.3,445.8v1.7c0,1,1.5,1,1.5,0v-1.7C-276.8,444.9-278.3,444.9-278.3,445.8z"/>
<path class="st4" d="M-278.2,438c-0.2,1.1-0.2,2.2-0.2,3.4c0,1,1.5,1,1.5,0c0-1,0-2,0.1-3C-276.7,437.4-278.1,437-278.2,438z"/>
<path class="st4" d="M-276.6,430.8c0-0.3-0.1-0.5-0.3-0.6v-2.1c0-1-1.5-1-1.5,0v5.3c0,0.9,1.3,1,1.5,0.2c0.1-0.1,0.2-0.3,0.2-0.5
	C-276.8,432.4-276.6,431.6-276.6,430.8z"/>
<path class="st4" d="M-277.3,591.8c0-1-1.5-1-1.5,0v6.3c0,0.5,0.4,0.7,0.8,0.7c0.5,0.1,1.1-0.3,1-0.9
	C-277.3,595.9-277.3,593.9-277.3,591.8z"/>
<g>
	<g class="st2">
		<path class="st4" d="M-255.2,422.9c0.2,0.7,0.2,1.4,0.6,1.9c0.3,0.3,0.5-0.1,0.6-0.2c0.5-0.8,0.6-1.6,1.3-2.2
			c0.4-0.4,0.8-0.5,1.2-0.1c0.8,0.7,0.9,2,1.8,2.6c0.2,0.1,0.4-0.2,0.5-0.4c0.9-1.5,0.2-2.9,0.6-4.2c0.2-0.6,1.4-0.5,1.5,0.4
			c0.2,2,0.2,4.1-1.5,5.3c-0.6,0.4-1.3,0.6-2.1,0.2c-0.7-0.3-1.1-1.5-1.3-1.5c-0.3,0-0.8,1.4-1.4,1.7c-0.7,0.4-1.8,0.5-2.2-0.1
			c-1.5-1.9-1.4-4.4-1.2-6.7c0.1-0.8,1.1-0.9,1.5-0.4C-254.8,420.3-255.5,421.7-255.2,422.9z"/>
		<path class="st4" d="M-246.1,420.6c0.2-0.4,0.8-0.6,1.3-0.4c0.3,0.1,0.7,0.5,0.4,0.8c-0.5,0.7-0.2,1.5-0.4,2.2
			c-0.3,0.8,0.2,1.6,0,2.4c0,0.1-0.1,0.2-0.2,0.2c-0.5,0.2-1.2,0.2-1.3-0.3c-0.3-1-0.1-2-0.1-3
			C-246.4,421.9-246.4,421.2-246.1,420.6z M-245.7,417.5c0.5-0.3,1.2-0.3,1.5,0.2c0.3,0.5-0.2,1.2-0.5,1.4c-0.4,0.2-0.9,0.1-1.3-0.3
			C-246.2,418.4-246,417.6-245.7,417.5z"/>
		<path class="st4" d="M-240.9,417.5c0.1-0.8,1.2-0.8,1.8-0.4c0.1,0.1,0.2,0.3,0.1,0.6c-0.5,1.1-0.7,2.3-0.7,3.5
			c0.9-0.1,2.7-0.5,2.4,0.6c-0.3,0.8-1.8,0.7-2.7,0.7c-0.2,1.1,0.4,5.7,0.3,6.8c0,0.3-0.3,0.6-0.6,0.6c-0.4,0-0.6-0.1-0.7-0.5
			c-0.4-1-0.3-5.9-0.7-6.8c-0.6,0.5-1.9,0.9-2.2,0c-0.1-0.2,0.2-0.6,0.4-0.7c0.6-0.3,1.6-0.2,2-0.7c0.3-0.4,0.2-1.2,0.3-1.7
			C-241,418.6-240.9,418.1-240.9,417.5z"/>
		<path class="st4" d="M-236.5,418.6c0.1-0.3,0.7-0.6,1.2-0.3c0.2,0.1,0.2,0.4,0.2,0.7c-0.1,1.3-0.4,2.5,0,3.8
			c0.6-1,1.6-2.2,2.8-1.6c0.4,1.8,0.9,3.6,0.7,5.3c0,0.4-0.9,0.6-1.2,0.3c-0.9-1.1-0.1-2.8-0.8-4.1c-0.8,0.8-1.4,1.7-1.9,2.8
			c-0.1,0.2-0.6,0.4-0.9,0.4c-0.1-0.1-0.6-0.1-0.6-0.3c0-1.3,0.1-2.5,0.2-3.8C-236.5,420.7-237,419.5-236.5,418.6z"/>
		<path class="st4" d="M-228.1,418.4c1.5-1.9,4-1.9,6.1-2.4c0.5-0.1,1,0.2,1.1,0.6c0.2,0.5-0.4,0.8-0.7,0.9
			c-1.3,0.5-2.7,0.3-3.9,0.9c-0.2,0.1-0.4,0.3-0.3,0.5c1.4,2.1,5.2,2.9,4.5,5.7c-0.6,2.4-4.2,2.8-6.3,1.9c-1-0.4-0.4-1.7,0.5-2
			c0.5-0.1,0.5,0.6,0.8,0.7c0.4,0.1,0.7,0,1.1,0.2c0.7,0.4,1.4-0.1,2-0.4c0.4-0.3,0.4-0.7,0.2-1.1c-1.3-1.7-3.2-2.3-4.6-4
			C-228,419.2-228.5,418.8-228.1,418.4z"/>
		<path class="st4" d="M-217,426.6c-1.2-0.2-2.6-0.2-3.2-1.3c-0.5-0.6-0.3-1.8,0.2-2.4c1.4-1.9,3.8-1.3,3.8-1.3
			c0.2-0.2,0.3-1-0.1-1.1c-1-0.2-1.6,0.2-2.5,0.5c-0.7,0.2-0.8-1.1-0.7-1.3c1.2-0.8,3.8-1.3,4.5,0.3c0.7,1.4-0.1,2.9-0.3,4.5
			c-0.1,1-0.2,3.3-1.1,2.7C-216.7,427-216.8,426.6-217,426.6z M-216.5,422.8c-1,0.4-2.7,0.1-2.7,1.5c0,0.7,2.4,1.1,2.5,0.8
			C-216.6,424.3-216.2,423.7-216.5,422.8z"/>
		<path class="st4" d="M-213.9,416.5c0.3-0.7,1.6-0.8,1.7,0.2c0,0.2-0.1,0.5-0.1,0.7c0,1.2,0.1,2.5,0,3.6c-0.1,1.9,0.4,3.7-0.3,5.4
			c-0.2,0.5-0.8,0.5-1.3,0.3c-0.3-0.2-0.4-0.6-0.3-0.9c0.5-1.7,0.3-3.4,0.4-5.2C-213.8,419.2-214.5,417.7-213.9,416.5z"/>
		<path class="st4" d="M-208.2,419.4c1.3,0.2,2.5,1.5,2.5,2.9c-0.3,0.8-2.2,1.5-2.8,2.1c-0.1,0-0.4,0.2-0.3,0.4
			c0.6,1,1.7,0.6,2.6,0.1c0.6,0.4,0.3,1.5-0.4,1.6c-0.8,0.1-1.6,0.3-2.4,0c-1.7-0.8-2.1-2.7-2.1-4.3
			C-211.1,420.4-209.9,419.1-208.2,419.4z M-207.4,421.8c0.4-0.9-1-1.3-1.7-0.9c-0.7,0.4-0.5,2-0.1,2
			C-208.4,422.9-207.6,422.7-207.4,421.8z"/>
		<path class="st4" d="M-205.5,418.4c1.5-1.9,4-1.9,6.1-2.4c0.5-0.1,1,0.2,1.1,0.6c0.2,0.5-0.4,0.8-0.7,0.9
			c-1.3,0.5-2.7,0.3-3.9,0.9c-0.2,0.1-0.4,0.3-0.3,0.5c1.4,2.1,5.2,2.9,4.5,5.7c-0.6,2.4-4.2,2.8-6.3,1.9c-1-0.4-0.4-1.7,0.5-2
			c0.5-0.1,0.5,0.6,0.8,0.7c0.4,0.1,0.7,0,1.1,0.2c0.7,0.4,1.4-0.1,2-0.4c0.4-0.3,0.4-0.7,0.2-1.1c-1.3-1.7-3.2-2.3-4.6-4
			C-205.3,419.2-205.8,418.8-205.5,418.4z"/>
		<path class="st4" d="M-197.2,420.6c0.2-0.4,0.8-0.6,1.3-0.4c0.3,0.1,0.7,0.5,0.4,0.8c-0.5,0.7-0.2,1.5-0.4,2.2
			c-0.3,0.8,0.2,1.6,0,2.4c0,0.1-0.1,0.2-0.2,0.2c-0.5,0.2-1.2,0.2-1.3-0.3c-0.3-1-0.1-2-0.1-3
			C-197.5,421.9-197.5,421.2-197.2,420.6z M-196.8,417.5c0.5-0.3,1.2-0.3,1.5,0.2c0.3,0.5-0.2,1.2-0.5,1.4c-0.4,0.2-0.9,0.1-1.3-0.3
			C-197.3,418.4-197,417.6-196.8,417.5z"/>
		<path class="st4" d="M-193.2,419.8c1,0.3,0,1.6,0.5,2.3c1-0.9,1.2-3.2,3-2.5c0.1,0.1,0.3,0.3,0.3,0.3c0.2,0.7,0.1,1.4,0.3,2
			c0.8-0.9,1.8-2.4,3.2-1.9c0.4,0.3,0.3,0.8,0.3,1.3c0.3,2,0.3,4-0.4,6c-0.2,0.6-1,0.7-1.6,0.3c-0.1,0-0.2-0.3-0.1-0.6
			c0.6-1.6,0.6-3.4,0.3-5.1c0-0.3-0.3,0-0.4,0.2c-0.7,1.1-1.2,2.3-1.6,3.5c-0.3,0.5-1.3,1-1.8,0.3c-0.5-1,0.3-2.4-0.1-3.5
			c-0.7,1.2-1,2.4-1.8,3.5c-0.4,0.5-1.3,0.5-1.5,0c-0.5-1.2-0.1-2.7-0.3-4C-194.9,420.7-194.5,419.4-193.2,419.8z"/>
	</g>
</g>
<path class="st3" d="M-200,474.1c-6.6-8-20.7-10.6-30.6-6.6c-8.7,2-17.1,8.4-20.5,16.7c-3.8,9.1,0.5,20.7,5.7,28.3
	c4.7,7,12,11.5,20.1,11.2c0.9,2.9,2,5.7,3.2,8.6c0.5,1.1,2,0.8,2.6,0c2.1-3,3.8-6.2,4.9-9.6c3.5-0.4,6.9-1.3,9.9-2.7
	c8.8-4,12.9-14.6,14-23.5C-189.4,486.5-193.4,478.9-200,474.1z M-237.8,478.4c-0.1-0.1-0.2-0.1-0.3-0.2c0.4-0.4,0.8-0.8,1.2-1.2
	C-237.2,477.5-237.5,478-237.8,478.4z M-204.1,516.1c0.5-0.6,1-1.3,1.5-1.9c0.2,0.1,0.4,0.2,0.6,0.2
	C-202.7,515.1-203.4,515.6-204.1,516.1z M-197.1,508c0.1-0.4,0.1-0.8,0-1.2c0.3-0.2,0.6-0.3,0.8-0.5
	C-196.5,506.8-196.8,507.4-197.1,508z M-196.9,502.9c0.5-0.9,0.9-1.8,1.3-2.7c0.2-0.5,0.2-0.9,0.1-1.2c0.1-0.2,0.2-0.4,0.4-0.7
	C-195.3,500.1-195.9,501.7-196.9,502.9z"/>
<g class="st2">
	<path class="st5" d="M-240.5,491.6c0.1-0.7,0.3-1.2,0.6-1.3c0.3-0.2,0.3-0.2,0.6,0c0.2,0,0.4,0.2,0.4,0.4s0.3,1.4,0.3,2
		c0,0.1,0.2,0.1,1,0.1c1.1-0.1,1.3,0,1.3,0.4c0,0.4-0.3,0.5-1.3,0.5c-1,0.1-1,0.1-0.9,0.6c0.1,1.3,0.2,2,0.1,2.2
		c-0.1,0.4-1.1,0.6-1.6,0.4c-0.4-0.2-0.4-0.5-0.5-1.7c0-0.7-0.1-1.1-0.1-1.1c-0.1,0-0.4,0-0.8,0.1c-1.2,0.2-1.8,0.1-1.8-0.4
		c0-0.4,0.5-0.5,2-0.7c0.5-0.1,0.5-0.1,0.6-0.5C-240.5,492.3-240.5,491.9-240.5,491.6z"/>
	<path class="st5" d="M-234.8,486.4c0.2-0.1,0.7-0.3,1-0.5c0.3-0.2,0.6-0.2,1.1-0.2c0.7,0,0.8,0,1.1,0.2c0.3,0.3,0.3,0.3,0.3,3.9
		c0,5.2-0.5,9.5-0.9,10.1c-0.6,0.7-1.6,0.6-1.9-0.1c-0.2-0.4-0.2-0.8-0.1-3.9c0-2,0.1-4.6,0.1-5.9c0.1-2.2,0.1-2.2-0.3-2.2
		C-235.5,487.6-235.8,486.8-234.8,486.4z"/>
	<path class="st5" d="M-228.8,486.1c0.5-0.5,0.8-0.7,1.3-0.9c0.3-0.1,0.7-0.1,1.2-0.1c0.8-0.1,1,0,1.4,0.4c0.1,0.1,0.3,0.2,0.4,0.2
		c0.2,0,1.2,0.5,1.5,0.8c0.8,0.9,1,2.3,0.3,3.4c-0.1,0.3-0.8,0.9-1,0.9c-0.1,0,0,0.2,0.3,0.4c0.7,0.3,1.6,1.2,1.9,1.9
		c0.7,1.2,0.8,2.4,0.2,3.5c-0.1,0.5-0.7,1.4-0.9,1.7c-1.4,1.6-2.5,2.2-4.1,2.3c-2.1,0.1-3.9-1.3-4.2-3.3c-0.1-0.4-0.2-0.9-0.2-1.2
		c0-1,0.3-2.4,0.7-3.2c0.3-0.5,0.9-1.4,1.2-1.6c0.2-0.3,0.2-0.3-0.1-0.5c-0.6-0.3-0.9-0.9-1.1-1.6c-0.1-0.6-0.1-0.7,0-1.2
		C-229.7,487.3-229.3,486.6-228.8,486.1z M-223.4,495.2c0-1.3-0.7-2.2-2.1-3c-0.4-0.3-0.8-0.5-0.9-0.5c-0.1,0-0.6,0.4-0.7,0.7
		c0,0.1-0.1,0.1-0.1,0.1c0,0-0.1,0.1-0.1,0.2c0,0,0,0.2-0.1,0.3c-0.3,0.6-0.6,2-0.6,2.9s0.3,2,0.6,2.4c0.1,0.1,0.2,0.3,0.3,0.3
		c0.1,0.3,0.6,0.6,0.7,0.5c0.4,0,1.6-1,2.1-1.8c0.1-0.1,0.3-0.5,0.4-0.8c0.1-0.3,0.3-0.5,0.3-0.6
		C-223.5,495.9-223.4,495.6-223.4,495.2z M-225.6,487c-0.5-0.1-1-0.3-1-0.4c0-0.3-0.4,0.3-0.7,0.7c-0.2,0.7-0.3,1.3-0.2,1.8
		c0.1,0.4,0.3,0.7,0.7,0.9c0.3,0.1,0.6,0.1,0.9,0c0.7-0.3,1-1,1-1.7S-225.1,487.2-225.6,487z"/>
	<path class="st5" d="M-218.3,486.1c0.5-0.5,0.8-0.7,1.3-0.9c0.3-0.1,0.7-0.1,1.2-0.1c0.8-0.1,1,0,1.4,0.4c0.1,0.1,0.3,0.2,0.4,0.2
		c0.2,0,1.2,0.5,1.5,0.8c0.8,0.9,1,2.3,0.3,3.4c-0.1,0.3-0.8,0.9-1,0.9c-0.1,0,0,0.2,0.3,0.4c0.7,0.3,1.6,1.2,1.9,1.9
		c0.7,1.2,0.8,2.4,0.2,3.5c-0.1,0.5-0.7,1.4-0.9,1.7c-1.4,1.6-2.5,2.2-4.1,2.3c-2.1,0.1-3.9-1.3-4.2-3.3c-0.1-0.4-0.2-0.9-0.2-1.2
		c0-1,0.3-2.4,0.7-3.2c0.3-0.5,0.9-1.4,1.2-1.6c0.2-0.3,0.2-0.3-0.1-0.5c-0.6-0.3-0.9-0.9-1.1-1.6c-0.1-0.6-0.1-0.7,0-1.2
		C-219.2,487.3-218.9,486.6-218.3,486.1z M-212.9,495.2c0-1.3-0.7-2.2-2.1-3c-0.4-0.3-0.8-0.5-0.9-0.5c-0.1,0-0.6,0.4-0.7,0.7
		c0,0.1-0.1,0.1-0.1,0.1c0,0-0.1,0.1-0.1,0.2c0,0,0,0.2-0.1,0.3c-0.3,0.6-0.6,2-0.6,2.9s0.3,2,0.6,2.4c0.1,0.1,0.2,0.3,0.3,0.3
		c0.1,0.3,0.6,0.6,0.7,0.5c0.4,0,1.6-1,2.1-1.8c0.1-0.1,0.3-0.5,0.4-0.8c0.1-0.3,0.3-0.5,0.3-0.6
		C-213,495.9-212.9,495.6-212.9,495.2z M-215.1,487c-0.5-0.1-1-0.3-1-0.4c0-0.3-0.4,0.3-0.7,0.7c-0.2,0.7-0.3,1.3-0.2,1.8
		c0.1,0.4,0.3,0.7,0.7,0.9c0.3,0.1,0.6,0.1,0.9,0c0.7-0.3,1-1,1-1.7S-214.6,487.2-215.1,487z"/>
	<path class="st5" d="M-209.3,486.8c0.1-0.2,0.3-0.4,0.6-0.7c0.5-0.4,0.5-0.4,1.2-0.4c1.2,0,2.2,0.4,2.4,1.1
		c0.1,0.7-0.4,1.7-1.1,2.2c-0.4,0.2-0.4,0.2-1.3,0.2c-1,0-1.2-0.1-1.7-0.4c-0.4-0.3-0.6-1.1-0.4-1.5
		C-209.5,487.3-209.4,487-209.3,486.8z M-204.2,487.8c0.4-0.9,1.2-2,1.6-2.2c0.2-0.1,0.7-0.1,1,0.1c0.1,0.1,0.1,0.4-0.1,1.3
		c-0.2,0.7-1,2.5-1.6,3.9c-0.1,0.2-0.2,0.4-0.2,0.5c0,0.1-0.1,0.4-0.3,0.7c-0.1,0.3-0.1,0.5-0.1,0.5s-0.1,0.2-0.1,0.3
		c-0.1,0.3-0.6,1.5-0.8,2c-0.1,0.2-0.2,0.7-0.4,1c-0.1,0.4-0.4,1.2-0.6,1.8c-0.2,0.6-0.4,1.1-0.4,1.2c0,0.1-0.1,0.3-0.1,0.5
		c-0.2,0.7-0.7,1-1.4,1c-0.5,0-0.8-0.2-0.8-0.6c-0.1-0.2,0.1-0.7,0.2-1.1c0.1-0.1,0.1-0.4,0.2-0.7c0.1-0.2,0.1-0.5,0.2-0.6
		s0.1-0.3,0.1-0.3c0-0.1,0.9-2.5,1.2-3c0.1-0.2,0.2-0.5,0.2-0.7c0.1-0.1,0.1-0.3,0.2-0.4c0-0.1,0.1-0.2,0.1-0.4
		c0.1-0.2,0.1-0.4,0.2-0.6s0.2-0.5,0.5-0.9c0.4-1.2,0.5-1.3,0.9-2.2c0.2-0.4,0.4-0.7,0.4-0.8C-204.4,488.1-204.3,488-204.2,487.8z
		 M-207.1,487.9c0.2-0.4,0.3-0.8,0.1-0.9c0,0-0.2-0.1-0.4-0.1c-0.2,0-0.2,0-0.4,0.2c-0.1,0.3-0.2,0.9,0,1
		C-207.5,488.3-207.3,488.2-207.1,487.9z M-204.3,496.8c0.3-0.1,1.1-0.5,1.4-0.5c0.3-0.1,0.3-0.1,0.7,0c0.3,0.1,0.4,0.1,0.8,0.5
		s0.5,0.6,0.6,1c0.1,0.5,0.1,0.5,0,0.9c-0.1,0.5-0.5,0.8-1,1.1c-0.4,0.1-0.6,0.1-1.1,0.1c-1.7,0-2.6-0.8-2.3-2
		C-205,497.5-204.6,496.9-204.3,496.8z M-202.5,498.5c0.2-0.3,0.2-0.3,0.1-0.6c-0.1-0.1-0.2-0.4-0.4-0.4c-0.1-0.2-0.1-0.2-0.3,0
		c-0.2,0.2-0.4,0.5-0.4,0.8c0,0.4,0.1,0.5,0.5,0.5C-202.6,498.8-202.6,498.8-202.5,498.5z"/>
</g>
<g>
	<path class="st6" d="M-267.4,608c0-0.3-0.2-0.4-0.4-0.3c-2.9-1.9-6-3.4-9-5c0,0,0,0,0,0c0-0.5-0.7-0.5-0.7,0
		c0,3.7,0.2,7.4,0.2,11.1c0,0.1,0.1,0.2,0.1,0.3c0,0.1,0,0.2,0.2,0.3c2.9,1.6,6,2.9,8.6,5c0.1,0,0.1,0.1,0.2,0.1
		c0.1,0.4,0.7,0.4,0.7-0.1c-0.1-2,0-4-0.1-5.9c0-0.1,0.1-0.1,0.1-0.2C-267.6,611.5-267.5,609.8-267.4,608z"/>
	<path class="st7" d="M-278.2,613.1c-0.5-3.2,0.1-6.4-0.2-9.6c0,0,0-0.1,0-0.1c0,0,0,0,0,0c0.4-0.3-0.2-0.8-0.5-0.5
		c-2.6,2.1-5.9,3.6-8.7,5.2c0,0-0.1,0.1-0.1,0.1c-0.1,0-0.2,0.1-0.3,0.2c-0.1,0.1-0.2,0.2-0.2,0.3c0,0.2,0.1,0.3,0.1,0.5v10
		c0,0.4,0.6,0.5,0.7,0.1c0.1,0,0.1,0,0.2-0.1c2.6-2.1,5.6-3.7,8.4-5.5c0.1-0.1,0.1-0.1,0.2-0.2
		C-278.5,613.6-278.2,613.4-278.2,613.1z"/>
	<path class="st8" d="M-268.7,620c-1.1-0.9-2.5-1.4-3.8-2c-1.8-0.8-3.3-2.2-5.1-3.1c-0.1,0-0.1,0-0.2,0c-0.1-0.1-0.3-0.2-0.5-0.1
		c-0.1,0-0.1,0.1-0.1,0.2c-0.1,0-0.2,0-0.3,0c-2.6,1.7-5.3,3.2-8.1,4.7c-0.1,0.1-0.2,0.2-0.2,0.3c-0.3,0-0.5,0.5-0.2,0.7
		c3,1.7,6.1,3.4,8.9,5.4c0.2,0.2,0.5,0,0.5-0.2c0.1,0.1,0.2,0.1,0.3,0c2.7-1.9,6-2.8,8.4-5.1c0.1-0.1,0.1-0.1,0.1-0.2
		C-268.6,620.5-268.4,620.2-268.7,620z"/>
	<path class="st9" d="M-270.6,609.9c-1.9-2-4.9-2.5-7.2-4c-0.1-0.1-0.2-0.1-0.3,0c-0.1,0-0.1,0-0.2,0c-2.1,1.1-4.1,2.5-6.2,3.5
		c-0.1,0-0.1,0.1-0.1,0.1c-0.1,0-0.1,0-0.2,0c-0.5-0.1-0.7,0.6-0.2,0.7c0.2,0,0.4,0.1,0.6,0.2c0,0,0.1,0.1,0.1,0.1
		c0.7,0.3,1.4,0.6,2.1,0.9c1.3,0.8,2.5,1.8,3.9,2.3c0,0,0,0,0,0c0.1,0.1,0.2,0.1,0.2,0.1c0,0,0,0,0,0c0.1,0.1,0.2,0.1,0.2,0.2
		c0.1,0.2,0.3,0.4,0.5,0.3c2.1-1.2,4.1-2.6,6.2-3.9c0,0,0,0,0,0C-270.8,610.7-270.3,610.2-270.6,609.9z"/>
	<path class="st9" d="M-285.2,610.7c-0.7,2.7,0.5,5.5,0.3,8.2c0,0.1,0,0.2,0.1,0.3c0,0.1,0.1,0.1,0.1,0.1c2.1,1.2,4.2,2.2,6.3,3.5
		c0.1,0,0.1,0.1,0.2,0.1c0,0.1,0,0.1,0.1,0.2c0.2,0.4,0.9,0.2,0.7-0.2c-0.1-0.2-0.1-0.4-0.2-0.6c0,0,0-0.1,0-0.2
		c-0.1-0.8-0.2-1.5-0.3-2.3c0-1.5,0.2-3-0.1-4.6c0,0,0,0,0,0c0-0.1,0-0.2-0.1-0.2c0,0,0,0,0,0c0-0.1,0-0.2,0-0.3
		c0.2-0.2,0.2-0.5-0.1-0.6c-2.1-1.1-4.4-2.1-6.5-3.2c0,0,0,0,0,0C-284.3,610.4-285.1,610.2-285.2,610.7z"/>
	<path class="st9" d="M-276.9,623.3c2.6-0.8,4.4-3.4,6.7-4.7c0.1-0.1,0.2-0.2,0.2-0.2c0-0.1,0.1-0.1,0.1-0.2
		c-0.1-2.4-0.4-4.8-0.5-7.2c0-0.1,0-0.1-0.1-0.2c0-0.1,0.1-0.1,0.1-0.1c0.3-0.4-0.3-0.9-0.6-0.5c-0.1,0.2-0.3,0.3-0.4,0.5
		c0,0-0.1,0-0.1,0.1c-0.6,0.5-1.2,1-1.8,1.5c-1.3,0.8-2.7,1.5-3.8,2.5c0,0,0,0,0,0c-0.1,0-0.1,0.1-0.1,0.2c0,0,0,0,0,0
		c-0.1,0-0.2,0.1-0.3,0.1c-0.2,0-0.5,0.1-0.5,0.4c0.2,2.4,0.6,4.8,0.8,7.2c0,0,0,0,0,0C-277.6,622.8-277.3,623.5-276.9,623.3z"/>
</g>
<path class="st3" d="M-176.4,550.7c-10.8,2.9-21.9,3.8-32.8,6.3c-10.3-2.4-20.3-6.1-30.7-8.3c0,0,0,0-0.1,0
	c-7.2-3.3-14.4-7.1-22.3-8.3c-1-0.1-1.6,0.5-1.8,1.2c-0.3,0-0.7,0.1-1,0.5c-9.5,10.6-21.1,19-29.8,30.3c-8.4,0.7-16.7,1.2-25.1,1.3
	c-0.7,0-1.2,0.5-1.4,1c-7.2,3.2-13.6,7.9-20.7,11.4c-9.3-2.4-18.3-5.8-27.6-8.5c-0.6,0.2-1.2,0.3-1.8,0.4c-0.1,0.1-0.1,0.2-0.2,0.3
	c-4.3,1.1-8.5,2.4-12.8,3.5c-1.9,0.5-1.1,3.4,0.8,2.9c4.5-1.1,8.9-2.5,13.3-3.7c0.3-0.1,0.5-0.2,0.6-0.3c9,2.7,17.8,6,26.9,8.3
	c0.3,0.1,0.6,0.1,0.9,0c0.3,0.1,0.6,0,1-0.1c7.3-3.5,13.9-8.4,21.3-11.7c0.3-0.1,0.5-0.3,0.6-0.5c7.7-0.1,15.5-0.6,23.2-1.2
	c0.6,0.6,1.8,0.7,2.4-0.2c8.7-11.7,20.7-20.2,30.4-31c0.2-0.3,0.4-0.6,0.4-0.9c7.6,1.3,14.5,5,21.5,8.1c0,0,0,0,0,0
	c0.2,0.1,0.4,0.2,0.6,0.3c0.3,0.2,0.7,0.2,1,0.1c10.5,2.3,20.6,6.1,31.1,8.4c0.8,0.2,1.3-0.2,1.6-0.7c10.3-2.2,20.9-3.2,31.2-5.9
	C-173.8,553.1-174.5,550.2-176.4,550.7z"/>
</svg>
