<?xml version="1.0" encoding="utf-8"?>
<!-- Generator: Adobe Illustrator 19.0.0, SVG Export Plug-In . SVG Version: 6.00 Build 0)  -->
<svg version="1.1" id="Layer_1" xmlns="http://www.w3.org/2000/svg" xmlns:xlink="http://www.w3.org/1999/xlink" x="0px" y="0px"
	 viewBox="-443 379 305 270" style="enable-background:new -443 379 305 270;" xml:space="preserve">
<style type="text/css">
	.st0{opacity:0.1;fill:#EF4849;enable-background:new    ;}
	.st1{fill:none;stroke:#B0AFB0;stroke-width:1.5;stroke-miterlimit:10;}
	.st2{enable-background:new    ;}
	.st3{fill:#EF4849;}
	.st4{fill:#333333;}
	.st5{fill:#D82629;}
	.st6{fill:#EE2E39;}
	.st7{fill:#EF475A;}
	.st8{opacity:0.5;fill:#F58E95;enable-background:new    ;}
	.st9{fill:#FFFFFF;}
</style>
<rect x="-282.1" y="434.8" class="st0" width="112.5" height="160.8"/>
<line class="st1" x1="-389.1" y1="435.2" x2="-167.1" y2="434.3"/>
<line class="st1" x1="-389.1" y1="514.7" x2="-167.1" y2="515.2"/>
<line class="st1" x1="-389.1" y1="595.2" x2="-167.1" y2="596.3"/>
<g class="st2">
	<path class="st3" d="M-347.8,389.9c0.2-0.3,1.3-0.6,1.5-0.1c1.2,2.6,1.7,5.4,2.4,8.3c0,0.3,0.5,0.3,0.7,0.6c0.1,0.2,0.1,0.5,0,0.6
		c-0.7,1.5,0.7,2.8,0.5,4.3c-0.1,0.6-1.3,0.9-1.8,0.3c-0.8-1.1-0.2-2.8-1.3-3.4c-0.9-0.5-2.2-0.3-3,0.3c-1.1,0.8-0.3,4.3-2.7,3.2
		c-0.3-1.4,0.5-2.8,0.8-4.3c0.4-1.9,0.9-3.8,1.5-5.7C-348.5,392.6-348.6,391.1-347.8,389.9z M-348.2,398.6c0.6,0.3,2,0.4,2.2-0.3
		c0.4-1.4-0.4-2.9-1-4.3c-0.5,0.6-0.6,1.4-0.7,2.1C-347.9,397.1-348.8,398.3-348.2,398.6z"/>
	<path class="st3" d="M-338.4,391.6c0.1-1.1,1.6-1.1,2.4-0.6c0.1,0.1,0.2,0.5,0.1,0.8c-0.7,1.4-0.9,3.1-0.9,4.7
		c1.2-0.1,3.7-0.7,3.2,0.8c-0.3,1.1-2.4,1-3.6,1c-0.2,1.4,0.6,7.8,0.5,9.2c0,0.4-0.3,0.8-0.8,0.8c-0.6,0-0.8-0.2-1-0.7
		c-0.5-1.3-0.3-8-1-9.2c-0.9,0.7-2.5,1.2-3,0c-0.1-0.3,0.2-0.8,0.6-1c0.9-0.4,2.1-0.3,2.7-1c0.4-0.6,0.3-1.6,0.4-2.3
		C-338.6,393.2-338.5,392.4-338.4,391.6z"/>
	<path class="st3" d="M-329,394.2c1.8,0.3,3.4,2,3.4,3.9c-0.4,1.1-2.9,2-3.8,2.9c-0.1,0-0.5,0.3-0.4,0.5c0.8,1.4,2.3,0.8,3.6,0.1
		c0.8,0.6,0.4,2-0.6,2.1c-1,0.2-2.2,0.4-3.3,0c-2.3-1-2.8-3.6-2.9-5.8C-333,395.5-331.3,393.8-329,394.2z M-327.9,397.5
		c0.5-1.1-1.4-1.7-2.3-1.3c-1,0.5-0.7,2.7-0.2,2.7C-329.3,398.9-328.3,398.6-327.9,397.5z"/>
	<path class="st3" d="M-324.5,395.5c0.3-0.7,1.6-0.7,1.8,0.1c0.2,0.6-0.2,1.1-0.2,1.7c0.1,0.1,0.2,0.4,0.2,0.3
		c0.8-1.3,1.4-2.7,3.1-2.2c1.3,2,1.1,4.6,1.3,6.9c0.1,0.4,0.1,1.1-0.3,1.2c-0.6,0.2-1.5,0.4-1.6-0.2c-0.3-1.9-0.1-3.8-0.5-5.6
		c-1.1,1.3-1.3,3-2.2,4.6c-0.3,0.6-1.3,0.7-1.6,0c-0.3-0.9-0.1-2-0.1-2.9C-324.6,398-324.9,396.5-324.5,395.5z"/>
	<path class="st3" d="M-311.7,394.4c0.6-0.5,0.3-1.7,0.7-2.4c0.3-0.6,1-1,1.5-0.8c0.2,0.1,0.8,0.5,0.7,0.9
		c-1.3,3.6-1.2,7.6-0.6,11.5c0,0.2-0.6,0.6-0.9,0.6c-1,0.1-1-1.3-1.5-1.4c-0.9,0-1.8,0.3-2.6-0.3c-1.1-0.8-2.6-1.5-2.6-3.2
		C-317,396.2-313.5,395.8-311.7,394.4z M-312.1,400.5c-0.2-1.3,0.2-2.6,0.2-3.9c-1.2,0-3.1,0.7-2.9,2.1
		C-314.5,399.9-313.3,401-312.1,400.5z"/>
	<path class="st3" d="M-307.5,395.8c0.3-0.6,1.1-0.8,1.8-0.5c0.4,0.2,0.9,0.7,0.5,1.1c-0.7,1-0.3,2-0.6,2.9c-0.4,1.1,0.3,2.1,0,3.2
		c0,0.1-0.1,0.3-0.2,0.3c-0.7,0.2-1.6,0.3-1.8-0.4c-0.4-1.3-0.1-2.7-0.1-4C-307.9,397.5-307.9,396.6-307.5,395.8z M-307,391.6
		c0.7-0.4,1.7-0.4,2.1,0.2c0.4,0.6-0.2,1.7-0.6,1.9c-0.5,0.3-1.2,0.2-1.8-0.4C-307.7,392.8-307.3,391.8-307,391.6z"/>
	<path class="st3" d="M-302.1,394.7c1.4,0.4,0,2.2,0.7,3.1c1.4-1.3,1.6-4.3,4-3.4c0.1,0.1,0.3,0.3,0.5,0.4c0.2,0.9,0.1,1.8,0.5,2.6
		c1.1-1.3,2.4-3.3,4.3-2.5c0.6,0.3,0.4,1.1,0.5,1.7c0.4,2.7,0.4,5.5-0.6,8.1c-0.2,0.8-1.4,0.9-2.2,0.4c-0.1,0-0.2-0.5-0.1-0.8
		c0.8-2.2,0.8-4.6,0.5-6.9c0-0.3-0.5,0-0.6,0.2c-0.9,1.5-1.6,3.1-2.2,4.7c-0.3,0.7-1.8,1.4-2.4,0.5c-0.7-1.4,0.5-3.2-0.1-4.8
		c-0.9,1.6-1.4,3.3-2.4,4.8c-0.5,0.7-1.8,0.7-2.1,0c-0.6-1.6-0.1-3.7-0.3-5.5C-304.3,395.9-303.9,394.2-302.1,394.7z"/>
	<path class="st3" d="M-286.3,394.2c1.8,0.3,3.4,2,3.4,3.9c-0.4,1.1-2.9,2-3.8,2.9c-0.1,0-0.5,0.3-0.4,0.5c0.8,1.4,2.3,0.8,3.6,0.1
		c0.8,0.6,0.4,2-0.6,2.1c-1,0.2-2.2,0.4-3.3,0c-2.3-1-2.8-3.6-2.9-5.8C-290.2,395.5-288.5,393.8-286.3,394.2z M-285.2,397.5
		c0.5-1.1-1.4-1.7-2.3-1.3c-1,0.5-0.7,2.7-0.2,2.7C-286.6,398.9-285.5,398.6-285.2,397.5z"/>
	<path class="st3" d="M-281.7,395.5c0.3-0.7,1.6-0.7,1.8,0.1c0.2,0.6-0.2,1.1-0.2,1.7c0.1,0.1,0.2,0.4,0.2,0.3
		c0.8-1.3,1.4-2.7,3.1-2.2c1.3,2,1.1,4.6,1.3,6.9c0.1,0.4,0.1,1.1-0.3,1.2c-0.6,0.2-1.5,0.4-1.6-0.2c-0.3-1.9-0.1-3.8-0.5-5.6
		c-1.2,1.3-1.3,3-2.2,4.6c-0.3,0.6-1.3,0.7-1.6,0c-0.3-0.9-0.1-2-0.1-2.9C-281.8,398-282.1,396.5-281.7,395.5z"/>
	<path class="st3" d="M-270.4,391.6c0.1-1.1,1.6-1.1,2.4-0.6c0.1,0.1,0.2,0.5,0.1,0.8c-0.7,1.4-0.9,3.1-0.9,4.7
		c1.2-0.1,3.7-0.7,3.2,0.8c-0.3,1.1-2.4,1-3.6,1c-0.2,1.4,0.6,7.8,0.5,9.2c0,0.4-0.3,0.8-0.8,0.8c-0.6,0-0.8-0.2-1-0.7
		c-0.5-1.3-0.3-8-1-9.2c-0.9,0.7-2.5,1.2-3,0c-0.1-0.3,0.2-0.8,0.6-1c0.9-0.4,2.1-0.3,2.7-1c0.4-0.6,0.3-1.6,0.4-2.3
		C-270.6,393.2-270.5,392.4-270.4,391.6z"/>
	<path class="st3" d="M-264.7,396.6c0.4-1.3,1.2-2,1.5-2.6c0.6-1.2,2.2-0.9,3,0.1c0.6,0.7,0.9,1.5,1.1,2.3c0.5,1.8-0.4,3.4-1.6,4.6
		c-0.5,0.5-1.7,0.6-2.3,0.2C-264.6,400.3-265.2,398.4-264.7,396.6z M-261.7,395.8c-0.5-0.5-3,2.6-0.6,3.2
		C-260.6,399.3-260.4,397.1-261.7,395.8z"/>
	<path class="st3" d="M-251.1,395.8c0.2,0.3-0.1,1-0.4,1.2c-1.2,0.7-2.8-2-4.5-0.9c-0.7,0.4,0.4,1.5,0.9,1.7c1.4,0.5,2.6,1,3.6,2
		c0.7,0.6,0.4,1.9-0.1,2.7c-1.2,2-5.4,3.1-6.8,0.3c-0.3-0.6,0.4-1.4,1.1-1.4c0.6,0,0.6,0.8,1.1,1c1.1,0.6,3,0,3-1.3
		c0-0.3-0.6-0.8-1.1-1c-1.5-0.7-3.3-1.1-4-2.6c-0.9-1.8,2.7-4,4.3-3.4C-253,394.5-251.6,394.7-251.1,395.8z"/>
	<path class="st3" d="M-248.1,396.8c-1.3,0.7-2.1-0.2-2.3-1.3c-0.2-1.7,1.7-2,2.5-1.4C-247.2,394.5-247.1,396.2-248.1,396.8z
		 M-248.1,403.9c-1.3,0.7-2.2-0.5-2.3-1.5c-0.2-1.7,1.7-2,2.5-1.4C-247.2,401.4-247.1,403.4-248.1,403.9z"/>
</g>
<g class="st2">
	<path class="st4" d="M-413.6,429.4c0.1-0.4,0.1-0.5,4.6-0.9c0.6-0.1,1-0.1,1.2,0c0.3,0.1,0.6,0.3,0.6,0.5c0,0.1-0.1,0.6-0.3,1.1
		c-0.7,2.1-1.2,5-1.4,7.3c-0.1,1-0.1,1.1-0.3,1.2c-0.4,0.4-1.5,0.3-1.7-0.1c-0.1-0.1-0.1-0.4-0.1-1.1c0.1-1.9,0.6-4.6,1.2-6.8
		c0.1-0.4,0.2-0.8,0.2-0.8s-0.5,0-1.1,0.1c-1,0.1-1,0.1-1.3,0.3c-0.3,0.3-1,0.4-1.5,0.1C-413.8,430.1-413.9,429.9-413.6,429.4z"/>
	<path class="st4" d="M-405.7,430.5c0.7-1.4,1.4-2.2,2.2-2.3c0.1,0,0.6-0.1,0.9-0.1c0.7,0,0.7,0.1,1.2,0.3c0.5,0.3,1.2,0.9,1.4,1.4
		c0,0,0.1,0.2,0.1,0.2c0.1,0,0.5,1.2,0.6,1.6c0.3,0.9,0.3,1.3,0.3,2.3c0,1.5-0.3,2.7-0.9,3.6c-0.8,1.2-1.8,1.7-3.2,1.7
		c-1,0-1.9-0.3-2.5-1c-0.6-0.6-0.9-1.2-1.1-2.2c0-0.4,0-2,0-2.4C-406.4,432.3-406.2,431.5-405.7,430.5z M-401.6,429.9
		c-0.2-0.3-0.7-0.5-0.9-0.7c-0.2,0-0.4,0-0.6,0c-0.3,0-0.7,0.6-0.9,1.2c0,0.1-0.1,0.3-0.2,0.5c-0.4,0.9-0.7,2.7-0.7,3.9
		c0,0.9,0.2,2,0.4,2.3c0,0,0.1,0.1,0.1,0.1c0,0.1,0.7,0.7,0.9,0.8c0.3,0.1,0.7,0.1,1,0c0.8-0.4,1.4-1.3,1.7-2.8c0-0.4,0-2.5,0-2.9
		C-401,431.3-401.3,430.5-401.6,429.9z"/>
</g>
<g class="st2">
	<path class="st4" d="M-412.1,510.1c0-0.6,0.6-1.2,1.3-1.5c0.6-0.2,1.8-0.2,2.5,0c1.1,0.4,1.8,1.3,1.7,2.5c0,0.6-0.2,1.2-0.8,1.7
		c-0.5,0.3-0.5,0.4-0.2,0.5c0.8,0.5,1.4,1.1,1.8,1.9c0.1,0.4,0.1,0.7,0.1,1.2c0,0.6,0,0.8-0.2,1.3c-0.3,0.6-0.8,1.1-1.4,1.4
		s-1,0.4-2.1,0.3c-1.1,0-1.7-0.2-2.2-0.6c-0.5-0.6-0.5-1.4,0.1-2.1c0.3-0.3,0.3-0.2,0.8-0.2s0.6,0,0.7,0.1c0.2,0.3,0.2,0.4,0,0.7
		c-0.2,0.3-0.2,0.6-0.1,0.7c0.1,0.2,0.5,0.3,0.9,0.3c1,0.1,1.7-0.8,1.7-2c0.1-0.6-0.2-1.1-0.5-1.6c-0.5-0.6-0.9-0.8-1.7-0.8
		c-0.6,0-1-0.1-1.1-0.4c-0.1-0.2,0.2-0.6,0.6-0.6s0.6-0.2,1.1-0.6c0.6-0.5,0.7-0.8,0.7-1.2c0.1-0.8-0.5-1.4-1.2-1.4
		c-0.3,0-0.4,0.1-0.6,0.3c-0.2,0.3-0.2,0.3-0.1,0.6c0.2,0.2,0.2,0.3,0.2,0.4c0.1,0.2-0.3,0.4-0.7,0.4
		C-411.5,511.3-412,510.9-412.1,510.1z"/>
	<path class="st4" d="M-403.9,509.3c1-0.3,1.7-0.5,2.3-0.5c0.3-0.1,0.7-0.1,0.7-0.1c0.1,0,0.5,0,0.9,0c0.5,0.1,0.8,0.1,1.1,0.3
		c0.6,0.3,0.7,0.7,0.1,1.1c-0.2,0.1-0.3,0.1-1.5,0.1c-1.1-0.1-1.4,0-2.1,0.1c-0.5,0.1-0.9,0.1-0.9,0.1c-0.1,0.1-0.1,0.5-0.1,1.4
		c-0.1,1.2-0.1,1.3,0.1,1.2c0.1,0,0.4-0.1,0.7-0.1c1.8-0.2,3.8,0.5,4.4,1.7c0.1,0.3,0.2,1,0.1,1.5c-0.2,0.9-0.8,1.7-1.7,2.2
		c-0.5,0.4-1,0.6-1.8,0.8c-1.4,0.3-2.9-0.1-3.4-0.9c-0.2-0.3-0.2-0.3-0.2-0.8s0-0.5,0.2-0.7c0.1-0.2,0.2-0.2,0.7-0.2
		c0.5,0,0.6,0,0.7,0.1c0.1,0.1,0.1,0.3,0.1,0.5c0,0.4,0.2,0.7,0.5,0.9c0.2,0.1,0.8,0,1.3-0.3c0.4-0.2,1.1-0.9,1.3-1.3
		c0.2-0.4,0.3-0.9,0.3-1.2c-0.1-0.3-0.4-0.7-1-1c-0.4-0.2-0.5-0.2-1-0.2c-0.5,0-0.7,0.1-1.1,0.2c-0.7,0.3-1.2,0.3-1.6,0.1
		c-0.3-0.2-0.5-0.4-0.4-1.3c0-1.3,0.2-2.5,0.5-3.3C-404.5,509.5-404.5,509.5-403.9,509.3z"/>
</g>
<g class="st2">
	<path class="st4" d="M-406.1,591.5c0.7-1.4,1.4-2.2,2.2-2.3c0.1,0,0.6-0.1,0.9-0.1c0.7,0,0.8,0.1,1.2,0.3c0.5,0.3,1.2,0.9,1.4,1.4
		c0,0,0.1,0.2,0.1,0.2c0.1,0,0.5,1.2,0.6,1.6c0.3,0.9,0.3,1.3,0.3,2.3c0,1.5-0.3,2.7-0.9,3.6c-0.8,1.2-1.8,1.7-3.2,1.7
		c-1,0-1.9-0.3-2.5-1c-0.6-0.6-0.9-1.2-1.1-2.2c0-0.4,0-2,0-2.4C-406.8,593.3-406.6,592.5-406.1,591.5z M-402,590.9
		c-0.2-0.3-0.7-0.5-0.9-0.7c-0.2,0-0.4,0-0.6,0c-0.3,0-0.7,0.6-0.9,1.2c0,0.1-0.1,0.3-0.2,0.5c-0.4,0.9-0.7,2.7-0.7,3.9
		c0,0.9,0.2,2,0.4,2.3c0,0,0.1,0.1,0.1,0.1c0,0.1,0.7,0.7,0.9,0.8c0.3,0.1,0.7,0.1,1,0c0.8-0.4,1.4-1.3,1.7-2.8c0-0.4,0-2.5,0-2.9
		C-401.4,592.3-401.7,591.5-402,590.9z"/>
</g>
<path class="st3" d="M-334.6,639.6c-5.1,0.1-10.2,0-15.4,0c-1.9,0-1.9,3,0,3c5.1,0,10.2,0.1,15.4,0
	C-332.6,642.6-332.6,639.6-334.6,639.6z"/>
<g>
	<g class="st2">
		<path class="st4" d="M-324,636.8c1,0.3,0,1.6,0.5,2.3c1-0.9,1.2-3.2,3-2.5c0.1,0.1,0.3,0.3,0.3,0.3c0.2,0.7,0.1,1.4,0.3,2
			c0.9-0.9,1.8-2.4,3.2-1.9c0.4,0.3,0.3,0.8,0.3,1.3c0.3,2,0.3,4-0.4,6c-0.2,0.6-1,0.7-1.6,0.3c-0.1,0-0.2-0.3-0.1-0.6
			c0.6-1.6,0.6-3.4,0.3-5.1c0-0.3-0.3,0-0.4,0.2c-0.7,1.1-1.2,2.3-1.6,3.5c-0.3,0.5-1.3,1-1.8,0.3c-0.5-1,0.3-2.4-0.1-3.5
			c-0.7,1.2-1,2.4-1.8,3.5c-0.4,0.5-1.3,0.5-1.5,0c-0.5-1.2-0.1-2.7-0.3-4C-325.7,637.7-325.4,636.4-324,636.8z"/>
		<path class="st4" d="M-312.3,636.4c1.3,0.2,2.5,1.5,2.5,2.9c-0.3,0.8-2.2,1.5-2.8,2.1c-0.1,0-0.4,0.2-0.3,0.4
			c0.6,1,1.7,0.6,2.6,0.1c0.6,0.4,0.3,1.5-0.4,1.6c-0.8,0.1-1.6,0.3-2.4,0c-1.7-0.8-2.1-2.7-2.1-4.3
			C-315.2,637.3-314,636.1-312.3,636.4z M-311.5,638.8c0.4-0.9-1-1.3-1.7-0.9c-0.7,0.4-0.5,2-0.1,2
			C-312.5,639.9-311.8,639.6-311.5,638.8z M-311.2,632.9c0.2,0,0.6,0.4,0.5,0.6c-0.3,0.9-0.5,1.1-1.3,1.8c-0.2,0.2-0.8,0.6-0.9,0.2
			c-0.2-0.8,0.1-0.7,0.4-1.4C-312.1,633.5-311.8,632.9-311.2,632.9z"/>
		<path class="st4" d="M-305.6,636.5c0.4-0.3,0.2-1.2,0.5-1.8c0.2-0.4,0.7-0.7,1.1-0.6c0.2,0.1,0.6,0.3,0.5,0.7
			c-1,2.7-0.9,5.6-0.4,8.5c0,0.2-0.4,0.4-0.7,0.4c-0.7,0.1-0.7-1-1.1-1.1c-0.7,0-1.3,0.2-2-0.2c-0.8-0.6-1.9-1.1-1.9-2.4
			C-309.6,637.9-307,637.6-305.6,636.5z M-305.9,641.1c-0.2-1,0.2-1.9,0.2-2.9c-0.9,0-2.3,0.5-2.1,1.5
			C-307.7,640.6-306.8,641.4-305.9,641.1z"/>
		<path class="st4" d="M-302.5,637.6c0.2-0.4,0.8-0.6,1.3-0.4c0.3,0.1,0.7,0.5,0.4,0.8c-0.5,0.7-0.2,1.5-0.4,2.2
			c-0.3,0.8,0.2,1.6,0,2.4c0,0.1-0.1,0.2-0.2,0.2c-0.5,0.2-1.2,0.2-1.3-0.3c-0.3-1-0.1-2-0.1-3
			C-302.8,638.8-302.8,638.2-302.5,637.6z M-302.1,634.4c0.5-0.3,1.2-0.3,1.5,0.2c0.3,0.5-0.2,1.2-0.5,1.4c-0.4,0.2-0.9,0.1-1.3-0.3
			C-302.7,635.3-302.4,634.6-302.1,634.4z"/>
		<path class="st4" d="M-296.5,643.6c-1.2-0.2-2.6-0.2-3.2-1.3c-0.5-0.6-0.3-1.8,0.2-2.4c1.4-1.9,3.8-1.3,3.8-1.3
			c0.2-0.2,0.3-1-0.1-1.1c-1-0.2-1.6,0.2-2.5,0.5c-0.7,0.2-0.8-1.1-0.7-1.3c1.2-0.8,3.8-1.3,4.5,0.3c0.7,1.4-0.1,2.9-0.3,4.5
			c-0.1,1-0.2,3.3-1.1,2.7C-296.3,644-296.3,643.6-296.5,643.6z M-296.1,639.8c-1,0.4-2.7,0.1-2.7,1.5c0,0.7,2.4,1.1,2.5,0.8
			C-296.1,641.2-295.7,640.7-296.1,639.8z"/>
		<path class="st4" d="M-285.4,637.6c0.1,0.3-0.1,0.7-0.3,0.9c-0.9,0.5-2.1-1.5-3.3-0.7c-0.5,0.3,0.3,1.1,0.6,1.2
			c1,0.4,1.9,0.7,2.7,1.5c0.5,0.5,0.3,1.4-0.1,2c-0.9,1.5-4,2.3-5,0.2c-0.2-0.5,0.3-1,0.8-1c0.4,0,0.5,0.6,0.8,0.8
			c0.8,0.4,2.2,0,2.2-1c0-0.2-0.5-0.6-0.8-0.7c-1.1-0.5-2.4-0.8-3-1.9c-0.7-1.4,2-3,3.1-2.5C-286.8,636.6-285.8,636.8-285.4,637.6z"
			/>
		<path class="st4" d="M-282.1,636.4c1.3,0.2,2.5,1.5,2.5,2.9c-0.3,0.8-2.2,1.5-2.8,2.1c-0.1,0-0.4,0.2-0.3,0.4
			c0.6,1,1.7,0.6,2.6,0.1c0.6,0.4,0.3,1.5-0.4,1.6c-0.8,0.1-1.6,0.3-2.4,0c-1.7-0.8-2.1-2.7-2.1-4.3
			C-285,637.3-283.8,636.1-282.1,636.4z M-281.3,638.8c0.4-0.9-1-1.3-1.7-0.9c-0.7,0.4-0.5,2-0.1,2
			C-282.3,639.9-281.5,639.6-281.3,638.8z"/>
		<path class="st4" d="M-277.7,636.8c1,0.3,0,1.6,0.5,2.3c1-0.9,1.2-3.2,3-2.5c0.1,0.1,0.3,0.3,0.3,0.3c0.2,0.7,0.1,1.4,0.3,2
			c0.9-0.9,1.8-2.4,3.2-1.9c0.4,0.3,0.3,0.8,0.3,1.3c0.3,2,0.3,4-0.4,6c-0.2,0.6-1,0.7-1.6,0.3c-0.1,0-0.2-0.3-0.1-0.6
			c0.6-1.6,0.6-3.4,0.3-5.1c0-0.3-0.3,0-0.4,0.2c-0.7,1.1-1.2,2.3-1.6,3.5c-0.3,0.5-1.3,1-1.8,0.3c-0.5-1,0.3-2.4-0.1-3.5
			c-0.7,1.2-1,2.4-1.8,3.5c-0.4,0.5-1.3,0.5-1.5,0c-0.5-1.2-0.1-2.7-0.3-4C-279.4,637.7-279.1,636.4-277.7,636.8z"/>
		<path class="st4" d="M-265.4,643.6c-1.2-0.2-2.6-0.2-3.2-1.3c-0.5-0.6-0.3-1.8,0.2-2.4c1.4-1.9,3.8-1.3,3.8-1.3
			c0.2-0.2,0.3-1-0.1-1.1c-1-0.2-1.6,0.2-2.5,0.5c-0.7,0.2-0.8-1.1-0.7-1.3c1.2-0.8,3.8-1.3,4.5,0.3c0.7,1.4-0.1,2.9-0.3,4.5
			c-0.1,1-0.2,3.3-1.1,2.7C-265.2,644-265.2,643.6-265.4,643.6z M-265,639.8c-1,0.4-2.7,0.1-2.7,1.5c0,0.7,2.4,1.1,2.5,0.8
			C-265,641.2-264.6,640.7-265,639.8z"/>
		<path class="st4" d="M-262.4,637.3c0.2-0.5,1.2-0.5,1.3,0.1c0.1,0.4-0.2,0.8-0.2,1.3c0.1,0.1,0.2,0.3,0.2,0.2
			c0.6-0.9,1.1-2,2.3-1.6c0.9,1.5,0.8,3.4,0.9,5.1c0.1,0.3,0.1,0.8-0.2,0.9c-0.4,0.1-1.1,0.3-1.2-0.2c-0.2-1.4-0.1-2.8-0.4-4.2
			c-0.9,0.9-1,2.2-1.6,3.4c-0.3,0.4-1,0.5-1.2,0c-0.2-0.6-0.1-1.4-0.1-2.2C-262.5,639.2-262.7,638.1-262.4,637.3z"/>
		<path class="st4" d="M-253.3,643.6c-1.2-0.2-2.6-0.2-3.2-1.3c-0.5-0.6-0.3-1.8,0.2-2.4c1.4-1.9,3.8-1.3,3.8-1.3
			c0.2-0.2,0.3-1-0.1-1.1c-1-0.2-1.6,0.2-2.5,0.5c-0.7,0.2-0.8-1.1-0.7-1.3c1.2-0.8,3.8-1.3,4.5,0.3c0.7,1.4-0.1,2.9-0.3,4.5
			c-0.1,1-0.2,3.3-1.1,2.7C-253,644-253.1,643.6-253.3,643.6z M-252.8,639.8c-1,0.4-2.7,0.1-2.7,1.5c0,0.7,2.4,1.1,2.5,0.8
			C-252.9,641.2-252.5,640.7-252.8,639.8z"/>
		<path class="st4" d="M-250.2,633.5c0.3-0.7,1.6-0.8,1.7,0.2c0,0.2-0.1,0.5-0.1,0.7c0,1.2,0.1,2.5,0,3.6c-0.1,1.9,0.4,3.7-0.3,5.4
			c-0.2,0.5-0.8,0.5-1.3,0.3c-0.3-0.2-0.4-0.6-0.3-0.9c0.5-1.7,0.3-3.4,0.4-5.2C-250.1,636.2-250.8,634.7-250.2,633.5z"/>
	</g>
</g>
<g>
	<g class="st2">
		<path class="st4" d="M-207.3,607.6c0.1,0.3-0.1,0.7-0.3,0.9c-0.9,0.5-2.1-1.5-3.3-0.7c-0.5,0.3,0.3,1.1,0.6,1.2
			c1,0.4,1.9,0.7,2.7,1.5c0.5,0.5,0.3,1.4-0.1,2c-0.9,1.5-4,2.3-5,0.2c-0.2-0.5,0.3-1,0.8-1c0.4,0,0.5,0.6,0.8,0.8
			c0.8,0.4,2.2,0,2.2-1c0-0.2-0.5-0.6-0.8-0.7c-1.1-0.5-2.4-0.8-3-1.9c-0.7-1.4,2-3,3.1-2.5C-208.7,606.6-207.7,606.8-207.3,607.6z"
			/>
		<path class="st4" d="M-204,606.4c1.3,0.2,2.5,1.5,2.5,2.9c-0.3,0.8-2.2,1.5-2.8,2.1c-0.1,0-0.4,0.2-0.3,0.4c0.6,1,1.7,0.6,2.6,0.1
			c0.6,0.4,0.3,1.5-0.4,1.6c-0.8,0.1-1.6,0.3-2.4,0c-1.7-0.8-2.1-2.7-2.1-4.3C-206.9,607.4-205.7,606.1-204,606.4z M-203.2,608.8
			c0.4-0.9-1-1.3-1.7-0.9c-0.7,0.4-0.5,2-0.1,2C-204.2,609.9-203.4,609.7-203.2,608.8z"/>
		<path class="st4" d="M-199.6,606.8c1,0.3,0,1.6,0.5,2.3c1-0.9,1.2-3.2,3-2.5c0.1,0.1,0.3,0.3,0.3,0.3c0.2,0.7,0.1,1.4,0.3,2
			c0.8-0.9,1.8-2.4,3.2-1.9c0.4,0.3,0.3,0.8,0.3,1.3c0.3,2,0.3,4-0.4,6c-0.2,0.6-1,0.7-1.6,0.3c-0.1,0-0.2-0.3-0.1-0.6
			c0.6-1.6,0.6-3.4,0.3-5.1c0-0.3-0.3,0-0.4,0.2c-0.7,1.1-1.2,2.3-1.6,3.5c-0.3,0.5-1.3,1-1.8,0.3c-0.5-1,0.3-2.4-0.1-3.5
			c-0.7,1.2-1,2.4-1.8,3.5c-0.4,0.5-1.3,0.5-1.5,0c-0.5-1.2-0.1-2.7-0.3-4C-201.3,607.7-201,606.4-199.6,606.8z"/>
		<path class="st4" d="M-187.3,613.6c-1.2-0.2-2.6-0.2-3.2-1.3c-0.5-0.6-0.3-1.8,0.2-2.4c1.4-1.9,3.8-1.3,3.8-1.3
			c0.2-0.2,0.3-1-0.1-1.1c-1-0.2-1.6,0.2-2.5,0.5c-0.7,0.2-0.8-1.1-0.7-1.3c1.2-0.8,3.8-1.3,4.5,0.3c0.7,1.4-0.1,2.9-0.3,4.5
			c-0.1,1-0.2,3.3-1.1,2.7C-187.1,614-187.1,613.6-187.3,613.6z M-186.9,609.8c-1,0.4-2.7,0.1-2.7,1.5c0,0.7,2.4,1.1,2.5,0.8
			C-186.9,611.3-186.5,610.7-186.9,609.8z"/>
		<path class="st4" d="M-184.3,607.3c0.2-0.5,1.2-0.5,1.3,0.1c0.1,0.4-0.2,0.8-0.2,1.3c0.1,0.1,0.2,0.3,0.2,0.2
			c0.6-0.9,1.1-2,2.3-1.6c0.9,1.5,0.8,3.4,0.9,5.1c0.1,0.3,0.1,0.8-0.2,0.9c-0.4,0.1-1.1,0.3-1.2-0.2c-0.2-1.4-0.1-2.8-0.4-4.2
			c-0.9,0.9-1,2.2-1.6,3.4c-0.3,0.4-1,0.5-1.2,0c-0.2-0.6-0.1-1.4-0.1-2.2C-184.4,609.2-184.6,608.1-184.3,607.3z"/>
		<path class="st4" d="M-175.2,613.6c-1.2-0.2-2.6-0.2-3.2-1.3c-0.5-0.6-0.3-1.8,0.2-2.4c1.4-1.9,3.8-1.3,3.8-1.3
			c0.2-0.2,0.3-1-0.1-1.1c-1-0.2-1.6,0.2-2.5,0.5c-0.7,0.2-0.8-1.1-0.7-1.3c1.2-0.8,3.8-1.3,4.5,0.3c0.7,1.4-0.1,2.9-0.3,4.5
			c-0.1,1-0.2,3.3-1.1,2.7C-174.9,614-175,613.6-175.2,613.6z M-174.7,609.8c-1,0.4-2.7,0.1-2.7,1.5c0,0.7,2.4,1.1,2.5,0.8
			C-174.8,611.3-174.4,610.7-174.7,609.8z"/>
		<path class="st4" d="M-167.2,607.6c0.1,0.3-0.1,0.7-0.3,0.9c-0.9,0.5-2.1-1.5-3.3-0.7c-0.5,0.3,0.3,1.1,0.6,1.2
			c1,0.4,1.9,0.7,2.7,1.5c0.5,0.5,0.3,1.4-0.1,2c-0.9,1.5-4,2.3-5,0.2c-0.2-0.5,0.3-1,0.8-1c0.4,0,0.5,0.6,0.8,0.8
			c0.8,0.4,2.2,0,2.2-1c0-0.2-0.5-0.6-0.8-0.7c-1.1-0.5-2.4-0.8-3-1.9c-0.7-1.4,2-3,3.1-2.5C-168.6,606.6-167.6,606.8-167.2,607.6z"
			/>
	</g>
</g>
<path class="st4" d="M-283,582.8c-0.2,1.1-0.2,2.1-0.2,3.2c0,1,1.5,1,1.5,0c0-0.9,0-1.9,0.1-2.8C-281.4,582.3-282.8,581.8-283,582.8
	z"/>
<path class="st4" d="M-281.9,575.5c-0.2-0.9-1.7-0.5-1.4,0.4c0.3,1.2,0.1,2.4,0.1,3.6c0,1,1.5,1,1.5,0
	C-281.7,578.1-281.5,576.8-281.9,575.5z"/>
<path class="st4" d="M-283.3,569.3v2.5c0,1,1.5,1,1.5,0v-2.5C-281.8,568.4-283.3,568.4-283.3,569.3z"/>
<path class="st4" d="M-283.5,560v3.3c0,1,1.5,1,1.5,0V560C-282,559-283.5,559-283.5,560z"/>
<path class="st4" d="M-283.5,553.8v3c0,1,1.5,1,1.5,0v-3C-282,552.9-283.5,552.9-283.5,553.8z"/>
<path class="st4" d="M-283.3,547v3.2c0,1,1.5,1,1.5,0V547C-281.8,546-283.3,546-283.3,547z"/>
<path class="st4" d="M-283.7,541v2.5c0,1,1.5,1,1.5,0V541C-282.2,540-283.7,540-283.7,541z"/>
<path class="st4" d="M-282,536.8c-0.2-0.7-0.1-1.4-0.1-2.1c0-1-1.5-1-1.5,0c0,0.8,0,1.7,0.2,2.5C-283.3,538.1-281.8,537.7-282,536.8
	z"/>
<path class="st4" d="M-282.2,527.2c0-1-1.5-1-1.5,0c0,1.5-0.1,3,0.2,4.5c0.2,0.9,1.6,0.5,1.4-0.4
	C-282.3,529.9-282.2,528.5-282.2,527.2z"/>
<path class="st4" d="M-282.2,485.2c0-1-1.5-1-1.5,0c0,1.5-0.1,3,0.2,4.5c0.2,0.9,1.6,0.5,1.4-0.4
	C-282.3,487.9-282.2,486.5-282.2,485.2z"/>
<path class="st4" d="M-283.3,521.2v2.5c0,1,1.5,1,1.5,0v-2.5C-281.8,520.2-283.3,520.2-283.3,521.2z"/>
<path class="st4" d="M-282,513.6c-0.1-1-1.6-0.5-1.4,0.4c0.2,1.1,0.2,2.1,0.3,3.2c0.1,1,1.6,0.5,1.4-0.4
	C-281.9,515.8-281.9,514.7-282,513.6z"/>
<path class="st4" d="M-282.2,507c-0.3-0.9-1.7-0.5-1.4,0.4c0.3,1,0.3,2.1,0.5,3.1c0.1,0.9,1.6,1,1.5,0
	C-281.8,509.3-281.8,508.1-282.2,507z"/>
<path class="st4" d="M-281.7,503.3c-0.2-0.7-0.1-1.5-0.1-2.3c0-1-1.5-1-1.5,0c0,0.9,0,1.8,0.2,2.7
	C-282.9,504.6-281.5,504.2-281.7,503.3z"/>
<path class="st4" d="M-281.8,494c0-1-1.5-1-1.5,0c0,1.1,0,2.2,0.2,3.4c0.1,1,1.6,0.5,1.4-0.4C-281.8,496-281.8,495-281.8,494z"/>
<path class="st4" d="M-283,470.8v3.8c0,1,1.5,1,1.5,0v-3.8C-281.5,469.9-283,469.9-283,470.8z"/>
<path class="st4" d="M-283.2,464.5v2.5c0,1,1.5,1,1.5,0v-2.5C-281.7,463.5-283.2,463.5-283.2,464.5z"/>
<path class="st4" d="M-283.2,479.5v2.5c0,1,1.5,1,1.5,0v-2.5C-281.7,478.5-283.2,478.5-283.2,479.5z"/>
<path class="st4" d="M-283,457.3c-0.3,1.2-0.4,2.5-0.2,3.7c0.1,0.9,1.6,1,1.5,0c-0.1-1.1-0.1-2.2,0.1-3.3
	C-281.3,456.8-282.7,456.4-283,457.3z"/>
<path class="st4" d="M-282.7,451.7c0,0.8,0,1.5-0.1,2.3c-0.2,0.9,1.3,1.3,1.4,0.4c0.2-0.9,0.2-1.8,0.2-2.7
	C-281.2,450.7-282.7,450.7-282.7,451.7z"/>
<path class="st4" d="M-283,445.8v1.7c0,1,1.5,1,1.5,0v-1.7C-281.5,444.9-283,444.9-283,445.8z"/>
<path class="st4" d="M-283,438c-0.2,1.1-0.2,2.2-0.2,3.4c0,1,1.5,1,1.5,0c0-1,0-2,0.1-3C-281.4,437.4-282.8,437-283,438z"/>
<path class="st4" d="M-281.3,430.8c0-0.3-0.1-0.5-0.3-0.6v-2.1c0-1-1.5-1-1.5,0v5.3c0,0.9,1.3,1,1.5,0.2c0.1-0.1,0.2-0.3,0.2-0.5
	C-281.5,432.4-281.3,431.6-281.3,430.8z"/>
<path class="st4" d="M-282,591.8c0-1-1.5-1-1.5,0v6.3c0,0.5,0.4,0.7,0.8,0.7c0.5,0.1,1.1-0.3,1-0.9C-282,595.9-282,593.9-282,591.8z
	"/>
<g>
	<g class="st2">
		<path class="st4" d="M-258.3,419.8c0.9-0.8,2.1-2.1,3.4-1.5c0.2,0.1,0.3,0.3,0.2,0.7c-0.4,1-1.3,1-2.1,1.6c-0.7,0.5-1.3,1.2-1.3,2
			c0,0.5,0.1,1.1,0.4,1.6c0.4,0.6,1,0.6,1.6,0.9c0.9,0.3,1.5-0.9,2.2-0.9c0.7-0.1,0.3,1,0.1,1.3c-0.8,1.3-2.4,1.1-3.7,0.7
			c-1.6-0.5-2.4-2-2.1-3.7C-259.5,421.3-259.1,420.5-258.3,419.8z"/>
		<path class="st4" d="M-253,421.2c0.3-1,0.9-1.4,1.1-1.9c0.4-0.9,1.6-0.6,2.2,0.1c0.4,0.5,0.7,1.1,0.8,1.7c0.4,1.3-0.3,2.5-1.2,3.4
			c-0.4,0.4-1.3,0.4-1.7,0.2C-252.9,423.9-253.4,422.5-253,421.2z M-250.8,420.6c-0.4-0.4-2.2,2-0.4,2.4
			C-250,423.2-249.8,421.6-250.8,420.6z"/>
		<path class="st4" d="M-246.9,419.8c1,0.3,0,1.6,0.5,2.3c1-0.9,1.2-3.2,3-2.5c0.1,0.1,0.3,0.3,0.3,0.3c0.2,0.7,0.1,1.4,0.3,2
			c0.8-0.9,1.8-2.4,3.2-1.9c0.4,0.3,0.3,0.8,0.3,1.3c0.3,2,0.3,4-0.4,6c-0.2,0.6-1,0.7-1.6,0.3c-0.1,0-0.2-0.3-0.1-0.6
			c0.6-1.6,0.6-3.4,0.3-5.1c0-0.3-0.3,0-0.4,0.2c-0.7,1.1-1.2,2.3-1.6,3.5c-0.3,0.5-1.3,1-1.8,0.3c-0.5-1,0.3-2.4-0.1-3.5
			c-0.7,1.2-1,2.4-1.8,3.5c-0.4,0.5-1.3,0.5-1.5,0c-0.5-1.2-0.1-2.7-0.3-4C-248.6,420.7-248.2,419.4-246.9,419.8z"/>
		<path class="st4" d="M-235.1,418.4c1.5-1.9,4-1.9,6.1-2.4c0.5-0.1,1,0.2,1.1,0.6c0.2,0.5-0.4,0.8-0.7,0.9
			c-1.3,0.5-2.7,0.3-3.9,0.9c-0.2,0.1-0.4,0.3-0.3,0.5c1.4,2.1,5.2,2.9,4.5,5.7c-0.6,2.4-4.2,2.8-6.3,1.9c-1-0.4-0.4-1.7,0.5-2
			c0.5-0.1,0.5,0.6,0.8,0.7c0.4,0.1,0.7,0,1.1,0.2c0.7,0.4,1.4-0.1,2-0.4c0.4-0.3,0.4-0.7,0.2-1.1c-1.3-1.7-3.2-2.3-4.6-4
			C-234.9,419.2-235.4,418.8-235.1,418.4z"/>
		<path class="st4" d="M-224,426.6c-1.2-0.2-2.6-0.2-3.2-1.3c-0.5-0.6-0.3-1.8,0.2-2.4c1.4-1.9,3.8-1.3,3.8-1.3
			c0.2-0.2,0.3-1-0.1-1.1c-1-0.2-1.6,0.2-2.5,0.5c-0.7,0.2-0.8-1.1-0.7-1.3c1.2-0.8,3.8-1.3,4.5,0.3c0.7,1.4-0.1,2.9-0.3,4.5
			c-0.1,1-0.2,3.3-1.1,2.7C-223.7,427-223.7,426.6-224,426.6z M-223.5,422.8c-1,0.4-2.7,0.1-2.7,1.5c0,0.7,2.4,1.1,2.5,0.8
			C-223.6,424.3-223.1,423.7-223.5,422.8z"/>
		<path class="st4" d="M-220.9,416.5c0.3-0.7,1.6-0.8,1.7,0.2c0,0.2-0.1,0.5-0.1,0.7c0,1.2,0.1,2.5,0,3.6c-0.1,1.9,0.4,3.7-0.3,5.4
			c-0.2,0.5-0.8,0.5-1.3,0.3c-0.3-0.2-0.4-0.6-0.3-0.9c0.5-1.7,0.3-3.4,0.4-5.2C-220.8,419.2-221.5,417.7-220.9,416.5z"/>
		<path class="st4" d="M-215.2,419.4c1.3,0.2,2.5,1.5,2.5,2.9c-0.3,0.8-2.2,1.5-2.8,2.1c-0.1,0-0.4,0.2-0.3,0.4
			c0.6,1,1.7,0.6,2.6,0.1c0.6,0.4,0.3,1.5-0.4,1.6c-0.8,0.1-1.6,0.3-2.4,0c-1.7-0.8-2.1-2.7-2.1-4.3
			C-218.1,420.4-216.8,419.1-215.2,419.4z M-214.3,421.8c0.4-0.9-1-1.3-1.7-0.9c-0.7,0.4-0.5,2-0.1,2
			C-215.4,422.9-214.6,422.7-214.3,421.8z"/>
		<path class="st4" d="M-212.4,418.4c1.5-1.9,4-1.9,6.1-2.4c0.5-0.1,1,0.2,1.1,0.6c0.2,0.5-0.4,0.8-0.7,0.9
			c-1.3,0.5-2.7,0.3-3.9,0.9c-0.2,0.1-0.4,0.3-0.3,0.5c1.4,2.1,5.2,2.9,4.5,5.7c-0.6,2.4-4.2,2.8-6.3,1.9c-1-0.4-0.4-1.7,0.5-2
			c0.5-0.1,0.5,0.6,0.8,0.7c0.4,0.1,0.7,0,1.1,0.2c0.7,0.4,1.4-0.1,2-0.4c0.4-0.3,0.4-0.7,0.2-1.1c-1.3-1.7-3.2-2.3-4.6-4
			C-212.3,419.2-212.8,418.8-212.4,418.4z"/>
		<path class="st4" d="M-204.1,420.6c0.2-0.4,0.8-0.6,1.3-0.4c0.3,0.1,0.7,0.5,0.4,0.8c-0.5,0.7-0.2,1.5-0.4,2.2
			c-0.3,0.8,0.2,1.6,0,2.4c0,0.1-0.1,0.2-0.2,0.2c-0.5,0.2-1.2,0.2-1.3-0.3c-0.3-1-0.1-2-0.1-3
			C-204.4,421.9-204.4,421.2-204.1,420.6z M-203.8,417.5c0.5-0.3,1.2-0.3,1.5,0.2c0.3,0.5-0.2,1.2-0.5,1.4c-0.4,0.2-0.9,0.1-1.3-0.3
			C-204.3,418.4-204,417.6-203.8,417.5z"/>
		<path class="st4" d="M-200.2,419.8c1,0.3,0,1.6,0.5,2.3c1-0.9,1.2-3.2,3-2.5c0.1,0.1,0.3,0.3,0.3,0.3c0.2,0.7,0.1,1.4,0.3,2
			c0.8-0.9,1.8-2.4,3.2-1.9c0.4,0.3,0.3,0.8,0.3,1.3c0.3,2,0.3,4-0.4,6c-0.2,0.6-1,0.7-1.6,0.3c-0.1,0-0.2-0.3-0.1-0.6
			c0.6-1.6,0.6-3.4,0.3-5.1c0-0.3-0.3,0-0.4,0.2c-0.7,1.1-1.2,2.3-1.6,3.5c-0.3,0.5-1.3,1-1.8,0.3c-0.5-1,0.3-2.4-0.1-3.5
			c-0.7,1.2-1,2.4-1.8,3.5c-0.4,0.5-1.3,0.5-1.5,0c-0.5-1.2-0.1-2.7-0.3-4C-201.8,420.7-201.5,419.4-200.2,419.8z"/>
	</g>
</g>
<g>
	<path class="st5" d="M-272.2,608c0-0.3-0.2-0.4-0.4-0.3c-2.9-1.9-6-3.4-9-5c0,0,0,0,0,0c0-0.5-0.7-0.5-0.7,0
		c0,3.7,0.2,7.4,0.2,11.1c0,0.1,0.1,0.2,0.1,0.3c0,0.1,0,0.2,0.2,0.3c2.9,1.6,6,2.9,8.6,5c0.1,0,0.1,0.1,0.2,0.1
		c0.1,0.4,0.7,0.4,0.7-0.1c-0.1-2,0-4-0.1-5.9c0-0.1,0.1-0.1,0.1-0.2C-272.3,611.5-272.2,609.8-272.2,608z"/>
	<path class="st6" d="M-283,613.1c-0.5-3.2,0.1-6.4-0.2-9.6c0,0,0-0.1,0-0.1c0,0,0,0,0,0c0.4-0.3-0.2-0.8-0.5-0.5
		c-2.6,2.1-5.9,3.6-8.7,5.2c0,0-0.1,0.1-0.1,0.1c-0.1,0-0.2,0.1-0.3,0.2c-0.1,0.1-0.2,0.2-0.2,0.3c0,0.2,0.1,0.3,0.1,0.5v10
		c0,0.4,0.6,0.5,0.7,0.1c0.1,0,0.1,0,0.2-0.1c2.6-2.1,5.6-3.7,8.4-5.5c0.1-0.1,0.1-0.1,0.2-0.2C-283.2,613.6-282.9,613.4-283,613.1z
		"/>
	<path class="st7" d="M-273.4,620c-1.1-0.9-2.5-1.4-3.8-2c-1.8-0.8-3.3-2.2-5.1-3.1c-0.1,0-0.1,0-0.2,0c-0.1-0.1-0.3-0.2-0.5-0.1
		c-0.1,0-0.1,0.1-0.1,0.2c-0.1,0-0.2,0-0.3,0c-2.6,1.7-5.3,3.2-8.1,4.7c-0.1,0.1-0.2,0.2-0.2,0.3c-0.3,0-0.5,0.5-0.2,0.7
		c3,1.7,6.1,3.4,8.9,5.4c0.2,0.2,0.5,0,0.5-0.2c0.1,0.1,0.2,0.1,0.3,0c2.7-1.9,6-2.8,8.4-5.1c0.1-0.1,0.1-0.1,0.1-0.2
		C-273.3,620.5-273.1,620.2-273.4,620z"/>
	<path class="st8" d="M-275.3,609.9c-1.9-2-4.9-2.5-7.2-4c-0.1-0.1-0.2-0.1-0.3,0c-0.1,0-0.1,0-0.2,0c-2.1,1.1-4.1,2.5-6.2,3.5
		c-0.1,0-0.1,0.1-0.1,0.1c-0.1,0-0.1,0-0.2,0c-0.5-0.1-0.7,0.6-0.2,0.7c0.2,0,0.4,0.1,0.6,0.2c0,0,0.1,0.1,0.1,0.1
		c0.7,0.3,1.4,0.6,2.1,0.9c1.3,0.8,2.5,1.8,3.9,2.3c0,0,0,0,0,0c0.1,0.1,0.2,0.1,0.2,0.1c0,0,0,0,0,0c0.1,0.1,0.2,0.1,0.2,0.2
		c0.1,0.2,0.3,0.4,0.5,0.3c2.1-1.2,4.1-2.6,6.2-3.9c0,0,0,0,0,0C-275.5,610.7-275,610.2-275.3,609.9z"/>
	<path class="st8" d="M-289.9,610.7c-0.7,2.7,0.5,5.5,0.3,8.2c0,0.1,0,0.2,0.1,0.3c0,0.1,0.1,0.1,0.1,0.1c2.1,1.2,4.2,2.2,6.3,3.5
		c0.1,0,0.1,0.1,0.2,0.1c0,0.1,0,0.1,0.1,0.2c0.2,0.4,0.9,0.2,0.7-0.2c-0.1-0.2-0.1-0.4-0.2-0.6c0,0,0-0.1,0-0.2
		c-0.1-0.8-0.2-1.5-0.3-2.3c0-1.5,0.2-3-0.1-4.6c0,0,0,0,0,0c0-0.1,0-0.2-0.1-0.2c0,0,0,0,0,0c0-0.1,0-0.2,0-0.3
		c0.2-0.2,0.2-0.5-0.1-0.6c-2.1-1.1-4.4-2.1-6.5-3.2c0,0,0,0,0,0C-289.1,610.4-289.8,610.2-289.9,610.7z"/>
	<path class="st8" d="M-281.6,623.3c2.6-0.8,4.4-3.4,6.7-4.7c0.1-0.1,0.2-0.2,0.2-0.2c0-0.1,0.1-0.1,0.1-0.2
		c-0.1-2.4-0.4-4.8-0.5-7.2c0-0.1,0-0.1-0.1-0.2c0-0.1,0.1-0.1,0.1-0.1c0.3-0.4-0.3-0.9-0.6-0.5c-0.1,0.2-0.3,0.3-0.4,0.5
		c0,0-0.1,0-0.1,0.1c-0.6,0.5-1.2,1-1.8,1.5c-1.3,0.8-2.7,1.5-3.8,2.5c0,0,0,0,0,0c-0.1,0-0.1,0.1-0.1,0.2c0,0,0,0,0,0
		c-0.1,0-0.2,0.1-0.3,0.1c-0.2,0-0.5,0.1-0.5,0.4c0.2,2.4,0.6,4.8,0.8,7.2c0,0,0,0,0,0C-282.3,622.8-282.1,623.5-281.6,623.3z"/>
</g>
<path class="st3" d="M-186.5,552.6c-9.8,2-19.7,3.5-29.5,5.5c-0.3,0.1-0.5,0.2-0.6,0.3c-7.6-9.5-16.6-17.9-22.7-28.6
	c-0.2-0.3-0.4-0.5-0.6-0.6c-0.5-0.6-1.5-0.8-2.2-0.2c-10.1,8.2-20.3,16.4-30.4,24.6c-0.1,0-0.3,0-0.5,0c-7.8,1.5-15.8,2.2-23.5,4
	c-0.6,0.1-0.9,0.5-1,0.9c-0.3,0-0.6,0.1-0.8,0.2c-10,6.6-19.3,14.2-29.5,20.5c-0.1,0.1-0.2,0.2-0.3,0.3c-8.3-0.1-16.6-0.9-24.9-1
	c-0.1,0-0.2,0-0.3,0c-5.1-3.3-10.2-6.7-15.5-9.8c-0.7-0.4-1.5-0.2-1.9,0.4c-0.2,0-0.4,0-0.6,0.1c-5.7,2.6-11.5,5-17,8
	c-1.7,0.9-0.2,3.5,1.5,2.6c5.5-3,11.3-5.4,17-8c0.1,0,0.1-0.1,0.2-0.1c5.4,3.2,10.6,6.7,15.8,10.1c0.7,0.5,1.4,0.2,1.8-0.3
	c8.2,0.1,16.3,0.9,24.4,1c0.6,0,1-0.3,1.3-0.7c0,0,0,0,0,0c10.2-6.3,19.5-13.9,29.5-20.5c0.3-0.2,0.5-0.5,0.6-0.8c0.2,0,0.3,0,0.5,0
	c7.3-1.7,14.9-2.4,22.3-3.8c0.5,0.3,1.2,0.4,1.9-0.1l30.2-24.4c6.2,10.5,15.1,18.9,22.7,28.4c0.6,0.8,1.5,0.6,2.1,0
	c0.3,0.3,0.8,0.5,1.4,0.4c9.8-2,19.7-3.5,29.5-5.5C-183.8,555.1-184.6,552.2-186.5,552.6z"/>
<path class="st3" d="M-223.1,459c-16.6-1.7-33.5,10.2-34.5,27.5c-0.7,14,10,28.1,23.8,30c0.6,1.3,1.4,2.7,1.9,3.9
	c1.2,2.3,2.3,5.1,4,7.1c1.1,1.2,2.7,0,2.5-1.3c0,0,0,0,0,0c0.5-2,1.2-3.9,1.9-5.8c0.5-1.3,1.2-3.1,2.1-4.5
	c10.7-1.6,21.5-9.4,24.3-18.6C-191.7,480.3-205.9,460.7-223.1,459z M-237,464.3c0-0.1-0.1-0.2-0.1-0.2c0,0-0.1-0.1-0.1-0.1
	c0.5-0.2,1.1-0.4,1.7-0.6c0,0.1,0,0.1,0,0.2l0.1,0.7C-235.9,464-236.5,464-237,464.3z M-230.8,463c-0.5-0.5-1.3-0.4-1.8,0
	c0-0.1,0-0.1-0.1-0.2c0-0.1,0-0.1-0.1-0.2c1-0.2,2-0.4,3.1-0.6C-230.1,462.2-230.6,462.5-230.8,463z M-221.2,463.1
	c-0.5-0.2-1.2,0-1.6,0.4c-0.2-0.5-0.4-1-0.6-1.4c0-0.1-0.1-0.1-0.1-0.2c0.8,0.1,1.7,0.2,2.5,0.4
	C-221.2,462.5-221.2,462.8-221.2,463.1z"/>
<g class="st2">
	<path class="st9" d="M-244.3,485.8c0.1-0.8,0.3-1.3,0.7-1.4c0.3-0.2,0.3-0.2,0.7,0c0.2,0,0.4,0.2,0.5,0.4c0.1,0.2,0.3,1.5,0.3,2.2
		c0,0.1,0.2,0.1,1.1,0.1c1.2-0.1,1.5,0,1.5,0.5c0,0.4-0.3,0.5-1.5,0.6c-1.1,0.1-1.1,0.1-1,0.7c0.1,1.4,0.2,2.1,0.1,2.4
		c-0.1,0.5-1.2,0.7-1.7,0.4c-0.4-0.2-0.5-0.5-0.6-1.9c0-0.8-0.1-1.2-0.1-1.2c-0.1,0-0.5,0-0.9,0.1c-1.3,0.2-2,0.1-2-0.4
		c0-0.4,0.6-0.6,2.1-0.8c0.6-0.1,0.6-0.1,0.7-0.6C-244.3,486.6-244.3,486.1-244.3,485.8z"/>
	<path class="st9" d="M-236.9,479.7c0.5-0.5,0.9-0.7,1.4-1c0.3-0.1,0.8-0.1,1.3-0.1c0.9-0.1,1.1,0,1.6,0.4c0.2,0.1,0.3,0.2,0.4,0.2
		c0.3,0,1.3,0.5,1.6,0.9c0.9,1,1.1,2.6,0.3,3.7c-0.2,0.4-0.9,1-1.1,1c-0.2,0,0,0.2,0.3,0.5c0.7,0.4,1.7,1.4,2,2.1
		c0.8,1.3,0.9,2.6,0.3,3.8c-0.2,0.5-0.8,1.6-1,1.9c-1.6,1.7-2.8,2.4-4.4,2.5c-2.3,0.2-4.3-1.4-4.6-3.7c-0.1-0.5-0.2-1-0.2-1.3
		c0-1.1,0.4-2.6,0.7-3.5c0.3-0.5,1-1.6,1.3-1.7c0.3-0.3,0.3-0.3-0.1-0.6c-0.6-0.4-1-1-1.2-1.8c-0.1-0.6-0.1-0.7,0-1.4
		C-237.9,481-237.5,480.2-236.9,479.7z M-231,489.7c0-1.4-0.7-2.4-2.3-3.3c-0.5-0.3-0.9-0.5-1-0.5c-0.2,0-0.6,0.5-0.7,0.7
		c0,0.2-0.1,0.2-0.2,0.2c0,0-0.1,0.1-0.1,0.2c0,0,0,0.2-0.1,0.4c-0.3,0.6-0.7,2.2-0.7,3.2s0.3,2.2,0.7,2.6c0.1,0.1,0.2,0.3,0.3,0.4
		c0.2,0.3,0.6,0.6,0.8,0.6c0.5,0,1.7-1.1,2.3-2c0.2-0.2,0.3-0.6,0.4-0.9c0.2-0.3,0.3-0.5,0.4-0.6C-231.1,490.4-231,490.1-231,489.7z
		 M-233.4,480.7c-0.5-0.2-1.1-0.4-1.1-0.5c0-0.3-0.5,0.3-0.7,0.8c-0.3,0.7-0.3,1.4-0.2,1.9c0.2,0.5,0.3,0.7,0.8,1
		c0.3,0.2,0.6,0.2,1,0c0.7-0.4,1.1-1.1,1.1-1.8C-232.5,481.4-232.9,480.9-233.4,480.7z"/>
	<path class="st9" d="M-226.7,481.5c0-0.9,0.7-1.6,2.1-2.2c0.6-0.3,0.9-0.3,1.8-0.3c1.2,0,1.9,0.2,2.6,1c0.7,0.7,1,1.4,1,2.8
		c0.1,1.7-0.6,3.4-2,5.6c-1.2,2-1.7,2.7-2.2,3.6c-0.4,0.6-0.6,1.1-0.5,1.1c0,0,0.4,0,1,0.1c0.5,0,1.1,0.1,1.3,0.1
		c0.3,0.1,0.3,0.1,0.3-0.4c0-0.3,0-0.5,0.1-0.6c0.3-0.4,0.4-0.4,1.2-0.4c0.9,0,1.1,0,1.3,0.2c0.9,0.9,0.6,2.3-0.5,2.8
		c-0.7,0.4-1.4,0.4-3.4,0c-1.6-0.3-1.7-0.3-2.2,0c-1.1,0.4-2.4,0.1-2.6-0.5c-0.1-0.6,0.5-2.5,1.3-4c0.1-0.3,0.4-0.6,0.4-0.6
		s0-0.2,0.1-0.3c1.6-2.2,2.5-4,3-5.4c0.4-0.9,0.3-2.2,0-2.8c-0.5-0.6-0.6-0.7-1.1-0.5c-0.5,0.3-0.7,0.6-0.7,0.9
		c0.1,0.5-0.1,0.7-0.6,0.9C-226,482.8-226.8,482.2-226.7,481.5z"/>
	<path class="st9" d="M-217,480.5c0.1-0.3,0.3-0.5,0.6-0.7c0.6-0.4,0.6-0.4,1.3-0.4c1.3,0,2.4,0.5,2.7,1.2c0.2,0.8-0.4,1.9-1.2,2.4
		c-0.4,0.3-0.5,0.2-1.4,0.2c-1.1,0-1.3-0.1-1.9-0.5c-0.4-0.3-0.6-1.2-0.5-1.6C-217.3,481-217.2,480.8-217,480.5z M-211.5,481.6
		c0.5-1,1.3-2.2,1.7-2.4c0.3-0.2,0.8-0.2,1.1,0.1c0.2,0.2,0.2,0.5-0.2,1.4c-0.3,0.7-1.1,2.8-1.8,4.2c-0.1,0.3-0.3,0.5-0.3,0.6
		c0,0.2-0.2,0.5-0.3,0.7c-0.1,0.3-0.2,0.6-0.2,0.6s-0.1,0.2-0.2,0.3c-0.2,0.3-0.6,1.6-0.9,2.2c-0.1,0.3-0.3,0.7-0.4,1.1
		c-0.1,0.4-0.4,1.3-0.6,2c-0.3,0.6-0.4,1.2-0.5,1.3c0,0.1-0.1,0.3-0.2,0.6c-0.3,0.8-0.7,1.1-1.5,1.1c-0.6,0-0.9-0.3-0.9-0.7
		c-0.1-0.3,0.1-0.8,0.2-1.2c0.1-0.2,0.2-0.4,0.3-0.7c0.1-0.3,0.1-0.5,0.2-0.7s0.1-0.3,0.1-0.3c0-0.1,1-2.7,1.3-3.3
		c0.1-0.3,0.3-0.6,0.3-0.7c0.1-0.2,0.2-0.3,0.3-0.4c0-0.1,0.1-0.3,0.2-0.4c0.1-0.3,0.1-0.5,0.2-0.6s0.3-0.6,0.5-1
		c0.5-1.3,0.6-1.5,1-2.4c0.3-0.4,0.4-0.8,0.5-0.9C-211.7,482-211.6,481.8-211.5,481.6z M-214.7,481.7c0.3-0.4,0.3-0.9,0.2-1
		c0,0-0.2-0.1-0.4-0.2c-0.3,0-0.3,0-0.4,0.3c-0.2,0.3-0.3,1,0,1.1C-215.1,482.1-214.9,482.1-214.7,481.7z M-211.6,491.4
		c0.3-0.2,1.2-0.6,1.5-0.6c0.3-0.2,0.3-0.2,0.8,0c0.3,0.1,0.5,0.1,0.9,0.6s0.6,0.6,0.7,1.1c0.2,0.6,0.2,0.6,0,1
		c-0.2,0.6-0.5,0.9-1.2,1.2c-0.5,0.2-0.6,0.2-1.2,0.2c-1.9,0-2.8-0.9-2.5-2.2C-212.4,492.3-211.9,491.6-211.6,491.4z M-209.6,493.3
		c0.3-0.3,0.2-0.3,0.1-0.7c-0.1-0.2-0.2-0.4-0.4-0.5c-0.2-0.3-0.2-0.3-0.3,0c-0.3,0.3-0.4,0.6-0.4,0.9c0,0.4,0.2,0.6,0.6,0.6
		C-209.8,493.7-209.8,493.7-209.6,493.3z"/>
</g>
</svg>
