<?xml version="1.0" encoding="utf-8"?>
<!-- Generator: Adobe Illustrator 19.0.0, SVG Export Plug-In . SVG Version: 6.00 Build 0)  -->
<svg version="1.1" id="Layer_1" xmlns="http://www.w3.org/2000/svg" xmlns:xlink="http://www.w3.org/1999/xlink" x="0px" y="0px"
	 viewBox="-443 379 305 270" style="enable-background:new -443 379 305 270;" xml:space="preserve">
<style type="text/css">
	.st0{opacity:0.1;fill:#EF4849;enable-background:new    ;}
	.st1{fill:none;stroke:#B0AFB0;stroke-width:1.5;stroke-miterlimit:10;}
	.st2{enable-background:new    ;}
	.st3{fill:#EF4849;}
	.st4{fill:#333333;}
	.st5{fill:#D82629;}
	.st6{fill:#EE2E39;}
	.st7{fill:#EF475A;}
	.st8{opacity:0.5;fill:#F58E95;enable-background:new    ;}
	.st9{fill:#FFFFFF;}
</style>
<rect x="-283.1" y="434.8" class="st0" width="112.5" height="160.8"/>
<line class="st1" x1="-390.1" y1="435.2" x2="-168.1" y2="434.3"/>
<line class="st1" x1="-390.1" y1="514.7" x2="-168.1" y2="515.2"/>
<line class="st1" x1="-390.1" y1="595.2" x2="-168.1" y2="596.3"/>
<g class="st2">
	<path class="st3" d="M-307.9,405.9c-0.4-1.3-1.3-2.3-1.7-3.4c-0.8-2.4-2.3-4.6-2-7.1c0.1-0.6,1.6-1.6,2-0.7c1,2.1,0.9,4.9,2.4,6.9
		c1.3-2.9,1.4-6.3,2.5-9.4c0.2-0.7,2.3-1.2,2.1,0.1c-0.5,3-1.2,5.9-2,8.8c-0.4,1.5-0.7,2.8-0.9,4.3c-0.1,0.4-0.8,0.8-1.5,0.8
		C-307.3,406.2-307.8,406.2-307.9,405.9z"/>
	<path class="st3" d="M-301.2,397.8c0.3-0.6,1.1-0.8,1.8-0.5c0.4,0.2,0.9,0.7,0.5,1.1c-0.7,1-0.3,2-0.6,2.9c-0.4,1.1,0.3,2.1,0,3.2
		c0,0.1-0.1,0.3-0.2,0.3c-0.7,0.2-1.6,0.3-1.8-0.4c-0.4-1.3-0.1-2.7-0.1-4C-301.6,399.5-301.6,398.6-301.2,397.8z M-300.7,393.6
		c0.7-0.4,1.7-0.4,2.1,0.2c0.4,0.6-0.2,1.7-0.6,1.9c-0.5,0.3-1.2,0.2-1.8-0.4C-301.4,394.8-301,393.8-300.7,393.6z"/>
	<path class="st3" d="M-290.5,397.8c0.2,0.3-0.1,1-0.4,1.2c-1.2,0.7-2.8-2-4.5-0.9c-0.7,0.4,0.4,1.5,0.9,1.7c1.4,0.5,2.6,1,3.6,2
		c0.7,0.6,0.4,1.9-0.1,2.7c-1.2,2-5.4,3.1-6.8,0.3c-0.3-0.6,0.4-1.4,1.1-1.4c0.6,0,0.6,0.8,1.1,1c1.1,0.6,3,0,3-1.3
		c0-0.3-0.6-0.8-1.1-1c-1.5-0.7-3.3-1.1-4-2.6c-0.9-1.8,2.7-4,4.3-3.4C-292.4,396.5-291,396.7-290.5,397.8z"/>
	<path class="st3" d="M-289,397.8c0.3-0.6,1.1-0.8,1.8-0.5c0.4,0.2,0.9,0.7,0.5,1.1c-0.7,1-0.3,2-0.6,2.9c-0.4,1.1,0.3,2.1,0,3.2
		c0,0.1-0.1,0.3-0.2,0.3c-0.7,0.2-1.6,0.3-1.8-0.4c-0.4-1.3-0.1-2.7-0.1-4C-289.4,399.5-289.4,398.6-289,397.8z M-288.5,393.6
		c0.7-0.4,1.7-0.4,2.1,0.2c0.4,0.6-0.2,1.7-0.6,1.9c-0.5,0.3-1.2,0.2-1.8-0.4C-289.2,394.8-288.8,393.8-288.5,393.6z"/>
	<path class="st3" d="M-281.9,393.6c0.1-1.1,1.6-1.1,2.4-0.6c0.1,0.1,0.2,0.5,0.1,0.8c-0.7,1.4-0.9,3.1-0.9,4.7
		c1.2-0.1,3.7-0.7,3.2,0.8c-0.3,1.1-2.4,1-3.6,1c-0.2,1.4,0.6,7.8,0.5,9.2c0,0.4-0.3,0.8-0.8,0.8c-0.6,0-0.8-0.2-1-0.7
		c-0.5-1.3-0.3-8-1-9.2c-0.9,0.7-2.5,1.2-3,0c-0.1-0.3,0.2-0.8,0.6-1c0.9-0.4,2.1-0.3,2.7-1c0.4-0.6,0.3-1.6,0.4-2.3
		C-282.2,395.2-282,394.4-281.9,393.6z"/>
	<path class="st3" d="M-269.1,397.8c0.2,0.3-0.1,1-0.4,1.2c-1.2,0.7-2.8-2-4.5-0.9c-0.7,0.4,0.4,1.5,0.9,1.7c1.4,0.5,2.6,1,3.6,2
		c0.7,0.6,0.4,1.9-0.1,2.7c-1.2,2-5.4,3.1-6.8,0.3c-0.3-0.6,0.4-1.4,1.1-1.4c0.6,0,0.6,0.8,1.1,1c1.1,0.6,3,0,3-1.3
		c0-0.3-0.6-0.8-1.1-1c-1.5-0.7-3.3-1.1-4-2.6c-0.9-1.8,2.7-4,4.3-3.4C-271,396.5-269.7,396.7-269.1,397.8z"/>
</g>
<g class="st2">
	<path class="st4" d="M-412.6,429.4c0.1-0.4,0.1-0.5,4.6-0.9c0.6-0.1,1-0.1,1.2,0c0.3,0.1,0.6,0.3,0.6,0.5c0,0.1-0.1,0.6-0.3,1.1
		c-0.7,2.1-1.2,5-1.4,7.3c-0.1,1-0.1,1.1-0.3,1.2c-0.4,0.4-1.5,0.3-1.7-0.1c-0.1-0.1-0.1-0.4-0.1-1.1c0.1-1.9,0.6-4.6,1.2-6.8
		c0.1-0.4,0.2-0.8,0.2-0.8s-0.5,0-1.1,0.1c-1,0.1-1,0.1-1.3,0.3c-0.3,0.3-1,0.4-1.5,0.1C-412.8,430.1-412.9,429.9-412.6,429.4z"/>
	<path class="st4" d="M-404.7,430.5c0.7-1.4,1.4-2.2,2.2-2.3c0.1,0,0.6-0.1,0.9-0.1c0.7,0,0.8,0.1,1.2,0.3c0.5,0.3,1.2,0.9,1.4,1.4
		c0,0,0.1,0.2,0.1,0.2c0.1,0,0.5,1.2,0.6,1.6c0.3,0.9,0.3,1.3,0.3,2.3c0,1.5-0.3,2.7-0.9,3.6c-0.8,1.2-1.8,1.7-3.2,1.7
		c-1,0-1.9-0.3-2.5-1c-0.6-0.6-0.9-1.2-1.1-2.2c0-0.4,0-2,0-2.4C-405.4,432.3-405.2,431.5-404.7,430.5z M-400.6,429.9
		c-0.2-0.3-0.7-0.5-0.9-0.7c-0.2,0-0.5,0-0.6,0c-0.3,0-0.7,0.6-0.9,1.2c0,0.1-0.1,0.3-0.2,0.5c-0.4,0.9-0.7,2.7-0.7,3.9
		c0,0.9,0.2,2,0.4,2.3c0,0,0.1,0.1,0.1,0.1c0,0.1,0.7,0.7,0.9,0.8c0.3,0.1,0.7,0.1,1,0c0.8-0.4,1.4-1.3,1.7-2.8c0-0.4,0-2.5,0-2.9
		C-400,431.3-400.3,430.5-400.6,429.9z"/>
</g>
<g class="st2">
	<path class="st4" d="M-411.1,510.1c0-0.6,0.6-1.2,1.3-1.5c0.6-0.2,1.8-0.2,2.5,0c1.1,0.4,1.8,1.3,1.7,2.5c0,0.6-0.2,1.2-0.8,1.7
		c-0.5,0.3-0.5,0.4-0.2,0.5c0.8,0.5,1.4,1.1,1.8,1.9c0.1,0.4,0.1,0.7,0.1,1.2c0,0.6,0,0.8-0.2,1.3c-0.3,0.6-0.8,1.1-1.4,1.4
		s-1,0.4-2.1,0.3c-1.1,0-1.7-0.2-2.2-0.6c-0.5-0.6-0.5-1.4,0.1-2.1c0.3-0.3,0.3-0.2,0.8-0.2s0.6,0,0.7,0.1c0.2,0.3,0.2,0.4,0,0.7
		c-0.2,0.3-0.2,0.6-0.1,0.7c0.1,0.2,0.5,0.3,0.9,0.3c1,0.1,1.7-0.8,1.7-2c0.1-0.6-0.2-1.1-0.5-1.6c-0.5-0.6-0.9-0.8-1.7-0.8
		c-0.6,0-1-0.1-1.1-0.4c-0.1-0.2,0.2-0.6,0.6-0.6s0.6-0.2,1.1-0.6c0.6-0.5,0.7-0.8,0.7-1.2c0.1-0.8-0.5-1.4-1.2-1.4
		c-0.3,0-0.4,0.1-0.6,0.3c-0.2,0.3-0.2,0.3-0.1,0.6c0.2,0.2,0.2,0.3,0.2,0.4c0.1,0.2-0.3,0.4-0.7,0.4
		C-410.5,511.3-411,510.9-411.1,510.1z"/>
	<path class="st4" d="M-402.9,509.3c1-0.3,1.7-0.5,2.3-0.5c0.3-0.1,0.7-0.1,0.7-0.1c0.1,0,0.5,0,0.9,0c0.5,0.1,0.8,0.1,1.1,0.3
		c0.6,0.3,0.7,0.7,0.1,1.1c-0.2,0.1-0.3,0.1-1.5,0.1c-1.1-0.1-1.4,0-2.1,0.1c-0.5,0.1-0.9,0.1-0.9,0.1c-0.1,0.1-0.1,0.5-0.1,1.4
		c-0.1,1.2-0.1,1.3,0.1,1.2c0.1,0,0.4-0.1,0.7-0.1c1.8-0.2,3.8,0.5,4.4,1.7c0.1,0.3,0.2,1,0.1,1.5c-0.2,0.9-0.8,1.7-1.7,2.2
		c-0.5,0.4-1,0.6-1.8,0.8c-1.4,0.3-2.9-0.1-3.4-0.9c-0.2-0.3-0.2-0.3-0.2-0.8s0-0.5,0.2-0.7c0.1-0.2,0.2-0.2,0.7-0.2
		c0.5,0,0.6,0,0.7,0.1c0.1,0.1,0.1,0.3,0.1,0.5c0,0.4,0.2,0.7,0.5,0.9c0.2,0.1,0.8,0,1.3-0.3c0.4-0.2,1.1-0.9,1.3-1.3
		c0.2-0.4,0.3-0.9,0.3-1.2c-0.1-0.3-0.4-0.7-1-1c-0.4-0.2-0.5-0.2-1-0.2c-0.5,0-0.7,0.1-1.1,0.2c-0.7,0.3-1.2,0.3-1.6,0.1
		c-0.3-0.2-0.5-0.4-0.4-1.3c0-1.3,0.2-2.5,0.5-3.3C-403.5,509.5-403.5,509.5-402.9,509.3z"/>
</g>
<g class="st2">
	<path class="st4" d="M-405.1,591.5c0.7-1.4,1.4-2.2,2.2-2.3c0.1,0,0.6-0.1,0.9-0.1c0.7,0,0.8,0.1,1.2,0.3c0.5,0.3,1.2,0.9,1.4,1.4
		c0,0,0.1,0.2,0.1,0.2c0.1,0,0.5,1.2,0.6,1.6c0.3,0.9,0.3,1.3,0.3,2.3c0,1.5-0.3,2.7-0.9,3.6c-0.8,1.2-1.8,1.7-3.2,1.7
		c-1,0-1.9-0.3-2.5-1c-0.6-0.6-0.9-1.2-1.1-2.2c0-0.4,0-2,0-2.4C-405.8,593.3-405.6,592.5-405.1,591.5z M-401,590.9
		c-0.2-0.3-0.7-0.5-0.9-0.7c-0.2,0-0.4,0-0.6,0c-0.3,0-0.7,0.6-0.9,1.2c0,0.1-0.1,0.3-0.2,0.5c-0.4,0.9-0.7,2.7-0.7,3.9
		c0,0.9,0.2,2,0.4,2.3c0,0,0.1,0.1,0.1,0.1c0,0.1,0.7,0.7,0.9,0.8c0.3,0.1,0.7,0.1,1,0c0.8-0.4,1.4-1.3,1.7-2.8c0-0.4,0-2.5,0-2.9
		C-400.4,592.3-400.7,591.5-401,590.9z"/>
</g>
<path class="st3" d="M-337.8,639.6c-5.1,0.1-10.2,0-15.4,0c-1.9,0-1.9,3,0,3c5.1,0,10.2,0.1,15.4,0
	C-335.9,642.6-335.9,639.6-337.8,639.6z"/>
<g>
	<g class="st2">
		<path class="st4" d="M-326.9,639.9c0.2,0.7,0.2,1.4,0.6,1.9c0.3,0.3,0.5-0.1,0.6-0.2c0.5-0.8,0.6-1.6,1.3-2.2
			c0.4-0.4,0.8-0.5,1.2-0.1c0.8,0.7,0.9,2,1.8,2.6c0.2,0.1,0.4-0.2,0.5-0.4c0.9-1.5,0.2-2.9,0.6-4.2c0.2-0.6,1.4-0.5,1.5,0.4
			c0.2,2,0.2,4.1-1.5,5.3c-0.6,0.4-1.3,0.6-2.1,0.2c-0.7-0.3-1.1-1.5-1.3-1.5c-0.3,0-0.8,1.4-1.4,1.7c-0.7,0.4-1.8,0.5-2.2-0.1
			c-1.5-1.9-1.4-4.4-1.2-6.7c0.1-0.8,1.1-0.9,1.5-0.4C-326.5,637.3-327.2,638.6-326.9,639.9z"/>
		<path class="st4" d="M-315.5,636.4c1.3,0.2,2.5,1.5,2.5,2.9c-0.3,0.8-2.2,1.5-2.8,2.1c-0.1,0-0.4,0.2-0.3,0.4
			c0.6,1,1.7,0.6,2.6,0.1c0.6,0.4,0.3,1.5-0.4,1.6c-0.8,0.1-1.6,0.3-2.4,0c-1.7-0.8-2.1-2.7-2.1-4.3
			C-318.4,637.3-317.2,636.1-315.5,636.4z M-314.7,638.8c0.4-0.9-1-1.3-1.7-0.9c-0.7,0.4-0.5,2-0.1,2
			C-315.7,639.9-315,639.6-314.7,638.8z"/>
		<path class="st4" d="M-309.8,636.4c1.3,0.2,2.5,1.5,2.5,2.9c-0.3,0.8-2.2,1.5-2.8,2.1c-0.1,0-0.4,0.2-0.3,0.4
			c0.6,1,1.7,0.6,2.6,0.1c0.6,0.4,0.3,1.5-0.4,1.6c-0.8,0.1-1.6,0.3-2.4,0c-1.7-0.8-2.1-2.7-2.1-4.3
			C-312.7,637.3-311.4,636.1-309.8,636.4z M-308.9,638.8c0.4-0.9-1-1.3-1.7-0.9c-0.7,0.4-0.5,2-0.1,2
			C-310,639.9-309.2,639.6-308.9,638.8z"/>
		<path class="st4" d="M-306.9,633.4c0.2-0.4,0.8-0.6,1.4-0.5c0.1,0.1,0.2,0.3,0.2,0.4c0,1.7-0.2,3.3-0.2,5c0.1,0.2,0.3,0.1,0.4,0.1
			c0.8-0.6,1.7-1.6,2.8-0.9c0.5,0.2,0.1,0.7-0.2,0.8c-0.5,0.4-1.2,0.6-1.8,1.1c1.2,0.9,2.3,1.9,3.4,2.9c0.2,0.3,0,0.6-0.2,0.8
			c-0.3,0.4-0.9,0.4-1.2,0.1c-0.8-0.8-1.8-1.5-2.7-2.3c0,0-0.3-0.2-0.2,0.2c-0.1,0.7,0.2,1.4,0.2,2.1c-0.1,0.7-1.2,0.7-1.3,0.4
			c-0.8-2-0.7-4.3-0.5-6.5C-306.8,635.9-307.4,634.5-306.9,633.4z"/>
		<path class="st4" d="M-299.9,633.5c0.3-0.7,1.6-0.8,1.7,0.2c0,0.2-0.1,0.5-0.1,0.7c0,1.2,0.1,2.5,0,3.6c-0.1,1.9,0.4,3.7-0.3,5.4
			c-0.2,0.5-0.8,0.5-1.3,0.3c-0.3-0.2-0.4-0.6-0.3-0.9c0.5-1.7,0.3-3.4,0.4-5.2C-299.8,636.2-300.5,634.7-299.9,633.5z"/>
		<path class="st4" d="M-296.7,635.9c0.3-0.5,1.2-0.6,1.5,0c0.4,0.8,0.1,1.9,0.3,2.9c0.1,0.3,0.3,0,0.3-0.1c0.5-1.1,0.8-2.3,1.9-2.9
			c0.4-0.2,1.5-0.1,1.1,0.7c-0.9,1.7-2.1,3.3-2.3,5.3c-0.1,1.2-1,3.1-1.8,4.2c-0.6,0.7-2.1,0.8-2.5,0c-0.3-0.5-0.5-1.3,0.1-1.6
			c0.4-0.3,1,0.2,1.1,0.7c1.2-0.9,1-1.2,1.3-2.7c0.2-0.9-0.6-1.7-0.7-2.5c-0.1-0.9-0.3-1.8-0.3-2.7
			C-296.8,636.7-297,636.2-296.7,635.9z"/>
		<path class="st4" d="M-284.6,643.6c-1.2-0.2-2.6-0.2-3.2-1.3c-0.5-0.6-0.3-1.8,0.2-2.4c1.4-1.9,3.8-1.3,3.8-1.3
			c0.2-0.2,0.3-1-0.1-1.1c-1-0.2-1.6,0.2-2.5,0.5c-0.7,0.2-0.8-1.1-0.7-1.3c1.2-0.8,3.8-1.3,4.5,0.3c0.7,1.4-0.1,2.9-0.3,4.5
			c-0.1,1-0.2,3.3-1.1,2.7C-284.3,644-284.3,643.6-284.6,643.6z M-284.1,639.8c-1,0.4-2.7,0.1-2.7,1.5c0,0.7,2.4,1.1,2.5,0.8
			C-284.2,641.2-283.8,640.7-284.1,639.8z"/>
		<path class="st4" d="M-282.2,637.1c-0.3-1,1.3-1.2,1.6-0.7c0.8,1,0.8,2.4,1.6,3.5c0.9-1.5,1.3-3.2,1.8-4.9c0.2-0.8,1.4-0.6,2-0.1
			c0.1,0.2-0.1,0.4-0.1,0.6c-0.1,0.2-0.4,0.3-0.4,0.5c-0.6,2.2-1.4,4.2-2.4,6.2c-0.2,0.3-1,0.7-1.3,0.3c-0.9-0.8-1.3-1.9-1.7-2.9
			C-281.5,638.8-281.9,637.9-282.2,637.1z"/>
		<path class="st4" d="M-271.9,636.4c1.3,0.2,2.5,1.5,2.5,2.9c-0.3,0.8-2.2,1.5-2.8,2.1c-0.1,0-0.4,0.2-0.3,0.4
			c0.6,1,1.7,0.6,2.6,0.1c0.6,0.4,0.3,1.5-0.4,1.6c-0.8,0.1-1.6,0.3-2.4,0c-1.7-0.8-2.1-2.7-2.1-4.3
			C-274.8,637.3-273.5,636.1-271.9,636.4z M-271,638.8c0.4-0.9-1-1.3-1.7-0.9c-0.7,0.4-0.5,2-0.1,2
			C-272.1,639.9-271.3,639.6-271,638.8z"/>
		<path class="st4" d="M-268.7,636.1c0.8-0.8,1.9,0.3,1.7,1.4c1-0.2,1.3-1.6,2.5-1.3c0.4,0.2,1,0.4,0.6,0.8c-0.7,1-1.7,1.4-2.4,2.4
			c-0.2,0.3-0.1,0.9-0.3,1.2c-0.2,0.3-0.2,0.7,0.2,1.1s0.3,1.3-0.2,1.7c-0.3,0.5-1.1,0.5-1.4,0.1c-0.3-0.2-0.3-0.4-0.3-0.8
			c0.1-1.4-0.1-2.8-0.3-4.2C-268.7,637.7-269.5,636.7-268.7,636.1z"/>
		<path class="st4" d="M-260,643.6c-1.2-0.2-2.6-0.2-3.2-1.3c-0.5-0.6-0.3-1.8,0.2-2.4c1.4-1.9,3.8-1.3,3.8-1.3
			c0.2-0.2,0.3-1-0.1-1.1c-1-0.2-1.6,0.2-2.5,0.5c-0.7,0.2-0.8-1.1-0.7-1.3c1.2-0.8,3.8-1.3,4.5,0.3c0.7,1.4-0.1,2.9-0.3,4.5
			c-0.1,1-0.2,3.3-1.1,2.7C-259.8,644-259.8,643.6-260,643.6z M-259.5,639.8c-1,0.4-2.7,0.1-2.7,1.5c0,0.7,2.4,1.1,2.5,0.8
			C-259.6,641.2-259.2,640.7-259.5,639.8z"/>
		<path class="st4" d="M-252.6,635.8c0.1,0.1,0.4,0.3,0.3,0.5c-1.1,2.3-0.5,4.9-0.3,7.4c0.1,0.9,0.1,1.9-0.8,2.4
			c-1.3,0.7-3.3,0.1-3.8-1.4c-0.2-0.6,0.7-1,1-0.6c0.5,0.5,1,1.5,1.9,1.4c0.2-0.1,0.3-0.3,0.3-0.5c0.3-1.5,0-2.9-0.3-4.4
			c0-0.1,0.2-0.6-0.1-0.4c-0.6,0.4-1.3,0.6-1.9,0.3c-0.5-0.2-0.7-0.6-1-1c-0.4-1-0.3-2,0.6-2.7C-255.6,635.7-254,635-252.6,635.8z
			 M-256.1,638.3c0.1,0.5,0.3,1.2,0.6,1.2c0.6,0.1,0.8-0.9,1.2-1.4c0.2-0.3,0.3-1,0.1-1.3c-0.2-0.4-1,0-1.4,0.3
			C-256,637.4-256.2,637.8-256.1,638.3z"/>
		<path class="st4" d="M-249,636.4c1.3,0.2,2.5,1.5,2.5,2.9c-0.3,0.8-2.2,1.5-2.8,2.1c-0.1,0-0.4,0.2-0.3,0.4c0.6,1,1.7,0.6,2.6,0.1
			c0.6,0.4,0.3,1.5-0.4,1.6c-0.8,0.1-1.6,0.3-2.4,0c-1.7-0.8-2.1-2.7-2.1-4.3C-251.9,637.3-250.7,636.1-249,636.4z M-248.2,638.8
			c0.4-0.9-1-1.3-1.7-0.9c-0.7,0.4-0.5,2-0.1,2C-249.2,639.9-248.5,639.6-248.2,638.8z"/>
	</g>
</g>
<g>
	<g class="st2">
		<path class="st4" d="M-200.1,609.9c0.2,0.7,0.2,1.4,0.6,1.9c0.3,0.3,0.5-0.1,0.6-0.2c0.5-0.8,0.6-1.6,1.3-2.2
			c0.4-0.4,0.8-0.5,1.2-0.1c0.8,0.7,0.9,2,1.8,2.6c0.2,0.1,0.4-0.2,0.5-0.4c0.8-1.5,0.2-2.9,0.6-4.2c0.2-0.6,1.4-0.5,1.5,0.4
			c0.2,2,0.2,4.1-1.5,5.3c-0.6,0.4-1.3,0.6-2.1,0.2c-0.7-0.3-1.1-1.5-1.3-1.5c-0.3,0-0.8,1.4-1.4,1.7c-0.7,0.4-1.8,0.5-2.2-0.1
			c-1.5-1.9-1.4-4.4-1.2-6.7c0.1-0.8,1.1-0.9,1.5-0.4C-199.6,607.3-200.4,608.7-200.1,609.9z"/>
		<path class="st4" d="M-188.7,606.4c1.3,0.2,2.5,1.5,2.5,2.9c-0.3,0.8-2.2,1.5-2.8,2.1c-0.1,0-0.4,0.2-0.3,0.4
			c0.6,1,1.7,0.6,2.6,0.1c0.6,0.4,0.3,1.5-0.4,1.6c-0.8,0.1-1.6,0.3-2.4,0c-1.7-0.8-2.1-2.7-2.1-4.3
			C-191.6,607.4-190.4,606.1-188.7,606.4z M-187.9,608.8c0.4-0.9-1-1.3-1.7-0.9c-0.7,0.4-0.5,2-0.1,2
			C-188.9,609.9-188.2,609.7-187.9,608.8z"/>
		<path class="st4" d="M-183,606.4c1.3,0.2,2.5,1.5,2.5,2.9c-0.3,0.8-2.2,1.5-2.8,2.1c-0.1,0-0.4,0.2-0.3,0.4c0.6,1,1.7,0.6,2.6,0.1
			c0.6,0.4,0.3,1.5-0.4,1.6c-0.8,0.1-1.6,0.3-2.4,0c-1.7-0.8-2.1-2.7-2.1-4.3C-185.9,607.4-184.6,606.1-183,606.4z M-182.1,608.8
			c0.4-0.9-1-1.3-1.7-0.9c-0.7,0.4-0.5,2-0.1,2C-183.2,609.9-182.4,609.7-182.1,608.8z"/>
		<path class="st4" d="M-180.1,603.5c0.2-0.4,0.8-0.6,1.4-0.5c0.1,0.1,0.2,0.3,0.2,0.4c0,1.7-0.2,3.3-0.2,5c0.1,0.2,0.3,0.1,0.4,0.1
			c0.8-0.6,1.7-1.6,2.8-0.9c0.5,0.2,0.1,0.7-0.2,0.8c-0.5,0.4-1.2,0.6-1.8,1.1c1.2,0.9,2.3,1.9,3.4,2.9c0.2,0.3,0,0.6-0.2,0.8
			c-0.3,0.4-0.9,0.4-1.2,0.1c-0.8-0.8-1.8-1.5-2.7-2.3c0,0-0.3-0.2-0.2,0.2c-0.1,0.7,0.2,1.4,0.2,2.1c-0.1,0.7-1.2,0.7-1.3,0.4
			c-0.8-2-0.7-4.3-0.5-6.5C-180,605.9-180.5,604.5-180.1,603.5z"/>
		<path class="st4" d="M-168.2,607.6c0.1,0.3-0.1,0.7-0.3,0.9c-0.9,0.5-2.1-1.5-3.3-0.7c-0.5,0.3,0.3,1.1,0.6,1.2
			c1,0.4,1.9,0.7,2.7,1.5c0.5,0.5,0.3,1.4-0.1,2c-0.9,1.5-4,2.3-5,0.2c-0.2-0.5,0.3-1,0.8-1c0.4,0,0.5,0.6,0.8,0.8
			c0.8,0.4,2.2,0,2.2-1c0-0.2-0.5-0.6-0.8-0.7c-1.1-0.5-2.4-0.8-3-1.9c-0.7-1.4,2-3,3.1-2.5C-169.6,606.6-168.6,606.8-168.2,607.6z"
			/>
	</g>
</g>
<path class="st4" d="M-284,582.8c-0.2,1.1-0.2,2.1-0.2,3.2c0,1,1.5,1,1.5,0c0-0.9,0-1.9,0.1-2.8C-282.4,582.3-283.8,581.8-284,582.8
	z"/>
<path class="st4" d="M-282.9,575.5c-0.2-0.9-1.7-0.5-1.4,0.4c0.3,1.2,0.1,2.4,0.1,3.6c0,1,1.5,1,1.5,0
	C-282.7,578.1-282.5,576.8-282.9,575.5z"/>
<path class="st4" d="M-284.3,569.3v2.5c0,1,1.5,1,1.5,0v-2.5C-282.8,568.4-284.3,568.4-284.3,569.3z"/>
<path class="st4" d="M-284.5,560v3.3c0,1,1.5,1,1.5,0V560C-283,559-284.5,559-284.5,560z"/>
<path class="st4" d="M-284.5,553.8v3c0,1,1.5,1,1.5,0v-3C-283,552.9-284.5,552.9-284.5,553.8z"/>
<path class="st4" d="M-284.3,547v3.2c0,1,1.5,1,1.5,0V547C-282.8,546-284.3,546-284.3,547z"/>
<path class="st4" d="M-284.7,541v2.5c0,1,1.5,1,1.5,0V541C-283.2,540-284.7,540-284.7,541z"/>
<path class="st4" d="M-283,536.8c-0.2-0.7-0.1-1.4-0.1-2.1c0-1-1.5-1-1.5,0c0,0.8,0,1.7,0.2,2.5C-284.3,538.1-282.8,537.7-283,536.8
	z"/>
<path class="st4" d="M-283.2,527.2c0-1-1.5-1-1.5,0c0,1.5-0.1,3,0.2,4.5c0.2,0.9,1.6,0.5,1.4-0.4
	C-283.3,529.9-283.2,528.5-283.2,527.2z"/>
<path class="st4" d="M-283.2,485.2c0-1-1.5-1-1.5,0c0,1.5-0.1,3,0.2,4.5c0.2,0.9,1.6,0.5,1.4-0.4
	C-283.3,487.9-283.2,486.5-283.2,485.2z"/>
<path class="st4" d="M-284.3,521.2v2.5c0,1,1.5,1,1.5,0v-2.5C-282.8,520.2-284.3,520.2-284.3,521.2z"/>
<path class="st4" d="M-283,513.6c-0.1-1-1.6-0.5-1.4,0.4c0.2,1.1,0.2,2.1,0.3,3.2c0.1,1,1.6,0.5,1.4-0.4
	C-282.9,515.8-282.9,514.7-283,513.6z"/>
<path class="st4" d="M-283.2,507c-0.3-0.9-1.7-0.5-1.4,0.4c0.3,1,0.3,2.1,0.5,3.1c0.1,0.9,1.6,1,1.5,0
	C-282.8,509.3-282.8,508.1-283.2,507z"/>
<path class="st4" d="M-282.7,503.3c-0.2-0.7-0.1-1.5-0.1-2.3c0-1-1.5-1-1.5,0c0,0.9,0,1.8,0.2,2.7
	C-283.9,504.6-282.5,504.2-282.7,503.3z"/>
<path class="st4" d="M-282.8,494c0-1-1.5-1-1.5,0c0,1.1,0,2.2,0.2,3.4c0.1,1,1.6,0.5,1.4-0.4C-282.8,496-282.8,495-282.8,494z"/>
<path class="st4" d="M-284,470.8v3.8c0,1,1.5,1,1.5,0v-3.8C-282.5,469.9-284,469.9-284,470.8z"/>
<path class="st4" d="M-284.2,464.5v2.5c0,1,1.5,1,1.5,0v-2.5C-282.7,463.5-284.2,463.5-284.2,464.5z"/>
<path class="st4" d="M-284.2,479.5v2.5c0,1,1.5,1,1.5,0v-2.5C-282.7,478.5-284.2,478.5-284.2,479.5z"/>
<path class="st4" d="M-284,457.3c-0.3,1.2-0.4,2.5-0.2,3.7c0.1,0.9,1.6,1,1.5,0c-0.1-1.1-0.1-2.2,0.1-3.3
	C-282.3,456.8-283.7,456.4-284,457.3z"/>
<path class="st4" d="M-283.7,451.7c0,0.8,0,1.5-0.1,2.3c-0.2,0.9,1.3,1.3,1.4,0.4c0.2-0.9,0.2-1.8,0.2-2.7
	C-282.2,450.7-283.7,450.7-283.7,451.7z"/>
<path class="st4" d="M-284,445.8v1.7c0,1,1.5,1,1.5,0v-1.7C-282.5,444.9-284,444.9-284,445.8z"/>
<path class="st4" d="M-284,438c-0.2,1.1-0.2,2.2-0.2,3.4c0,1,1.5,1,1.5,0c0-1,0-2,0.1-3C-282.4,437.4-283.8,437-284,438z"/>
<path class="st4" d="M-282.3,430.8c0-0.3-0.1-0.5-0.3-0.6v-2.1c0-1-1.5-1-1.5,0v5.3c0,0.9,1.3,1,1.5,0.2c0.1-0.1,0.2-0.3,0.2-0.5
	C-282.5,432.4-282.3,431.6-282.3,430.8z"/>
<path class="st4" d="M-283,591.8c0-1-1.5-1-1.5,0v6.3c0,0.5,0.4,0.7,0.8,0.7c0.5,0.1,1.1-0.3,1-0.9C-283,595.9-283,593.9-283,591.8z
	"/>
<g>
	<g class="st2">
		<path class="st4" d="M-261,422.9c0.2,0.7,0.2,1.4,0.6,1.9c0.3,0.3,0.5-0.1,0.6-0.2c0.5-0.8,0.6-1.6,1.3-2.2
			c0.4-0.4,0.8-0.5,1.2-0.1c0.8,0.7,0.9,2,1.8,2.6c0.2,0.1,0.4-0.2,0.5-0.4c0.9-1.5,0.2-2.9,0.6-4.2c0.2-0.6,1.4-0.5,1.5,0.4
			c0.2,2,0.2,4.1-1.5,5.3c-0.6,0.4-1.3,0.6-2.1,0.2c-0.7-0.3-1.1-1.5-1.3-1.5c-0.3,0-0.8,1.4-1.4,1.7c-0.7,0.4-1.8,0.5-2.2-0.1
			c-1.5-1.9-1.4-4.4-1.2-6.7c0.1-0.8,1.1-0.9,1.5-0.4C-260.5,420.3-261.3,421.7-261,422.9z"/>
		<path class="st4" d="M-251.8,420.6c0.2-0.4,0.8-0.6,1.3-0.4c0.3,0.1,0.7,0.5,0.4,0.8c-0.5,0.7-0.2,1.5-0.4,2.2
			c-0.3,0.8,0.2,1.6,0,2.4c0,0.1-0.1,0.2-0.2,0.2c-0.5,0.2-1.2,0.2-1.3-0.3c-0.3-1-0.1-2-0.1-3
			C-252.1,421.9-252.1,421.2-251.8,420.6z M-251.5,417.5c0.5-0.3,1.2-0.3,1.5,0.2c0.3,0.5-0.2,1.2-0.5,1.4c-0.4,0.2-0.9,0.1-1.3-0.3
			C-252,418.4-251.7,417.6-251.5,417.5z"/>
		<path class="st4" d="M-246.6,417.5c0.1-0.8,1.2-0.8,1.8-0.4c0.1,0.1,0.2,0.3,0.1,0.6c-0.5,1.1-0.7,2.3-0.7,3.5
			c0.9-0.1,2.7-0.5,2.4,0.6c-0.3,0.8-1.8,0.7-2.7,0.7c-0.2,1.1,0.4,5.7,0.3,6.8c0,0.3-0.3,0.6-0.6,0.6c-0.4,0-0.6-0.1-0.7-0.5
			c-0.4-1-0.3-5.9-0.7-6.8c-0.6,0.5-1.9,0.9-2.2,0c-0.1-0.2,0.2-0.6,0.4-0.7c0.6-0.3,1.6-0.2,2-0.7c0.3-0.4,0.2-1.2,0.3-1.7
			C-246.8,418.6-246.7,418.1-246.6,417.5z"/>
		<path class="st4" d="M-242.2,418.6c0.1-0.3,0.7-0.6,1.2-0.3c0.2,0.1,0.2,0.4,0.2,0.7c-0.1,1.3-0.4,2.5,0,3.8
			c0.6-1,1.6-2.2,2.8-1.6c0.4,1.8,0.9,3.6,0.7,5.3c0,0.4-0.9,0.6-1.2,0.3c-0.9-1.1-0.1-2.8-0.8-4.1c-0.8,0.8-1.4,1.7-1.9,2.8
			c-0.1,0.2-0.6,0.4-0.9,0.4c-0.1-0.1-0.6-0.1-0.6-0.3c0-1.3,0.1-2.5,0.2-3.8C-242.2,420.7-242.7,419.5-242.2,418.6z"/>
		<path class="st4" d="M-233.8,418.4c1.5-1.9,4-1.9,6.1-2.4c0.5-0.1,1,0.2,1.1,0.6c0.2,0.5-0.4,0.8-0.7,0.9
			c-1.3,0.5-2.7,0.3-3.9,0.9c-0.2,0.1-0.4,0.3-0.3,0.5c1.4,2.1,5.2,2.9,4.5,5.7c-0.6,2.4-4.2,2.8-6.3,1.9c-1-0.4-0.4-1.7,0.5-2
			c0.5-0.1,0.5,0.6,0.8,0.7c0.4,0.1,0.7,0,1.1,0.2c0.7,0.4,1.4-0.1,2-0.4c0.4-0.3,0.4-0.7,0.2-1.1c-1.3-1.7-3.2-2.3-4.6-4
			C-233.7,419.2-234.2,418.8-233.8,418.4z"/>
		<path class="st4" d="M-222.7,426.6c-1.2-0.2-2.6-0.2-3.2-1.3c-0.5-0.6-0.3-1.8,0.2-2.4c1.4-1.9,3.8-1.3,3.8-1.3
			c0.2-0.2,0.3-1-0.1-1.1c-1-0.2-1.6,0.2-2.5,0.5c-0.7,0.2-0.8-1.1-0.7-1.3c1.2-0.8,3.8-1.3,4.5,0.3c0.7,1.4-0.1,2.9-0.3,4.5
			c-0.1,1-0.2,3.3-1.1,2.7C-222.5,427-222.5,426.6-222.7,426.6z M-222.3,422.8c-1,0.4-2.7,0.1-2.7,1.5c0,0.7,2.4,1.1,2.5,0.8
			C-222.3,424.3-221.9,423.7-222.3,422.8z"/>
		<path class="st4" d="M-219.7,416.5c0.3-0.7,1.6-0.8,1.7,0.2c0,0.2-0.1,0.5-0.1,0.7c0,1.2,0.1,2.5,0,3.6c-0.1,1.9,0.4,3.7-0.3,5.4
			c-0.2,0.5-0.8,0.5-1.3,0.3c-0.3-0.2-0.4-0.6-0.3-0.9c0.5-1.7,0.3-3.4,0.4-5.2C-219.5,419.2-220.3,417.7-219.7,416.5z"/>
		<path class="st4" d="M-213.9,419.4c1.3,0.2,2.5,1.5,2.5,2.9c-0.3,0.8-2.2,1.5-2.8,2.1c-0.1,0-0.4,0.2-0.3,0.4
			c0.6,1,1.7,0.6,2.6,0.1c0.6,0.4,0.3,1.5-0.4,1.6c-0.8,0.1-1.6,0.3-2.4,0c-1.7-0.8-2.1-2.7-2.1-4.3
			C-216.8,420.4-215.6,419.1-213.9,419.4z M-213.1,421.8c0.4-0.9-1-1.3-1.7-0.9c-0.7,0.4-0.5,2-0.1,2
			C-214.1,422.9-213.4,422.7-213.1,421.8z"/>
		<path class="st4" d="M-211.2,418.4c1.5-1.9,4-1.9,6.1-2.4c0.5-0.1,1,0.2,1.1,0.6c0.2,0.5-0.4,0.8-0.7,0.9
			c-1.3,0.5-2.7,0.3-3.9,0.9c-0.2,0.1-0.4,0.3-0.3,0.5c1.4,2.1,5.2,2.9,4.5,5.7c-0.6,2.4-4.2,2.8-6.3,1.9c-1-0.4-0.4-1.7,0.5-2
			c0.5-0.1,0.5,0.6,0.8,0.7c0.4,0.1,0.7,0,1.1,0.2c0.7,0.4,1.4-0.1,2-0.4c0.4-0.3,0.4-0.7,0.2-1.1c-1.3-1.7-3.2-2.3-4.6-4
			C-211,419.2-211.6,418.8-211.2,418.4z"/>
		<path class="st4" d="M-202.9,420.6c0.2-0.4,0.8-0.6,1.3-0.4c0.3,0.1,0.7,0.5,0.4,0.8c-0.5,0.7-0.2,1.5-0.4,2.2
			c-0.3,0.8,0.2,1.6,0,2.4c0,0.1-0.1,0.2-0.2,0.2c-0.5,0.2-1.2,0.2-1.3-0.3c-0.3-1-0.1-2-0.1-3
			C-203.2,421.9-203.2,421.2-202.9,420.6z M-202.5,417.5c0.5-0.3,1.2-0.3,1.5,0.2c0.3,0.5-0.2,1.2-0.5,1.4c-0.4,0.2-0.9,0.1-1.3-0.3
			C-203,418.4-202.8,417.6-202.5,417.5z"/>
		<path class="st4" d="M-198.9,419.8c1,0.3,0,1.6,0.5,2.3c1-0.9,1.2-3.2,3-2.5c0.1,0.1,0.3,0.3,0.3,0.3c0.2,0.7,0.1,1.4,0.3,2
			c0.8-0.9,1.8-2.4,3.2-1.9c0.4,0.3,0.3,0.8,0.3,1.3c0.3,2,0.3,4-0.4,6c-0.2,0.6-1,0.7-1.6,0.3c-0.1,0-0.2-0.3-0.1-0.6
			c0.6-1.6,0.6-3.4,0.3-5.1c0-0.3-0.3,0-0.4,0.2c-0.7,1.1-1.2,2.3-1.6,3.5c-0.3,0.5-1.3,1-1.8,0.3c-0.5-1,0.3-2.4-0.1-3.5
			c-0.7,1.2-1,2.4-1.8,3.5c-0.4,0.5-1.3,0.5-1.5,0c-0.5-1.2-0.1-2.7-0.3-4C-200.6,420.7-200.3,419.4-198.9,419.8z"/>
	</g>
</g>
<g>
	<path class="st5" d="M-273.2,608c0-0.3-0.2-0.4-0.4-0.3c-2.9-1.9-6-3.4-9-5c0,0,0,0,0,0c0-0.5-0.7-0.5-0.7,0
		c0,3.7,0.2,7.4,0.2,11.1c0,0.1,0.1,0.2,0.1,0.3c0,0.1,0,0.2,0.2,0.3c2.9,1.6,6,2.9,8.6,5c0.1,0,0.1,0.1,0.2,0.1
		c0.1,0.4,0.7,0.4,0.7-0.1c-0.1-2,0-4-0.1-5.9c0-0.1,0.1-0.1,0.1-0.2C-273.3,611.5-273.2,609.8-273.2,608z"/>
	<path class="st6" d="M-284,613.1c-0.5-3.2,0.1-6.4-0.2-9.6c0,0,0-0.1,0-0.1c0,0,0,0,0,0c0.4-0.3-0.2-0.8-0.5-0.5
		c-2.6,2.1-5.9,3.6-8.7,5.2c0,0-0.1,0.1-0.1,0.1c-0.1,0-0.2,0.1-0.3,0.2c-0.1,0.1-0.2,0.2-0.2,0.3c0,0.2,0.1,0.3,0.1,0.5v10
		c0,0.4,0.6,0.5,0.7,0.1c0.1,0,0.1,0,0.2-0.1c2.6-2.1,5.6-3.7,8.4-5.5c0.1-0.1,0.1-0.1,0.2-0.2C-284.2,613.6-283.9,613.4-284,613.1z
		"/>
	<path class="st7" d="M-274.4,620c-1.1-0.9-2.5-1.4-3.8-2c-1.8-0.8-3.3-2.2-5.1-3.1c-0.1,0-0.1,0-0.2,0c-0.1-0.1-0.3-0.2-0.5-0.1
		c-0.1,0-0.1,0.1-0.1,0.2c-0.1,0-0.2,0-0.3,0c-2.6,1.7-5.3,3.2-8.1,4.7c-0.1,0.1-0.2,0.2-0.2,0.3c-0.3,0-0.5,0.5-0.2,0.7
		c3,1.7,6.1,3.4,8.9,5.4c0.2,0.2,0.5,0,0.5-0.2c0.1,0.1,0.2,0.1,0.3,0c2.7-1.9,6-2.8,8.4-5.1c0.1-0.1,0.1-0.1,0.1-0.2
		C-274.3,620.5-274.1,620.2-274.4,620z"/>
	<path class="st8" d="M-276.3,609.9c-1.9-2-4.9-2.5-7.2-4c-0.1-0.1-0.2-0.1-0.3,0c-0.1,0-0.1,0-0.2,0c-2.1,1.1-4.1,2.5-6.2,3.5
		c-0.1,0-0.1,0.1-0.1,0.1c-0.1,0-0.1,0-0.2,0c-0.5-0.1-0.7,0.6-0.2,0.7c0.2,0,0.4,0.1,0.6,0.2c0,0,0.1,0.1,0.1,0.1
		c0.7,0.3,1.4,0.6,2.1,0.9c1.3,0.8,2.5,1.8,3.9,2.3c0,0,0,0,0,0c0.1,0.1,0.1,0.1,0.2,0.1c0,0,0,0,0,0c0.1,0.1,0.1,0.1,0.2,0.2
		c0,0.2,0.3,0.4,0.5,0.3c2.1-1.2,4.1-2.6,6.2-3.9c0,0,0,0,0,0C-276.5,610.7-276,610.2-276.3,609.9z"/>
	<path class="st8" d="M-290.9,610.7c-0.7,2.7,0.5,5.5,0.3,8.2c0,0.1,0,0.2,0.1,0.3c0,0.1,0.1,0.1,0.1,0.1c2.1,1.2,4.2,2.2,6.3,3.5
		c0.1,0,0.1,0.1,0.2,0.1c0,0.1,0,0.1,0.1,0.2c0.2,0.4,0.9,0.2,0.7-0.2c-0.1-0.2-0.1-0.4-0.2-0.6c0,0,0-0.1,0-0.2
		c-0.1-0.8-0.2-1.5-0.3-2.3c0-1.5,0.2-3-0.1-4.6c0,0,0,0,0,0c0-0.1,0-0.2-0.1-0.2c0,0,0,0,0,0c0-0.1,0-0.2,0-0.3
		c0.2-0.2,0.2-0.5-0.1-0.6c-2.1-1.1-4.4-2.1-6.5-3.2c0,0,0,0,0,0C-290.1,610.4-290.8,610.2-290.9,610.7z"/>
	<path class="st8" d="M-282.6,623.3c2.6-0.8,4.4-3.4,6.7-4.7c0.1-0.1,0.2-0.2,0.2-0.2c0-0.1,0.1-0.1,0-0.2c-0.1-2.4-0.4-4.8-0.5-7.2
		c0-0.1,0-0.1-0.1-0.2c0-0.1,0.1-0.1,0.1-0.1c0.3-0.4-0.3-0.9-0.6-0.5c-0.1,0.2-0.3,0.3-0.4,0.5c0,0-0.1,0-0.1,0.1
		c-0.6,0.5-1.2,1-1.8,1.5c-1.3,0.8-2.7,1.5-3.8,2.5c0,0,0,0,0,0c-0.1,0-0.1,0.1-0.1,0.2c0,0,0,0,0,0c-0.1,0-0.2,0.1-0.3,0.1
		c-0.2,0-0.5,0.1-0.5,0.4c0.2,2.4,0.6,4.8,0.8,7.2c0,0,0,0,0,0C-283.3,622.8-283.1,623.5-282.6,623.3z"/>
</g>
<path class="st3" d="M-187.5,552.6c-9.8,2-19.7,3.5-29.5,5.5c-0.3,0.1-0.5,0.2-0.6,0.3c-7.6-9.5-16.6-17.9-22.7-28.6
	c-0.2-0.3-0.4-0.5-0.6-0.6c-0.5-0.6-1.5-0.8-2.2-0.2c-10.1,8.2-20.3,16.4-30.4,24.6c-0.1,0-0.3,0-0.5,0c-7.8,1.5-15.8,2.2-23.5,4
	c-0.6,0.1-0.9,0.5-1,0.9c-0.3,0-0.6,0.1-0.9,0.2c-10,6.6-19.3,14.2-29.5,20.5c-0.1,0.1-0.2,0.2-0.3,0.3c-8.3-0.1-16.6-0.9-24.9-1
	c-0.1,0-0.2,0-0.3,0c-5.1-3.3-10.2-6.7-15.5-9.8c-0.7-0.4-1.4-0.2-1.9,0.4c-0.2,0-0.4,0-0.6,0.1c-5.7,2.6-11.5,5-17,8
	c-1.7,0.9-0.2,3.5,1.5,2.6c5.5-3,11.3-5.4,17-8c0.1,0,0.1-0.1,0.2-0.1c5.4,3.2,10.6,6.7,15.8,10.1c0.7,0.5,1.4,0.2,1.8-0.3
	c8.2,0.1,16.3,0.9,24.4,1c0.6,0,1-0.3,1.3-0.7c0,0,0,0,0,0c10.2-6.3,19.5-13.9,29.5-20.5c0.3-0.2,0.5-0.5,0.6-0.8c0.2,0,0.3,0,0.5,0
	c7.3-1.7,14.9-2.4,22.3-3.8c0.5,0.3,1.2,0.4,1.9-0.1l30.2-24.4c6.2,10.5,15.1,18.9,22.7,28.4c0.6,0.8,1.5,0.6,2.1,0
	c0.3,0.3,0.8,0.5,1.4,0.4c9.8-2,19.7-3.5,29.5-5.5C-184.8,555.1-185.6,552.2-187.5,552.6z"/>
<path class="st3" d="M-224.1,459c-16.6-1.7-33.5,10.2-34.5,27.5c-0.7,14,10,28.1,23.8,30c0.6,1.3,1.4,2.7,1.9,3.9
	c1.2,2.3,2.3,5.1,4,7.1c1.1,1.2,2.7,0,2.5-1.3c0,0,0,0,0,0c0.5-2,1.2-3.9,1.9-5.8c0.5-1.3,1.2-3.1,2.1-4.5
	c10.7-1.6,21.5-9.4,24.3-18.6C-192.7,480.3-206.9,460.7-224.1,459z M-238,464.3c0-0.1-0.1-0.2-0.1-0.2c0,0-0.1-0.1-0.1-0.1
	c0.5-0.2,1.1-0.4,1.7-0.6c0,0.1,0,0.1,0,0.2l0.1,0.7C-236.9,464-237.5,464-238,464.3z M-231.8,463c-0.5-0.5-1.3-0.4-1.8,0
	c0-0.1,0-0.1-0.1-0.2c0-0.1,0-0.1-0.1-0.2c1-0.2,2-0.4,3.1-0.6C-231.1,462.2-231.6,462.5-231.8,463z M-222.2,463.1
	c-0.5-0.2-1.2,0-1.6,0.4c-0.2-0.5-0.4-1-0.6-1.4c0-0.1-0.1-0.1-0.1-0.2c0.8,0.1,1.7,0.2,2.5,0.4
	C-222.2,462.5-222.2,462.8-222.2,463.1z"/>
<g class="st2">
	<path class="st9" d="M-243.6,485.6c0.1-0.7,0.3-1.2,0.6-1.3c0.3-0.2,0.3-0.2,0.6,0c0.2,0,0.4,0.2,0.4,0.4s0.3,1.4,0.3,2
		c0,0.1,0.2,0.1,1,0.1c1.1-0.1,1.3,0,1.3,0.4c0,0.4-0.3,0.5-1.3,0.5c-1,0.1-1,0.1-0.9,0.6c0.1,1.3,0.2,2,0.1,2.2
		c-0.1,0.4-1.1,0.6-1.6,0.4c-0.4-0.2-0.4-0.5-0.5-1.7c0-0.7-0.1-1.1-0.1-1.1c-0.1,0-0.4,0-0.8,0.1c-1.2,0.2-1.8,0.1-1.8-0.4
		c0-0.4,0.5-0.5,2-0.7c0.5-0.1,0.5-0.1,0.6-0.5C-243.6,486.3-243.6,485.9-243.6,485.6z"/>
	<path class="st9" d="M-236.8,480.1c0.5-0.5,0.8-0.7,1.3-0.9c0.3-0.1,0.7-0.1,1.2-0.1c0.8-0.1,1,0,1.4,0.4c0.1,0.1,0.3,0.2,0.4,0.2
		c0.2,0,1.2,0.5,1.5,0.8c0.8,0.9,1,2.3,0.3,3.4c-0.1,0.3-0.8,0.9-1,0.9c-0.1,0,0,0.2,0.3,0.4c0.7,0.3,1.6,1.2,1.9,1.9
		c0.7,1.2,0.8,2.4,0.2,3.5c-0.1,0.5-0.7,1.4-0.9,1.7c-1.4,1.6-2.5,2.2-4.1,2.3c-2.1,0.1-3.9-1.3-4.2-3.3c-0.1-0.4-0.2-0.9-0.2-1.2
		c0-1,0.3-2.4,0.7-3.2c0.3-0.5,0.9-1.4,1.2-1.6c0.2-0.3,0.2-0.3-0.1-0.5c-0.6-0.3-0.9-0.9-1.1-1.6c-0.1-0.6-0.1-0.7,0-1.2
		C-237.7,481.3-237.3,480.6-236.8,480.1z M-231.4,489.2c0-1.3-0.7-2.2-2.1-3c-0.4-0.3-0.8-0.5-0.9-0.5c-0.1,0-0.6,0.4-0.7,0.7
		c0,0.1-0.1,0.1-0.1,0.1c0,0-0.1,0.1-0.1,0.2c0,0,0,0.2-0.1,0.3c-0.3,0.6-0.6,2-0.6,2.9s0.3,2,0.6,2.4c0.1,0.1,0.2,0.3,0.3,0.3
		c0.1,0.3,0.6,0.6,0.7,0.5c0.4,0,1.6-1,2.1-1.8c0.1-0.1,0.3-0.5,0.4-0.8c0.1-0.3,0.3-0.5,0.3-0.6
		C-231.5,489.9-231.4,489.6-231.4,489.2z M-233.6,481c-0.5-0.1-1-0.3-1-0.4c0-0.3-0.4,0.3-0.7,0.7c-0.2,0.7-0.3,1.3-0.2,1.8
		c0.1,0.4,0.3,0.7,0.7,0.9c0.3,0.1,0.6,0.1,0.9,0c0.7-0.3,1-1,1-1.7S-233.1,481.2-233.6,481z"/>
	<path class="st9" d="M-227.5,481.7c0-0.8,0.7-1.4,1.9-2c0.5-0.2,0.8-0.2,1.7-0.2c1.1,0,1.7,0.2,2.4,0.9s0.9,1.3,0.9,2.5
		c0.1,1.6-0.5,3.1-1.9,5.1c-1.1,1.9-1.6,2.4-2,3.3c-0.3,0.5-0.5,1-0.4,1c0,0,0.3,0,0.9,0.1c0.4,0,1,0.1,1.2,0.1
		c0.2,0.1,0.2,0.1,0.2-0.3c0-0.2,0-0.4,0.1-0.5c0.2-0.3,0.3-0.3,1.1-0.3c0.8,0,1,0,1.2,0.2c0.8,0.8,0.5,2.1-0.5,2.5
		c-0.7,0.3-1.3,0.3-3.1,0c-1.4-0.2-1.5-0.2-2,0c-1,0.3-2.2,0.1-2.3-0.4c-0.1-0.5,0.4-2.3,1.2-3.6c0.1-0.2,0.3-0.6,0.3-0.6
		s0-0.2,0.1-0.3c1.4-2,2.3-3.7,2.8-5c0.3-0.8,0.2-2,0-2.5c-0.4-0.5-0.5-0.7-1-0.4c-0.4,0.2-0.7,0.5-0.7,0.8c0.1,0.4-0.1,0.7-0.6,0.8
		C-226.8,482.9-227.6,482.4-227.5,481.7z"/>
	<path class="st9" d="M-218.7,480.8c0.1-0.2,0.3-0.4,0.6-0.7c0.5-0.4,0.5-0.4,1.2-0.4c1.2,0,2.2,0.4,2.4,1.1
		c0.1,0.7-0.4,1.7-1.1,2.2c-0.4,0.2-0.4,0.2-1.3,0.2c-1,0-1.2-0.1-1.7-0.4c-0.4-0.3-0.6-1.1-0.4-1.5
		C-218.9,481.3-218.8,481-218.7,480.8z M-213.6,481.8c0.4-0.9,1.2-2,1.6-2.2c0.2-0.1,0.7-0.1,1,0.1c0.1,0.1,0.1,0.4-0.1,1.3
		c-0.2,0.7-1,2.5-1.6,3.9c-0.1,0.2-0.2,0.4-0.2,0.5c0,0.1-0.1,0.4-0.3,0.7c-0.1,0.3-0.1,0.5-0.1,0.5s-0.1,0.2-0.1,0.3
		c-0.1,0.3-0.6,1.5-0.8,2c-0.1,0.2-0.2,0.7-0.4,1c-0.1,0.4-0.4,1.2-0.6,1.8c-0.2,0.6-0.4,1.1-0.4,1.2c0,0.1-0.1,0.3-0.1,0.5
		c-0.2,0.7-0.7,1-1.4,1c-0.5,0-0.8-0.2-0.8-0.6c-0.1-0.2,0.1-0.7,0.2-1.1c0.1-0.1,0.1-0.4,0.2-0.7c0.1-0.2,0.1-0.5,0.2-0.6
		s0.1-0.3,0.1-0.3c0-0.1,0.9-2.5,1.2-3c0.1-0.2,0.2-0.5,0.2-0.7c0.1-0.1,0.1-0.3,0.2-0.4c0-0.1,0.1-0.2,0.1-0.4
		c0.1-0.2,0.1-0.4,0.2-0.6s0.2-0.5,0.5-0.9c0.4-1.2,0.5-1.3,0.9-2.2c0.2-0.4,0.4-0.7,0.4-0.8C-213.8,482.1-213.7,482-213.6,481.8z
		 M-216.5,481.9c0.2-0.4,0.3-0.8,0.1-0.9c0,0-0.2-0.1-0.4-0.1c-0.2,0-0.2,0-0.4,0.2c-0.1,0.3-0.2,0.9,0,1
		C-216.9,482.3-216.8,482.2-216.5,481.9z M-213.7,490.8c0.3-0.1,1.1-0.5,1.4-0.5c0.3-0.1,0.3-0.1,0.7,0c0.3,0.1,0.4,0.1,0.8,0.5
		s0.5,0.6,0.6,1c0.1,0.5,0.1,0.5,0,0.9c-0.1,0.5-0.5,0.8-1,1.1c-0.4,0.1-0.6,0.1-1.1,0.1c-1.7,0-2.6-0.8-2.3-2
		C-214.4,491.5-214,490.9-213.7,490.8z M-211.9,492.5c0.2-0.3,0.2-0.3,0.1-0.6c-0.1-0.1-0.2-0.4-0.4-0.4c-0.1-0.2-0.1-0.2-0.3,0
		c-0.2,0.2-0.4,0.5-0.4,0.8c0,0.4,0.1,0.5,0.5,0.5C-212.1,492.8-212.1,492.8-211.9,492.5z"/>
</g>
</svg>
