<?xml version="1.0" encoding="utf-8"?>
<!-- Generator: Adobe Illustrator 19.0.0, SVG Export Plug-In . SVG Version: 6.00 Build 0)  -->
<svg version="1.1" id="Layer_1" xmlns="http://www.w3.org/2000/svg" xmlns:xlink="http://www.w3.org/1999/xlink" x="0px" y="0px"
	 viewBox="-443 379 305 270" style="enable-background:new -443 379 305 270;" xml:space="preserve">
<style type="text/css">
	.st0{opacity:0.1;fill:#EF4849;enable-background:new    ;}
	.st1{fill:none;stroke:#B0AFB0;stroke-width:1.5;stroke-miterlimit:10;}
	.st2{enable-background:new    ;}
	.st3{fill:#EF4849;}
	.st4{fill:#333333;}
	.st5{fill:#FFFFFF;}
	.st6{fill:#D82629;}
	.st7{fill:#EE2E39;}
	.st8{fill:#EF475A;}
	.st9{opacity:0.5;fill:#F58E95;enable-background:new    ;}
</style>
<rect x="-277.9" y="434.8" class="st0" width="112.5" height="160.8"/>
<line class="st1" x1="-384.9" y1="435.2" x2="-162.9" y2="434.3"/>
<line class="st1" x1="-384.9" y1="514.7" x2="-162.9" y2="515.2"/>
<line class="st1" x1="-384.9" y1="595.2" x2="-162.9" y2="596.3"/>
<g class="st2">
	<path class="st3" d="M-333.9,394.8c2-2.5,5.4-2.5,8.3-3.3c0.6-0.2,1.3,0.3,1.5,0.8c0.3,0.6-0.5,1.1-1,1.2c-1.8,0.6-3.6,0.4-5.3,1.3
		c-0.3,0.1-0.5,0.4-0.4,0.6c1.9,2.9,7,3.9,6,7.7c-0.9,3.3-5.7,3.8-8.5,2.5c-1.3-0.6-0.5-2.3,0.6-2.8c0.6-0.1,0.6,0.8,1.1,0.9
		c0.5,0.1,1,0,1.5,0.3c1,0.5,1.9-0.1,2.8-0.5c0.5-0.4,0.5-1,0.3-1.5c-1.8-2.3-4.4-3.1-6.2-5.4C-333.7,395.9-334.4,395.4-333.9,394.8
		z"/>
	<path class="st3" d="M-323.3,397.4c0.6-0.5,0-1.5,0.7-2c0.6-0.4,1.4-0.5,1.8,0c0.3,0.3,0.1,1.1,0.3,1.1c1.9,0.2,4.6,0.8,4.3,3.1
		c-0.3,3-3.6,2.8-5.6,3.5c-0.4,2.1-0.3,3,0.3,5.1c0,0.1,0.3,0.5,0.5,0.8c0.4,0.9-1.1,0.9-1.7,0.6c-0.9-0.3-0.9-1.5-1-2.4
		c-0.4-3.1,0.2-5.9,0.5-8.9C-323.1,398-323.5,397.7-323.3,397.4z M-321.2,401.3c0.9,0.4,2.6-0.3,2.9-1.8c0.1-0.7-0.3-0.9-0.8-1
		c-0.5-0.2-1.3-0.3-1.6,0C-321.3,399.1-321.7,401-321.2,401.3z"/>
	<path class="st3" d="M-315.5,398.6c0.4-1.3,1.2-2,1.5-2.6c0.6-1.2,2.2-0.9,3,0.1c0.6,0.7,0.9,1.5,1.1,2.3c0.5,1.8-0.4,3.4-1.6,4.6
		c-0.5,0.5-1.7,0.6-2.3,0.2C-315.3,402.3-316,400.4-315.5,398.6z M-312.4,397.8c-0.5-0.5-3,2.6-0.6,3.2
		C-311.3,401.3-311.2,399.1-312.4,397.8z"/>
	<path class="st3" d="M-309.2,392.2c0.2-0.5,1.1-0.8,1.9-0.6c0.1,0.1,0.3,0.4,0.3,0.5c0,2.3-0.3,4.5-0.2,6.7
		c0.1,0.2,0.4,0.1,0.5,0.1c1.1-0.8,2.3-2.2,3.7-1.2c0.6,0.3,0.1,0.9-0.3,1.1c-0.7,0.5-1.7,0.8-2.4,1.5c1.7,1.2,3.1,2.6,4.6,3.9
		c0.3,0.4,0,0.8-0.3,1c-0.4,0.5-1.2,0.5-1.6,0.1c-1.1-1.1-2.4-2.1-3.6-3.1c0,0-0.4-0.3-0.3,0.2c-0.1,0.9,0.3,2,0.2,2.9
		c-0.1,0.9-1.6,0.9-1.8,0.5c-1.1-2.7-0.9-5.8-0.7-8.8C-309.1,395.5-309.8,393.7-309.2,392.2z"/>
	<path class="st3" d="M-296.6,396.2c1.8,0.3,3.4,2,3.4,3.9c-0.4,1.1-2.9,2-3.8,2.9c-0.1,0-0.5,0.3-0.4,0.5c0.8,1.4,2.3,0.8,3.6,0.1
		c0.8,0.6,0.4,2-0.6,2.1c-1,0.2-2.2,0.4-3.3,0c-2.3-1-2.8-3.6-2.9-5.8C-300.5,397.5-298.8,395.8-296.6,396.2z M-295.5,399.5
		c0.5-1.1-1.4-1.7-2.3-1.3c-1,0.5-0.7,2.7-0.2,2.7C-296.9,400.9-295.8,400.6-295.5,399.5z"/>
	<path class="st3" d="M-292.1,397.5c0.3-0.7,1.6-0.7,1.8,0.1c0.2,0.6-0.2,1.1-0.2,1.7c0.1,0.1,0.2,0.4,0.2,0.3
		c0.8-1.3,1.4-2.7,3.1-2.2c1.3,2,1.1,4.6,1.3,6.9c0.1,0.4,0.1,1.1-0.3,1.2c-0.6,0.2-1.5,0.4-1.6-0.2c-0.3-1.9-0.1-3.8-0.5-5.6
		c-1.1,1.3-1.3,3-2.2,4.6c-0.3,0.6-1.3,0.7-1.6,0c-0.3-0.9-0.1-2-0.1-2.9C-292.2,400-292.5,398.5-292.1,397.5z"/>
	<path class="st3" d="M-278.4,396.7c1.3-1.1,2.9-2.8,4.6-2c0.3,0.1,0.5,0.4,0.3,0.9c-0.5,1.4-1.8,1.3-2.9,2.1
		c-0.9,0.7-1.7,1.6-1.8,2.8c0,0.6,0.1,1.5,0.5,2.1c0.5,0.8,1.3,0.9,2.1,1.1c1.2,0.5,2-1.2,3-1.2c1-0.1,0.4,1.4,0.1,1.7
		c-1.1,1.8-3.3,1.5-5.1,1c-2.1-0.6-3.3-2.8-2.9-5C-280.1,398.8-279.4,397.6-278.4,396.7z"/>
	<path class="st3" d="M-266.8,405.9c-1.6-0.3-3.5-0.2-4.4-1.7c-0.6-0.8-0.4-2.5,0.2-3.2c1.9-2.5,5.1-1.7,5.2-1.8
		c0.2-0.3,0.3-1.4-0.2-1.4c-1.4-0.3-2.2,0.3-3.4,0.7c-0.9,0.3-1.1-1.5-0.9-1.7c1.7-1.1,5.1-1.8,6.1,0.4c0.9,2-0.2,3.9-0.3,6
		c-0.1,1.4-0.2,4.5-1.5,3.6C-266.4,406.5-266.4,405.9-266.8,405.9z M-266.1,400.8c-1.3,0.5-3.7,0.1-3.7,2.1c0,1,3.2,1.5,3.4,1.1
		C-266.2,402.8-265.6,402-266.1,400.8z"/>
	<path class="st3" d="M-262.6,392.3c0.4-0.9,2.2-1.1,2.3,0.2c0,0.2-0.1,0.7-0.1,0.9c0,1.6,0.1,3.3,0,4.9c-0.1,2.5,0.6,5.1-0.5,7.3
		c-0.3,0.7-1.1,0.7-1.8,0.3c-0.3-0.2-0.5-0.8-0.3-1.3c0.7-2.3,0.5-4.6,0.6-7C-262.4,395.9-263.4,393.9-262.6,392.3z"/>
	<path class="st3" d="M-258.1,392.3c0.4-0.9,2.2-1.1,2.3,0.2c0,0.2-0.1,0.7-0.1,0.9c0,1.6,0.1,3.3,0,4.9c-0.1,2.5,0.6,5.1-0.5,7.3
		c-0.3,0.7-1.1,0.7-1.8,0.3c-0.3-0.2-0.5-0.8-0.3-1.3c0.7-2.3,0.5-4.6,0.6-7C-257.9,395.9-258.9,393.9-258.1,392.3z"/>
	<path class="st3" d="M-246.8,397.8c0.2,0.3-0.1,1-0.4,1.2c-1.2,0.7-2.8-2-4.5-0.9c-0.7,0.4,0.4,1.5,0.9,1.7c1.4,0.5,2.6,1,3.6,2
		c0.7,0.6,0.4,1.9-0.1,2.7c-1.2,2-5.4,3.1-6.8,0.3c-0.3-0.6,0.4-1.4,1.1-1.4c0.6,0,0.6,0.8,1.1,1c1.1,0.6,3,0,3-1.3
		c0-0.3-0.6-0.8-1.1-1c-1.5-0.7-3.3-1.1-4-2.6c-0.9-1.8,2.7-4,4.3-3.4C-248.8,396.5-247.4,396.7-246.8,397.8z"/>
</g>
<g class="st2">
	<path class="st4" d="M-418,429.9c0-0.6,0.6-1.2,1.3-1.5c0.6-0.2,1.8-0.2,2.5,0c1.1,0.4,1.8,1.3,1.7,2.5c0,0.6-0.2,1.2-0.8,1.7
		c-0.5,0.3-0.5,0.4-0.2,0.5c0.8,0.5,1.4,1.1,1.8,1.9c0.1,0.4,0.1,0.7,0.1,1.2c0,0.6,0,0.8-0.2,1.3c-0.3,0.6-0.8,1.1-1.4,1.4
		s-1,0.4-2.1,0.3c-1.1,0-1.7-0.2-2.2-0.6c-0.5-0.6-0.5-1.4,0.1-2.1c0.3-0.3,0.3-0.2,0.8-0.2s0.6,0,0.7,0.1c0.2,0.3,0.2,0.4,0,0.7
		c-0.2,0.3-0.2,0.6-0.1,0.7c0.1,0.2,0.5,0.3,0.9,0.3c1,0.1,1.7-0.8,1.7-2c0.1-0.6-0.2-1.1-0.5-1.6c-0.5-0.6-0.9-0.8-1.7-0.8
		c-0.6,0-1-0.1-1.1-0.4c-0.1-0.2,0.2-0.6,0.6-0.6s0.6-0.2,1.1-0.6c0.6-0.5,0.7-0.8,0.7-1.2c0.1-0.8-0.5-1.4-1.2-1.4
		c-0.3,0-0.4,0.1-0.6,0.3c-0.2,0.3-0.2,0.3-0.1,0.6c0.2,0.2,0.2,0.3,0.2,0.4c0.1,0.2-0.3,0.4-0.7,0.4
		C-417.4,431-417.9,430.6-418,429.9z"/>
	<path class="st4" d="M-410,430.5c0.7-1.4,1.4-2.2,2.2-2.3c0.1,0,0.6-0.1,0.9-0.1c0.7,0,0.8,0.1,1.2,0.3c0.5,0.3,1.2,0.9,1.4,1.4
		c0,0,0.1,0.2,0.1,0.2c0.1,0,0.5,1.2,0.6,1.6c0.3,0.9,0.3,1.3,0.3,2.3c0,1.5-0.3,2.7-0.9,3.6c-0.8,1.2-1.8,1.7-3.2,1.7
		c-1,0-1.9-0.3-2.5-1c-0.6-0.6-0.9-1.2-1.1-2.2c0-0.4,0-2,0-2.4C-410.7,432.3-410.5,431.5-410,430.5z M-405.9,429.9
		c-0.2-0.3-0.7-0.5-0.9-0.7c-0.2,0-0.4,0-0.6,0c-0.3,0-0.7,0.6-0.9,1.2c0,0.1-0.1,0.3-0.2,0.5c-0.4,0.9-0.7,2.7-0.7,3.9
		c0,0.9,0.2,2,0.4,2.3c0,0,0.1,0.1,0.1,0.1c0,0.1,0.7,0.7,0.9,0.8c0.3,0.1,0.7,0.1,1,0c0.8-0.4,1.4-1.3,1.7-2.8c0-0.4,0-2.5,0-2.9
		C-405.3,431.3-405.6,430.5-405.9,429.9z"/>
	<path class="st4" d="M-401.6,430.5c0.7-1.4,1.4-2.2,2.2-2.3c0.1,0,0.6-0.1,0.9-0.1c0.7,0,0.7,0.1,1.2,0.3c0.5,0.3,1.2,0.9,1.4,1.4
		c0,0,0.1,0.2,0.1,0.2c0.1,0,0.5,1.2,0.6,1.6c0.3,0.9,0.3,1.3,0.3,2.3c0,1.5-0.3,2.7-0.9,3.6c-0.8,1.2-1.8,1.7-3.2,1.7
		c-1,0-1.9-0.3-2.5-1c-0.6-0.6-0.9-1.2-1.1-2.2c0-0.4,0-2,0-2.4C-402.3,432.3-402.1,431.5-401.6,430.5z M-397.5,429.9
		c-0.2-0.3-0.7-0.5-0.9-0.7c-0.2,0-0.4,0-0.6,0c-0.3,0-0.7,0.6-0.9,1.2c0,0.1-0.1,0.3-0.2,0.5c-0.4,0.9-0.7,2.7-0.7,3.9
		c0,0.9,0.2,2,0.4,2.3c0,0,0.1,0.1,0.1,0.1c0,0.1,0.7,0.7,0.9,0.8c0.3,0.1,0.7,0.1,1,0c0.8-0.4,1.4-1.3,1.7-2.8c0-0.4,0-2.5,0-2.9
		C-396.9,431.3-397.2,430.5-397.5,429.9z"/>
</g>
<g class="st2">
	<path class="st4" d="M-412.8,509.3c0.2-0.1,0.5-0.2,0.7-0.4c0.2-0.2,0.4-0.2,0.8-0.2c0.5,0,0.6,0,0.8,0.2c0.2,0.2,0.2,0.2,0.2,2.8
		c0,3.7-0.3,6.8-0.6,7.2c-0.4,0.5-1.1,0.4-1.4-0.1c-0.2-0.3-0.1-0.6-0.1-2.8c0-1.4,0.1-3.3,0.1-4.2c0.1-1.6,0.1-1.6-0.2-1.6
		C-413.2,510.2-413.5,509.6-412.8,509.3z"/>
	<path class="st4" d="M-408.4,509.3c1-0.3,1.7-0.5,2.3-0.5c0.3-0.1,0.7-0.1,0.7-0.1c0.1,0,0.5,0,0.9,0c0.5,0.1,0.8,0.1,1.1,0.3
		c0.6,0.3,0.7,0.7,0.1,1.1c-0.2,0.1-0.3,0.1-1.5,0.1c-1.1-0.1-1.4,0-2.1,0.1c-0.5,0.1-0.9,0.1-0.9,0.1c-0.1,0.1-0.1,0.5-0.1,1.4
		c-0.1,1.2-0.1,1.3,0.1,1.2c0.1,0,0.4-0.1,0.7-0.1c1.8-0.2,3.8,0.5,4.4,1.7c0.1,0.3,0.2,1,0.1,1.5c-0.2,0.9-0.8,1.7-1.7,2.2
		c-0.5,0.4-1,0.6-1.8,0.8c-1.4,0.3-2.9-0.1-3.4-0.9c-0.2-0.3-0.2-0.3-0.2-0.8s0-0.5,0.2-0.7c0.1-0.2,0.2-0.2,0.7-0.2
		c0.5,0,0.6,0,0.7,0.1c0.1,0.1,0.1,0.3,0.1,0.5c0,0.4,0.2,0.7,0.5,0.9c0.2,0.1,0.8,0,1.3-0.3c0.4-0.2,1.1-0.9,1.3-1.3
		c0.2-0.4,0.3-0.9,0.3-1.2c-0.1-0.3-0.4-0.7-1-1c-0.4-0.2-0.5-0.2-1-0.2c-0.5,0-0.7,0.1-1.1,0.2c-0.7,0.3-1.2,0.3-1.6,0.1
		c-0.3-0.2-0.5-0.4-0.4-1.3c0-1.3,0.2-2.5,0.5-3.3C-409,509.5-409,509.5-408.4,509.3z"/>
	<path class="st4" d="M-401,510.8c0.7-1.4,1.4-2.2,2.2-2.3c0.1,0,0.6-0.1,0.9-0.1c0.7,0,0.8,0.1,1.2,0.3c0.5,0.3,1.2,0.9,1.4,1.4
		c0,0,0.1,0.2,0.1,0.2c0.1,0,0.5,1.2,0.6,1.6c0.3,0.9,0.3,1.3,0.3,2.3c0,1.5-0.3,2.7-0.9,3.6c-0.8,1.2-1.8,1.7-3.2,1.7
		c-1,0-1.9-0.3-2.5-1c-0.6-0.6-0.9-1.2-1.1-2.2c0-0.4,0-2,0-2.4C-401.8,512.5-401.5,511.7-401,510.8z M-396.9,510.2
		c-0.2-0.3-0.7-0.5-0.9-0.7c-0.2,0-0.4,0-0.6,0c-0.3,0-0.7,0.6-0.9,1.2c0,0.1-0.1,0.3-0.2,0.5c-0.4,0.9-0.7,2.7-0.7,3.9
		c0,0.9,0.2,2,0.4,2.3c0,0,0.1,0.1,0.1,0.1c0,0.1,0.7,0.7,0.9,0.8c0.3,0.1,0.7,0.1,1,0c0.8-0.4,1.4-1.3,1.7-2.8c0-0.4,0-2.5,0-2.9
		C-396.3,511.6-396.6,510.7-396.9,510.2z"/>
</g>
<g class="st2">
	<path class="st4" d="M-399.9,591.5c0.7-1.4,1.4-2.2,2.2-2.3c0.1,0,0.6-0.1,0.9-0.1c0.7,0,0.8,0.1,1.2,0.3c0.5,0.3,1.2,0.9,1.4,1.4
		c0,0,0.1,0.2,0.1,0.2c0.1,0,0.5,1.2,0.6,1.6c0.3,0.9,0.3,1.3,0.3,2.3c0,1.5-0.3,2.7-0.9,3.6c-0.8,1.2-1.8,1.7-3.2,1.7
		c-1,0-1.9-0.3-2.5-1c-0.6-0.6-0.9-1.2-1.1-2.2c0-0.4,0-2,0-2.4C-400.6,593.3-400.4,592.5-399.9,591.5z M-395.8,590.9
		c-0.2-0.3-0.7-0.5-0.9-0.7c-0.2,0-0.4,0-0.6,0c-0.3,0-0.7,0.6-0.9,1.2c0,0.1-0.1,0.3-0.2,0.5c-0.4,0.9-0.7,2.7-0.7,3.9
		c0,0.9,0.2,2,0.4,2.3c0,0,0.1,0.1,0.1,0.1c0,0.1,0.7,0.7,0.9,0.8c0.3,0.1,0.7,0.1,1,0c0.8-0.4,1.4-1.3,1.7-2.8c0-0.4,0-2.5,0-2.9
		C-395.2,592.3-395.5,591.5-395.8,590.9z"/>
</g>
<path class="st3" d="M-330.2,639.6c-5.1,0.1-10.2,0-15.4,0c-1.9,0-1.9,3,0,3c5.1,0,10.2,0.1,15.4,0
	C-328.3,642.6-328.3,639.6-330.2,639.6z"/>
<g>
	<g class="st2">
		<path class="st4" d="M-319.3,639.9c0.2,0.7,0.2,1.4,0.6,1.9c0.3,0.3,0.5-0.1,0.6-0.2c0.5-0.8,0.6-1.6,1.3-2.2
			c0.4-0.4,0.8-0.5,1.2-0.1c0.8,0.7,0.9,2,1.8,2.6c0.2,0.1,0.4-0.2,0.5-0.4c0.9-1.5,0.2-2.9,0.6-4.2c0.2-0.6,1.4-0.5,1.5,0.4
			c0.2,2,0.2,4.1-1.5,5.3c-0.6,0.4-1.3,0.6-2.1,0.2c-0.7-0.3-1.1-1.5-1.3-1.5c-0.3,0-0.8,1.4-1.4,1.7c-0.7,0.4-1.8,0.5-2.2-0.1
			c-1.5-1.9-1.4-4.4-1.2-6.7c0.1-0.8,1.1-0.9,1.5-0.4C-318.9,637.3-319.6,638.6-319.3,639.9z"/>
		<path class="st4" d="M-307.9,636.4c1.3,0.2,2.5,1.5,2.5,2.9c-0.3,0.8-2.2,1.5-2.8,2.1c-0.1,0-0.4,0.2-0.3,0.4
			c0.6,1,1.7,0.6,2.6,0.1c0.6,0.4,0.3,1.5-0.4,1.6c-0.8,0.1-1.6,0.3-2.4,0c-1.7-0.8-2.1-2.7-2.1-4.3
			C-310.9,637.3-309.6,636.1-307.9,636.4z M-307.1,638.8c0.4-0.9-1-1.3-1.7-0.9c-0.7,0.4-0.5,2-0.1,2
			C-308.2,639.9-307.4,639.6-307.1,638.8z"/>
		<path class="st4" d="M-302.2,636.4c1.3,0.2,2.5,1.5,2.5,2.9c-0.3,0.8-2.2,1.5-2.8,2.1c-0.1,0-0.4,0.2-0.3,0.4
			c0.6,1,1.7,0.6,2.6,0.1c0.6,0.4,0.3,1.5-0.4,1.6c-0.8,0.1-1.6,0.3-2.4,0c-1.7-0.8-2.1-2.7-2.1-4.3
			C-305.1,637.3-303.8,636.1-302.2,636.4z M-301.4,638.8c0.4-0.9-1-1.3-1.7-0.9c-0.7,0.4-0.5,2-0.1,2
			C-302.4,639.9-301.6,639.6-301.4,638.8z"/>
		<path class="st4" d="M-299.3,633.4c0.2-0.4,0.8-0.6,1.4-0.5c0.1,0.1,0.2,0.3,0.2,0.4c0,1.7-0.2,3.3-0.2,5c0.1,0.2,0.3,0.1,0.4,0.1
			c0.8-0.6,1.7-1.6,2.8-0.9c0.5,0.2,0.1,0.7-0.2,0.8c-0.5,0.4-1.2,0.6-1.8,1.1c1.2,0.9,2.3,1.9,3.4,2.9c0.2,0.3,0,0.6-0.2,0.8
			c-0.3,0.4-0.9,0.4-1.2,0.1c-0.8-0.8-1.8-1.5-2.7-2.3c0,0-0.3-0.2-0.2,0.2c-0.1,0.7,0.2,1.4,0.2,2.1c-0.1,0.7-1.2,0.7-1.3,0.4
			c-0.8-2-0.7-4.3-0.5-6.5C-299.2,635.9-299.8,634.5-299.3,633.4z"/>
		<path class="st4" d="M-292.4,633.5c0.3-0.7,1.6-0.8,1.7,0.2c0,0.2-0.1,0.5-0.1,0.7c0,1.2,0.1,2.5,0,3.6c-0.1,1.9,0.4,3.7-0.3,5.4
			c-0.2,0.5-0.8,0.5-1.3,0.3c-0.3-0.2-0.4-0.6-0.3-0.9c0.5-1.7,0.3-3.4,0.4-5.2C-292.2,636.2-293,634.7-292.4,633.5z"/>
		<path class="st4" d="M-289.1,635.9c0.3-0.5,1.2-0.6,1.5,0c0.4,0.8,0.1,1.9,0.3,2.9c0.1,0.3,0.3,0,0.3-0.1c0.5-1.1,0.8-2.3,1.9-2.9
			c0.4-0.2,1.5-0.1,1.1,0.7c-0.9,1.7-2.1,3.3-2.3,5.3c-0.1,1.2-1,3.1-1.8,4.2c-0.6,0.7-2.1,0.8-2.5,0c-0.3-0.5-0.5-1.3,0.1-1.6
			c0.4-0.3,1,0.2,1.1,0.7c1.2-0.9,1-1.2,1.3-2.7c0.2-0.9-0.6-1.7-0.7-2.5c-0.1-0.9-0.3-1.8-0.3-2.7
			C-289.2,636.7-289.4,636.2-289.1,635.9z"/>
		<path class="st4" d="M-277,643.6c-1.2-0.2-2.6-0.2-3.2-1.3c-0.5-0.6-0.3-1.8,0.2-2.4c1.4-1.9,3.8-1.3,3.8-1.3
			c0.2-0.2,0.3-1-0.1-1.1c-1-0.2-1.6,0.2-2.5,0.5c-0.7,0.2-0.8-1.1-0.7-1.3c1.2-0.8,3.8-1.3,4.5,0.3c0.7,1.4-0.1,2.9-0.3,4.5
			c-0.1,1-0.2,3.3-1.1,2.7C-276.8,644-276.8,643.6-277,643.6z M-276.5,639.8c-1,0.4-2.7,0.1-2.7,1.5c0,0.7,2.4,1.1,2.5,0.8
			C-276.6,641.2-276.2,640.7-276.5,639.8z"/>
		<path class="st4" d="M-274.6,637.1c-0.3-1,1.3-1.2,1.6-0.7c0.8,1,0.8,2.4,1.6,3.5c0.9-1.5,1.3-3.2,1.8-4.9c0.2-0.8,1.4-0.6,2-0.1
			c0.1,0.2-0.1,0.4-0.1,0.6c-0.1,0.2-0.4,0.3-0.4,0.5c-0.6,2.2-1.4,4.2-2.4,6.2c-0.2,0.3-1,0.7-1.3,0.3c-0.9-0.8-1.3-1.9-1.7-2.9
			C-273.9,638.8-274.4,637.9-274.6,637.1z"/>
		<path class="st4" d="M-264.3,636.4c1.3,0.2,2.5,1.5,2.5,2.9c-0.3,0.8-2.2,1.5-2.8,2.1c-0.1,0-0.4,0.2-0.3,0.4
			c0.6,1,1.7,0.6,2.6,0.1c0.6,0.4,0.3,1.5-0.4,1.6c-0.8,0.1-1.6,0.3-2.4,0c-1.7-0.8-2.1-2.7-2.1-4.3
			C-267.2,637.3-265.9,636.1-264.3,636.4z M-263.5,638.8c0.4-0.9-1-1.3-1.7-0.9c-0.7,0.4-0.5,2-0.1,2
			C-264.5,639.9-263.7,639.6-263.5,638.8z"/>
		<path class="st4" d="M-261.2,636.1c0.8-0.8,1.9,0.3,1.7,1.4c1-0.2,1.3-1.6,2.5-1.3c0.4,0.2,1,0.4,0.6,0.8c-0.7,1-1.7,1.4-2.4,2.4
			c-0.2,0.3-0.1,0.9-0.3,1.2c-0.2,0.3-0.2,0.7,0.2,1.1s0.3,1.3-0.2,1.7c-0.3,0.5-1.1,0.5-1.4,0.1c-0.3-0.2-0.3-0.4-0.3-0.8
			c0.1-1.4-0.1-2.8-0.3-4.2C-261.1,637.7-261.9,636.7-261.2,636.1z"/>
		<path class="st4" d="M-252.4,643.6c-1.2-0.2-2.6-0.2-3.2-1.3c-0.5-0.6-0.3-1.8,0.2-2.4c1.4-1.9,3.8-1.3,3.8-1.3
			c0.2-0.2,0.3-1-0.1-1.1c-1-0.2-1.6,0.2-2.5,0.5c-0.7,0.2-0.8-1.1-0.7-1.3c1.2-0.8,3.8-1.3,4.5,0.3c0.7,1.4-0.1,2.9-0.3,4.5
			c-0.1,1-0.2,3.3-1.1,2.7C-252.2,644-252.2,643.6-252.4,643.6z M-252,639.8c-1,0.4-2.7,0.1-2.7,1.5c0,0.7,2.4,1.1,2.5,0.8
			C-252,641.2-251.6,640.7-252,639.8z"/>
		<path class="st4" d="M-245,635.8c0.1,0.1,0.4,0.3,0.3,0.5c-1.1,2.3-0.5,4.9-0.3,7.4c0.1,0.9,0.1,1.9-0.8,2.4
			c-1.3,0.7-3.3,0.1-3.8-1.4c-0.2-0.6,0.7-1,1-0.6c0.5,0.5,1,1.5,1.9,1.4c0.2-0.1,0.3-0.3,0.3-0.5c0.3-1.5,0-2.9-0.3-4.4
			c0-0.1,0.2-0.6-0.1-0.4c-0.6,0.4-1.3,0.6-1.9,0.3c-0.5-0.2-0.7-0.6-1-1c-0.4-1-0.3-2,0.6-2.7C-248,635.7-246.4,635-245,635.8z
			 M-248.5,638.3c0.1,0.5,0.3,1.2,0.6,1.2c0.6,0.1,0.8-0.9,1.2-1.4c0.2-0.3,0.3-1,0.1-1.3c-0.2-0.4-1,0-1.4,0.3
			C-248.4,637.4-248.6,637.8-248.5,638.3z"/>
		<path class="st4" d="M-241.4,636.4c1.3,0.2,2.5,1.5,2.5,2.9c-0.3,0.8-2.2,1.5-2.8,2.1c-0.1,0-0.4,0.2-0.3,0.4
			c0.6,1,1.7,0.6,2.6,0.1c0.6,0.4,0.3,1.5-0.4,1.6c-0.8,0.1-1.6,0.3-2.4,0c-1.7-0.8-2.1-2.7-2.1-4.3
			C-244.4,637.3-243.1,636.1-241.4,636.4z M-240.6,638.8c0.4-0.9-1-1.3-1.7-0.9c-0.7,0.4-0.5,2-0.1,2
			C-241.7,639.9-240.9,639.6-240.6,638.8z"/>
	</g>
</g>
<g>
	<g class="st2">
		<path class="st4" d="M-194.9,609.9c0.2,0.7,0.2,1.4,0.6,1.9c0.3,0.3,0.5-0.1,0.6-0.2c0.5-0.8,0.6-1.6,1.3-2.2
			c0.4-0.4,0.8-0.5,1.2-0.1c0.8,0.7,0.9,2,1.8,2.6c0.2,0.1,0.4-0.2,0.5-0.4c0.9-1.5,0.2-2.9,0.6-4.2c0.2-0.6,1.4-0.5,1.5,0.4
			c0.2,2,0.2,4.1-1.5,5.3c-0.6,0.4-1.3,0.6-2.1,0.2c-0.7-0.3-1.1-1.5-1.3-1.5c-0.3,0-0.8,1.4-1.4,1.7c-0.7,0.4-1.8,0.5-2.2-0.1
			c-1.5-1.9-1.4-4.4-1.2-6.7c0.1-0.8,1.1-0.9,1.5-0.4C-194.4,607.3-195.2,608.7-194.9,609.9z"/>
		<path class="st4" d="M-183.5,606.4c1.3,0.2,2.5,1.5,2.5,2.9c-0.3,0.8-2.2,1.5-2.8,2.1c-0.1,0-0.4,0.2-0.3,0.4
			c0.6,1,1.7,0.6,2.6,0.1c0.6,0.4,0.3,1.5-0.4,1.6c-0.8,0.1-1.6,0.3-2.4,0c-1.7-0.8-2.1-2.7-2.1-4.3
			C-186.4,607.4-185.2,606.1-183.5,606.4z M-182.7,608.8c0.4-0.9-1-1.3-1.7-0.9c-0.7,0.4-0.5,2-0.1,2
			C-183.7,609.9-182.9,609.7-182.7,608.8z"/>
		<path class="st4" d="M-177.7,606.4c1.3,0.2,2.5,1.5,2.5,2.9c-0.3,0.8-2.2,1.5-2.8,2.1c-0.1,0-0.4,0.2-0.3,0.4
			c0.6,1,1.7,0.6,2.6,0.1c0.6,0.4,0.3,1.5-0.4,1.6c-0.8,0.1-1.6,0.3-2.4,0c-1.7-0.8-2.1-2.7-2.1-4.3
			C-180.7,607.4-179.4,606.1-177.7,606.4z M-176.9,608.8c0.4-0.9-1-1.3-1.7-0.9c-0.7,0.4-0.5,2-0.1,2
			C-178,609.9-177.2,609.7-176.9,608.8z"/>
		<path class="st4" d="M-174.9,603.5c0.2-0.4,0.8-0.6,1.4-0.5c0.1,0.1,0.2,0.3,0.2,0.4c0,1.7-0.2,3.3-0.2,5c0.1,0.2,0.3,0.1,0.4,0.1
			c0.8-0.6,1.7-1.6,2.8-0.9c0.5,0.2,0.1,0.7-0.2,0.8c-0.5,0.4-1.2,0.6-1.8,1.1c1.2,0.9,2.3,1.9,3.4,2.9c0.2,0.3,0,0.6-0.2,0.8
			c-0.3,0.4-0.9,0.4-1.2,0.1c-0.8-0.8-1.8-1.5-2.7-2.3c0,0-0.3-0.2-0.2,0.2c-0.1,0.7,0.2,1.4,0.2,2.1c-0.1,0.7-1.2,0.7-1.3,0.4
			c-0.8-2-0.7-4.3-0.5-6.5C-174.8,605.9-175.3,604.5-174.9,603.5z"/>
		<path class="st4" d="M-163,607.6c0.1,0.3-0.1,0.7-0.3,0.9c-0.9,0.5-2.1-1.5-3.3-0.7c-0.5,0.3,0.3,1.1,0.6,1.2
			c1,0.4,1.9,0.7,2.7,1.5c0.5,0.5,0.3,1.4-0.1,2c-0.9,1.5-4,2.3-5,0.2c-0.2-0.5,0.3-1,0.8-1c0.4,0,0.5,0.6,0.8,0.8
			c0.8,0.4,2.2,0,2.2-1c0-0.2-0.5-0.6-0.8-0.7c-1.1-0.5-2.4-0.8-3-1.9c-0.7-1.4,2-3,3.1-2.5C-164.4,606.6-163.4,606.8-163,607.6z"/>
	</g>
</g>
<path class="st4" d="M-278.8,582.8c-0.2,1.1-0.2,2.1-0.2,3.2c0,1,1.5,1,1.5,0c0-0.9,0-1.9,0.1-2.8
	C-277.2,582.3-278.6,581.8-278.8,582.8z"/>
<path class="st4" d="M-277.6,575.5c-0.2-0.9-1.7-0.5-1.4,0.4c0.3,1.2,0.1,2.4,0.1,3.6c0,1,1.5,1,1.5,0
	C-277.4,578.1-277.3,576.8-277.6,575.5z"/>
<path class="st4" d="M-279.1,569.3v2.5c0,1,1.5,1,1.5,0v-2.5C-277.6,568.4-279.1,568.4-279.1,569.3z"/>
<path class="st4" d="M-279.3,560v3.3c0,1,1.5,1,1.5,0V560C-277.8,559-279.3,559-279.3,560z"/>
<path class="st4" d="M-279.3,553.8v3c0,1,1.5,1,1.5,0v-3C-277.8,552.9-279.3,552.9-279.3,553.8z"/>
<path class="st4" d="M-279.1,547v3.2c0,1,1.5,1,1.5,0V547C-277.6,546-279.1,546-279.1,547z"/>
<path class="st4" d="M-279.5,541v2.5c0,1,1.5,1,1.5,0V541C-278,540-279.5,540-279.5,541z"/>
<path class="st4" d="M-277.8,536.8c-0.2-0.7-0.1-1.4-0.1-2.1c0-1-1.5-1-1.5,0c0,0.8,0,1.7,0.2,2.5
	C-279,538.1-277.6,537.7-277.8,536.8z"/>
<path class="st4" d="M-278,527.2c0-1-1.5-1-1.5,0c0,1.5-0.1,3,0.2,4.5c0.2,0.9,1.6,0.5,1.4-0.4C-278.1,529.9-278,528.5-278,527.2z"
	/>
<path class="st4" d="M-278,485.2c0-1-1.5-1-1.5,0c0,1.5-0.1,3,0.2,4.5c0.2,0.9,1.6,0.5,1.4-0.4C-278.1,487.9-278,486.5-278,485.2z"
	/>
<path class="st4" d="M-279.1,521.2v2.5c0,1,1.5,1,1.5,0v-2.5C-277.6,520.2-279.1,520.2-279.1,521.2z"/>
<path class="st4" d="M-277.8,513.6c-0.1-1-1.6-0.5-1.4,0.4c0.2,1.1,0.2,2.1,0.3,3.2c0.1,1,1.6,0.5,1.4-0.4
	C-277.6,515.8-277.7,514.7-277.8,513.6z"/>
<path class="st4" d="M-278,507c-0.3-0.9-1.7-0.5-1.4,0.4c0.3,1,0.3,2.1,0.5,3.1c0.1,0.9,1.6,1,1.5,0
	C-277.6,509.3-277.6,508.1-278,507z"/>
<path class="st4" d="M-277.5,503.3c-0.2-0.7-0.1-1.5-0.1-2.3c0-1-1.5-1-1.5,0c0,0.9,0,1.8,0.2,2.7
	C-278.7,504.6-277.3,504.2-277.5,503.3z"/>
<path class="st4" d="M-277.6,494c0-1-1.5-1-1.5,0c0,1.1,0,2.2,0.2,3.4c0.1,1,1.6,0.5,1.4-0.4C-277.6,496-277.6,495-277.6,494z"/>
<path class="st4" d="M-278.8,470.8v3.8c0,1,1.5,1,1.5,0v-3.8C-277.3,469.9-278.8,469.9-278.8,470.8z"/>
<path class="st4" d="M-279,464.5v2.5c0,1,1.5,1,1.5,0v-2.5C-277.5,463.5-279,463.5-279,464.5z"/>
<path class="st4" d="M-279,479.5v2.5c0,1,1.5,1,1.5,0v-2.5C-277.5,478.5-279,478.5-279,479.5z"/>
<path class="st4" d="M-278.8,457.3c-0.3,1.2-0.4,2.5-0.2,3.7c0.1,0.9,1.6,1,1.5,0c-0.1-1.1-0.1-2.2,0.1-3.3
	C-277.1,456.8-278.5,456.4-278.8,457.3z"/>
<path class="st4" d="M-278.4,451.7c0,0.8,0,1.5-0.1,2.3c-0.2,0.9,1.3,1.3,1.4,0.4c0.2-0.9,0.2-1.8,0.2-2.7
	C-276.9,450.7-278.4,450.7-278.4,451.7z"/>
<path class="st4" d="M-278.8,445.8v1.7c0,1,1.5,1,1.5,0v-1.7C-277.3,444.9-278.8,444.9-278.8,445.8z"/>
<path class="st4" d="M-278.8,438c-0.2,1.1-0.2,2.2-0.2,3.4c0,1,1.5,1,1.5,0c0-1,0-2,0.1-3C-277.2,437.4-278.6,437-278.8,438z"/>
<path class="st4" d="M-277.1,430.8c0-0.3-0.1-0.5-0.3-0.6v-2.1c0-1-1.5-1-1.5,0v5.3c0,0.9,1.3,1,1.5,0.2c0.1-0.1,0.2-0.3,0.2-0.5
	C-277.3,432.4-277.1,431.6-277.1,430.8z"/>
<path class="st4" d="M-277.8,591.8c0-1-1.5-1-1.5,0v6.3c0,0.5,0.4,0.7,0.8,0.7c0.5,0.1,1.1-0.3,1-0.9
	C-277.8,595.9-277.8,593.9-277.8,591.8z"/>
<g>
	<g class="st2">
		<path class="st4" d="M-255.7,422.9c0.2,0.7,0.2,1.4,0.6,1.9c0.3,0.3,0.5-0.1,0.6-0.2c0.5-0.8,0.6-1.6,1.3-2.2
			c0.4-0.4,0.8-0.5,1.2-0.1c0.8,0.7,0.9,2,1.8,2.6c0.2,0.1,0.4-0.2,0.5-0.4c0.8-1.5,0.2-2.9,0.6-4.2c0.2-0.6,1.4-0.5,1.5,0.4
			c0.2,2,0.2,4.1-1.5,5.3c-0.6,0.4-1.3,0.6-2.1,0.2c-0.7-0.3-1.1-1.5-1.3-1.5c-0.3,0-0.8,1.4-1.4,1.7c-0.7,0.4-1.8,0.5-2.2-0.1
			c-1.5-1.9-1.4-4.4-1.2-6.7c0.1-0.8,1.1-0.9,1.5-0.4C-255.3,420.3-256,421.7-255.7,422.9z"/>
		<path class="st4" d="M-246.6,420.6c0.2-0.4,0.8-0.6,1.3-0.4c0.3,0.1,0.7,0.5,0.4,0.8c-0.5,0.7-0.2,1.5-0.4,2.2
			c-0.3,0.8,0.2,1.6,0,2.4c0,0.1-0.1,0.2-0.2,0.2c-0.5,0.2-1.2,0.2-1.3-0.3c-0.3-1-0.1-2-0.1-3
			C-246.9,421.9-246.9,421.2-246.6,420.6z M-246.3,417.5c0.5-0.3,1.2-0.3,1.5,0.2c0.3,0.5-0.2,1.2-0.5,1.4c-0.4,0.2-0.9,0.1-1.3-0.3
			C-246.8,418.4-246.5,417.6-246.3,417.5z"/>
		<path class="st4" d="M-241.4,417.5c0.1-0.8,1.2-0.8,1.8-0.4c0.1,0.1,0.2,0.3,0.1,0.6c-0.5,1.1-0.7,2.3-0.7,3.5
			c0.9-0.1,2.7-0.5,2.4,0.6c-0.3,0.8-1.8,0.7-2.7,0.7c-0.2,1.1,0.4,5.7,0.3,6.8c0,0.3-0.3,0.6-0.6,0.6c-0.4,0-0.6-0.1-0.7-0.5
			c-0.4-1-0.3-5.9-0.7-6.8c-0.6,0.5-1.9,0.9-2.2,0c-0.1-0.2,0.2-0.6,0.4-0.7c0.6-0.3,1.6-0.2,2-0.7c0.3-0.4,0.2-1.2,0.3-1.7
			C-241.6,418.6-241.5,418.1-241.4,417.5z"/>
		<path class="st4" d="M-237,418.6c0.1-0.3,0.7-0.6,1.2-0.3c0.2,0.1,0.2,0.4,0.2,0.7c-0.1,1.3-0.4,2.5,0,3.8c0.6-1,1.6-2.2,2.8-1.6
			c0.4,1.8,0.9,3.6,0.7,5.3c0,0.4-0.9,0.6-1.2,0.3c-0.9-1.1-0.1-2.8-0.8-4.1c-0.8,0.8-1.4,1.7-1.9,2.8c-0.1,0.2-0.6,0.4-0.9,0.4
			c-0.1-0.1-0.6-0.1-0.6-0.3c0-1.3,0.1-2.5,0.2-3.8C-237,420.7-237.5,419.5-237,418.6z"/>
		<path class="st4" d="M-228.6,418.4c1.5-1.9,4-1.9,6.1-2.4c0.5-0.1,1,0.2,1.1,0.6c0.2,0.5-0.4,0.8-0.7,0.9
			c-1.3,0.5-2.7,0.3-3.9,0.9c-0.2,0.1-0.4,0.3-0.3,0.5c1.4,2.1,5.2,2.9,4.5,5.7c-0.6,2.4-4.2,2.8-6.3,1.9c-1-0.4-0.4-1.7,0.5-2
			c0.5-0.1,0.5,0.6,0.8,0.7c0.4,0.1,0.7,0,1.1,0.2c0.7,0.4,1.4-0.1,2-0.4c0.4-0.3,0.4-0.7,0.2-1.1c-1.3-1.7-3.2-2.3-4.6-4
			C-228.5,419.2-229,418.8-228.6,418.4z"/>
		<path class="st4" d="M-217.5,426.6c-1.2-0.2-2.6-0.2-3.2-1.3c-0.5-0.6-0.3-1.8,0.2-2.4c1.4-1.9,3.8-1.3,3.8-1.3
			c0.2-0.2,0.3-1-0.1-1.1c-1-0.2-1.6,0.2-2.5,0.5c-0.7,0.2-0.8-1.1-0.7-1.3c1.2-0.8,3.8-1.3,4.5,0.3c0.7,1.4-0.1,2.9-0.3,4.5
			c-0.1,1-0.2,3.3-1.1,2.7C-217.2,427-217.3,426.6-217.5,426.6z M-217,422.8c-1,0.4-2.7,0.1-2.7,1.5c0,0.7,2.4,1.1,2.5,0.8
			C-217.1,424.3-216.7,423.7-217,422.8z"/>
		<path class="st4" d="M-214.4,416.5c0.3-0.7,1.6-0.8,1.7,0.2c0,0.2-0.1,0.5-0.1,0.7c0,1.2,0.1,2.5,0,3.6c-0.1,1.9,0.4,3.7-0.3,5.4
			c-0.2,0.5-0.8,0.5-1.3,0.3c-0.3-0.2-0.4-0.6-0.3-0.9c0.5-1.7,0.3-3.4,0.4-5.2C-214.3,419.2-215,417.7-214.4,416.5z"/>
		<path class="st4" d="M-208.7,419.4c1.3,0.2,2.5,1.5,2.5,2.9c-0.3,0.8-2.2,1.5-2.8,2.1c-0.1,0-0.4,0.2-0.3,0.4
			c0.6,1,1.7,0.6,2.6,0.1c0.6,0.4,0.3,1.5-0.4,1.6c-0.8,0.1-1.6,0.3-2.4,0c-1.7-0.8-2.1-2.7-2.1-4.3
			C-211.6,420.4-210.4,419.1-208.7,419.4z M-207.9,421.8c0.4-0.9-1-1.3-1.7-0.9c-0.7,0.4-0.5,2-0.1,2
			C-208.9,422.9-208.2,422.7-207.9,421.8z"/>
		<path class="st4" d="M-206,418.4c1.5-1.9,4-1.9,6.1-2.4c0.5-0.1,1,0.2,1.1,0.6c0.2,0.5-0.4,0.8-0.7,0.9c-1.3,0.5-2.7,0.3-3.9,0.9
			c-0.2,0.1-0.4,0.3-0.3,0.5c1.4,2.1,5.2,2.9,4.5,5.7c-0.6,2.4-4.2,2.8-6.3,1.9c-1-0.4-0.4-1.7,0.5-2c0.5-0.1,0.5,0.6,0.8,0.7
			c0.4,0.1,0.7,0,1.1,0.2c0.7,0.4,1.4-0.1,2-0.4c0.4-0.3,0.4-0.7,0.2-1.1c-1.3-1.7-3.2-2.3-4.6-4
			C-205.8,419.2-206.4,418.8-206,418.4z"/>
		<path class="st4" d="M-197.7,420.6c0.2-0.4,0.8-0.6,1.3-0.4c0.3,0.1,0.7,0.5,0.4,0.8c-0.5,0.7-0.2,1.5-0.4,2.2
			c-0.3,0.8,0.2,1.6,0,2.4c0,0.1-0.1,0.2-0.2,0.2c-0.5,0.2-1.2,0.2-1.3-0.3c-0.3-1-0.1-2-0.1-3C-198,421.9-198,421.2-197.7,420.6z
			 M-197.3,417.5c0.5-0.3,1.2-0.3,1.5,0.2c0.3,0.5-0.2,1.2-0.5,1.4c-0.4,0.2-0.9,0.1-1.3-0.3C-197.8,418.4-197.6,417.6-197.3,417.5z
			"/>
		<path class="st4" d="M-193.7,419.8c1,0.3,0,1.6,0.5,2.3c1-0.9,1.2-3.2,3-2.5c0.1,0.1,0.3,0.3,0.3,0.3c0.2,0.7,0.1,1.4,0.3,2
			c0.9-0.9,1.8-2.4,3.2-1.9c0.4,0.3,0.3,0.8,0.3,1.3c0.3,2,0.3,4-0.4,6c-0.2,0.6-1,0.7-1.6,0.3c-0.1,0-0.2-0.3-0.1-0.6
			c0.6-1.6,0.6-3.4,0.3-5.1c0-0.3-0.3,0-0.4,0.2c-0.7,1.1-1.2,2.3-1.6,3.5c-0.3,0.5-1.3,1-1.8,0.3c-0.5-1,0.3-2.4-0.1-3.5
			c-0.7,1.2-1,2.4-1.8,3.5c-0.4,0.5-1.3,0.5-1.5,0c-0.5-1.2-0.1-2.7-0.3-4C-195.4,420.7-195,419.4-193.7,419.8z"/>
	</g>
</g>
<path class="st3" d="M-177.3,527.4c-10.5,2.8-20.7,6.5-30.7,10.7c-7.2-10.1-15-19.7-23.2-29c-0.5-0.6-1.1-0.6-1.6-0.3
	c-0.1,0-0.1,0-0.2,0.1c-11.7,6.4-23.1,13-35,19c-0.7,0.4-0.9,1-0.7,1.6c-0.1,0.1-0.1,0.2-0.2,0.3c-6.2,10.7-11.2,22.1-18.7,32
	c-0.1,0.2-0.2,0.4-0.3,0.5c-10.3-1.6-20.7-0.1-31.1-1.3c-0.6-0.1-1.1,0.2-1.3,0.6c-7.4,4.5-15.9,6.7-23.6,10.6
	c-7.2-6.2-14.7-12.1-22.1-18.2c-1-0.8-2.3-0.1-2.6,0.8c-5,3.6-10,7.4-15.2,10.6c-1.6,1-0.1,3.6,1.5,2.6c5.3-3.2,10.3-7.1,15.3-10.7
	c0.1,0,0.1-0.1,0.2-0.2c7.1,5.8,14.3,11.6,21.3,17.6c0.4,0.4,0.9,0.4,1.3,0.3c0.3,0.1,0.8,0.1,1.2-0.1c7.9-4.1,16.7-6.4,24.3-11
	c0,0,0.1-0.1,0.1-0.1c10.1,1,20.3-0.5,30.4,1.2c1,0.2,1.7-0.6,1.9-1.4c0.4,0,0.9-0.2,1.2-0.6c7.5-9.9,12.5-21.3,18.7-32
	c0.2-0.3,0.2-0.7,0.2-1c11.4-5.7,22.4-12.1,33.5-18.2c8.1,9.1,15.7,18.6,22.7,28.5c0.4,0.5,0.9,0.7,1.5,0.6c0.3,0.1,0.6,0,0.9-0.1
	c10.1-4.3,20.4-8,31-10.8C-174.6,529.8-175.4,526.9-177.3,527.4z"/>
<path class="st3" d="M-200.5,451.1c-6.6-8-20.7-10.6-30.6-6.6c-8.7,2-17.1,8.4-20.5,16.7c-3.8,9.1,0.5,20.7,5.7,28.3
	c4.7,7,12,11.5,20.1,11.2c0.9,2.9,2,5.7,3.2,8.6c0.5,1.1,2,0.8,2.6,0c2.1-3,3.8-6.2,4.9-9.6c3.5-0.4,6.9-1.3,9.9-2.7
	c8.8-4,12.9-14.6,14-23.5C-189.9,463.5-193.9,455.9-200.5,451.1z M-238.3,455.4c-0.1-0.1-0.2-0.1-0.3-0.2c0.4-0.4,0.8-0.8,1.2-1.2
	C-237.7,454.5-238,455-238.3,455.4z M-204.6,493.1c0.5-0.6,1-1.3,1.5-1.9c0.2,0.1,0.4,0.2,0.6,0.2
	C-203.2,492.1-203.9,492.6-204.6,493.1z M-197.6,485c0.1-0.4,0.1-0.8,0-1.2c0.3-0.2,0.6-0.3,0.8-0.5
	C-197.1,483.8-197.3,484.4-197.6,485z M-197.4,479.9c0.5-0.9,0.9-1.8,1.3-2.7c0.2-0.5,0.2-0.9,0.1-1.2c0.1-0.2,0.2-0.4,0.4-0.7
	C-195.8,477.1-196.4,478.7-197.4,479.9z"/>
<g class="st2">
	<path class="st5" d="M-240.2,469.6c0.1-0.7,0.3-1.2,0.6-1.3c0.3-0.2,0.3-0.2,0.6,0c0.2,0,0.4,0.2,0.4,0.4s0.3,1.4,0.3,2
		c0,0.1,0.2,0.1,1,0.1c1.1-0.1,1.3,0,1.3,0.4c0,0.4-0.3,0.5-1.3,0.5c-1,0.1-1,0.1-0.9,0.6c0.1,1.3,0.2,2,0.1,2.2
		c-0.1,0.4-1.1,0.6-1.6,0.4c-0.4-0.2-0.4-0.5-0.5-1.7c0-0.7-0.1-1.1-0.1-1.1c-0.1,0-0.4,0-0.8,0.1c-1.2,0.2-1.8,0.1-1.8-0.4
		c0-0.4,0.5-0.5,2-0.7c0.5-0.1,0.5-0.1,0.6-0.5C-240.2,470.3-240.2,469.9-240.2,469.6z"/>
	<path class="st5" d="M-234.5,464.4c0.2-0.1,0.7-0.3,1-0.5c0.3-0.2,0.6-0.2,1.1-0.2c0.7,0,0.8,0,1.1,0.2c0.3,0.3,0.3,0.3,0.3,3.9
		c0,5.2-0.5,9.5-0.9,10.1c-0.6,0.7-1.6,0.6-1.9-0.1c-0.2-0.4-0.2-0.8-0.1-3.9c0-2,0.1-4.6,0.1-5.9c0.1-2.2,0.1-2.2-0.3-2.2
		C-235.2,465.6-235.5,464.8-234.5,464.4z"/>
	<path class="st5" d="M-220.8,473.8c-0.7,2.5-2.2,4-4.2,4.5c-0.5,0.1-1.7,0-2.3-0.2c-0.6-0.3-1.3-0.8-1.5-1.4
		c-0.1-0.3-0.1-0.4,0-0.7c0.1-0.4,0.4-0.5,0.9-0.5c0.5,0,0.6,0.2,0.9,0.7c0.4,0.5,0.8,0.7,1.3,0.7c0.5-0.2,1.2-0.8,1.6-1.4
		c0.5-0.7,1.1-2.4,1.2-3.7c0.1-0.5,0.1-0.5-0.2-0.4c-0.5,0.2-1.6,0.3-2.5,0.3c-2.6,0-4.3-1.1-4.6-3c-0.2-1,0.1-1.9,0.7-3
		c0.6-1,2-1.9,3.2-2.2c0.6-0.1,2.1,0,2.7,0.1c0.5,0.2,1.4,0.8,1.8,1.4c0.9,1.3,1.3,2.7,1.4,4.8
		C-220.3,471.3-220.5,472.4-220.8,473.8z M-227.3,467.1c-0.5,1-0.3,2.2,0.5,2.8c0.3,0.3,0.4,0.3,1.2,0.3c1,0.1,1.6-0.1,2.3-0.7
		c0.3-0.2,0.5-0.4,0.5-0.4c0-0.5-0.6-2.4-0.9-2.9c-0.5-0.5-1-0.9-1.2-0.9C-225.8,465-226.9,466-227.3,467.1z"/>
	<path class="st5" d="M-219.1,465.7c0-0.8,0.7-1.4,1.9-2c0.5-0.2,0.8-0.2,1.7-0.2c1.1,0,1.7,0.2,2.4,0.9s0.9,1.3,0.9,2.5
		c0.1,1.6-0.5,3.1-1.9,5.1c-1.1,1.9-1.6,2.4-2,3.3c-0.3,0.5-0.5,1-0.4,1c0,0,0.3,0,0.9,0.1c0.4,0,1,0.1,1.2,0.1
		c0.2,0.1,0.2,0.1,0.2-0.3c0-0.2,0-0.4,0.1-0.5c0.2-0.3,0.3-0.3,1.1-0.3c0.8,0,1,0,1.2,0.2c0.8,0.8,0.5,2.1-0.5,2.5
		c-0.7,0.3-1.3,0.3-3.1,0c-1.4-0.2-1.5-0.2-2,0c-1,0.3-2.2,0.1-2.3-0.4c-0.1-0.5,0.4-2.3,1.2-3.6c0.1-0.2,0.3-0.6,0.3-0.6
		s0-0.2,0.1-0.3c1.4-2,2.3-3.7,2.8-5c0.3-0.8,0.2-2,0-2.5c-0.4-0.5-0.5-0.7-1-0.4c-0.4,0.2-0.7,0.5-0.7,0.8c0.1,0.4-0.1,0.7-0.6,0.8
		C-218.4,466.9-219.2,466.4-219.1,465.7z"/>
	<path class="st5" d="M-210.2,464.8c0.1-0.2,0.3-0.4,0.6-0.7c0.5-0.4,0.5-0.4,1.2-0.4c1.2,0,2.2,0.4,2.4,1.1
		c0.1,0.7-0.4,1.7-1.1,2.2c-0.4,0.2-0.4,0.2-1.3,0.2c-1,0-1.2-0.1-1.7-0.4c-0.4-0.3-0.6-1.1-0.4-1.5
		C-210.5,465.3-210.4,465-210.2,464.8z M-205.2,465.8c0.4-0.9,1.2-2,1.6-2.2c0.2-0.1,0.7-0.1,1,0.1c0.1,0.1,0.1,0.4-0.1,1.3
		c-0.2,0.7-1,2.5-1.6,3.9c-0.1,0.2-0.2,0.4-0.2,0.5c0,0.1-0.1,0.4-0.3,0.7c-0.1,0.3-0.1,0.5-0.1,0.5s-0.1,0.2-0.1,0.3
		c-0.1,0.3-0.6,1.5-0.8,2c-0.1,0.2-0.2,0.7-0.4,1c-0.1,0.4-0.4,1.2-0.6,1.8c-0.2,0.6-0.4,1.1-0.4,1.2c0,0.1-0.1,0.3-0.1,0.5
		c-0.2,0.7-0.7,1-1.4,1c-0.5,0-0.8-0.2-0.8-0.6c-0.1-0.2,0.1-0.7,0.2-1.1c0.1-0.1,0.1-0.4,0.2-0.7c0.1-0.2,0.1-0.5,0.2-0.6
		s0.1-0.3,0.1-0.3c0-0.1,0.9-2.5,1.2-3c0.1-0.2,0.2-0.5,0.2-0.7c0.1-0.1,0.1-0.3,0.2-0.4c0-0.1,0.1-0.2,0.1-0.4
		c0.1-0.2,0.1-0.4,0.2-0.6s0.2-0.5,0.5-0.9c0.4-1.2,0.5-1.3,0.9-2.2c0.2-0.4,0.4-0.7,0.4-0.8C-205.3,466.1-205.3,466-205.2,465.8z
		 M-208.1,465.9c0.2-0.4,0.3-0.8,0.1-0.9c0,0-0.2-0.1-0.4-0.1c-0.2,0-0.2,0-0.4,0.2c-0.1,0.3-0.2,0.9,0,1
		C-208.5,466.3-208.3,466.2-208.1,465.9z M-205.3,474.8c0.3-0.1,1.1-0.5,1.4-0.5c0.3-0.1,0.3-0.1,0.7,0c0.3,0.1,0.4,0.1,0.8,0.5
		s0.5,0.6,0.6,1c0.1,0.5,0.1,0.5,0,0.9c-0.1,0.5-0.5,0.8-1,1.1c-0.4,0.1-0.6,0.1-1.1,0.1c-1.7,0-2.6-0.8-2.3-2
		C-206,475.5-205.6,474.9-205.3,474.8z M-203.5,476.5c0.2-0.3,0.2-0.3,0.1-0.6c-0.1-0.1-0.2-0.4-0.4-0.4c-0.1-0.2-0.1-0.2-0.3,0
		c-0.2,0.2-0.4,0.5-0.4,0.8c0,0.4,0.1,0.5,0.5,0.5C-203.6,476.8-203.6,476.8-203.5,476.5z"/>
</g>
<g>
	<path class="st6" d="M-268,608c0-0.3-0.2-0.4-0.4-0.3c-2.9-1.9-6-3.4-9-5c0,0,0,0,0,0c0-0.5-0.7-0.5-0.7,0c0,3.7,0.2,7.4,0.2,11.1
		c0,0.1,0.1,0.2,0.1,0.3c0,0.1,0,0.2,0.2,0.3c2.9,1.6,6,2.9,8.6,5c0.1,0,0.1,0.1,0.2,0.1c0.1,0.4,0.7,0.4,0.7-0.1
		c-0.1-2,0-4-0.1-5.9c0-0.1,0.1-0.1,0.1-0.2C-268.1,611.5-268,609.8-268,608z"/>
	<path class="st7" d="M-278.8,613.1c-0.5-3.2,0.1-6.4-0.2-9.6c0,0,0-0.1,0-0.1c0,0,0,0,0,0c0.4-0.3-0.2-0.8-0.5-0.5
		c-2.6,2.1-5.9,3.6-8.7,5.2c0,0-0.1,0.1-0.1,0.1c-0.1,0-0.2,0.1-0.3,0.2c-0.1,0.1-0.2,0.2-0.2,0.3c0,0.2,0.1,0.3,0.1,0.5v10
		c0,0.4,0.6,0.5,0.7,0.1c0.1,0,0.1,0,0.2-0.1c2.6-2.1,5.6-3.7,8.4-5.5c0.1-0.1,0.1-0.1,0.2-0.2C-279,613.6-278.7,613.4-278.8,613.1z
		"/>
	<path class="st8" d="M-269.2,620c-1.1-0.9-2.5-1.4-3.8-2c-1.8-0.8-3.3-2.2-5.1-3.1c-0.1,0-0.1,0-0.2,0c-0.1-0.1-0.3-0.2-0.5-0.1
		c-0.1,0-0.1,0.1-0.1,0.2c-0.1,0-0.2,0-0.3,0c-2.6,1.7-5.3,3.2-8.1,4.7c-0.1,0.1-0.2,0.2-0.2,0.3c-0.3,0-0.5,0.5-0.2,0.7
		c3,1.7,6.1,3.4,8.9,5.4c0.2,0.2,0.5,0,0.5-0.2c0.1,0.1,0.2,0.1,0.3,0c2.7-1.9,6-2.8,8.4-5.1c0.1-0.1,0.1-0.1,0.1-0.2
		C-269.1,620.5-268.9,620.2-269.2,620z"/>
	<path class="st9" d="M-271.1,609.9c-1.9-2-4.9-2.5-7.2-4c-0.1-0.1-0.2-0.1-0.3,0c-0.1,0-0.1,0-0.2,0c-2.1,1.1-4.1,2.5-6.2,3.5
		c-0.1,0-0.1,0.1-0.1,0.1c-0.1,0-0.1,0-0.2,0c-0.5-0.1-0.7,0.6-0.2,0.7c0.2,0,0.4,0.1,0.6,0.2c0,0,0.1,0.1,0.1,0.1
		c0.7,0.3,1.4,0.6,2.1,0.9c1.3,0.8,2.5,1.8,3.9,2.3c0,0,0,0,0,0c0.1,0.1,0.2,0.1,0.2,0.1c0,0,0,0,0,0c0.1,0.1,0.2,0.1,0.2,0.2
		c0.1,0.2,0.3,0.4,0.5,0.3c2.1-1.2,4.1-2.6,6.2-3.9c0,0,0,0,0,0C-271.3,610.7-270.8,610.2-271.1,609.9z"/>
	<path class="st9" d="M-285.7,610.7c-0.7,2.7,0.5,5.5,0.3,8.2c0,0.1,0,0.2,0.1,0.3c0,0.1,0.1,0.1,0.1,0.1c2.1,1.2,4.2,2.2,6.3,3.5
		c0.1,0,0.1,0.1,0.2,0.1c0,0.1,0,0.1,0.1,0.2c0.2,0.4,0.9,0.2,0.7-0.2c-0.1-0.2-0.1-0.4-0.2-0.6c0,0,0-0.1,0-0.2
		c-0.1-0.8-0.2-1.5-0.3-2.3c0-1.5,0.2-3-0.1-4.6c0,0,0,0,0,0c0-0.1,0-0.2-0.1-0.2c0,0,0,0,0,0c0-0.1,0-0.2,0-0.3
		c0.2-0.2,0.2-0.5-0.1-0.6c-2.1-1.1-4.4-2.1-6.5-3.2c0,0,0,0,0,0C-284.9,610.4-285.6,610.2-285.7,610.7z"/>
	<path class="st9" d="M-277.4,623.3c2.6-0.8,4.4-3.4,6.7-4.7c0.1-0.1,0.2-0.2,0.2-0.2c0-0.1,0.1-0.1,0.1-0.2
		c-0.1-2.4-0.4-4.8-0.5-7.2c0-0.1,0-0.1-0.1-0.2c0-0.1,0.1-0.1,0.1-0.1c0.3-0.4-0.3-0.9-0.6-0.5c-0.1,0.2-0.3,0.3-0.4,0.5
		c0,0-0.1,0-0.1,0.1c-0.6,0.5-1.2,1-1.8,1.5c-1.3,0.8-2.7,1.5-3.8,2.5c0,0,0,0,0,0c-0.1,0-0.1,0.1-0.1,0.2c0,0,0,0,0,0
		c-0.1,0-0.2,0.1-0.3,0.1c-0.2,0-0.5,0.1-0.5,0.4c0.2,2.4,0.6,4.8,0.8,7.2c0,0,0,0,0,0C-278.1,622.8-277.8,623.5-277.4,623.3z"/>
</g>
</svg>
