<?xml version="1.0" encoding="utf-8"?>
<!-- Generator: Adobe Illustrator 19.0.0, SVG Export Plug-In . SVG Version: 6.00 Build 0)  -->
<svg version="1.1" id="Layer_1" xmlns="http://www.w3.org/2000/svg" xmlns:xlink="http://www.w3.org/1999/xlink" x="0px" y="0px"
	 viewBox="-443 379 305 270" style="enable-background:new -443 379 305 270;" xml:space="preserve">
<style type="text/css">
	.st0{opacity:0.1;fill:#EF4849;enable-background:new    ;}
	.st1{fill:none;stroke:#B0AFB0;stroke-width:1.5;stroke-miterlimit:10;}
	.st2{enable-background:new    ;}
	.st3{fill:#EF4849;}
	.st4{fill:#333333;}
	.st5{fill:#FFFFFF;}
	.st6{fill:#D82629;}
	.st7{fill:#EE2E39;}
	.st8{fill:#EF475A;}
	.st9{opacity:0.5;fill:#F58E95;enable-background:new    ;}
</style>
<rect x="-282.9" y="434.8" class="st0" width="112.5" height="160.8"/>
<line class="st1" x1="-389.9" y1="435.2" x2="-168" y2="434.3"/>
<line class="st1" x1="-389.9" y1="514.7" x2="-168" y2="515.2"/>
<line class="st1" x1="-389.9" y1="595.2" x2="-168" y2="596.3"/>
<g class="st2">
	<path class="st3" d="M-350.1,393.8c2-2.5,5.4-2.5,8.3-3.3c0.6-0.2,1.3,0.3,1.5,0.8c0.3,0.6-0.5,1.1-1,1.2c-1.8,0.6-3.6,0.4-5.3,1.3
		c-0.3,0.1-0.5,0.4-0.4,0.6c1.9,2.9,7,3.9,6,7.7c-0.9,3.3-5.7,3.8-8.5,2.5c-1.3-0.6-0.5-2.3,0.6-2.8c0.6-0.1,0.6,0.8,1.1,0.9
		c0.5,0.1,1,0,1.5,0.3c1,0.5,1.9-0.1,2.8-0.5c0.5-0.4,0.5-1,0.3-1.5c-1.8-2.3-4.4-3.1-6.2-5.4C-349.9,394.9-350.7,394.4-350.1,393.8
		z"/>
	<path class="st3" d="M-339.1,394.8c0.8-0.3,2-0.1,2,0.7c0,1.5-0.2,3,0,4.5c0.2,0.9,0.5,3.1,1.4,2.5c2-1.4,2.5-4.5,1.1-6.7
		c-0.3-0.6-0.7-1.5-0.1-1.7c1.6-0.7,2.8,1.4,2.9,2.8c0.2,2.8-0.6,6.2-3.1,7.3c-3.9,1.7-4.9-4-4.7-7.2
		C-339.7,396.2-339.8,395.3-339.1,394.8z"/>
	<path class="st3" d="M-330.7,404.4c-0.3-2.2,0-4.2-0.5-6.4c-0.1-0.4-0.5-0.9-0.4-1.3c0.1-0.2,0.4-0.4,0.5-0.6
		c0.1-1.4-0.2-2.9,0.1-4.3c0.2-0.7,1.2-1.8,1.8-1c1.3,1.3-0.6,3.3,0.3,4.9c2.6,0.1,5.2,1.1,6,3.5c0.5,1.4-0.5,3.1-1.7,4
		c-1.7,1.2-3.6,2.3-5.7,1.9C-330.3,405.1-330.6,404.7-330.7,404.4z M-324.8,400.1c0-1.6-2.5-2.6-4.2-2.4c0,1.7,0,3.5,0.6,5.2
		C-326.9,402.8-324.8,401.8-324.8,400.1z"/>
	<path class="st3" d="M-314.8,396.8c0.2,0.3-0.1,1-0.4,1.2c-1.2,0.7-2.8-2-4.5-0.9c-0.7,0.4,0.4,1.5,0.9,1.7c1.4,0.5,2.6,1,3.6,2
		c0.7,0.6,0.4,1.9-0.1,2.7c-1.2,2-5.4,3.1-6.8,0.3c-0.3-0.6,0.4-1.4,1.1-1.4c0.6,0,0.6,0.8,1.1,1c1.1,0.6,3,0,3-1.3
		c0-0.3-0.6-0.8-1.1-1c-1.5-0.7-3.3-1.1-4-2.6c-0.9-1.8,2.7-4,4.3-3.4C-316.7,395.5-315.3,395.7-314.8,396.8z"/>
	<path class="st3" d="M-312.5,395.7c1.3-1.1,2.9-2.8,4.6-2c0.3,0.1,0.5,0.4,0.3,0.9c-0.5,1.4-1.8,1.3-2.9,2.1
		c-0.9,0.7-1.7,1.6-1.8,2.8c0,0.6,0.1,1.5,0.5,2.1c0.5,0.8,1.3,0.9,2.1,1.1c1.2,0.5,2-1.2,3-1.2c1-0.1,0.4,1.4,0.1,1.7
		c-1.1,1.8-3.3,1.5-5.1,1c-2.1-0.6-3.3-2.8-2.9-5C-314.1,397.8-313.5,396.6-312.5,395.7z"/>
	<path class="st3" d="M-305.2,394.8c1.1-1,2.5,0.3,2.3,1.8c1.4-0.2,1.7-2.2,3.4-1.7c0.6,0.2,1.3,0.5,0.8,1.2
		c-0.9,1.3-2.3,1.9-3.2,3.2c-0.3,0.5-0.1,1.1-0.3,1.6c-0.2,0.3-0.2,0.9,0.2,1.5c0.5,0.6,0.3,1.7-0.2,2.3c-0.5,0.7-1.5,0.7-2,0.1
		c-0.3-0.2-0.4-0.6-0.3-1c0.1-1.8-0.1-3.8-0.3-5.6C-305.1,397-306.2,395.7-305.2,394.8z"/>
	<path class="st3" d="M-297.2,396.8c0.3-0.6,1.1-0.8,1.8-0.5c0.4,0.2,0.9,0.7,0.5,1.1c-0.7,1-0.3,2-0.6,2.9c-0.4,1.1,0.3,2.1,0,3.2
		c0,0.1-0.1,0.3-0.2,0.3c-0.7,0.2-1.6,0.3-1.8-0.4c-0.4-1.3-0.1-2.7-0.1-4C-297.6,398.5-297.6,397.6-297.2,396.8z M-296.7,392.6
		c0.7-0.4,1.7-0.4,2.1,0.2c0.4,0.6-0.2,1.7-0.6,1.9c-0.5,0.3-1.2,0.2-1.8-0.4C-297.4,393.8-297,392.8-296.7,392.6z"/>
	<path class="st3" d="M-293.6,396.4c0.6-0.5,0-1.5,0.7-2c0.6-0.4,1.4-0.5,1.8,0c0.3,0.3,0.1,1.1,0.3,1.1c1.9,0.2,4.6,0.8,4.3,3.1
		c-0.3,3-3.6,2.8-5.6,3.5c-0.4,2.1-0.3,3,0.3,5.1c0,0.1,0.3,0.5,0.5,0.8c0.4,0.9-1.1,0.9-1.7,0.6c-0.9-0.3-0.9-1.5-1-2.4
		c-0.4-3.1,0.2-5.9,0.5-8.9C-293.3,397-293.8,396.7-293.6,396.4z M-291.5,400.3c0.9,0.4,2.6-0.3,2.9-1.8c0.1-0.7-0.3-0.9-0.8-1
		c-0.5-0.2-1.3-0.3-1.6,0C-291.5,398.1-292,400-291.5,400.3z"/>
	<path class="st3" d="M-282.2,392.6c0.1-1.1,1.6-1.1,2.4-0.6c0.1,0.1,0.2,0.5,0.1,0.8c-0.7,1.4-0.9,3.1-0.9,4.7
		c1.2-0.1,3.7-0.7,3.2,0.8c-0.3,1.1-2.4,1-3.6,1c-0.2,1.4,0.6,7.8,0.5,9.2c0,0.4-0.3,0.8-0.8,0.8c-0.6,0-0.8-0.2-1-0.7
		c-0.5-1.3-0.3-8-1-9.2c-0.9,0.7-2.5,1.2-3,0c-0.1-0.3,0.2-0.8,0.6-1c0.9-0.4,2.1-0.3,2.7-1c0.4-0.6,0.3-1.6,0.4-2.3
		C-282.5,394.2-282.3,393.4-282.2,392.6z"/>
	<path class="st3" d="M-275.9,396.8c0.3-0.6,1.1-0.8,1.8-0.5c0.4,0.2,0.9,0.7,0.5,1.1c-0.7,1-0.3,2-0.6,2.9c-0.4,1.1,0.3,2.1,0,3.2
		c0,0.1-0.1,0.3-0.2,0.3c-0.7,0.2-1.6,0.3-1.8-0.4c-0.4-1.3-0.1-2.7-0.1-4C-276.3,398.5-276.3,397.6-275.9,396.8z M-275.4,392.6
		c0.7-0.4,1.7-0.4,2.1,0.2c0.4,0.6-0.2,1.7-0.6,1.9c-0.5,0.3-1.2,0.2-1.8-0.4C-276.1,393.8-275.7,392.8-275.4,392.6z"/>
	<path class="st3" d="M-272.3,397.6c0.4-1.3,1.2-2,1.5-2.6c0.6-1.2,2.2-0.9,3,0.1c0.6,0.7,0.9,1.5,1.1,2.3c0.5,1.8-0.4,3.4-1.6,4.6
		c-0.5,0.5-1.7,0.6-2.3,0.2C-272.2,401.3-272.8,399.4-272.3,397.6z M-269.3,396.8c-0.5-0.5-3,2.6-0.6,3.2
		C-268.2,400.3-268,398.1-269.3,396.8z"/>
	<path class="st3" d="M-265.4,396.5c0.3-0.7,1.6-0.7,1.8,0.1c0.2,0.6-0.2,1.1-0.2,1.7c0.1,0.1,0.2,0.4,0.2,0.3
		c0.8-1.3,1.4-2.7,3.1-2.2c1.3,2,1.1,4.6,1.3,6.9c0.1,0.4,0.1,1.1-0.3,1.2c-0.6,0.2-1.5,0.4-1.6-0.2c-0.3-1.9-0.1-3.8-0.5-5.6
		c-1.1,1.3-1.3,3-2.2,4.6c-0.3,0.6-1.3,0.7-1.6,0c-0.3-0.9-0.1-2-0.1-2.9C-265.5,399-265.8,397.5-265.4,396.5z"/>
	<path class="st3" d="M-250.4,396.8c0.2,0.3-0.1,1-0.4,1.2c-1.2,0.7-2.8-2-4.5-0.9c-0.7,0.4,0.4,1.5,0.9,1.7c1.4,0.5,2.6,1,3.6,2
		c0.7,0.6,0.4,1.9-0.1,2.7c-1.2,2-5.4,3.1-6.8,0.3c-0.3-0.6,0.4-1.4,1.1-1.4c0.6,0,0.6,0.8,1.1,1c1.1,0.6,3,0,3-1.3
		c0-0.3-0.6-0.8-1.1-1c-1.5-0.7-3.3-1.1-4-2.6c-0.9-1.8,2.7-4,4.3-3.4C-252.3,395.5-251,395.7-250.4,396.8z"/>
</g>
<g class="st2">
	<path class="st4" d="M-412.6,430c0-0.6,0.5-1,1.4-1.4c0.4-0.2,0.6-0.2,1.2-0.2c0.8,0,1.2,0.1,1.7,0.6c0.5,0.5,0.6,0.9,0.6,1.8
		c0.1,1.1-0.4,2.2-1.3,3.6c-0.8,1.3-1.1,1.7-1.4,2.4c-0.2,0.4-0.4,0.7-0.3,0.7c0,0,0.2,0,0.6,0.1c0.3,0,0.7,0.1,0.9,0.1
		c0.2,0.1,0.2,0.1,0.2-0.2c0-0.2,0-0.3,0.1-0.4c0.2-0.2,0.2-0.2,0.8-0.2c0.6,0,0.7,0,0.9,0.2c0.6,0.6,0.4,1.5-0.3,1.8
		c-0.5,0.2-0.9,0.2-2.2,0c-1-0.2-1.1-0.2-1.4,0c-0.7,0.2-1.6,0.1-1.7-0.3c-0.1-0.4,0.3-1.7,0.9-2.6c0.1-0.2,0.2-0.4,0.2-0.4
		s0-0.2,0.1-0.2c1-1.4,1.6-2.6,2-3.6c0.2-0.6,0.2-1.4,0-1.8c-0.3-0.4-0.4-0.5-0.7-0.3s-0.5,0.4-0.5,0.6c0.1,0.3-0.1,0.5-0.4,0.6
		C-412.1,430.9-412.7,430.5-412.6,430z"/>
	<path class="st4" d="M-405.5,430.5c0.7-1.4,1.4-2.2,2.2-2.3c0.1,0,0.6-0.1,0.9-0.1c0.7,0,0.8,0.1,1.2,0.3c0.5,0.3,1.2,0.9,1.4,1.4
		c0,0,0.1,0.2,0.1,0.2c0.1,0,0.5,1.2,0.6,1.6c0.3,0.9,0.3,1.3,0.3,2.3c0,1.5-0.3,2.7-0.9,3.6c-0.8,1.2-1.8,1.7-3.2,1.7
		c-1,0-1.9-0.3-2.5-1c-0.6-0.6-0.9-1.2-1.1-2.2c0-0.4,0-2,0-2.4C-406.2,432.3-406,431.5-405.5,430.5z M-401.4,429.9
		c-0.2-0.3-0.7-0.5-0.9-0.7c-0.2,0-0.4,0-0.6,0c-0.3,0-0.7,0.6-0.9,1.2c0,0.1-0.1,0.3-0.2,0.5c-0.4,0.9-0.7,2.7-0.7,3.9
		c0,0.9,0.2,2,0.4,2.3c0,0,0.1,0.1,0.1,0.1c0,0.1,0.7,0.7,0.9,0.8c0.3,0.1,0.7,0.1,1,0c0.8-0.4,1.4-1.3,1.7-2.8c0-0.4,0-2.5,0-2.9
		C-400.7,431.3-401.1,430.5-401.4,429.9z"/>
</g>
<g class="st2">
	<path class="st4" d="M-410.4,509.3c0.2-0.1,0.5-0.2,0.7-0.4c0.2-0.2,0.4-0.2,0.8-0.2c0.5,0,0.6,0,0.8,0.2c0.2,0.2,0.2,0.2,0.2,2.8
		c0,3.7-0.3,6.8-0.6,7.2c-0.4,0.5-1.1,0.4-1.4-0.1c-0.2-0.3-0.1-0.6-0.1-2.8c0-1.4,0.1-3.3,0.1-4.2c0.1-1.6,0.1-1.6-0.2-1.6
		C-410.9,510.2-411.1,509.6-410.4,509.3z"/>
	<path class="st4" d="M-406.3,510.8c0.7-1.4,1.4-2.2,2.2-2.3c0.1,0,0.6-0.1,0.9-0.1c0.7,0,0.8,0.1,1.2,0.3c0.5,0.3,1.2,0.9,1.4,1.4
		c0,0,0.1,0.2,0.1,0.2c0.1,0,0.5,1.2,0.6,1.6c0.3,0.9,0.3,1.3,0.3,2.3c0,1.5-0.3,2.7-0.9,3.6c-0.8,1.2-1.8,1.7-3.2,1.7
		c-1,0-1.9-0.3-2.5-1c-0.6-0.6-0.9-1.2-1.1-2.2c0-0.4,0-2,0-2.4C-407,512.5-406.8,511.7-406.3,510.8z M-402.2,510.2
		c-0.2-0.3-0.7-0.5-0.9-0.7c-0.2,0-0.4,0-0.6,0c-0.3,0-0.7,0.6-0.9,1.2c0,0.1-0.1,0.3-0.2,0.5c-0.4,0.9-0.7,2.7-0.7,3.9
		c0,0.9,0.2,2,0.4,2.3c0,0,0.1,0.1,0.1,0.1c0,0.1,0.7,0.7,0.9,0.8c0.3,0.1,0.7,0.1,1,0c0.8-0.4,1.4-1.3,1.7-2.8c0-0.4,0-2.5,0-2.9
		C-401.6,511.6-401.9,510.7-402.2,510.2z"/>
</g>
<g class="st2">
	<path class="st4" d="M-404.9,591.5c0.7-1.4,1.4-2.2,2.2-2.3c0.1,0,0.6-0.1,0.9-0.1c0.7,0,0.8,0.1,1.2,0.3c0.5,0.3,1.2,0.9,1.4,1.4
		c0,0,0.1,0.2,0.1,0.2c0.1,0,0.5,1.2,0.6,1.6c0.3,0.9,0.3,1.3,0.3,2.3c0,1.5-0.3,2.7-0.9,3.6c-0.8,1.2-1.8,1.7-3.2,1.7
		c-1,0-1.9-0.3-2.5-1c-0.6-0.6-0.9-1.2-1.1-2.2c0-0.4,0-2,0-2.4C-405.6,593.3-405.4,592.5-404.9,591.5z M-400.8,590.9
		c-0.2-0.3-0.7-0.5-0.9-0.7c-0.2,0-0.4,0-0.6,0c-0.3,0-0.7,0.6-0.9,1.2c0,0.1-0.1,0.3-0.2,0.5c-0.4,0.9-0.7,2.7-0.7,3.9
		c0,0.9,0.2,2,0.4,2.3c0,0,0.1,0.1,0.1,0.1c0,0.1,0.7,0.7,0.9,0.8c0.3,0.1,0.7,0.1,1,0c0.8-0.4,1.4-1.3,1.7-2.8c0-0.4,0-2.5,0-2.9
		C-400.2,592.3-400.5,591.5-400.8,590.9z"/>
</g>
<path class="st3" d="M-327.7,639.6c-5.1,0.1-10.2,0-15.4,0c-1.9,0-1.9,3,0,3c5.1,0,10.2,0.1,15.4,0
	C-325.8,642.6-325.8,639.6-327.7,639.6z"/>
<g class="st2">
	<path class="st4" d="M-316.8,639.9c0.2,0.7,0.2,1.4,0.6,1.9c0.3,0.3,0.5-0.1,0.6-0.2c0.5-0.8,0.6-1.6,1.3-2.2
		c0.4-0.4,0.8-0.5,1.2-0.1c0.8,0.7,0.9,2,1.8,2.6c0.2,0.1,0.4-0.2,0.5-0.4c0.9-1.5,0.2-2.9,0.6-4.2c0.2-0.6,1.4-0.5,1.5,0.4
		c0.2,2,0.2,4.1-1.5,5.3c-0.6,0.4-1.3,0.6-2.1,0.2c-0.7-0.3-1.1-1.5-1.3-1.5c-0.3,0-0.8,1.4-1.4,1.7c-0.7,0.4-1.8,0.5-2.2-0.1
		c-1.5-1.9-1.4-4.4-1.2-6.7c0.1-0.8,1.1-0.9,1.5-0.4C-316.4,637.3-317.1,638.6-316.8,639.9z"/>
	<path class="st4" d="M-305.4,636.4c1.3,0.2,2.5,1.5,2.5,2.9c-0.3,0.8-2.2,1.5-2.8,2.1c-0.1,0-0.4,0.2-0.3,0.4
		c0.6,1,1.7,0.6,2.6,0.1c0.6,0.4,0.3,1.5-0.4,1.6c-0.8,0.1-1.6,0.3-2.4,0c-1.7-0.8-2.1-2.7-2.1-4.3
		C-308.4,637.3-307.1,636.1-305.4,636.4z M-304.6,638.8c0.4-0.9-1-1.3-1.7-0.9c-0.7,0.4-0.5,2-0.1,2
		C-305.7,639.9-304.9,639.6-304.6,638.8z"/>
	<path class="st4" d="M-299.7,636.4c1.3,0.2,2.5,1.5,2.5,2.9c-0.3,0.8-2.2,1.5-2.8,2.1c-0.1,0-0.4,0.2-0.3,0.4
		c0.6,1,1.7,0.6,2.6,0.1c0.6,0.4,0.3,1.5-0.4,1.6c-0.8,0.1-1.6,0.3-2.4,0c-1.7-0.8-2.1-2.7-2.1-4.3
		C-302.6,637.3-301.3,636.1-299.7,636.4z M-298.9,638.8c0.4-0.9-1-1.3-1.7-0.9c-0.7,0.4-0.5,2-0.1,2
		C-299.9,639.9-299.1,639.6-298.9,638.8z"/>
	<path class="st4" d="M-296.8,633.4c0.2-0.4,0.8-0.6,1.4-0.5c0.1,0.1,0.2,0.3,0.2,0.4c0,1.7-0.2,3.3-0.2,5c0.1,0.2,0.3,0.1,0.4,0.1
		c0.8-0.6,1.7-1.6,2.8-0.9c0.5,0.2,0.1,0.7-0.2,0.8c-0.5,0.4-1.2,0.6-1.8,1.1c1.2,0.9,2.3,1.9,3.4,2.9c0.2,0.3,0,0.6-0.2,0.8
		c-0.3,0.4-0.9,0.4-1.2,0.1c-0.8-0.8-1.8-1.5-2.7-2.3c0,0-0.3-0.2-0.2,0.2c-0.1,0.7,0.2,1.4,0.2,2.1c-0.1,0.7-1.2,0.7-1.3,0.4
		c-0.8-2-0.7-4.3-0.5-6.5C-296.7,635.9-297.3,634.5-296.8,633.4z"/>
	<path class="st4" d="M-289.9,633.5c0.3-0.7,1.6-0.8,1.7,0.2c0,0.2-0.1,0.5-0.1,0.7c0,1.2,0.1,2.5,0,3.6c-0.1,1.9,0.4,3.7-0.3,5.4
		c-0.2,0.5-0.8,0.5-1.3,0.3c-0.3-0.2-0.4-0.6-0.3-0.9c0.5-1.7,0.3-3.4,0.4-5.2C-289.7,636.2-290.5,634.7-289.9,633.5z"/>
	<path class="st4" d="M-286.6,635.9c0.3-0.5,1.2-0.6,1.5,0c0.4,0.8,0.1,1.9,0.3,2.9c0.1,0.3,0.3,0,0.3-0.1c0.5-1.1,0.8-2.3,1.9-2.9
		c0.4-0.2,1.5-0.1,1.1,0.7c-0.9,1.7-2.1,3.3-2.3,5.3c-0.1,1.2-1,3.1-1.8,4.2c-0.6,0.7-2.1,0.8-2.5,0c-0.3-0.5-0.5-1.3,0.1-1.6
		c0.4-0.3,1,0.2,1.1,0.7c1.2-0.9,1-1.2,1.3-2.7c0.2-0.9-0.6-1.7-0.7-2.5c-0.1-0.9-0.3-1.8-0.3-2.7
		C-286.7,636.7-286.9,636.2-286.6,635.9z"/>
	<path class="st4" d="M-274.5,643.6c-1.2-0.2-2.6-0.2-3.2-1.3c-0.5-0.6-0.3-1.8,0.2-2.4c1.4-1.9,3.8-1.3,3.8-1.3
		c0.2-0.2,0.3-1-0.1-1.1c-1-0.2-1.6,0.2-2.5,0.5c-0.7,0.2-0.8-1.1-0.7-1.3c1.2-0.8,3.8-1.3,4.5,0.3c0.7,1.4-0.1,2.9-0.3,4.5
		c-0.1,1-0.2,3.3-1.1,2.7C-274.3,644-274.3,643.6-274.5,643.6z M-274,639.8c-1,0.4-2.7,0.1-2.7,1.5c0,0.7,2.4,1.1,2.5,0.8
		C-274.1,641.2-273.7,640.7-274,639.8z"/>
	<path class="st4" d="M-272.1,637.1c-0.3-1,1.3-1.2,1.6-0.7c0.8,1,0.8,2.4,1.6,3.5c0.9-1.5,1.3-3.2,1.8-4.9c0.2-0.8,1.4-0.6,2-0.1
		c0.1,0.2-0.1,0.4-0.1,0.6c-0.1,0.2-0.4,0.3-0.4,0.5c-0.6,2.2-1.4,4.2-2.4,6.2c-0.2,0.3-1,0.7-1.3,0.3c-0.9-0.8-1.3-1.9-1.7-2.9
		C-271.4,638.8-271.9,637.9-272.1,637.1z"/>
	<path class="st4" d="M-261.8,636.4c1.3,0.2,2.5,1.5,2.5,2.9c-0.3,0.8-2.2,1.5-2.8,2.1c-0.1,0-0.4,0.2-0.3,0.4
		c0.6,1,1.7,0.6,2.6,0.1c0.6,0.4,0.3,1.5-0.4,1.6c-0.8,0.1-1.6,0.3-2.4,0c-1.7-0.8-2.1-2.7-2.1-4.3
		C-264.7,637.3-263.4,636.1-261.8,636.4z M-261,638.8c0.4-0.9-1-1.3-1.7-0.9c-0.7,0.4-0.5,2-0.1,2C-262,639.9-261.2,639.6-261,638.8
		z"/>
	<path class="st4" d="M-258.7,636.1c0.8-0.8,1.9,0.3,1.7,1.4c1-0.2,1.3-1.6,2.5-1.3c0.4,0.2,1,0.4,0.6,0.8c-0.7,1-1.7,1.4-2.4,2.4
		c-0.2,0.3-0.1,0.9-0.3,1.2c-0.2,0.3-0.2,0.7,0.2,1.1s0.3,1.3-0.2,1.7c-0.3,0.5-1.1,0.5-1.4,0.1c-0.3-0.2-0.3-0.4-0.3-0.8
		c0.1-1.4-0.1-2.8-0.3-4.2C-258.6,637.7-259.4,636.7-258.7,636.1z"/>
	<path class="st4" d="M-249.9,643.6c-1.2-0.2-2.6-0.2-3.2-1.3c-0.5-0.6-0.3-1.8,0.2-2.4c1.4-1.9,3.8-1.3,3.8-1.3
		c0.2-0.2,0.3-1-0.1-1.1c-1-0.2-1.6,0.2-2.5,0.5c-0.7,0.2-0.8-1.1-0.7-1.3c1.2-0.8,3.8-1.3,4.5,0.3c0.7,1.4-0.1,2.9-0.3,4.5
		c-0.1,1-0.2,3.3-1.1,2.7C-249.7,644-249.7,643.6-249.9,643.6z M-249.5,639.8c-1,0.4-2.7,0.1-2.7,1.5c0,0.7,2.4,1.1,2.5,0.8
		C-249.5,641.2-249.1,640.7-249.5,639.8z"/>
	<path class="st4" d="M-242.5,635.8c0.1,0.1,0.4,0.3,0.3,0.5c-1.1,2.3-0.5,4.9-0.3,7.4c0.1,0.9,0.1,1.9-0.8,2.4
		c-1.3,0.7-3.3,0.1-3.8-1.4c-0.2-0.6,0.7-1,1-0.6c0.5,0.5,1,1.5,1.9,1.4c0.2-0.1,0.3-0.3,0.3-0.5c0.3-1.5,0-2.9-0.3-4.4
		c0-0.1,0.2-0.6-0.1-0.4c-0.6,0.4-1.3,0.6-1.9,0.3c-0.5-0.2-0.7-0.6-1-1c-0.4-1-0.3-2,0.6-2.7C-245.5,635.7-243.9,635-242.5,635.8z
		 M-246,638.3c0.1,0.5,0.3,1.2,0.6,1.2c0.6,0.1,0.8-0.9,1.2-1.4c0.2-0.3,0.3-1,0.1-1.3c-0.2-0.4-1,0-1.4,0.3
		C-245.9,637.4-246.1,637.8-246,638.3z"/>
	<path class="st4" d="M-238.9,636.4c1.3,0.2,2.5,1.5,2.5,2.9c-0.3,0.8-2.2,1.5-2.8,2.1c-0.1,0-0.4,0.2-0.3,0.4
		c0.6,1,1.7,0.6,2.6,0.1c0.6,0.4,0.3,1.5-0.4,1.6c-0.8,0.1-1.6,0.3-2.4,0c-1.7-0.8-2.1-2.7-2.1-4.3
		C-241.9,637.3-240.6,636.1-238.9,636.4z M-238.1,638.8c0.4-0.9-1-1.3-1.7-0.9c-0.7,0.4-0.5,2-0.1,2
		C-239.2,639.9-238.4,639.6-238.1,638.8z"/>
</g>
<g>
	<g class="st2">
		<path class="st4" d="M-199.9,609.9c0.2,0.7,0.2,1.4,0.6,1.9c0.3,0.3,0.5-0.1,0.6-0.2c0.5-0.8,0.6-1.6,1.3-2.2
			c0.4-0.4,0.8-0.5,1.2-0.1c0.8,0.7,0.9,2,1.8,2.6c0.2,0.1,0.4-0.2,0.5-0.4c0.9-1.5,0.2-2.9,0.6-4.2c0.2-0.6,1.4-0.5,1.5,0.4
			c0.2,2,0.2,4.1-1.5,5.3c-0.6,0.4-1.3,0.6-2.1,0.2c-0.7-0.3-1.1-1.5-1.3-1.5c-0.3,0-0.8,1.4-1.4,1.7c-0.7,0.4-1.8,0.5-2.2-0.1
			c-1.5-1.9-1.4-4.4-1.2-6.7c0.1-0.8,1.1-0.9,1.5-0.4C-199.5,607.3-200.2,608.7-199.9,609.9z"/>
		<path class="st4" d="M-188.5,606.4c1.3,0.2,2.5,1.5,2.5,2.9c-0.3,0.8-2.2,1.5-2.8,2.1c-0.1,0-0.4,0.2-0.3,0.4
			c0.6,1,1.7,0.6,2.6,0.1c0.6,0.4,0.3,1.5-0.4,1.6c-0.8,0.1-1.6,0.3-2.4,0c-1.7-0.8-2.1-2.7-2.1-4.3
			C-191.4,607.4-190.2,606.1-188.5,606.4z M-187.7,608.8c0.4-0.9-1-1.3-1.7-0.9c-0.7,0.4-0.5,2-0.1,2
			C-188.7,609.9-188,609.7-187.7,608.8z"/>
		<path class="st4" d="M-182.8,606.4c1.3,0.2,2.5,1.5,2.5,2.9c-0.3,0.8-2.2,1.5-2.8,2.1c-0.1,0-0.4,0.2-0.3,0.4
			c0.6,1,1.7,0.6,2.6,0.1c0.6,0.4,0.3,1.5-0.4,1.6c-0.8,0.1-1.6,0.3-2.4,0c-1.7-0.8-2.1-2.7-2.1-4.3
			C-185.7,607.4-184.4,606.1-182.8,606.4z M-181.9,608.8c0.4-0.9-1-1.3-1.7-0.9c-0.7,0.4-0.5,2-0.1,2
			C-183,609.9-182.2,609.7-181.9,608.8z"/>
		<path class="st4" d="M-179.9,603.5c0.2-0.4,0.8-0.6,1.4-0.5c0.1,0.1,0.2,0.3,0.2,0.4c0,1.7-0.2,3.3-0.2,5c0.1,0.2,0.3,0.1,0.4,0.1
			c0.8-0.6,1.7-1.6,2.8-0.9c0.5,0.2,0.1,0.7-0.2,0.8c-0.5,0.4-1.2,0.6-1.8,1.1c1.2,0.9,2.3,1.9,3.4,2.9c0.2,0.3,0,0.6-0.2,0.8
			c-0.3,0.4-0.9,0.4-1.2,0.1c-0.8-0.8-1.8-1.5-2.7-2.3c0,0-0.3-0.2-0.2,0.2c-0.1,0.7,0.2,1.4,0.2,2.1c-0.1,0.7-1.2,0.7-1.3,0.4
			c-0.8-2-0.7-4.3-0.5-6.5C-179.8,605.9-180.3,604.5-179.9,603.5z"/>
		<path class="st4" d="M-168,607.6c0.1,0.3-0.1,0.7-0.3,0.9c-0.9,0.5-2.1-1.5-3.3-0.7c-0.5,0.3,0.3,1.1,0.6,1.2
			c1,0.4,1.9,0.7,2.7,1.5c0.5,0.5,0.3,1.4-0.1,2c-0.9,1.5-4,2.3-5,0.2c-0.2-0.5,0.3-1,0.8-1c0.4,0,0.5,0.6,0.8,0.8
			c0.8,0.4,2.2,0,2.2-1c0-0.2-0.5-0.6-0.8-0.7c-1.1-0.5-2.4-0.8-3-1.9c-0.7-1.4,2-3,3.1-2.5C-169.4,606.6-168.4,606.8-168,607.6z"/>
	</g>
</g>
<path class="st4" d="M-283.8,582.8c-0.2,1.1-0.2,2.1-0.2,3.2c0,1,1.5,1,1.5,0c0-0.9,0-1.9,0.1-2.8
	C-282.2,582.3-283.6,581.8-283.8,582.8z"/>
<path class="st4" d="M-282.7,575.5c-0.2-0.9-1.7-0.5-1.4,0.4c0.3,1.2,0.1,2.4,0.1,3.6c0,1,1.5,1,1.5,0
	C-282.5,578.1-282.3,576.8-282.7,575.5z"/>
<path class="st4" d="M-284.1,569.3v2.5c0,1,1.5,1,1.5,0v-2.5C-282.6,568.4-284.1,568.4-284.1,569.3z"/>
<path class="st4" d="M-284.3,560v3.3c0,1,1.5,1,1.5,0V560C-282.8,559-284.3,559-284.3,560z"/>
<path class="st4" d="M-284.3,553.8v3c0,1,1.5,1,1.5,0v-3C-282.8,552.9-284.3,552.9-284.3,553.8z"/>
<path class="st4" d="M-284.1,547v3.2c0,1,1.5,1,1.5,0V547C-282.6,546-284.1,546-284.1,547z"/>
<path class="st4" d="M-284.5,541v2.5c0,1,1.5,1,1.5,0V541C-283,540-284.5,540-284.5,541z"/>
<path class="st4" d="M-282.8,536.8c-0.2-0.7-0.1-1.4-0.1-2.1c0-1-1.5-1-1.5,0c0,0.8,0,1.7,0.2,2.5
	C-284.1,538.1-282.6,537.7-282.8,536.8z"/>
<path class="st4" d="M-283,527.2c0-1-1.5-1-1.5,0c0,1.5-0.1,3,0.2,4.5c0.2,0.9,1.6,0.5,1.4-0.4C-283.1,529.9-283,528.5-283,527.2z"
	/>
<path class="st4" d="M-283,485.2c0-1-1.5-1-1.5,0c0,1.5-0.1,3,0.2,4.5c0.2,0.9,1.6,0.5,1.4-0.4C-283.1,487.9-283,486.5-283,485.2z"
	/>
<path class="st4" d="M-284.1,521.2v2.5c0,1,1.5,1,1.5,0v-2.5C-282.6,520.2-284.1,520.2-284.1,521.2z"/>
<path class="st4" d="M-282.8,513.6c-0.1-1-1.6-0.5-1.4,0.4c0.2,1.1,0.2,2.1,0.3,3.2c0.1,1,1.6,0.5,1.4-0.4
	C-282.7,515.8-282.7,514.7-282.8,513.6z"/>
<path class="st4" d="M-283,507c-0.3-0.9-1.7-0.5-1.4,0.4c0.3,1,0.3,2.1,0.5,3.1c0.1,0.9,1.6,1,1.5,0
	C-282.6,509.3-282.6,508.1-283,507z"/>
<path class="st4" d="M-282.5,503.3c-0.2-0.7-0.1-1.5-0.1-2.3c0-1-1.5-1-1.5,0c0,0.9,0,1.8,0.2,2.7
	C-283.7,504.6-282.3,504.2-282.5,503.3z"/>
<path class="st4" d="M-282.6,494c0-1-1.5-1-1.5,0c0,1.1,0,2.2,0.2,3.4c0.1,1,1.6,0.5,1.4-0.4C-282.6,496-282.6,495-282.6,494z"/>
<path class="st4" d="M-283.8,470.8v3.8c0,1,1.5,1,1.5,0v-3.8C-282.3,469.9-283.8,469.9-283.8,470.8z"/>
<path class="st4" d="M-284,464.5v2.5c0,1,1.5,1,1.5,0v-2.5C-282.5,463.5-284,463.5-284,464.5z"/>
<path class="st4" d="M-284,479.5v2.5c0,1,1.5,1,1.5,0v-2.5C-282.5,478.5-284,478.5-284,479.5z"/>
<path class="st4" d="M-283.8,457.3c-0.3,1.2-0.4,2.5-0.2,3.7c0.1,0.9,1.6,1,1.5,0c-0.1-1.1-0.1-2.2,0.1-3.3
	C-282.1,456.8-283.5,456.4-283.8,457.3z"/>
<path class="st4" d="M-283.5,451.7c0,0.8,0,1.5-0.1,2.3c-0.2,0.9,1.3,1.3,1.4,0.4c0.2-0.9,0.2-1.8,0.2-2.7
	C-282,450.7-283.5,450.7-283.5,451.7z"/>
<path class="st4" d="M-283.8,445.8v1.7c0,1,1.5,1,1.5,0v-1.7C-282.3,444.9-283.8,444.9-283.8,445.8z"/>
<path class="st4" d="M-283.8,438c-0.2,1.1-0.2,2.2-0.2,3.4c0,1,1.5,1,1.5,0c0-1,0-2,0.1-3C-282.2,437.4-283.6,437-283.8,438z"/>
<path class="st4" d="M-282.1,430.8c0-0.3-0.1-0.5-0.3-0.6v-2.1c0-1-1.5-1-1.5,0v5.3c0,0.9,1.3,1,1.5,0.2c0.1-0.1,0.2-0.3,0.2-0.5
	C-282.3,432.4-282.1,431.6-282.1,430.8z"/>
<path class="st4" d="M-282.8,591.8c0-1-1.5-1-1.5,0v6.3c0,0.5,0.4,0.7,0.8,0.7c0.5,0.1,1.1-0.3,1-0.9
	C-282.8,595.9-282.8,593.9-282.8,591.8z"/>
<g>
	<g class="st2">
		<path class="st4" d="M-260.8,422.9c0.2,0.7,0.2,1.4,0.6,1.9c0.3,0.3,0.5-0.1,0.6-0.2c0.5-0.8,0.6-1.6,1.3-2.2
			c0.4-0.4,0.8-0.5,1.2-0.1c0.8,0.7,0.9,2,1.8,2.6c0.2,0.1,0.4-0.2,0.5-0.4c0.9-1.5,0.2-2.9,0.6-4.2c0.2-0.6,1.4-0.5,1.5,0.4
			c0.2,2,0.2,4.1-1.5,5.3c-0.6,0.4-1.3,0.6-2.1,0.2c-0.7-0.3-1.1-1.5-1.3-1.5c-0.3,0-0.8,1.4-1.4,1.7c-0.7,0.4-1.8,0.5-2.2-0.1
			c-1.5-1.9-1.4-4.4-1.2-6.7c0.1-0.8,1.1-0.9,1.5-0.4C-260.3,420.3-261.1,421.7-260.8,422.9z"/>
		<path class="st4" d="M-251.6,420.6c0.2-0.4,0.8-0.6,1.3-0.4c0.3,0.1,0.7,0.5,0.4,0.8c-0.5,0.7-0.2,1.5-0.4,2.2
			c-0.3,0.8,0.2,1.6,0,2.4c0,0.1-0.1,0.2-0.2,0.2c-0.5,0.2-1.2,0.2-1.3-0.3c-0.3-1-0.1-2-0.1-3
			C-251.9,421.9-251.9,421.2-251.6,420.6z M-251.3,417.5c0.5-0.3,1.2-0.3,1.5,0.2c0.3,0.5-0.2,1.2-0.5,1.4c-0.4,0.2-0.9,0.1-1.3-0.3
			C-251.8,418.4-251.5,417.6-251.3,417.5z"/>
		<path class="st4" d="M-246.4,417.5c0.1-0.8,1.2-0.8,1.8-0.4c0.1,0.1,0.2,0.3,0.1,0.6c-0.5,1.1-0.7,2.3-0.7,3.5
			c0.9-0.1,2.7-0.5,2.4,0.6c-0.3,0.8-1.8,0.7-2.7,0.7c-0.2,1.1,0.4,5.7,0.3,6.8c0,0.3-0.3,0.6-0.6,0.6c-0.4,0-0.6-0.1-0.7-0.5
			c-0.4-1-0.3-5.9-0.7-6.8c-0.6,0.5-1.9,0.9-2.2,0c-0.1-0.2,0.2-0.6,0.4-0.7c0.6-0.3,1.6-0.2,2-0.7c0.3-0.4,0.2-1.2,0.3-1.7
			C-246.6,418.6-246.5,418.1-246.4,417.5z"/>
		<path class="st4" d="M-242,418.6c0.1-0.3,0.7-0.6,1.2-0.3c0.2,0.1,0.2,0.4,0.2,0.7c-0.1,1.3-0.4,2.5,0,3.8c0.6-1,1.6-2.2,2.8-1.6
			c0.4,1.8,0.9,3.6,0.7,5.3c0,0.4-0.9,0.6-1.2,0.3c-0.9-1.1-0.1-2.8-0.8-4.1c-0.8,0.8-1.4,1.7-1.9,2.8c-0.1,0.2-0.6,0.4-0.9,0.4
			c-0.1-0.1-0.6-0.1-0.6-0.3c0-1.3,0.1-2.5,0.2-3.8C-242,420.7-242.5,419.5-242,418.6z"/>
		<path class="st4" d="M-233.6,418.4c1.5-1.9,4-1.9,6.1-2.4c0.5-0.1,1,0.2,1.1,0.6c0.2,0.5-0.4,0.8-0.7,0.9
			c-1.3,0.5-2.7,0.3-3.9,0.9c-0.2,0.1-0.4,0.3-0.3,0.5c1.4,2.1,5.2,2.9,4.5,5.7c-0.6,2.4-4.2,2.8-6.3,1.9c-1-0.4-0.4-1.7,0.5-2
			c0.5-0.1,0.5,0.6,0.8,0.7c0.4,0.1,0.7,0,1.1,0.2c0.7,0.4,1.4-0.1,2-0.4c0.4-0.3,0.4-0.7,0.2-1.1c-1.3-1.7-3.2-2.3-4.6-4
			C-233.5,419.2-234,418.8-233.6,418.4z"/>
		<path class="st4" d="M-222.5,426.6c-1.2-0.2-2.6-0.2-3.2-1.3c-0.5-0.6-0.3-1.8,0.2-2.4c1.4-1.9,3.8-1.3,3.8-1.3
			c0.2-0.2,0.3-1-0.1-1.1c-1-0.2-1.6,0.2-2.5,0.5c-0.7,0.2-0.8-1.1-0.7-1.3c1.2-0.8,3.8-1.3,4.5,0.3c0.7,1.4-0.1,2.9-0.3,4.5
			c-0.1,1-0.2,3.3-1.1,2.7C-222.3,427-222.3,426.6-222.5,426.6z M-222.1,422.8c-1,0.4-2.7,0.1-2.7,1.5c0,0.7,2.4,1.1,2.5,0.8
			C-222.1,424.3-221.7,423.7-222.1,422.8z"/>
		<path class="st4" d="M-219.5,416.5c0.3-0.7,1.6-0.8,1.7,0.2c0,0.2-0.1,0.5-0.1,0.7c0,1.2,0.1,2.5,0,3.6c-0.1,1.9,0.4,3.7-0.3,5.4
			c-0.2,0.5-0.8,0.5-1.3,0.3c-0.3-0.2-0.4-0.6-0.3-0.9c0.5-1.7,0.3-3.4,0.4-5.2C-219.3,419.2-220.1,417.7-219.5,416.5z"/>
		<path class="st4" d="M-213.7,419.4c1.3,0.2,2.5,1.5,2.5,2.9c-0.3,0.8-2.2,1.5-2.8,2.1c-0.1,0-0.4,0.2-0.3,0.4
			c0.6,1,1.7,0.6,2.6,0.1c0.6,0.4,0.3,1.5-0.4,1.6c-0.8,0.1-1.6,0.3-2.4,0c-1.7-0.8-2.1-2.7-2.1-4.3
			C-216.6,420.4-215.4,419.1-213.7,419.4z M-212.9,421.8c0.4-0.9-1-1.3-1.7-0.9c-0.7,0.4-0.5,2-0.1,2
			C-214,422.9-213.2,422.7-212.9,421.8z"/>
		<path class="st4" d="M-211,418.4c1.5-1.9,4-1.9,6.1-2.4c0.5-0.1,1,0.2,1.1,0.6c0.2,0.5-0.4,0.8-0.7,0.9c-1.3,0.5-2.7,0.3-3.9,0.9
			c-0.2,0.1-0.4,0.3-0.3,0.5c1.4,2.1,5.2,2.9,4.5,5.7c-0.6,2.4-4.2,2.8-6.3,1.9c-1-0.4-0.4-1.7,0.5-2c0.5-0.1,0.5,0.6,0.8,0.7
			c0.4,0.1,0.7,0,1.1,0.2c0.7,0.4,1.4-0.1,2-0.4c0.4-0.3,0.4-0.7,0.2-1.1c-1.3-1.7-3.2-2.3-4.6-4
			C-210.8,419.2-211.4,418.8-211,418.4z"/>
		<path class="st4" d="M-202.7,420.6c0.2-0.4,0.8-0.6,1.3-0.4c0.3,0.1,0.7,0.5,0.4,0.8c-0.5,0.7-0.2,1.5-0.4,2.2
			c-0.3,0.8,0.2,1.6,0,2.4c0,0.1-0.1,0.2-0.2,0.2c-0.5,0.2-1.2,0.2-1.3-0.3c-0.3-1-0.1-2-0.1-3C-203,421.9-203,421.2-202.7,420.6z
			 M-202.3,417.5c0.5-0.3,1.2-0.3,1.5,0.2c0.3,0.5-0.2,1.2-0.5,1.4c-0.4,0.2-0.9,0.1-1.3-0.3C-202.9,418.4-202.6,417.6-202.3,417.5z
			"/>
		<path class="st4" d="M-198.7,419.8c1,0.3,0,1.6,0.5,2.3c1-0.9,1.2-3.2,3-2.5c0.1,0.1,0.3,0.3,0.3,0.3c0.2,0.7,0.1,1.4,0.3,2
			c0.8-0.9,1.8-2.4,3.2-1.9c0.4,0.3,0.3,0.8,0.3,1.3c0.3,2,0.3,4-0.4,6c-0.2,0.6-1,0.7-1.6,0.3c-0.1,0-0.2-0.3-0.1-0.6
			c0.6-1.6,0.6-3.4,0.3-5.1c0-0.3-0.3,0-0.4,0.2c-0.7,1.1-1.2,2.3-1.6,3.5c-0.3,0.5-1.3,1-1.8,0.3c-0.5-1,0.3-2.4-0.1-3.5
			c-0.7,1.2-1,2.4-1.8,3.5c-0.4,0.5-1.3,0.5-1.5,0c-0.5-1.2-0.1-2.7-0.3-4C-200.4,420.7-200.1,419.4-198.7,419.8z"/>
	</g>
</g>
<path class="st3" d="M-205.5,473.2c-0.8-10.2-8-16.9-17.1-20.5c-19.1-7.5-46.7,6.1-47.5,27.7c-0.1,3.8,0.9,7.6,2.8,11.1
	c-0.3,0.8,0.3,1.6,1.1,1.8c5,8,14.3,14.4,23.5,15.7c1.3,3,2.3,6.2,3.5,9.3c0.7,1.7,3.2,1.1,3-0.4c0.4-0.2,0.7-0.5,0.8-0.9
	c0.8-3,2-6,3.2-8.8c0.1,0,0.1,0,0.2-0.1c0.6-0.2,0.9-0.7,1-1.3c5.8-1.2,11.4-3.9,15.9-7.9C-208.2,492.5-204.8,482.5-205.5,473.2z
	 M-213.9,492.6c0.8-1.2,1.4-2.5,2-3.8c0.6-1.2,1.2-2.4,1.8-3.6C-211,487.8-212.2,490.3-213.9,492.6z"/>
<g class="st2">
	<path class="st5" d="M-257.9,476.6c0.1-0.7,0.3-1.2,0.6-1.3c0.3-0.2,0.3-0.2,0.6,0c0.2,0,0.4,0.2,0.4,0.4s0.3,1.4,0.3,2
		c0,0.1,0.2,0.1,1,0.1c1.1-0.1,1.3,0,1.3,0.4c0,0.4-0.3,0.5-1.3,0.5c-1,0.1-1,0.1-0.9,0.6c0.1,1.3,0.2,2,0.1,2.2
		c-0.1,0.4-1.1,0.6-1.6,0.4c-0.4-0.2-0.4-0.5-0.5-1.7c0-0.7-0.1-1.1-0.1-1.1c-0.1,0-0.4,0-0.8,0.1c-1.2,0.2-1.8,0.1-1.8-0.4
		c0-0.4,0.5-0.5,2-0.7c0.5-0.1,0.5-0.1,0.6-0.5C-257.9,477.3-257.9,476.9-257.9,476.6z"/>
	<path class="st5" d="M-252.2,471.4c0.2-0.1,0.7-0.3,1-0.5c0.3-0.2,0.6-0.2,1.1-0.2c0.7,0,0.8,0,1.1,0.2c0.3,0.3,0.3,0.3,0.3,3.9
		c0,5.2-0.5,9.5-0.9,10.1c-0.6,0.7-1.6,0.6-1.9-0.1c-0.2-0.4-0.2-0.8-0.1-3.9c0-2,0.1-4.6,0.1-5.9c0.1-2.2,0.1-2.2-0.3-2.2
		C-252.9,472.6-253.2,471.8-252.2,471.4z"/>
	<path class="st5" d="M-246.4,473.5c0.9-1.9,2-3,3.1-3.2c0.2-0.1,0.8-0.2,1.3-0.2c0.9,0,1,0.1,1.6,0.4c0.7,0.4,1.6,1.2,2,2
		c0.1,0.1,0.2,0.2,0.2,0.2c0.2,0.1,0.7,1.7,0.9,2.3c0.4,1.3,0.4,1.8,0.4,3.2c0,2.1-0.5,3.8-1.3,5.1c-1.1,1.6-2.5,2.4-4.5,2.4
		c-1.5,0-2.7-0.5-3.5-1.4c-0.8-0.8-1.2-1.6-1.6-3.1c-0.1-0.5-0.1-2.8,0-3.4C-247.5,475.9-247.1,474.8-246.4,473.5z M-240.7,472.6
		c-0.3-0.4-0.9-0.8-1.2-0.9c-0.3-0.1-0.6-0.1-0.8,0c-0.4,0.1-0.9,0.8-1.3,1.6c-0.1,0.2-0.2,0.5-0.3,0.6c-0.6,1.2-1,3.8-1,5.4
		c-0.1,1.3,0.2,2.9,0.6,3.3c0.1,0,0.1,0.2,0.1,0.2c0,0.2,0.9,1,1.3,1.1c0.4,0.2,1,0.2,1.4,0c1.1-0.5,1.9-1.8,2.4-4
		c0.1-0.5,0.1-3.6,0-4C-239.8,474.5-240.3,473.4-240.7,472.6z"/>
	<path class="st5" d="M-234.7,473.5c0.9-1.9,2-3,3.1-3.2c0.2-0.1,0.8-0.2,1.3-0.2c0.9,0,1,0.1,1.6,0.4c0.7,0.4,1.6,1.2,2,2
		c0.1,0.1,0.2,0.2,0.2,0.2c0.2,0.1,0.7,1.7,0.9,2.3c0.4,1.3,0.4,1.8,0.4,3.2c0,2.1-0.5,3.8-1.3,5.1c-1.1,1.6-2.5,2.4-4.5,2.4
		c-1.5,0-2.7-0.5-3.5-1.4c-0.8-0.8-1.2-1.6-1.6-3.1c-0.1-0.5-0.1-2.8,0-3.4C-235.7,475.9-235.4,474.8-234.7,473.5z M-228.9,472.6
		c-0.3-0.4-0.9-0.8-1.2-0.9c-0.3-0.1-0.6-0.1-0.8,0c-0.4,0.1-0.9,0.8-1.3,1.6c-0.1,0.2-0.2,0.5-0.3,0.6c-0.6,1.2-1,3.8-1,5.4
		c-0.1,1.3,0.2,2.9,0.6,3.3c0.1,0,0.1,0.2,0.1,0.2c0,0.2,0.9,1,1.3,1.1c0.4,0.2,1,0.2,1.4,0c1.1-0.5,1.9-1.8,2.4-4
		c0.1-0.5,0.1-3.6,0-4C-228.1,474.5-228.5,473.4-228.9,472.6z"/>
	<path class="st5" d="M-224.1,471.8c0.1-0.2,0.3-0.4,0.6-0.7c0.5-0.4,0.5-0.4,1.2-0.4c1.2,0,2.2,0.4,2.4,1.1
		c0.1,0.7-0.4,1.7-1.1,2.2c-0.4,0.2-0.4,0.2-1.3,0.2c-1,0-1.2-0.1-1.7-0.4c-0.4-0.3-0.6-1.1-0.4-1.5
		C-224.3,472.3-224.2,472-224.1,471.8z M-219,472.8c0.4-0.9,1.2-2,1.6-2.2c0.2-0.1,0.7-0.1,1,0.1c0.1,0.1,0.1,0.4-0.1,1.3
		c-0.2,0.7-1,2.5-1.6,3.9c-0.1,0.2-0.2,0.4-0.2,0.5c0,0.1-0.1,0.4-0.3,0.7c-0.1,0.3-0.1,0.5-0.1,0.5s-0.1,0.2-0.1,0.3
		c-0.1,0.3-0.6,1.5-0.8,2c-0.1,0.2-0.2,0.7-0.4,1c-0.1,0.4-0.4,1.2-0.6,1.8c-0.2,0.6-0.4,1.1-0.4,1.2c0,0.1-0.1,0.3-0.1,0.5
		c-0.2,0.7-0.7,1-1.4,1c-0.5,0-0.8-0.2-0.8-0.6c-0.1-0.2,0.1-0.7,0.2-1.1c0.1-0.1,0.1-0.4,0.2-0.7c0.1-0.2,0.1-0.5,0.2-0.6
		s0.1-0.3,0.1-0.3c0-0.1,0.9-2.5,1.2-3c0.1-0.2,0.2-0.5,0.2-0.7c0.1-0.1,0.1-0.3,0.2-0.4c0-0.1,0.1-0.2,0.1-0.4
		c0.1-0.2,0.1-0.4,0.2-0.6s0.2-0.5,0.5-0.9c0.4-1.2,0.5-1.3,0.9-2.2c0.2-0.4,0.4-0.7,0.4-0.8C-219.2,473.1-219.1,473-219,472.8z
		 M-221.9,472.9c0.2-0.4,0.3-0.8,0.1-0.9c0,0-0.2-0.1-0.4-0.1c-0.2,0-0.2,0-0.4,0.2c-0.1,0.3-0.2,0.9,0,1
		C-222.3,473.3-222.1,473.2-221.9,472.9z M-219.1,481.8c0.3-0.1,1.1-0.5,1.4-0.5c0.3-0.1,0.3-0.1,0.7,0c0.3,0.1,0.4,0.1,0.8,0.5
		s0.5,0.6,0.6,1c0.1,0.5,0.1,0.5,0,0.9c-0.1,0.5-0.5,0.8-1,1.1c-0.4,0.1-0.6,0.1-1.1,0.1c-1.7,0-2.6-0.8-2.3-2
		C-219.8,482.5-219.4,481.9-219.1,481.8z M-217.3,483.5c0.2-0.3,0.2-0.3,0.1-0.6c-0.1-0.1-0.2-0.4-0.4-0.4c-0.1-0.2-0.1-0.2-0.3,0
		c-0.2,0.2-0.4,0.5-0.4,0.8c0,0.4,0.1,0.5,0.5,0.5C-217.4,483.8-217.4,483.8-217.3,483.5z"/>
</g>
<g>
	<path class="st6" d="M-273,608c0-0.3-0.2-0.4-0.4-0.3c-2.9-1.9-6-3.4-9-5c0,0,0,0,0,0c0-0.5-0.7-0.5-0.7,0c0,3.7,0.2,7.4,0.2,11.1
		c0,0.1,0.1,0.2,0.1,0.3c0,0.1,0,0.2,0.2,0.3c2.9,1.6,6,2.9,8.6,5c0.1,0,0.1,0.1,0.2,0.1c0.1,0.4,0.7,0.4,0.7-0.1
		c-0.1-2,0-4-0.1-5.9c0-0.1,0.1-0.1,0.1-0.2C-273.1,611.5-273,609.8-273,608z"/>
	<path class="st7" d="M-283.8,613.1c-0.5-3.2,0.1-6.4-0.2-9.6c0,0,0-0.1,0-0.1c0,0,0,0,0,0c0.4-0.3-0.2-0.8-0.5-0.5
		c-2.6,2.1-5.9,3.6-8.7,5.2c0,0-0.1,0.1-0.1,0.1c-0.1,0-0.2,0.1-0.3,0.2c-0.1,0.1-0.2,0.2-0.2,0.3c0,0.2,0.1,0.3,0.1,0.5v10
		c0,0.4,0.6,0.5,0.7,0.1c0.1,0,0.1,0,0.2-0.1c2.6-2.1,5.6-3.7,8.4-5.5c0.1-0.1,0.1-0.1,0.2-0.2C-284,613.6-283.7,613.4-283.8,613.1z
		"/>
	<path class="st8" d="M-274.2,620c-1.1-0.9-2.5-1.4-3.8-2c-1.8-0.8-3.3-2.2-5.1-3.1c-0.1,0-0.1,0-0.2,0c-0.1-0.1-0.3-0.2-0.5-0.1
		c-0.1,0-0.1,0.1-0.1,0.2c-0.1,0-0.2,0-0.3,0c-2.6,1.7-5.3,3.2-8.1,4.7c-0.1,0.1-0.2,0.2-0.2,0.3c-0.3,0-0.5,0.5-0.2,0.7
		c3,1.7,6.1,3.4,8.9,5.4c0.2,0.2,0.5,0,0.5-0.2c0.1,0.1,0.2,0.1,0.3,0c2.7-1.9,6-2.8,8.4-5.1c0.1-0.1,0.1-0.1,0.1-0.2
		C-274.1,620.5-273.9,620.2-274.2,620z"/>
	<path class="st9" d="M-276.2,609.9c-1.9-2-4.9-2.5-7.2-4c-0.1-0.1-0.2-0.1-0.3,0c-0.1,0-0.1,0-0.2,0c-2.1,1.1-4.1,2.5-6.2,3.5
		c-0.1,0-0.1,0.1-0.1,0.1c-0.1,0-0.1,0-0.2,0c-0.5-0.1-0.7,0.6-0.2,0.7c0.2,0,0.4,0.1,0.6,0.2c0,0,0.1,0.1,0.1,0.1
		c0.7,0.3,1.4,0.6,2.1,0.9c1.3,0.8,2.5,1.8,3.9,2.3c0,0,0,0,0,0c0.1,0.1,0.2,0.1,0.2,0.1c0,0,0,0,0,0c0.1,0.1,0.2,0.1,0.2,0.2
		c0.1,0.2,0.3,0.4,0.5,0.3c2.1-1.2,4.1-2.6,6.2-3.9c0,0,0,0,0,0C-276.3,610.7-275.8,610.2-276.2,609.9z"/>
	<path class="st9" d="M-290.7,610.7c-0.7,2.7,0.5,5.5,0.3,8.2c0,0.1,0,0.2,0.1,0.3c0,0.1,0.1,0.1,0.1,0.1c2.1,1.2,4.2,2.2,6.3,3.5
		c0.1,0,0.1,0.1,0.2,0.1c0,0.1,0,0.1,0.1,0.2c0.2,0.4,0.9,0.2,0.7-0.2c-0.1-0.2-0.1-0.4-0.2-0.6c0,0,0-0.1,0-0.2
		c-0.1-0.8-0.2-1.5-0.3-2.3c0-1.5,0.2-3-0.1-4.6c0,0,0,0,0,0c0-0.1,0-0.2-0.1-0.2c0,0,0,0,0,0c0-0.1,0-0.2,0-0.3
		c0.2-0.2,0.2-0.5-0.1-0.6c-2.1-1.1-4.4-2.1-6.5-3.2c0,0,0,0,0,0C-289.9,610.4-290.6,610.2-290.7,610.7z"/>
	<path class="st9" d="M-282.4,623.3c2.6-0.8,4.4-3.4,6.7-4.7c0.1-0.1,0.2-0.2,0.2-0.2c0-0.1,0.1-0.1,0.1-0.2
		c-0.1-2.4-0.4-4.8-0.5-7.2c0-0.1,0-0.1-0.1-0.2c0-0.1,0.1-0.1,0.1-0.1c0.3-0.4-0.3-0.9-0.6-0.5c-0.1,0.2-0.3,0.3-0.4,0.5
		c0,0-0.1,0-0.1,0.1c-0.6,0.5-1.2,1-1.8,1.5c-1.3,0.8-2.7,1.5-3.8,2.5c0,0,0,0,0,0c-0.1,0-0.1,0.1-0.1,0.2c0,0,0,0,0,0
		c-0.1,0-0.2,0.1-0.3,0.1c-0.2,0-0.5,0.1-0.5,0.4c0.2,2.4,0.6,4.8,0.8,7.2c0,0,0,0,0,0C-283.1,622.8-282.9,623.5-282.4,623.3z"/>
</g>
<path class="st3" d="M-183.4,518c-10.7,7.6-22.8,13.1-33.4,20.9c-8.2-1-16.5-2.1-24.8-2.2c-0.3,0-0.6,0.1-0.8,0.2
	c-0.2-0.2-0.4-0.4-0.8-0.5c-8.4-2.4-16.7-5.2-25.3-7c-0.3-0.1-0.5,0-0.8,0c-0.5-0.5-1.4-0.7-2,0c-5.1,5.5-9.2,12.3-13.8,18.3
	c-5.4,7.1-10.7,14.2-15.1,22c0,0,0,0,0,0c-0.4,0-0.7,0.1-1.1,0.4c-6.4,5.2-13.9,8.5-21.3,12.1c-0.1,0-0.2-0.1-0.3-0.1
	c-8.6-2.8-17.2-5.6-26-7.3c-0.5-0.1-0.9,0-1.3,0.3c-7.3,0.7-14.5,1.3-21.8,1.3c-0.2,0-0.4,0-0.5,0.1c-0.3-0.1-0.5-0.1-0.9,0
	c-7.2,1.7-14.1,4.1-21,6.7c-1.8,0.7-1,3.6,0.8,2.9c6.9-2.6,13.8-5,21-6.7c0,0,0.1,0,0.1,0c0.2,0.1,0.3,0.1,0.5,0.1
	c7.4,0,14.7-0.6,22-1.3c0.3,0,0.6-0.1,0.8-0.3c8.1,1.7,15.9,4.1,23.7,6.6c0,0,0.1,0,0.1,0c0.2,0.1,0.5,0.1,0.7,0.2
	c0,0,0,0.1,0.1,0.1c0.4,0.2,0.8,0.5,1.2,0.7c0.2,0,0.5,0.1,0.7,0.1c0.1,0,0.1,0,0.2-0.1c8-4,16.3-7.6,23.3-13.2
	c0.1-0.1,0.2-0.2,0.2-0.2c0.5,0,1-0.2,1.3-0.7c4.1-7.3,9-14,14-20.6c4.6-6.1,8.8-12.9,13.9-18.5c0.1,0.1,0.2,0.1,0.4,0.1
	c8.6,1.8,16.9,4.6,25.3,7c0.5,0.1,0.9,0,1.2-0.2c0.2,0.3,0.6,0.6,1.2,0.6c8.7,0.1,17.3,1.3,25.8,2.3c0.5-0.5,1-0.9,1.6-1.2
	c0,0,0-0.1,0-0.1c10.3-7.4,21.9-12.8,32.2-20.1C-180.3,519.4-181.8,516.8-183.4,518z"/>
<path class="st3" d="M-212.8,487.8c-1.6-0.4-3.2,1.2-4.3,2.1c-1.7,1.3-3.3,2.8-5.1,4.1c-1.6,1.1-0.1,3.7,1.5,2.6
	c1.5-1,2.8-2.2,4.2-3.3c0.7-0.6,1.4-1.1,2.1-1.6c0.3-0.2,0.6-0.5,1-0.7c0.5-0.3,0.5-0.1-0.1-0.2
	C-211.7,491.2-210.9,488.3-212.8,487.8z"/>
</svg>
