<?xml version="1.0" encoding="utf-8"?>
<!-- Generator: Adobe Illustrator 19.0.0, SVG Export Plug-In . SVG Version: 6.00 Build 0)  -->
<svg version="1.1" id="Layer_1" xmlns="http://www.w3.org/2000/svg" xmlns:xlink="http://www.w3.org/1999/xlink" x="0px" y="0px"
	 viewBox="-443 379 305 270" style="enable-background:new -443 379 305 270;" xml:space="preserve">
<style type="text/css">
	.st0{enable-background:new    ;}
	.st1{fill:#EF4849;}
	.st2{opacity:0.1;fill:#EF4849;enable-background:new    ;}
	.st3{fill:none;stroke:#B0AFB0;stroke-width:1.5;stroke-miterlimit:10;}
	.st4{fill:#333333;}
	.st5{fill:#FFFFFF;}
	.st6{fill:#D82629;}
	.st7{fill:#EE2E39;}
	.st8{fill:#EF475A;}
	.st9{opacity:0.5;fill:#F58E95;enable-background:new    ;}
</style>
<g>
	<path d="M153,892.5l3.3-8.7h0.8l-3.4,8.7H153z"/>
	<path d="M158.1,892v-5h-0.8v-0.8h0.8v-0.3c0-0.8,0.2-1.6,0.7-2c0.4-0.4,0.9-0.5,1.4-0.5c0.4,0,0.7,0.1,0.9,0.2l-0.1,0.8
		c-0.2-0.1-0.4-0.1-0.7-0.1c-0.9,0-1.1,0.8-1.1,1.7v0.3h1.4v0.8h-1.4v5H158.1z"/>
	<path d="M166.6,889c0,2.1-1.5,3.1-2.9,3.1c-1.6,0-2.8-1.2-2.8-3c0-1.9,1.3-3.1,2.9-3.1C165.5,886.1,166.6,887.3,166.6,889z
		 M162,889.1c0,1.3,0.7,2.2,1.8,2.2c1,0,1.8-0.9,1.8-2.3c0-1-0.5-2.2-1.7-2.2C162.5,886.9,162,888,162,889.1z"/>
	<path d="M167.9,887.8c0-0.6,0-1.1,0-1.6h0.9l0.1,1h0c0.3-0.6,1-1.1,1.9-1.1c0.8,0,2.1,0.5,2.1,2.5v3.5h-1.1v-3.3
		c0-0.9-0.3-1.7-1.3-1.7c-0.7,0-1.2,0.5-1.4,1.1c0,0.1-0.1,0.3-0.1,0.5v3.5h-1.1V887.8z"/>
	<path d="M175.8,884.5v1.7h1.5v0.8h-1.5v3.1c0,0.7,0.2,1.1,0.8,1.1c0.3,0,0.5,0,0.6-0.1l0,0.8c-0.2,0.1-0.5,0.1-0.9,0.1
		c-0.5,0-0.9-0.2-1.1-0.4c-0.3-0.3-0.4-0.8-0.4-1.5V887h-0.9v-0.8h0.9v-1.4L175.8,884.5z"/>
	<path d="M178.4,890.9c0.3,0.2,0.9,0.4,1.4,0.4c0.8,0,1.1-0.4,1.1-0.9c0-0.5-0.3-0.8-1.1-1.1c-1-0.4-1.5-0.9-1.5-1.6
		c0-0.9,0.8-1.7,2-1.7c0.6,0,1.1,0.2,1.4,0.4l-0.3,0.8c-0.2-0.1-0.6-0.3-1.2-0.3c-0.6,0-1,0.4-1,0.8c0,0.5,0.3,0.7,1.1,1
		c1,0.4,1.5,0.9,1.5,1.8c0,1-0.8,1.7-2.2,1.7c-0.6,0-1.2-0.2-1.6-0.4L178.4,890.9z"/>
	<path d="M182.4,892.5l3.3-8.7h0.8l-3.4,8.7H182.4z"/>
	<path d="M193.1,891.7c-0.4,0.2-1.2,0.4-2.1,0.4c-2.3,0-4-1.4-4-4.1c0-2.5,1.7-4.2,4.2-4.2c1,0,1.6,0.2,1.9,0.4l-0.3,0.9
		c-0.4-0.2-1-0.3-1.6-0.3c-1.9,0-3.2,1.2-3.2,3.3c0,2,1.1,3.2,3.1,3.2c0.6,0,1.3-0.1,1.7-0.3L193.1,891.7z"/>
	<path d="M197.5,892l-0.1-0.7h0c-0.3,0.5-0.9,0.9-1.8,0.9c-1.2,0-1.8-0.8-1.8-1.7c0-1.4,1.2-2.2,3.5-2.2v-0.1c0-0.5-0.1-1.3-1.3-1.3
		c-0.5,0-1.1,0.2-1.5,0.4l-0.2-0.7c0.5-0.3,1.2-0.5,1.9-0.5c1.8,0,2.2,1.2,2.2,2.4v2.2c0,0.5,0,1,0.1,1.4H197.5z M197.3,889
		c-1.2,0-2.5,0.2-2.5,1.3c0,0.7,0.5,1,1,1c0.8,0,1.2-0.5,1.4-1c0-0.1,0.1-0.2,0.1-0.3V889z"/>
	<path d="M200,892c0-0.4,0-1,0-1.5v-7h1v3.6h0c0.4-0.6,1-1.1,2-1.1c1.4,0,2.5,1.2,2.4,3c0,2.1-1.3,3.1-2.6,3.1
		c-0.8,0-1.5-0.3-1.9-1.1h0l0,1H200z M201.1,889.7c0,0.1,0,0.3,0,0.4c0.2,0.7,0.8,1.2,1.6,1.2c1.1,0,1.8-0.9,1.8-2.2
		c0-1.2-0.6-2.2-1.7-2.2c-0.7,0-1.4,0.5-1.6,1.3c0,0.1-0.1,0.3-0.1,0.4V889.7z"/>
	<path d="M208,884.6c0,0.4-0.3,0.6-0.7,0.6c-0.4,0-0.6-0.3-0.6-0.6c0-0.4,0.3-0.7,0.7-0.7C207.8,883.9,208,884.2,208,884.6z
		 M206.9,892v-5.8h1.1v5.8H206.9z"/>
	<path d="M209.7,887.8c0-0.6,0-1.1,0-1.6h0.9l0.1,1h0c0.3-0.6,1-1.1,1.9-1.1c0.8,0,2.1,0.5,2.1,2.5v3.5h-1.1v-3.3
		c0-0.9-0.3-1.7-1.3-1.7c-0.7,0-1.2,0.5-1.4,1.1c0,0.1-0.1,0.3-0.1,0.5v3.5h-1.1V887.8z"/>
	<path d="M216.2,890.7c0.5,0.3,1.2,0.5,1.9,0.5c1.1,0,1.7-0.6,1.7-1.4c0-0.8-0.4-1.2-1.5-1.6c-1.3-0.5-2.1-1.2-2.1-2.3
		c0-1.3,1-2.2,2.6-2.2c0.8,0,1.4,0.2,1.8,0.4l-0.3,0.9c-0.3-0.1-0.8-0.4-1.5-0.4c-1.1,0-1.5,0.7-1.5,1.2c0,0.8,0.5,1.1,1.6,1.6
		c1.4,0.5,2.1,1.2,2.1,2.4c0,1.2-0.9,2.3-2.8,2.3c-0.8,0-1.6-0.2-2.1-0.5L216.2,890.7z"/>
	<path d="M223.3,888.9L223.3,888.9c0.2-0.2,0.4-0.5,0.5-0.7l1.7-2h1.3l-2.2,2.4l2.6,3.4h-1.3l-2-2.8l-0.5,0.6v2.2h-1v-8.5h1V888.9z"
		/>
	<path d="M228.5,889.3c0,1.4,0.9,2,2,2c0.8,0,1.2-0.1,1.6-0.3l0.2,0.8c-0.4,0.2-1,0.4-1.9,0.4c-1.8,0-2.9-1.2-2.9-2.9s1-3.1,2.7-3.1
		c1.9,0,2.4,1.7,2.4,2.7c0,0.2,0,0.4,0,0.5H228.5z M231.6,888.5c0-0.7-0.3-1.7-1.5-1.7c-1.1,0-1.5,1-1.6,1.7H231.6z"/>
	<path d="M235.2,884.5v1.7h1.5v0.8h-1.5v3.1c0,0.7,0.2,1.1,0.8,1.1c0.3,0,0.5,0,0.6-0.1l0,0.8c-0.2,0.1-0.5,0.1-0.9,0.1
		c-0.5,0-0.9-0.2-1.1-0.4c-0.3-0.3-0.4-0.8-0.4-1.5V887h-0.9v-0.8h0.9v-1.4L235.2,884.5z"/>
	<path d="M241.9,891.8c-0.3,0.1-0.9,0.3-1.7,0.3c-1.8,0-2.9-1.2-2.9-3c0-1.8,1.2-3.1,3.1-3.1c0.6,0,1.2,0.2,1.5,0.3l-0.2,0.8
		c-0.3-0.1-0.6-0.3-1.2-0.3c-1.3,0-2.1,1-2.1,2.2c0,1.3,0.9,2.2,2,2.2c0.6,0,1-0.2,1.3-0.3L241.9,891.8z"/>
	<path d="M243.2,883.5h1.1v3.6h0c0.2-0.3,0.4-0.6,0.8-0.7c0.3-0.2,0.7-0.3,1.1-0.3c0.8,0,2,0.5,2,2.5v3.5h-1.1v-3.3
		c0-0.9-0.3-1.7-1.3-1.7c-0.7,0-1.2,0.5-1.4,1.1c-0.1,0.1-0.1,0.3-0.1,0.5v3.5h-1.1V883.5z"/>
	<path d="M252.3,888.4v0.8h-3v-0.8H252.3z"/>
	<path d="M253.5,884c0.5-0.1,1.3-0.2,2-0.2c1.1,0,1.8,0.2,2.3,0.7c0.4,0.4,0.6,0.9,0.6,1.5c0,1.1-0.7,1.8-1.5,2.1v0
		c0.6,0.2,1,0.8,1.2,1.6c0.3,1.1,0.5,1.9,0.6,2.2h-1.1c-0.1-0.2-0.3-0.9-0.5-1.9c-0.2-1.1-0.7-1.5-1.6-1.6h-1v3.5h-1V884z
		 M254.6,887.7h1.1c1.1,0,1.8-0.6,1.8-1.5c0-1-0.8-1.5-1.9-1.5c-0.5,0-0.9,0-1,0.1V887.7z"/>
	<path d="M260.6,889.3c0,1.4,0.9,2,2,2c0.8,0,1.2-0.1,1.6-0.3l0.2,0.8c-0.4,0.2-1,0.4-1.9,0.4c-1.8,0-2.9-1.2-2.9-2.9s1-3.1,2.7-3.1
		c1.9,0,2.4,1.7,2.4,2.7c0,0.2,0,0.4,0,0.5H260.6z M263.7,888.5c0-0.7-0.3-1.7-1.5-1.7c-1.1,0-1.5,1-1.6,1.7H263.7z"/>
	<path d="M271,886.2c0,0.4,0,0.9,0,1.6v3.4c0,1.3-0.3,2.1-0.8,2.7c-0.6,0.5-1.4,0.7-2.1,0.7c-0.7,0-1.5-0.2-1.9-0.5l0.3-0.8
		c0.4,0.2,1,0.5,1.7,0.5c1.1,0,1.9-0.6,1.9-2V891h0c-0.3,0.5-0.9,1-1.8,1c-1.4,0-2.5-1.2-2.5-2.8c0-2,1.3-3.1,2.6-3.1
		c1,0,1.6,0.5,1.8,1h0l0-0.9H271z M269.9,888.5c0-0.2,0-0.3-0.1-0.5c-0.2-0.6-0.7-1.1-1.5-1.1c-1,0-1.7,0.9-1.7,2.2
		c0,1.1,0.6,2.1,1.7,2.1c0.6,0,1.2-0.4,1.5-1.1c0.1-0.2,0.1-0.4,0.1-0.6V888.5z"/>
	<path d="M277.6,890.4c0,0.6,0,1.1,0,1.6h-0.9l-0.1-0.9h0c-0.3,0.5-0.9,1.1-1.9,1.1c-0.9,0-2-0.5-2-2.5v-3.4h1.1v3.2
		c0,1.1,0.3,1.8,1.3,1.8c0.7,0,1.2-0.5,1.4-1c0.1-0.2,0.1-0.3,0.1-0.5v-3.6h1.1V890.4z"/>
	<path d="M279.3,883.5h1.1v8.5h-1.1V883.5z"/>
	<path d="M285.4,892l-0.1-0.7h0c-0.3,0.5-0.9,0.9-1.8,0.9c-1.2,0-1.8-0.8-1.8-1.7c0-1.4,1.2-2.2,3.5-2.2v-0.1c0-0.5-0.1-1.3-1.3-1.3
		c-0.5,0-1.1,0.2-1.5,0.4l-0.2-0.7c0.5-0.3,1.2-0.5,1.9-0.5c1.8,0,2.2,1.2,2.2,2.4v2.2c0,0.5,0,1,0.1,1.4H285.4z M285.2,889
		c-1.2,0-2.5,0.2-2.5,1.3c0,0.7,0.5,1,1,1c0.8,0,1.2-0.5,1.4-1c0-0.1,0.1-0.2,0.1-0.3V889z"/>
	<path d="M288,888c0-0.7,0-1.3,0-1.8h0.9l0,1.1h0c0.3-0.8,0.9-1.3,1.6-1.3c0.1,0,0.2,0,0.3,0v1c-0.1,0-0.2,0-0.4,0
		c-0.7,0-1.3,0.6-1.4,1.4c0,0.1,0,0.3,0,0.5v3.1h-1V888z"/>
	<path d="M291,891.4c0-0.4,0.3-0.8,0.7-0.8c0.4,0,0.7,0.3,0.7,0.8c0,0.4-0.3,0.8-0.7,0.8C291.3,892.1,291,891.8,291,891.4z"/>
	<path d="M295,884.5v1.7h1.5v0.8H295v3.1c0,0.7,0.2,1.1,0.8,1.1c0.3,0,0.5,0,0.6-0.1l0,0.8c-0.2,0.1-0.5,0.1-0.9,0.1
		c-0.5,0-0.9-0.2-1.1-0.4c-0.3-0.3-0.4-0.8-0.4-1.5V887h-0.9v-0.8h0.9v-1.4L295,884.5z"/>
	<path d="M299,884.5v1.7h1.5v0.8H299v3.1c0,0.7,0.2,1.1,0.8,1.1c0.3,0,0.5,0,0.6-0.1l0,0.8c-0.2,0.1-0.5,0.1-0.9,0.1
		c-0.5,0-0.9-0.2-1.1-0.4c-0.3-0.3-0.4-0.8-0.4-1.5V887H297v-0.8h0.9v-1.4L299,884.5z"/>
	<path d="M301.8,892v-5H301v-0.8h0.8v-0.3c0-0.8,0.2-1.6,0.7-2c0.4-0.4,0.9-0.5,1.4-0.5c0.4,0,0.7,0.1,0.9,0.2l-0.1,0.8
		c-0.2-0.1-0.4-0.1-0.7-0.1c-0.9,0-1.1,0.8-1.1,1.7v0.3h1.4v0.8h-1.4v5H301.8z"/>
</g>
<g class="st0">
	<path class="st1" d="M-325.8,391.1c0.2-1.2,1.4-1.7,2.5-0.9c0.1,0.1,0.4,0.4,0.3,0.7c-1.3,3.7-0.4,7.5-0.5,11.1
		c0,0.3-0.9,0.5-1.5,0.2c-1.1-0.6-1-1.9-1-3C-326.1,396.6-326.3,393.9-325.8,391.1z"/>
	<path class="st1" d="M-321.9,394.5c0.3-0.7,1.6-0.7,1.8,0.1c0.2,0.6-0.2,1.1-0.2,1.7c0.1,0.1,0.2,0.4,0.2,0.3
		c0.8-1.3,1.4-2.7,3.1-2.2c1.3,2,1.1,4.6,1.3,6.9c0.1,0.4,0.1,1.1-0.3,1.2c-0.6,0.2-1.5,0.4-1.6-0.2c-0.3-1.9-0.1-3.8-0.5-5.6
		c-1.1,1.3-1.3,3-2.2,4.6c-0.3,0.6-1.3,0.7-1.6,0c-0.3-0.9-0.1-2-0.1-2.9C-322,397-322.3,395.5-321.9,394.5z"/>
	<path class="st1" d="M-309.1,393.4c0.6-0.5,0.3-1.7,0.7-2.4c0.3-0.6,1-1,1.5-0.8c0.2,0.1,0.8,0.5,0.7,0.9
		c-1.3,3.6-1.2,7.6-0.6,11.5c0,0.2-0.6,0.6-0.9,0.6c-1,0.1-1-1.3-1.5-1.4c-0.9,0-1.8,0.3-2.6-0.3c-1.1-0.8-2.6-1.5-2.6-3.2
		C-314.4,395.2-310.9,394.8-309.1,393.4z M-309.5,399.5c-0.2-1.3,0.2-2.6,0.2-3.9c-1.2,0-3.1,0.7-2.9,2.1
		C-312,398.9-310.7,400-309.5,399.5z"/>
	<path class="st1" d="M-304.9,394.8c0.3-0.6,1.1-0.8,1.8-0.5c0.4,0.2,0.9,0.7,0.5,1.1c-0.7,1-0.3,2-0.6,2.9c-0.4,1.1,0.3,2.1,0,3.2
		c0,0.1-0.1,0.3-0.2,0.3c-0.7,0.2-1.6,0.3-1.8-0.4c-0.4-1.3-0.1-2.7-0.1-4C-305.3,396.5-305.3,395.6-304.9,394.8z M-304.4,390.6
		c0.7-0.4,1.7-0.4,2.1,0.2c0.4,0.6-0.2,1.7-0.6,1.9c-0.5,0.3-1.2,0.2-1.8-0.4C-305.1,391.8-304.7,390.8-304.4,390.6z"/>
	<path class="st1" d="M-299.8,393.7c1.3-1.1,2.9-2.8,4.6-2c0.3,0.1,0.5,0.4,0.3,0.9c-0.5,1.4-1.8,1.3-2.9,2.1
		c-0.9,0.7-1.7,1.6-1.8,2.8c0,0.6,0.1,1.5,0.5,2.1c0.5,0.8,1.3,0.9,2.1,1.1c1.2,0.5,2-1.2,3-1.2c1-0.1,0.4,1.4,0.1,1.7
		c-1.1,1.8-3.3,1.5-5.1,1c-2.1-0.6-3.3-2.8-2.9-5C-301.4,395.8-300.8,394.6-299.8,393.7z"/>
	<path class="st1" d="M-288.1,402.9c-1.6-0.3-3.5-0.2-4.4-1.7c-0.6-0.8-0.4-2.5,0.2-3.2c1.9-2.5,5.1-1.7,5.2-1.8
		c0.2-0.3,0.3-1.4-0.2-1.4c-1.4-0.3-2.2,0.3-3.4,0.7c-0.9,0.3-1.1-1.5-0.9-1.7c1.7-1.1,5.1-1.8,6.1,0.4c0.9,2-0.2,3.9-0.3,6
		c-0.1,1.4-0.2,4.5-1.5,3.6C-287.8,403.5-287.8,402.9-288.1,402.9z M-287.5,397.8c-1.3,0.5-3.7,0.1-3.7,2.1c0,1,3.2,1.5,3.4,1.1
		C-287.6,399.8-287,399-287.5,397.8z"/>
	<path class="st1" d="M-279.2,405.5c-0.5,0.5-2,0.7-2.9,0.3c-0.8-0.5-0.8-0.9-0.3-1.4s1.3,0.3,1.8-0.1c0.3-0.3,0-1.2,0.1-1.7
		c-0.5-0.1-1-0.2-1.4-0.3c-2.1-0.6-3.3-2.8-2.9-5c0.3-1.5,0.9-2.6,1.9-3.5c1.3-1.1,2.9-2.8,4.6-2c0.3,0.1,0.5,0.4,0.3,0.9
		c-0.5,1.4-1.8,1.3-2.9,2.1c-0.9,0.7-1.7,1.6-1.8,2.8c0,0.6,0.1,1.5,0.5,2.1c0.5,0.8,1.3,0.9,2.1,1.1c1.2,0.5,2-1.2,3-1.2
		c1-0.1,0.4,1.4,0.1,1.7c-0.5,0.8-1.2,1.2-2,1.3c0.1,0,0.1,0.1,0.1,0.1C-278.6,402.9-278.8,405-279.2,405.5z"/>
	<path class="st1" d="M-272.2,387.3c0.7,0.4,0.4,1.3,0.9,1.9c0.8,1.1,0.9-0.5,2.2-1.1c0.6-0.2,0.9,0.4,0.7,0.8
		c-1.2,1.8-1.7,2.3-3.1,2.3c-0.6,0-1.2-0.4-1.4-1.1c-0.2-0.6-0.4-1-0.7-0.9c-1.6,0.5-0.9,2.1-2.9,1.7c-0.3-0.1-0.3-0.7-0.1-1
		c0.6-0.9,0.5-0.9,1.3-1.7C-274.5,387.4-273.5,386.5-272.2,387.3z M-275.8,395.6c0.4-1.3,1.2-2,1.5-2.6c0.6-1.2,2.2-0.9,3,0.1
		c0.6,0.7,0.9,1.5,1.1,2.3c0.5,1.8-0.4,3.4-1.6,4.6c-0.5,0.5-1.7,0.6-2.3,0.2C-275.6,399.3-276.3,397.4-275.8,395.6z M-272.7,394.8
		c-0.5-0.5-3,2.6-0.6,3.2C-271.6,398.3-271.5,396.1-272.7,394.8z"/>
	<path class="st1" d="M-265.6,393.2c1.8,0.3,3.4,2,3.4,3.9c-0.4,1.1-2.9,2-3.8,2.9c-0.1,0-0.5,0.3-0.4,0.5c0.8,1.4,2.3,0.8,3.6,0.1
		c0.8,0.6,0.4,2-0.6,2.1c-1,0.2-2.2,0.4-3.3,0c-2.3-1-2.8-3.6-2.9-5.8C-269.5,394.5-267.8,392.8-265.6,393.2z M-264.5,396.5
		c0.5-1.1-1.4-1.7-2.3-1.3c-1,0.5-0.7,2.7-0.2,2.7C-265.9,397.9-264.8,397.6-264.5,396.5z"/>
	<path class="st1" d="M-254.3,394.8c0.2,0.3-0.1,1-0.4,1.2c-1.2,0.7-2.8-2-4.5-0.9c-0.7,0.4,0.4,1.5,0.9,1.7c1.4,0.5,2.6,1,3.6,2
		c0.7,0.6,0.4,1.9-0.1,2.7c-1.2,2-5.4,3.1-6.8,0.3c-0.3-0.6,0.4-1.4,1.1-1.4c0.6,0,0.6,0.8,1.1,1c1.1,0.6,3,0,3-1.3
		c0-0.3-0.6-0.8-1.1-1c-1.5-0.7-3.3-1.1-4-2.6c-0.9-1.8,2.7-4,4.3-3.4C-256.2,393.5-254.9,393.7-254.3,394.8z"/>
</g>
<g>
	<path class="st1" d="M-325.5,639.6c-5.1,0.1-10.2,0-15.4,0c-1.9,0-1.9,3,0,3c5.1,0,10.2,0.1,15.4,0
		C-323.6,642.6-323.6,639.6-325.5,639.6z"/>
	<g>
		<g class="st0">
			<path d="M-314.9,636.8c1,0.3,0,1.6,0.5,2.3c1-0.9,1.2-3.2,3-2.5c0.1,0.1,0.3,0.3,0.3,0.3c0.2,0.7,0.1,1.4,0.3,2
				c0.9-0.9,1.8-2.4,3.2-1.9c0.4,0.3,0.3,0.8,0.3,1.3c0.3,2,0.3,4-0.4,6c-0.2,0.6-1,0.7-1.6,0.3c-0.1,0-0.2-0.3-0.1-0.6
				c0.6-1.6,0.6-3.4,0.3-5.1c0-0.3-0.3,0-0.4,0.2c-0.7,1.1-1.2,2.3-1.6,3.5c-0.3,0.5-1.3,1-1.8,0.3c-0.5-1,0.3-2.4-0.1-3.5
				c-0.7,1.2-1,2.4-1.8,3.5c-0.4,0.5-1.3,0.5-1.5,0c-0.5-1.2-0.1-2.7-0.3-4C-316.6,637.7-316.3,636.4-314.9,636.8z"/>
			<path d="M-303.2,636.4c1.3,0.2,2.5,1.5,2.5,2.9c-0.3,0.8-2.2,1.5-2.8,2.1c-0.1,0-0.4,0.2-0.3,0.4c0.6,1,1.7,0.6,2.6,0.1
				c0.6,0.4,0.3,1.5-0.4,1.6c-0.8,0.1-1.6,0.3-2.4,0c-1.7-0.8-2.1-2.7-2.1-4.3C-306.2,637.3-304.9,636.1-303.2,636.4z M-302.4,638.8
				c0.4-0.9-1-1.3-1.7-0.9c-0.7,0.4-0.5,2-0.1,2C-303.5,639.9-302.7,639.6-302.4,638.8z M-302.1,632.9c0.2,0,0.6,0.4,0.5,0.6
				c-0.3,0.9-0.5,1.1-1.3,1.8c-0.2,0.2-0.8,0.6-0.9,0.2c-0.2-0.8,0.1-0.7,0.4-1.4C-303.1,633.5-302.7,632.9-302.1,632.9z"/>
			<path d="M-296.6,636.5c0.4-0.3,0.2-1.2,0.5-1.8c0.2-0.4,0.7-0.7,1.1-0.6c0.2,0.1,0.6,0.3,0.5,0.7c-1,2.7-0.9,5.6-0.4,8.5
				c0,0.2-0.4,0.4-0.7,0.4c-0.7,0.1-0.7-1-1.1-1.1c-0.7,0-1.3,0.2-2-0.2c-0.8-0.6-1.9-1.1-1.9-2.4
				C-300.5,637.9-297.9,637.6-296.6,636.5z M-296.8,641.1c-0.2-1,0.2-1.9,0.2-2.9c-0.9,0-2.3,0.5-2.1,1.5
				C-298.7,640.6-297.7,641.4-296.8,641.1z"/>
			<path d="M-293.4,637.6c0.2-0.4,0.8-0.6,1.3-0.4c0.3,0.1,0.7,0.5,0.4,0.8c-0.5,0.7-0.2,1.5-0.4,2.2c-0.3,0.8,0.2,1.6,0,2.4
				c0,0.1-0.1,0.2-0.2,0.2c-0.5,0.2-1.2,0.2-1.3-0.3c-0.3-1-0.1-2-0.1-3C-293.7,638.8-293.7,638.2-293.4,637.6z M-293.1,634.4
				c0.5-0.3,1.2-0.3,1.5,0.2c0.3,0.5-0.2,1.2-0.5,1.4c-0.4,0.2-0.9,0.1-1.3-0.3C-293.6,635.3-293.3,634.6-293.1,634.4z"/>
			<path d="M-287.5,643.6c-1.2-0.2-2.6-0.2-3.2-1.3c-0.5-0.6-0.3-1.8,0.2-2.4c1.4-1.9,3.8-1.3,3.8-1.3c0.2-0.2,0.3-1-0.1-1.1
				c-1-0.2-1.6,0.2-2.5,0.5c-0.7,0.2-0.8-1.1-0.7-1.3c1.2-0.8,3.8-1.3,4.5,0.3c0.7,1.4-0.1,2.9-0.3,4.5c-0.1,1-0.2,3.3-1.1,2.7
				C-287.2,644-287.2,643.6-287.5,643.6z M-287,639.8c-1,0.4-2.7,0.1-2.7,1.5c0,0.7,2.4,1.1,2.5,0.8
				C-287.1,641.2-286.6,640.7-287,639.8z"/>
			<path d="M-276.3,637.6c0.1,0.3-0.1,0.7-0.3,0.9c-0.9,0.5-2.1-1.5-3.3-0.7c-0.5,0.3,0.3,1.1,0.6,1.2c1,0.4,1.9,0.7,2.7,1.5
				c0.5,0.5,0.3,1.4-0.1,2c-0.9,1.5-4,2.3-5,0.2c-0.2-0.5,0.3-1,0.8-1c0.4,0,0.5,0.6,0.8,0.8c0.8,0.4,2.2,0,2.2-1
				c0-0.2-0.5-0.6-0.8-0.7c-1.1-0.5-2.4-0.8-3-1.9c-0.7-1.4,2-3,3.1-2.5C-277.7,636.6-276.7,636.8-276.3,637.6z"/>
			<path d="M-273,636.4c1.3,0.2,2.5,1.5,2.5,2.9c-0.3,0.8-2.2,1.5-2.8,2.1c-0.1,0-0.4,0.2-0.3,0.4c0.6,1,1.7,0.6,2.6,0.1
				c0.6,0.4,0.3,1.5-0.4,1.6c-0.8,0.1-1.6,0.3-2.4,0c-1.7-0.8-2.1-2.7-2.1-4.3C-275.9,637.3-274.7,636.1-273,636.4z M-272.2,638.8
				c0.4-0.9-1-1.3-1.7-0.9c-0.7,0.4-0.5,2-0.1,2C-273.2,639.9-272.5,639.6-272.2,638.8z"/>
			<path d="M-268.6,636.8c1,0.3,0,1.6,0.5,2.3c1-0.9,1.2-3.2,3-2.5c0.1,0.1,0.3,0.3,0.3,0.3c0.2,0.7,0.1,1.4,0.3,2
				c0.9-0.9,1.8-2.4,3.2-1.9c0.4,0.3,0.3,0.8,0.3,1.3c0.3,2,0.3,4-0.4,6c-0.2,0.6-1,0.7-1.6,0.3c-0.1,0-0.2-0.3-0.1-0.6
				c0.6-1.6,0.6-3.4,0.3-5.1c0-0.3-0.3,0-0.4,0.2c-0.7,1.1-1.2,2.3-1.6,3.5c-0.3,0.5-1.3,1-1.8,0.3c-0.5-1,0.3-2.4-0.1-3.5
				c-0.7,1.2-1,2.4-1.8,3.5c-0.4,0.5-1.3,0.5-1.5,0c-0.5-1.2-0.1-2.7-0.3-4C-270.3,637.7-270,636.4-268.6,636.8z"/>
			<path d="M-256.4,643.6c-1.2-0.2-2.6-0.2-3.2-1.3c-0.5-0.6-0.3-1.8,0.2-2.4c1.4-1.9,3.8-1.3,3.8-1.3c0.2-0.2,0.3-1-0.1-1.1
				c-1-0.2-1.6,0.2-2.5,0.5c-0.7,0.2-0.8-1.1-0.7-1.3c1.2-0.8,3.8-1.3,4.5,0.3c0.7,1.4-0.1,2.9-0.3,4.5c-0.1,1-0.2,3.3-1.1,2.7
				C-256.1,644-256.1,643.6-256.4,643.6z M-255.9,639.8c-1,0.4-2.7,0.1-2.7,1.5c0,0.7,2.4,1.1,2.5,0.8
				C-256,641.2-255.5,640.7-255.9,639.8z"/>
			<path d="M-253.4,637.3c0.2-0.5,1.2-0.5,1.3,0.1c0.1,0.4-0.2,0.8-0.2,1.3c0.1,0.1,0.2,0.3,0.2,0.2c0.6-0.9,1.1-2,2.3-1.6
				c0.9,1.5,0.8,3.4,0.9,5.1c0.1,0.3,0.1,0.8-0.2,0.9c-0.4,0.1-1.1,0.3-1.2-0.2c-0.2-1.4-0.1-2.8-0.4-4.2c-0.9,0.9-1,2.2-1.6,3.4
				c-0.3,0.4-1,0.5-1.2,0c-0.2-0.6-0.1-1.4-0.1-2.2C-253.4,639.2-253.7,638.1-253.4,637.3z"/>
			<path d="M-244.2,643.6c-1.2-0.2-2.6-0.2-3.2-1.3c-0.5-0.6-0.3-1.8,0.2-2.4c1.4-1.9,3.8-1.3,3.8-1.3c0.2-0.2,0.3-1-0.1-1.1
				c-1-0.2-1.6,0.2-2.5,0.5c-0.7,0.2-0.8-1.1-0.7-1.3c1.2-0.8,3.8-1.3,4.5,0.3c0.7,1.4-0.1,2.9-0.3,4.5c-0.1,1-0.2,3.3-1.1,2.7
				C-244,644-244,643.6-244.2,643.6z M-243.8,639.8c-1,0.4-2.7,0.1-2.7,1.5c0,0.7,2.4,1.1,2.5,0.8
				C-243.8,641.2-243.4,640.7-243.8,639.8z"/>
			<path d="M-241.2,633.5c0.3-0.7,1.6-0.8,1.7,0.2c0,0.2-0.1,0.5-0.1,0.7c0,1.2,0.1,2.5,0,3.6c-0.1,1.9,0.4,3.7-0.3,5.4
				c-0.2,0.5-0.8,0.5-1.3,0.3c-0.3-0.2-0.4-0.6-0.3-0.9c0.5-1.7,0.3-3.4,0.4-5.2C-241,636.2-241.8,634.7-241.2,633.5z"/>
		</g>
	</g>
</g>
<rect x="-277.4" y="434.8" class="st2" width="112.5" height="160.8"/>
<line class="st3" x1="-384.4" y1="435.2" x2="-162.4" y2="434.3"/>
<line class="st3" x1="-384.4" y1="514.7" x2="-162.4" y2="515.2"/>
<line class="st3" x1="-384.4" y1="595.2" x2="-162.4" y2="596.3"/>
<g class="st0">
	<path d="M-417.3,429c1-0.3,1.7-0.5,2.3-0.5c0.3-0.1,0.7-0.1,0.7-0.1c0.1,0,0.5,0,0.9,0c0.5,0.1,0.8,0.1,1.1,0.3
		c0.6,0.3,0.7,0.7,0.1,1.1c-0.2,0.1-0.3,0.1-1.5,0.1c-1.1-0.1-1.4,0-2.1,0.1c-0.5,0.1-0.9,0.1-0.9,0.1c-0.1,0.1-0.1,0.5-0.1,1.4
		c-0.1,1.2-0.1,1.3,0.1,1.2c0.1,0,0.4-0.1,0.7-0.1c1.8-0.2,3.8,0.5,4.4,1.7c0.1,0.3,0.2,1,0.1,1.5c-0.2,0.9-0.8,1.7-1.7,2.2
		c-0.5,0.4-1,0.6-1.8,0.8c-1.4,0.3-2.9-0.1-3.4-0.9c-0.2-0.3-0.2-0.3-0.2-0.8s0-0.5,0.2-0.7c0.1-0.2,0.2-0.2,0.7-0.2
		c0.5,0,0.6,0,0.7,0.1c0.1,0.1,0.1,0.3,0.1,0.5c0,0.4,0.2,0.7,0.5,0.9c0.2,0.1,0.8,0,1.3-0.3c0.4-0.2,1.1-0.9,1.3-1.3
		c0.2-0.4,0.3-0.9,0.3-1.2c-0.1-0.3-0.4-0.7-1-1c-0.4-0.2-0.5-0.2-1-0.2c-0.5,0-0.7,0.1-1.1,0.2c-0.7,0.3-1.2,0.3-1.6,0.1
		c-0.3-0.2-0.5-0.4-0.4-1.3c0-1.3,0.2-2.5,0.5-3.3C-417.9,429.2-417.9,429.2-417.3,429z"/>
	<path d="M-409.9,430.5c0.7-1.4,1.4-2.2,2.2-2.3c0.1,0,0.6-0.1,0.9-0.1c0.7,0,0.8,0.1,1.2,0.3c0.5,0.3,1.2,0.9,1.4,1.4
		c0,0,0.1,0.2,0.1,0.2c0.1,0,0.5,1.2,0.6,1.6c0.3,0.9,0.3,1.3,0.3,2.3c0,1.5-0.3,2.7-0.9,3.6c-0.8,1.2-1.8,1.7-3.2,1.7
		c-1,0-1.9-0.3-2.5-1c-0.6-0.6-0.9-1.2-1.1-2.2c0-0.4,0-2,0-2.4C-410.6,432.3-410.4,431.5-409.9,430.5z M-405.8,429.9
		c-0.2-0.3-0.7-0.5-0.9-0.7c-0.2,0-0.4,0-0.6,0c-0.3,0-0.7,0.6-0.9,1.2c0,0.1-0.1,0.3-0.2,0.5c-0.4,0.9-0.7,2.7-0.7,3.9
		c0,0.9,0.2,2,0.4,2.3c0,0,0.1,0.1,0.1,0.1c0,0.1,0.7,0.7,0.9,0.8c0.3,0.1,0.7,0.1,1,0c0.8-0.4,1.4-1.3,1.7-2.8c0-0.4,0-2.5,0-2.9
		C-405.2,431.3-405.5,430.5-405.8,429.9z"/>
	<path d="M-401.5,430.5c0.7-1.4,1.4-2.2,2.2-2.3c0.1,0,0.6-0.1,0.9-0.1c0.7,0,0.7,0.1,1.2,0.3c0.5,0.3,1.2,0.9,1.4,1.4
		c0,0,0.1,0.2,0.1,0.2c0.1,0,0.5,1.2,0.6,1.6c0.3,0.9,0.3,1.3,0.3,2.3c0,1.5-0.3,2.7-0.9,3.6c-0.8,1.2-1.8,1.7-3.2,1.7
		c-1,0-1.9-0.3-2.5-1c-0.6-0.6-0.9-1.2-1.1-2.2c0-0.4,0-2,0-2.4C-402.2,432.3-402,431.5-401.5,430.5z M-397.4,429.9
		c-0.2-0.3-0.7-0.5-0.9-0.7c-0.2,0-0.4,0-0.6,0c-0.3,0-0.7,0.6-0.9,1.2c0,0.1-0.1,0.3-0.2,0.5c-0.4,0.9-0.7,2.7-0.7,3.9
		c0,0.9,0.2,2,0.4,2.3c0,0,0.1,0.1,0.1,0.1c0,0.1,0.7,0.7,0.9,0.8c0.3,0.1,0.7,0.1,1,0c0.8-0.4,1.4-1.3,1.7-2.8c0-0.4,0-2.5,0-2.9
		C-396.8,431.3-397.1,430.5-397.4,429.9z"/>
</g>
<g class="st0">
	<path d="M-415.4,510.2c0-0.6,0.5-1,1.4-1.4c0.4-0.2,0.6-0.2,1.2-0.2c0.8,0,1.2,0.1,1.7,0.6c0.5,0.5,0.6,0.9,0.6,1.8
		c0.1,1.1-0.4,2.2-1.3,3.6c-0.8,1.3-1.1,1.7-1.4,2.4c-0.2,0.4-0.4,0.7-0.3,0.7c0,0,0.2,0,0.6,0.1c0.3,0,0.7,0.1,0.9,0.1
		c0.2,0.1,0.2,0.1,0.2-0.2c0-0.2,0-0.3,0.1-0.4c0.2-0.2,0.2-0.2,0.8-0.2c0.6,0,0.7,0,0.9,0.2c0.6,0.6,0.4,1.5-0.3,1.8
		c-0.5,0.2-0.9,0.2-2.2,0c-1-0.2-1.1-0.2-1.4,0c-0.7,0.2-1.6,0.1-1.7-0.3c-0.1-0.4,0.3-1.7,0.9-2.6c0.1-0.2,0.2-0.4,0.2-0.4
		s0-0.2,0.1-0.2c1-1.4,1.6-2.6,2-3.6c0.2-0.6,0.2-1.4,0-1.8c-0.3-0.4-0.4-0.5-0.7-0.3s-0.5,0.4-0.5,0.6c0.1,0.3-0.1,0.5-0.4,0.6
		C-414.9,511.1-415.5,510.7-415.4,510.2z"/>
	<path d="M-408.1,509.3c1-0.3,1.7-0.5,2.3-0.5c0.3-0.1,0.7-0.1,0.7-0.1c0.1,0,0.5,0,0.9,0c0.5,0.1,0.8,0.1,1.1,0.3
		c0.6,0.3,0.7,0.7,0.1,1.1c-0.2,0.1-0.3,0.1-1.5,0.1c-1.1-0.1-1.4,0-2.1,0.1c-0.5,0.1-0.9,0.1-0.9,0.1c-0.1,0.1-0.1,0.5-0.1,1.4
		c-0.1,1.2-0.1,1.3,0.1,1.2c0.1,0,0.4-0.1,0.7-0.1c1.8-0.2,3.8,0.5,4.4,1.7c0.1,0.3,0.2,1,0.1,1.5c-0.2,0.9-0.8,1.7-1.7,2.2
		c-0.5,0.4-1,0.6-1.8,0.8c-1.4,0.3-2.9-0.1-3.4-0.9c-0.2-0.3-0.2-0.3-0.2-0.8s0-0.5,0.2-0.7c0.1-0.2,0.2-0.2,0.7-0.2
		c0.5,0,0.6,0,0.7,0.1c0.1,0.1,0.1,0.3,0.1,0.5c0,0.4,0.2,0.7,0.5,0.9c0.2,0.1,0.8,0,1.3-0.3c0.4-0.2,1.1-0.9,1.3-1.3
		c0.2-0.4,0.3-0.9,0.3-1.2c-0.1-0.3-0.4-0.7-1-1c-0.4-0.2-0.5-0.2-1-0.2c-0.5,0-0.7,0.1-1.1,0.2c-0.7,0.3-1.2,0.3-1.6,0.1
		c-0.3-0.2-0.5-0.4-0.4-1.3c0-1.3,0.2-2.5,0.5-3.3C-408.7,509.5-408.7,509.5-408.1,509.3z"/>
	<path d="M-400.7,510.8c0.7-1.4,1.4-2.2,2.2-2.3c0.1,0,0.6-0.1,0.9-0.1c0.7,0,0.7,0.1,1.2,0.3c0.5,0.3,1.2,0.9,1.4,1.4
		c0,0,0.1,0.2,0.1,0.2c0.1,0,0.5,1.2,0.6,1.6c0.3,0.9,0.3,1.3,0.3,2.3c0,1.5-0.3,2.7-0.9,3.6c-0.8,1.2-1.8,1.7-3.2,1.7
		c-1,0-1.9-0.3-2.5-1c-0.6-0.6-0.9-1.2-1.1-2.2c0-0.4,0-2,0-2.4C-401.4,512.5-401.2,511.7-400.7,510.8z M-396.6,510.2
		c-0.2-0.3-0.7-0.5-0.9-0.7c-0.2,0-0.4,0-0.6,0c-0.3,0-0.7,0.6-0.9,1.2c0,0.1-0.1,0.3-0.2,0.5c-0.4,0.9-0.7,2.7-0.7,3.9
		c0,0.9,0.2,2,0.4,2.3c0,0,0.1,0.1,0.1,0.1c0,0.1,0.7,0.7,0.9,0.8c0.3,0.1,0.7,0.1,1,0c0.8-0.4,1.4-1.3,1.7-2.8c0-0.4,0-2.5,0-2.9
		C-396,511.6-396.3,510.7-396.6,510.2z"/>
</g>
<g class="st0">
	<path d="M-400.4,591.5c0.7-1.4,1.4-2.2,2.2-2.3c0.1,0,0.6-0.1,0.9-0.1c0.7,0,0.8,0.1,1.2,0.3c0.5,0.3,1.2,0.9,1.4,1.4
		c0,0,0.1,0.2,0.1,0.2c0.1,0,0.5,1.2,0.6,1.6c0.3,0.9,0.3,1.3,0.3,2.3c0,1.5-0.3,2.7-0.9,3.6c-0.8,1.2-1.8,1.7-3.2,1.7
		c-1,0-1.9-0.3-2.5-1c-0.6-0.6-0.9-1.2-1.1-2.2c0-0.4,0-2,0-2.4C-401.1,593.3-400.9,592.5-400.4,591.5z M-396.3,590.9
		c-0.2-0.3-0.7-0.5-0.9-0.7c-0.2,0-0.4,0-0.6,0c-0.3,0-0.7,0.6-0.9,1.2c0,0.1-0.1,0.3-0.2,0.5c-0.4,0.9-0.7,2.7-0.7,3.9
		c0,0.9,0.2,2,0.4,2.3c0,0,0.1,0.1,0.1,0.1c0,0.1,0.7,0.7,0.9,0.8c0.3,0.1,0.7,0.1,1,0c0.8-0.4,1.4-1.3,1.7-2.8c0-0.4,0-2.5,0-2.9
		C-395.7,592.3-396,591.5-396.3,590.9z"/>
</g>
<g>
	<g class="st0">
		<path d="M-202.6,607.6c0.1,0.3-0.1,0.7-0.3,0.9c-0.9,0.5-2.1-1.5-3.3-0.7c-0.5,0.3,0.3,1.1,0.6,1.2c1,0.4,1.9,0.7,2.7,1.5
			c0.5,0.5,0.3,1.4-0.1,2c-0.9,1.5-4,2.3-5,0.2c-0.2-0.5,0.3-1,0.8-1c0.4,0,0.5,0.6,0.8,0.8c0.8,0.4,2.2,0,2.2-1
			c0-0.2-0.5-0.6-0.8-0.7c-1.1-0.5-2.4-0.8-3-1.9c-0.7-1.4,2-3,3.1-2.5C-204,606.6-203,606.8-202.6,607.6z"/>
		<path d="M-199.3,606.4c1.3,0.2,2.5,1.5,2.5,2.9c-0.3,0.8-2.2,1.5-2.8,2.1c-0.1,0-0.4,0.2-0.3,0.4c0.6,1,1.7,0.6,2.6,0.1
			c0.6,0.4,0.3,1.5-0.4,1.6c-0.8,0.1-1.6,0.3-2.4,0c-1.7-0.8-2.1-2.7-2.1-4.3C-202.2,607.4-200.9,606.1-199.3,606.4z M-198.4,608.8
			c0.4-0.9-1-1.3-1.7-0.9c-0.7,0.4-0.5,2-0.1,2C-199.5,609.9-198.7,609.7-198.4,608.8z"/>
		<path d="M-194.9,606.8c1,0.3,0,1.6,0.5,2.3c1-0.9,1.2-3.2,3-2.5c0.1,0.1,0.3,0.3,0.3,0.3c0.2,0.7,0.1,1.4,0.3,2
			c0.8-0.9,1.8-2.4,3.2-1.9c0.4,0.3,0.3,0.8,0.3,1.3c0.3,2,0.3,4-0.4,6c-0.2,0.6-1,0.7-1.6,0.3c-0.1,0-0.2-0.3-0.1-0.6
			c0.6-1.6,0.6-3.4,0.3-5.1c0-0.3-0.3,0-0.4,0.2c-0.7,1.1-1.2,2.3-1.6,3.5c-0.3,0.5-1.3,1-1.8,0.3c-0.5-1,0.3-2.4-0.1-3.5
			c-0.7,1.2-1,2.4-1.8,3.5c-0.4,0.5-1.3,0.5-1.5,0c-0.5-1.2-0.1-2.7-0.3-4C-196.6,607.7-196.2,606.4-194.9,606.8z"/>
		<path d="M-182.6,613.6c-1.2-0.2-2.6-0.2-3.2-1.3c-0.5-0.6-0.3-1.8,0.2-2.4c1.4-1.9,3.8-1.3,3.8-1.3c0.2-0.2,0.3-1-0.1-1.1
			c-1-0.2-1.6,0.2-2.5,0.5c-0.7,0.2-0.8-1.1-0.7-1.3c1.2-0.8,3.8-1.3,4.5,0.3c0.7,1.4-0.1,2.9-0.3,4.5c-0.1,1-0.2,3.3-1.1,2.7
			C-182.3,614-182.4,613.6-182.6,613.6z M-182.1,609.8c-1,0.4-2.7,0.1-2.7,1.5c0,0.7,2.4,1.1,2.5,0.8
			C-182.2,611.3-181.8,610.7-182.1,609.8z"/>
		<path d="M-179.6,607.3c0.2-0.5,1.2-0.5,1.3,0.1c0.1,0.4-0.2,0.8-0.2,1.3c0.1,0.1,0.2,0.3,0.2,0.2c0.6-0.9,1.1-2,2.3-1.6
			c0.9,1.5,0.8,3.4,0.9,5.1c0.1,0.3,0.1,0.8-0.2,0.9c-0.4,0.1-1.1,0.3-1.2-0.2c-0.2-1.4-0.1-2.8-0.4-4.2c-0.9,0.9-1,2.2-1.6,3.4
			c-0.3,0.4-1,0.5-1.2,0c-0.2-0.6-0.1-1.4-0.1-2.2C-179.7,609.2-179.9,608.1-179.6,607.3z"/>
		<path d="M-170.5,613.6c-1.2-0.2-2.6-0.2-3.2-1.3c-0.5-0.6-0.3-1.8,0.2-2.4c1.4-1.9,3.8-1.3,3.8-1.3c0.2-0.2,0.3-1-0.1-1.1
			c-1-0.2-1.6,0.2-2.5,0.5c-0.7,0.2-0.8-1.1-0.7-1.3c1.2-0.8,3.8-1.3,4.5,0.3c0.7,1.4-0.1,2.9-0.3,4.5c-0.1,1-0.2,3.3-1.1,2.7
			C-170.2,614-170.2,613.6-170.5,613.6z M-170,609.8c-1,0.4-2.7,0.1-2.7,1.5c0,0.7,2.4,1.1,2.5,0.8
			C-170.1,611.3-169.6,610.7-170,609.8z"/>
		<path d="M-162.5,607.6c0.1,0.3-0.1,0.7-0.3,0.9c-0.9,0.5-2.1-1.5-3.3-0.7c-0.5,0.3,0.3,1.1,0.6,1.2c1,0.4,1.9,0.7,2.7,1.5
			c0.5,0.5,0.3,1.4-0.1,2c-0.9,1.5-4,2.3-5,0.2c-0.2-0.5,0.3-1,0.8-1c0.4,0,0.5,0.6,0.8,0.8c0.8,0.4,2.2,0,2.2-1
			c0-0.2-0.5-0.6-0.8-0.7c-1.1-0.5-2.4-0.8-3-1.9c-0.7-1.4,2-3,3.1-2.5C-163.9,606.6-162.9,606.8-162.5,607.6z"/>
	</g>
</g>
<path class="st4" d="M-278.2,582.8c-0.2,1.1-0.2,2.1-0.2,3.2c0,1,1.5,1,1.5,0c0-0.9,0-1.9,0.1-2.8
	C-276.7,582.3-278.1,581.8-278.2,582.8z"/>
<path class="st4" d="M-277.1,575.5c-0.2-0.9-1.7-0.5-1.4,0.4c0.3,1.2,0.1,2.4,0.1,3.6c0,1,1.5,1,1.5,0
	C-276.9,578.1-276.8,576.8-277.1,575.5z"/>
<path class="st4" d="M-278.6,569.3v2.5c0,1,1.5,1,1.5,0v-2.5C-277.1,568.4-278.6,568.4-278.6,569.3z"/>
<path class="st4" d="M-278.8,560v3.3c0,1,1.5,1,1.5,0V560C-277.3,559-278.8,559-278.8,560z"/>
<path class="st4" d="M-278.8,553.8v3c0,1,1.5,1,1.5,0v-3C-277.3,552.9-278.8,552.9-278.8,553.8z"/>
<path class="st4" d="M-278.6,547v3.2c0,1,1.5,1,1.5,0V547C-277.1,546-278.6,546-278.6,547z"/>
<path class="st4" d="M-278.9,541v2.5c0,1,1.5,1,1.5,0V541C-277.4,540-278.9,540-278.9,541z"/>
<path class="st4" d="M-277.3,536.8c-0.2-0.7-0.1-1.4-0.1-2.1c0-1-1.5-1-1.5,0c0,0.8,0,1.7,0.2,2.5
	C-278.5,538.1-277.1,537.7-277.3,536.8z"/>
<path class="st4" d="M-277.4,527.2c0-1-1.5-1-1.5,0c0,1.5-0.1,3,0.2,4.5c0.2,0.9,1.6,0.5,1.4-0.4
	C-277.6,529.9-277.4,528.5-277.4,527.2z"/>
<path class="st4" d="M-277.4,485.2c0-1-1.5-1-1.5,0c0,1.5-0.1,3,0.2,4.5c0.2,0.9,1.6,0.5,1.4-0.4
	C-277.6,487.9-277.4,486.5-277.4,485.2z"/>
<path class="st4" d="M-278.6,521.2v2.5c0,1,1.5,1,1.5,0v-2.5C-277.1,520.2-278.6,520.2-278.6,521.2z"/>
<path class="st4" d="M-277.3,513.6c-0.1-1-1.6-0.5-1.4,0.4c0.2,1.1,0.2,2.1,0.3,3.2c0.1,1,1.6,0.5,1.4-0.4
	C-277.1,515.8-277.1,514.7-277.3,513.6z"/>
<path class="st4" d="M-277.5,507c-0.3-0.9-1.7-0.5-1.4,0.4c0.3,1,0.3,2.1,0.5,3.1c0.1,0.9,1.6,1,1.5,0
	C-277.1,509.3-277.1,508.1-277.5,507z"/>
<path class="st4" d="M-277,503.3c-0.2-0.7-0.1-1.5-0.1-2.3c0-1-1.5-1-1.5,0c0,0.9,0,1.8,0.2,2.7C-278.2,504.6-276.7,504.2-277,503.3
	z"/>
<path class="st4" d="M-277.1,494c0-1-1.5-1-1.5,0c0,1.1,0,2.2,0.2,3.4c0.1,1,1.6,0.5,1.4-0.4C-277.1,496-277.1,495-277.1,494z"/>
<path class="st4" d="M-278.3,470.8v3.8c0,1,1.5,1,1.5,0v-3.8C-276.8,469.9-278.3,469.9-278.3,470.8z"/>
<path class="st4" d="M-278.4,464.5v2.5c0,1,1.5,1,1.5,0v-2.5C-276.9,463.5-278.4,463.5-278.4,464.5z"/>
<path class="st4" d="M-278.4,479.5v2.5c0,1,1.5,1,1.5,0v-2.5C-276.9,478.5-278.4,478.5-278.4,479.5z"/>
<path class="st4" d="M-278.2,457.3c-0.3,1.2-0.4,2.5-0.2,3.7c0.1,0.9,1.6,1,1.5,0c-0.1-1.1-0.1-2.2,0.1-3.3
	C-276.5,456.8-278,456.4-278.2,457.3z"/>
<path class="st4" d="M-277.9,451.7c0,0.8,0,1.5-0.1,2.3c-0.2,0.9,1.3,1.3,1.4,0.4c0.2-0.9,0.2-1.8,0.2-2.7
	C-276.4,450.7-277.9,450.7-277.9,451.7z"/>
<path class="st4" d="M-278.3,445.8v1.7c0,1,1.5,1,1.5,0v-1.7C-276.8,444.9-278.3,444.9-278.3,445.8z"/>
<path class="st4" d="M-278.2,438c-0.2,1.1-0.2,2.2-0.2,3.4c0,1,1.5,1,1.5,0c0-1,0-2,0.1-3C-276.7,437.4-278.1,437-278.2,438z"/>
<path class="st4" d="M-276.6,430.8c0-0.3-0.1-0.5-0.3-0.6v-2.1c0-1-1.5-1-1.5,0v5.3c0,0.9,1.3,1,1.5,0.2c0.1-0.1,0.2-0.3,0.2-0.5
	C-276.8,432.4-276.6,431.6-276.6,430.8z"/>
<path class="st4" d="M-277.3,591.8c0-1-1.5-1-1.5,0v6.3c0,0.5,0.4,0.7,0.8,0.7c0.5,0.1,1.1-0.3,1-0.9
	C-277.3,595.9-277.3,593.9-277.3,591.8z"/>
<g>
	<g class="st0">
		<path d="M-253.6,419.8c0.9-0.8,2.1-2.1,3.4-1.5c0.2,0.1,0.3,0.3,0.2,0.7c-0.4,1-1.3,1-2.1,1.6c-0.7,0.5-1.3,1.2-1.3,2
			c0,0.5,0.1,1.1,0.4,1.6c0.4,0.6,1,0.6,1.6,0.9c0.9,0.3,1.5-0.9,2.2-0.9c0.7-0.1,0.3,1,0.1,1.3c-0.8,1.3-2.4,1.1-3.7,0.7
			c-1.6-0.5-2.4-2-2.1-3.7C-254.8,421.3-254.3,420.5-253.6,419.8z"/>
		<path d="M-248.3,421.2c0.3-1,0.9-1.4,1.1-1.9c0.4-0.9,1.6-0.6,2.2,0.1c0.4,0.5,0.7,1.1,0.8,1.7c0.4,1.3-0.3,2.5-1.2,3.4
			c-0.4,0.4-1.3,0.4-1.7,0.2C-248.2,423.9-248.7,422.5-248.3,421.2z M-246,420.6c-0.4-0.4-2.2,2-0.4,2.4
			C-245.2,423.2-245.1,421.6-246,420.6z"/>
		<path d="M-242.2,419.8c1,0.3,0,1.6,0.5,2.3c1-0.9,1.2-3.2,3-2.5c0.1,0.1,0.3,0.3,0.3,0.3c0.2,0.7,0.1,1.4,0.3,2
			c0.8-0.9,1.8-2.4,3.2-1.9c0.4,0.3,0.3,0.8,0.3,1.3c0.3,2,0.3,4-0.4,6c-0.2,0.6-1,0.7-1.6,0.3c-0.1,0-0.2-0.3-0.1-0.6
			c0.6-1.6,0.6-3.4,0.3-5.1c0-0.3-0.3,0-0.4,0.2c-0.7,1.1-1.2,2.3-1.6,3.5c-0.3,0.5-1.3,1-1.8,0.3c-0.5-1,0.3-2.4-0.1-3.5
			c-0.7,1.2-1,2.4-1.8,3.5c-0.4,0.5-1.3,0.5-1.5,0c-0.5-1.2-0.1-2.7-0.3-4C-243.8,420.7-243.5,419.4-242.2,419.8z"/>
		<path d="M-230.3,418.4c1.5-1.9,4-1.9,6.1-2.4c0.5-0.1,1,0.2,1.1,0.6c0.2,0.5-0.4,0.8-0.7,0.9c-1.3,0.5-2.7,0.3-3.9,0.9
			c-0.2,0.1-0.4,0.3-0.3,0.5c1.4,2.1,5.2,2.9,4.5,5.7c-0.6,2.4-4.2,2.8-6.3,1.9c-1-0.4-0.4-1.7,0.5-2c0.5-0.1,0.5,0.6,0.8,0.7
			c0.4,0.1,0.7,0,1.1,0.2c0.7,0.4,1.4-0.1,2-0.4c0.4-0.3,0.4-0.7,0.2-1.1c-1.3-1.7-3.2-2.3-4.6-4
			C-230.2,419.2-230.7,418.8-230.3,418.4z"/>
		<path d="M-219.2,426.6c-1.2-0.2-2.6-0.2-3.2-1.3c-0.5-0.6-0.3-1.8,0.2-2.4c1.4-1.9,3.8-1.3,3.8-1.3c0.2-0.2,0.3-1-0.1-1.1
			c-1-0.2-1.6,0.2-2.5,0.5c-0.7,0.2-0.8-1.1-0.7-1.3c1.2-0.8,3.8-1.3,4.5,0.3c0.7,1.4-0.1,2.9-0.3,4.5c-0.1,1-0.2,3.3-1.1,2.7
			C-219,427-219,426.6-219.2,426.6z M-218.8,422.8c-1,0.4-2.7,0.1-2.7,1.5c0,0.7,2.4,1.1,2.5,0.8
			C-218.8,424.3-218.4,423.7-218.8,422.8z"/>
		<path d="M-216.2,416.5c0.3-0.7,1.6-0.8,1.7,0.2c0,0.2-0.1,0.5-0.1,0.7c0,1.2,0.1,2.5,0,3.6c-0.1,1.9,0.4,3.7-0.3,5.4
			c-0.2,0.5-0.8,0.5-1.3,0.3c-0.3-0.2-0.4-0.6-0.3-0.9c0.5-1.7,0.3-3.4,0.4-5.2C-216,419.2-216.8,417.7-216.2,416.5z"/>
		<path d="M-210.4,419.4c1.3,0.2,2.5,1.5,2.5,2.9c-0.3,0.8-2.2,1.5-2.8,2.1c-0.1,0-0.4,0.2-0.3,0.4c0.6,1,1.7,0.6,2.6,0.1
			c0.6,0.4,0.3,1.5-0.4,1.6c-0.8,0.1-1.6,0.3-2.4,0c-1.7-0.8-2.1-2.7-2.1-4.3C-213.3,420.4-212.1,419.1-210.4,419.4z M-209.6,421.8
			c0.4-0.9-1-1.3-1.7-0.9c-0.7,0.4-0.5,2-0.1,2C-210.7,422.9-209.9,422.7-209.6,421.8z"/>
		<path d="M-207.7,418.4c1.5-1.9,4-1.9,6.1-2.4c0.5-0.1,1,0.2,1.1,0.6c0.2,0.5-0.4,0.8-0.7,0.9c-1.3,0.5-2.7,0.3-3.9,0.9
			c-0.2,0.1-0.4,0.3-0.3,0.5c1.4,2.1,5.2,2.9,4.5,5.7c-0.6,2.4-4.2,2.8-6.3,1.9c-1-0.4-0.4-1.7,0.5-2c0.5-0.1,0.5,0.6,0.8,0.7
			c0.4,0.1,0.7,0,1.1,0.2c0.7,0.4,1.4-0.1,2-0.4c0.4-0.3,0.4-0.7,0.2-1.1c-1.3-1.7-3.2-2.3-4.6-4
			C-207.5,419.2-208.1,418.8-207.7,418.4z"/>
		<path d="M-199.4,420.6c0.2-0.4,0.8-0.6,1.3-0.4c0.3,0.1,0.7,0.5,0.4,0.8c-0.5,0.7-0.2,1.5-0.4,2.2c-0.3,0.8,0.2,1.6,0,2.4
			c0,0.1-0.1,0.2-0.2,0.2c-0.5,0.2-1.2,0.2-1.3-0.3c-0.3-1-0.1-2-0.1-3C-199.7,421.9-199.7,421.2-199.4,420.6z M-199,417.5
			c0.5-0.3,1.2-0.3,1.5,0.2c0.3,0.5-0.2,1.2-0.5,1.4c-0.4,0.2-0.9,0.1-1.3-0.3C-199.6,418.4-199.3,417.6-199,417.5z"/>
		<path d="M-195.4,419.8c1,0.3,0,1.6,0.5,2.3c1-0.9,1.2-3.2,3-2.5c0.1,0.1,0.3,0.3,0.3,0.3c0.2,0.7,0.1,1.4,0.3,2
			c0.8-0.9,1.8-2.4,3.2-1.9c0.4,0.3,0.3,0.8,0.3,1.3c0.3,2,0.3,4-0.4,6c-0.2,0.6-1,0.7-1.6,0.3c-0.1,0-0.2-0.3-0.1-0.6
			c0.6-1.6,0.6-3.4,0.3-5.1c0-0.3-0.3,0-0.4,0.2c-0.7,1.1-1.2,2.3-1.6,3.5c-0.3,0.5-1.3,1-1.8,0.3c-0.5-1,0.3-2.4-0.1-3.5
			c-0.7,1.2-1,2.4-1.8,3.5c-0.4,0.5-1.3,0.5-1.5,0c-0.5-1.2-0.1-2.7-0.3-4C-197.1,420.7-196.8,419.4-195.4,419.8z"/>
	</g>
</g>
<path class="st1" d="M-200,474.1c-6.6-8-20.7-10.6-30.6-6.6c-8.7,2-17.1,8.4-20.5,16.7c-3.8,9.1,0.5,20.7,5.7,28.3
	c4.7,7,12,11.5,20.1,11.2c0.9,2.9,2,5.7,3.2,8.6c0.5,1.1,2,0.8,2.6,0c2.1-3,3.8-6.2,4.9-9.6c3.5-0.4,6.9-1.3,9.9-2.7
	c8.8-4,12.9-14.6,14-23.5C-189.4,486.5-193.4,478.9-200,474.1z M-237.8,478.4c-0.1-0.1-0.2-0.1-0.3-0.2c0.4-0.4,0.8-0.8,1.2-1.2
	C-237.2,477.5-237.5,478-237.8,478.4z M-204.1,516.1c0.5-0.6,1-1.3,1.5-1.9c0.2,0.1,0.4,0.2,0.6,0.2
	C-202.7,515.1-203.4,515.6-204.1,516.1z M-197.1,508c0.1-0.4,0.1-0.8,0-1.2c0.3-0.2,0.6-0.3,0.8-0.5
	C-196.5,506.8-196.8,507.4-197.1,508z M-196.9,502.9c0.5-0.9,0.9-1.8,1.3-2.7c0.2-0.5,0.2-0.9,0.1-1.2c0.1-0.2,0.2-0.4,0.4-0.7
	C-195.3,500.1-195.9,501.7-196.9,502.9z"/>
<g class="st0">
	<path class="st5" d="M-242.2,492.7c0.1-0.8,0.3-1.3,0.7-1.4c0.3-0.2,0.3-0.2,0.7,0c0.2,0,0.4,0.2,0.5,0.4c0.1,0.2,0.3,1.5,0.3,2.2
		c0,0.1,0.2,0.1,1.1,0.1c1.2-0.1,1.5,0,1.5,0.5c0,0.4-0.3,0.5-1.5,0.6c-1.1,0.1-1.1,0.1-1,0.7c0.1,1.4,0.2,2.1,0.1,2.4
		c-0.1,0.5-1.2,0.7-1.7,0.4c-0.4-0.2-0.5-0.5-0.6-1.9c0-0.8-0.1-1.2-0.1-1.2c-0.1,0-0.5,0-0.9,0.1c-1.3,0.2-2,0.1-2-0.4
		c0-0.4,0.6-0.6,2.1-0.8c0.6-0.1,0.6-0.1,0.7-0.6C-242.2,493.4-242.2,493-242.2,492.7z"/>
	<path class="st5" d="M-236,486.9c0.3-0.1,0.7-0.3,1.1-0.6c0.4-0.3,0.6-0.3,1.2-0.3c0.7,0,0.9,0,1.2,0.3c0.4,0.4,0.4,0.3,0.4,4.3
		c0,5.7-0.5,10.4-1,11.1c-0.6,0.7-1.7,0.6-2.1-0.1c-0.3-0.5-0.2-0.9-0.1-4.3c0-2.2,0.1-5,0.1-6.5c0.1-2.5,0.1-2.5-0.4-2.5
		C-236.8,488.2-237.1,487.4-236,486.9z"/>
	<path class="st5" d="M-229.4,486.6c0.5-0.5,0.9-0.7,1.4-1c0.3-0.1,0.8-0.1,1.3-0.1c0.9-0.1,1.1,0,1.6,0.4c0.2,0.1,0.3,0.2,0.4,0.2
		c0.3,0,1.3,0.5,1.6,0.9c0.9,1,1.1,2.6,0.3,3.7c-0.2,0.4-0.9,1-1.1,1c-0.2,0,0,0.2,0.3,0.5c0.7,0.4,1.7,1.4,2,2.1
		c0.8,1.3,0.9,2.6,0.3,3.8c-0.2,0.5-0.8,1.6-1,1.9c-1.6,1.7-2.8,2.4-4.4,2.5c-2.3,0.2-4.3-1.4-4.6-3.7c-0.1-0.5-0.2-1-0.2-1.3
		c0-1.1,0.4-2.6,0.7-3.5c0.3-0.5,1-1.6,1.3-1.7c0.3-0.3,0.3-0.3-0.1-0.6c-0.6-0.4-1-1-1.2-1.8c-0.1-0.6-0.1-0.7,0-1.4
		C-230.4,487.9-230,487.1-229.4,486.6z M-223.5,496.6c0-1.4-0.7-2.4-2.3-3.3c-0.5-0.3-0.9-0.5-1-0.5c-0.2,0-0.6,0.5-0.7,0.7
		c0,0.2-0.1,0.2-0.2,0.2c0,0-0.1,0.1-0.1,0.2c0,0,0,0.2-0.1,0.4c-0.3,0.6-0.7,2.2-0.7,3.2s0.3,2.2,0.7,2.6c0.1,0.1,0.2,0.3,0.3,0.4
		c0.2,0.3,0.6,0.6,0.8,0.6c0.5,0,1.7-1.1,2.3-2c0.2-0.2,0.3-0.6,0.4-0.9c0.2-0.3,0.3-0.5,0.4-0.6
		C-223.6,497.3-223.5,497-223.5,496.6z M-225.9,487.6c-0.5-0.2-1.1-0.4-1.1-0.5c0-0.3-0.5,0.3-0.7,0.8c-0.3,0.7-0.3,1.4-0.2,1.9
		c0.2,0.5,0.3,0.7,0.8,1c0.3,0.2,0.6,0.2,1,0c0.7-0.4,1.1-1.1,1.1-1.8C-225,488.3-225.4,487.8-225.9,487.6z"/>
	<path class="st5" d="M-217.9,486.6c0.5-0.5,0.9-0.7,1.4-1c0.3-0.1,0.8-0.1,1.3-0.1c0.9-0.1,1.1,0,1.6,0.4c0.2,0.1,0.3,0.2,0.4,0.2
		c0.3,0,1.3,0.5,1.6,0.9c0.9,1,1.1,2.6,0.3,3.7c-0.2,0.4-0.9,1-1.1,1s0,0.2,0.3,0.5c0.7,0.4,1.7,1.4,2,2.1c0.8,1.3,0.9,2.6,0.3,3.8
		c-0.2,0.5-0.8,1.6-1,1.9c-1.6,1.7-2.8,2.4-4.4,2.5c-2.3,0.2-4.3-1.4-4.6-3.7c-0.1-0.5-0.2-1-0.2-1.3c0-1.1,0.4-2.6,0.7-3.5
		c0.3-0.5,1-1.6,1.3-1.7c0.3-0.3,0.3-0.3-0.1-0.6c-0.6-0.4-1-1-1.2-1.8c-0.1-0.6-0.1-0.7,0-1.4
		C-218.9,487.9-218.5,487.1-217.9,486.6z M-212.1,496.6c0-1.4-0.7-2.4-2.3-3.3c-0.5-0.3-0.9-0.5-1-0.5c-0.2,0-0.6,0.5-0.7,0.7
		c0,0.2-0.1,0.2-0.2,0.2c0,0-0.1,0.1-0.1,0.2c0,0,0,0.2-0.1,0.4c-0.3,0.6-0.7,2.2-0.7,3.2s0.3,2.2,0.7,2.6c0.1,0.1,0.2,0.3,0.3,0.4
		c0.2,0.3,0.6,0.6,0.8,0.6c0.5,0,1.7-1.1,2.3-2c0.2-0.2,0.3-0.6,0.4-0.9c0.2-0.3,0.3-0.5,0.4-0.6
		C-212.2,497.3-212.1,497-212.1,496.6z M-214.5,487.6c-0.5-0.2-1.1-0.4-1.1-0.5c0-0.3-0.5,0.3-0.7,0.8c-0.3,0.7-0.3,1.4-0.2,1.9
		c0.2,0.5,0.3,0.7,0.8,1c0.3,0.2,0.6,0.2,1,0c0.7-0.4,1.1-1.1,1.1-1.8C-213.6,488.3-213.9,487.8-214.5,487.6z"/>
	<path class="st5" d="M-208,487.4c0.1-0.3,0.3-0.5,0.6-0.7c0.6-0.4,0.6-0.4,1.3-0.4c1.3,0,2.4,0.5,2.7,1.2c0.2,0.8-0.4,1.9-1.2,2.4
		c-0.4,0.3-0.5,0.2-1.4,0.2c-1.1,0-1.3-0.1-1.9-0.5c-0.4-0.3-0.6-1.2-0.5-1.6C-208.2,487.9-208.2,487.6-208,487.4z M-202.5,488.5
		c0.5-1,1.3-2.2,1.7-2.4c0.3-0.2,0.8-0.2,1.1,0.1c0.2,0.2,0.2,0.5-0.2,1.4c-0.3,0.7-1.1,2.8-1.8,4.2c-0.1,0.3-0.3,0.5-0.3,0.6
		c0,0.2-0.2,0.5-0.3,0.7c-0.1,0.3-0.2,0.6-0.2,0.6s-0.1,0.2-0.2,0.3c-0.2,0.3-0.6,1.6-0.9,2.2c-0.1,0.3-0.3,0.7-0.4,1.1
		c-0.1,0.4-0.4,1.3-0.6,2c-0.3,0.6-0.4,1.2-0.5,1.3c0,0.1-0.1,0.3-0.2,0.6c-0.3,0.8-0.7,1.1-1.5,1.1c-0.6,0-0.9-0.3-0.9-0.7
		c-0.1-0.3,0.1-0.8,0.2-1.2c0.1-0.2,0.2-0.4,0.3-0.7c0.1-0.3,0.1-0.5,0.2-0.7c0.1-0.2,0.1-0.3,0.1-0.3c0-0.1,1-2.7,1.3-3.3
		c0.1-0.3,0.3-0.6,0.3-0.7c0.1-0.2,0.2-0.3,0.3-0.4c0-0.1,0.1-0.3,0.2-0.4c0.1-0.3,0.1-0.5,0.2-0.6c0.1-0.2,0.3-0.6,0.5-1
		c0.5-1.3,0.6-1.5,1-2.4c0.3-0.4,0.4-0.8,0.5-0.9C-202.7,488.8-202.6,488.7-202.5,488.5z M-205.7,488.6c0.3-0.4,0.3-0.9,0.2-1
		c0,0-0.2-0.1-0.4-0.2c-0.3,0-0.3,0-0.4,0.3c-0.2,0.3-0.3,1,0,1.1C-206.1,489-205.9,488.9-205.7,488.6z M-202.6,498.3
		c0.3-0.2,1.2-0.6,1.5-0.6c0.3-0.2,0.3-0.2,0.8,0c0.3,0.1,0.5,0.1,0.9,0.6c0.4,0.4,0.6,0.6,0.7,1.1c0.2,0.6,0.2,0.6,0,1
		c-0.2,0.6-0.5,0.9-1.1,1.2c-0.5,0.2-0.6,0.2-1.2,0.2c-1.9,0-2.8-0.9-2.5-2.2C-203.4,499.1-202.9,498.5-202.6,498.3z M-200.6,500.2
		c0.3-0.3,0.2-0.3,0.1-0.7c-0.1-0.2-0.2-0.4-0.4-0.5c-0.2-0.3-0.2-0.3-0.3,0c-0.3,0.3-0.4,0.6-0.4,0.9c0,0.4,0.2,0.6,0.6,0.6
		C-200.8,500.5-200.8,500.5-200.6,500.2z"/>
</g>
<g>
	<path class="st6" d="M-267.4,608c0-0.3-0.2-0.4-0.4-0.3c-2.9-1.9-6-3.4-9-5c0,0,0,0,0,0c0-0.5-0.7-0.5-0.7,0
		c0,3.7,0.2,7.4,0.2,11.1c0,0.1,0.1,0.2,0.1,0.3c0,0.1,0,0.2,0.2,0.3c2.9,1.6,6,2.9,8.6,5c0.1,0,0.1,0.1,0.2,0.1
		c0.1,0.4,0.7,0.4,0.7-0.1c-0.1-2,0-4-0.1-5.9c0-0.1,0.1-0.1,0.1-0.2C-267.6,611.5-267.5,609.8-267.4,608z"/>
	<path class="st7" d="M-278.2,613.1c-0.5-3.2,0.1-6.4-0.2-9.6c0,0,0-0.1,0-0.1c0,0,0,0,0,0c0.4-0.3-0.2-0.8-0.5-0.5
		c-2.6,2.1-5.9,3.6-8.7,5.2c0,0-0.1,0.1-0.1,0.1c-0.1,0-0.2,0.1-0.3,0.2c-0.1,0.1-0.2,0.2-0.2,0.3c0,0.2,0.1,0.3,0.1,0.5v10
		c0,0.4,0.6,0.5,0.7,0.1c0.1,0,0.1,0,0.2-0.1c2.6-2.1,5.6-3.7,8.4-5.5c0.1-0.1,0.1-0.1,0.2-0.2
		C-278.5,613.6-278.2,613.4-278.2,613.1z"/>
	<path class="st8" d="M-268.7,620c-1.1-0.9-2.5-1.4-3.8-2c-1.8-0.8-3.3-2.2-5.1-3.1c-0.1,0-0.1,0-0.2,0c-0.1-0.1-0.3-0.2-0.5-0.1
		c-0.1,0-0.1,0.1-0.1,0.2c-0.1,0-0.2,0-0.3,0c-2.6,1.7-5.3,3.2-8.1,4.7c-0.1,0.1-0.2,0.2-0.2,0.3c-0.3,0-0.5,0.5-0.2,0.7
		c3,1.7,6.1,3.4,8.9,5.4c0.2,0.2,0.5,0,0.5-0.2c0.1,0.1,0.2,0.1,0.3,0c2.7-1.9,6-2.8,8.4-5.1c0.1-0.1,0.1-0.1,0.1-0.2
		C-268.6,620.5-268.4,620.2-268.7,620z"/>
	<path class="st9" d="M-270.6,609.9c-1.9-2-4.9-2.5-7.2-4c-0.1-0.1-0.2-0.1-0.3,0c-0.1,0-0.1,0-0.2,0c-2.1,1.1-4.1,2.5-6.2,3.5
		c-0.1,0-0.1,0.1-0.1,0.1c-0.1,0-0.1,0-0.2,0c-0.5-0.1-0.7,0.6-0.2,0.7c0.2,0,0.4,0.1,0.6,0.2c0,0,0.1,0.1,0.1,0.1
		c0.7,0.3,1.4,0.6,2.1,0.9c1.3,0.8,2.5,1.8,3.9,2.3c0,0,0,0,0,0c0.1,0.1,0.1,0.1,0.2,0.1c0,0,0,0,0,0c0.1,0.1,0.1,0.1,0.2,0.2
		c0,0.2,0.3,0.4,0.5,0.3c2.1-1.2,4.1-2.6,6.2-3.9c0,0,0,0,0,0C-270.8,610.7-270.3,610.2-270.6,609.9z"/>
	<path class="st9" d="M-285.2,610.7c-0.7,2.7,0.5,5.5,0.3,8.2c0,0.1,0,0.2,0.1,0.3c0,0.1,0.1,0.1,0.1,0.1c2.1,1.2,4.2,2.2,6.3,3.5
		c0.1,0,0.1,0.1,0.2,0.1c0,0.1,0,0.1,0.1,0.2c0.2,0.4,0.9,0.2,0.7-0.2c-0.1-0.2-0.1-0.4-0.2-0.6c0,0,0-0.1,0-0.2
		c-0.1-0.8-0.2-1.5-0.3-2.3c0-1.5,0.2-3-0.1-4.6c0,0,0,0,0,0c0-0.1,0-0.2-0.1-0.2c0,0,0,0,0,0c0-0.1,0-0.2,0-0.3
		c0.2-0.2,0.2-0.5-0.1-0.6c-2.1-1.1-4.4-2.1-6.5-3.2c0,0,0,0,0,0C-284.3,610.4-285.1,610.2-285.2,610.7z"/>
	<path class="st9" d="M-276.9,623.3c2.6-0.8,4.4-3.4,6.7-4.7c0.1-0.1,0.2-0.2,0.2-0.2c0-0.1,0.1-0.1,0-0.2c-0.1-2.4-0.4-4.8-0.5-7.2
		c0-0.1,0-0.1-0.1-0.2c0-0.1,0.1-0.1,0.1-0.1c0.3-0.4-0.3-0.9-0.6-0.5c-0.1,0.2-0.3,0.3-0.4,0.5c0,0-0.1,0-0.1,0.1
		c-0.6,0.5-1.2,1-1.8,1.5c-1.3,0.8-2.7,1.5-3.8,2.5c0,0,0,0,0,0c-0.1,0-0.1,0.1-0.1,0.2c0,0,0,0,0,0c-0.1,0-0.2,0.1-0.3,0.1
		c-0.2,0-0.5,0.1-0.5,0.4c0.2,2.4,0.6,4.8,0.8,7.2c0,0,0,0,0,0C-277.6,622.8-277.3,623.5-276.9,623.3z"/>
</g>
<path class="st1" d="M-176.4,550.7c-10.8,2.9-21.9,3.8-32.8,6.3c-10.3-2.4-20.3-6.1-30.7-8.3c0,0,0,0-0.1,0
	c-7.2-3.3-14.4-7.1-22.3-8.3c-1-0.1-1.6,0.5-1.8,1.2c-0.3,0-0.7,0.1-1,0.5c-9.5,10.6-21.1,19-29.8,30.3c-8.4,0.7-16.7,1.2-25.1,1.3
	c-0.7,0-1.2,0.5-1.4,1c-7.2,3.2-13.6,7.9-20.7,11.4c-9.3-2.4-18.3-5.8-27.6-8.5c-0.6,0.2-1.2,0.3-1.8,0.4c-0.1,0.1-0.1,0.2-0.2,0.3
	c-4.3,1.1-8.5,2.4-12.8,3.5c-1.9,0.5-1.1,3.4,0.8,2.9c4.5-1.1,8.9-2.5,13.3-3.7c0.3-0.1,0.5-0.2,0.6-0.3c9,2.7,17.8,6,26.9,8.3
	c0.3,0.1,0.6,0.1,0.9,0c0.3,0.1,0.6,0,1-0.1c7.3-3.5,13.9-8.4,21.3-11.7c0.3-0.1,0.5-0.3,0.6-0.5c7.7-0.1,15.5-0.6,23.2-1.2
	c0.6,0.6,1.8,0.7,2.4-0.2c8.7-11.7,20.7-20.2,30.4-31c0.2-0.3,0.4-0.6,0.4-0.9c7.6,1.3,14.5,5,21.5,8.1c0,0,0,0,0,0
	c0.2,0.1,0.4,0.2,0.6,0.3c0.3,0.2,0.7,0.2,1,0.1c10.5,2.3,20.6,6.1,31.1,8.4c0.8,0.2,1.3-0.2,1.6-0.7c10.3-2.2,20.9-3.2,31.2-5.9
	C-173.8,553.1-174.5,550.2-176.4,550.7z"/>
</svg>
